<svg width="22" height="23" viewBox="0 0 22 23" fill="none" xmlns="http://www.w3.org/2000/svg">
<path d="M16.45 4H4.55C3.8737 4 3.2251 4.29632 2.74688 4.82376C2.26866 5.35121 2 6.06658 2 6.8125V16.1875C2 16.9334 2.26866 17.6488 2.74688 18.1762C3.2251 18.7037 3.8737 19 4.55 19H16.45C17.1263 19 17.7749 18.7037 18.2531 18.1762C18.7313 17.6488 19 16.9334 19 16.1875V6.8125C19 6.06658 18.7313 5.35121 18.2531 4.82376C17.7749 4.29632 17.1263 4 16.45 4ZM4.55 5.875H16.45C16.6754 5.875 16.8916 5.97377 17.051 6.14959C17.2104 6.3254 17.3 6.56386 17.3 6.8125L10.5 11.3875L3.7 6.8125C3.7 6.56386 3.78955 6.3254 3.94896 6.14959C4.10837 5.97377 4.32457 5.875 4.55 5.875ZM17.3 16.1875C17.3 16.4361 17.2104 16.6746 17.051 16.8504C16.8916 17.0262 16.6754 17.125 16.45 17.125H4.55C4.32457 17.125 4.10837 17.0262 3.94896 16.8504C3.78955 16.6746 3.7 16.4361 3.7 16.1875V8.95L10.058 13.2344C10.1872 13.3167 10.3338 13.36 10.483 13.36C10.6322 13.36 10.7788 13.3167 10.908 13.2344L17.3 8.95V16.1875Z" fill="#0399A3"/>
</svg>
