<svg width="27" height="27" viewBox="0 0 27 27" fill="none" xmlns="http://www.w3.org/2000/svg">
<g clip-path="url(#clip0_70_156)">
<path d="M25.9804 11.1527L14.9674 11.1522C14.4811 11.1522 14.0869 11.5464 14.0869 12.0327V15.5508C14.0869 16.0371 14.4811 16.4313 14.9674 16.4313H21.1692C20.4901 18.1937 19.2226 19.6697 17.6054 20.6075L20.2499 25.1854C24.492 22.732 26.9999 18.4273 26.9999 13.6086C26.9999 12.9225 26.9493 12.432 26.8482 11.8797C26.7713 11.4601 26.407 11.1527 25.9804 11.1527Z" fill="#167EE6"/>
<path d="M13.4998 21.7174C10.4647 21.7174 7.81515 20.0591 6.39211 17.6053L1.81445 20.2438C4.14399 24.2812 8.50798 27 13.4998 27C15.9486 27 18.2593 26.3407 20.2498 25.1917V25.1854L17.6053 20.6075C16.3957 21.3091 14.9959 21.7174 13.4998 21.7174Z" fill="#12B347"/>
<path d="M20.25 25.1916V25.1853L17.6055 20.6074C16.3959 21.309 14.9962 21.7173 13.5 21.7173V27C15.9488 27 18.2596 26.3406 20.25 25.1916Z" fill="#0F993E"/>
<path d="M5.28261 13.5001C5.28261 12.0041 5.69088 10.6044 6.3923 9.39487L1.81464 6.75636C0.659285 8.7406 0 11.045 0 13.5001C0 15.9552 0.659285 18.2596 1.81464 20.2438L6.3923 17.6053C5.69088 16.3957 5.28261 14.9961 5.28261 13.5001Z" fill="#FFD500"/>
<path d="M13.4998 5.28261C15.479 5.28261 17.2969 5.98588 18.7169 7.15569C19.0672 7.44425 19.5764 7.42342 19.8973 7.10253L22.39 4.60978C22.7541 4.2457 22.7282 3.64975 22.3393 3.31235C19.9601 1.24838 16.8646 0 13.4998 0C8.50797 0 4.14399 2.71883 1.81445 6.75628L6.39211 9.39479C7.81515 6.9409 10.4647 5.28261 13.4998 5.28261Z" fill="#FF4B26"/>
<path d="M18.7171 7.15569C19.0674 7.44425 19.5766 7.42342 19.8975 7.10253L22.3902 4.60978C22.7543 4.2457 22.7283 3.64975 22.3395 3.31235C19.9603 1.24833 16.8648 0 13.5 0V5.28261C15.4791 5.28261 17.2971 5.98588 18.7171 7.15569Z" fill="#D93F21"/>
</g>
<defs>
<clipPath id="clip0_70_156">
<rect width="27" height="27" fill="white"/>
</clipPath>
</defs>
</svg>
