<svg width="17" height="16" viewBox="0 0 17 16" fill="none" xmlns="http://www.w3.org/2000/svg">
<path d="M7.4292 4.08594L5.13386 0.485625C5.03948 0.337519 4.90596 0.214943 4.74629 0.129839C4.58662 0.0447341 4.40626 2.12039e-06 4.22276 0H0.532224C0.102242 0 -0.149439 0.455313 0.0969294 0.786875L3.79145 5.75437C4.77825 4.88656 6.03333 4.29094 7.4292 4.08594ZM16.4678 0H12.7772C12.404 0 12.0581 0.184375 11.8661 0.485625L9.5708 4.08594C10.9667 4.29094 12.2218 4.88656 13.2085 5.75406L16.9031 0.786875C17.1494 0.455313 16.8978 0 16.4678 0ZM8.5 5C5.27265 5 2.65623 7.4625 2.65623 10.5C2.65623 13.5375 5.27265 16 8.5 16C11.7274 16 14.3438 13.5375 14.3438 10.5C14.3438 7.4625 11.7274 5 8.5 5ZM11.572 9.91438L10.3126 11.0694L10.6104 12.7013C10.6635 12.9937 10.3361 13.2172 10.0576 13.0791L8.5 12.3088L6.94277 13.0791C6.66386 13.2181 6.33681 12.9934 6.38994 12.7013L6.68777 11.0694L5.42837 9.91438C5.20192 9.70687 5.3271 9.34469 5.63921 9.30219L7.38006 9.06344L8.15801 7.57844C8.22807 7.44469 8.36354 7.37875 8.49934 7.37875C8.6358 7.37875 8.77227 7.44562 8.84233 7.57844L9.62028 9.06344L11.3611 9.30219C11.6732 9.34469 11.7984 9.70687 11.572 9.91438Z" fill="#BA68C8"/>
</svg>
