<svg width="329" height="350" viewBox="0 0 329 350" fill="none" xmlns="http://www.w3.org/2000/svg">
<path d="M50.2526 236.684C50.2526 236.684 54.0408 212.549 45.6251 191.793C37.2094 171.037 25.8661 169.757 19.9898 172.706C14.1136 175.655 17.8912 187.166 23.1378 194.899C30.1264 205.046 41.6691 226.894 41.2913 246.516L50.2526 236.684Z" fill="#BA68C8"/>
<path opacity="0.2" d="M50.2526 236.684C50.2526 236.684 54.0408 212.549 45.6251 191.793C37.2094 171.037 25.8661 169.757 19.9898 172.706C14.1136 175.655 17.8912 187.166 23.1378 194.899C30.1264 205.046 41.6691 226.894 41.2913 246.516L50.2526 236.684Z" fill="black"/>
<path d="M46.475 238.216C46.3808 238.213 46.2882 238.192 46.2025 238.153C46.1168 238.113 46.0398 238.057 45.9762 237.988C45.9126 237.918 45.8636 237.837 45.8321 237.748C45.8006 237.659 45.7873 237.565 45.793 237.471C47.1781 204.427 30.672 179.757 23.5471 174.952C23.4692 174.899 23.4024 174.832 23.3505 174.754C23.2986 174.676 23.2627 174.588 23.2446 174.496C23.2266 174.404 23.2269 174.309 23.2455 174.217C23.2641 174.125 23.3006 174.038 23.3529 173.96C23.4053 173.882 23.4725 173.815 23.5507 173.763C23.6288 173.711 23.7165 173.675 23.8086 173.657C23.9006 173.639 23.9954 173.64 24.0873 173.658C24.1793 173.677 24.2667 173.713 24.3446 173.766C32.7392 179.369 48.6052 204.595 47.2096 237.534C47.2069 237.627 47.1857 237.719 47.1471 237.804C47.1086 237.889 47.0536 237.965 46.9852 238.029C46.9168 238.092 46.8365 238.141 46.7489 238.174C46.6613 238.206 46.5682 238.22 46.475 238.216Z" fill="white"/>
<path d="M48.7626 265.341C47.325 261.731 43.6104 257.702 34.0719 253.4C24.5334 249.097 17.356 243.358 16.0339 239.202C15.636 238.054 15.584 236.815 15.8843 235.638C16.1847 234.461 16.8241 233.398 17.7233 232.581C17.7233 232.581 8.73047 231.532 7.59719 226.023C6.18059 219.076 14.0401 218.625 14.0401 218.625C14.0401 218.625 3.72515 204.102 0.986387 197.638C-1.75238 191.174 1.40612 190.786 8.0589 193.252C14.7117 195.718 27.3876 208.131 29.3499 211.92C29.3499 211.92 32.7812 207.722 36.4749 210.482C40.1685 213.242 40.3469 221.5 38.1643 224.48C39.6362 224.206 41.156 224.364 42.5397 224.936C43.9235 225.508 45.1118 226.468 45.9609 227.702C49.7175 232.623 50.9557 244.932 50.9557 244.932L48.7626 265.341Z" fill="#BA68C8"/>
<path d="M49.4342 261.983C49.2748 261.981 49.1205 261.927 48.9953 261.828C48.87 261.729 48.7809 261.592 48.7416 261.438C43.6418 240.189 19.4337 206.274 4.39673 195.487C4.32025 195.433 4.25523 195.364 4.2054 195.284C4.15558 195.204 4.12191 195.116 4.10632 195.023C4.09072 194.931 4.09352 194.836 4.11455 194.745C4.13557 194.653 4.1744 194.567 4.22883 194.49C4.28326 194.414 4.35222 194.349 4.43177 194.299C4.51133 194.249 4.59992 194.215 4.69249 194.2C4.78506 194.184 4.87979 194.187 4.97128 194.208C5.06276 194.229 5.14922 194.268 5.2257 194.322C20.4515 205.246 44.964 239.591 50.1372 261.102C50.1783 261.287 50.1453 261.48 50.0452 261.641C49.9452 261.802 49.7861 261.917 49.6021 261.962L49.4342 261.983Z" fill="white"/>
<path d="M239.374 48.0135C239.249 48.012 239.127 47.9795 239.017 47.919L236.069 46.2086C235.988 46.1618 235.916 46.0994 235.859 46.025C235.802 45.9506 235.76 45.8656 235.736 45.775C235.711 45.6844 235.705 45.5898 235.717 45.4968C235.729 45.4038 235.76 45.314 235.807 45.2327C235.853 45.1514 235.916 45.0802 235.99 45.023C236.065 44.9658 236.149 44.9238 236.24 44.8995C236.331 44.8751 236.425 44.8688 236.518 44.881C236.611 44.8932 236.701 44.9235 236.782 44.9704L239.731 46.6808C239.812 46.7276 239.884 46.7899 239.941 46.8643C239.998 46.9387 240.04 47.0237 240.065 47.1143C240.089 47.205 240.095 47.2995 240.083 47.3926C240.071 47.4857 240.04 47.5754 239.993 47.6567C239.931 47.7653 239.84 47.8555 239.732 47.9182C239.623 47.9808 239.5 48.0137 239.374 48.0135Z" fill="white"/>
<path d="M48.7626 110.229V266.349C48.7626 268.09 49.9798 268.794 51.4804 267.923L233.582 162.79C234.375 162.271 235.035 161.574 235.509 160.754C235.983 159.934 236.257 159.014 236.31 158.068V1.94766C236.31 0.205767 235.082 -0.497287 233.582 0.373661L51.4804 105.507C50.6882 106.025 50.0292 106.722 49.557 107.543C49.0848 108.363 48.8127 109.283 48.7626 110.229Z" fill="#455A64"/>
<path d="M70.0746 139.064C70.0746 144.51 74.1355 146.567 79.1618 143.671L223.519 60.3222V40.6366L79.1618 123.975C74.1355 126.881 70.0746 133.629 70.0746 139.064Z" fill="#F5F5F5"/>
<path d="M235.796 33.5746C240.812 30.6785 244.883 32.7352 244.883 38.1707C244.883 43.6063 240.812 50.364 235.796 53.2602L223.571 60.3222V40.6367L235.796 33.5746Z" fill="#BA68C8"/>
<path d="M231.389 50.1646C230.866 50.172 230.351 50.0378 229.899 49.7763C229.341 49.4032 228.895 48.8864 228.607 48.2806C228.319 47.6748 228.199 47.0025 228.262 46.3345C228.337 44.6921 228.805 43.0918 229.627 41.6676C230.449 40.2435 231.6 39.0371 232.984 38.1497C233.512 37.7187 234.159 37.4588 234.839 37.4046C235.519 37.3503 236.199 37.5043 236.789 37.8461C237.379 38.1878 237.851 38.7011 238.142 39.3177C238.434 39.9343 238.53 40.6249 238.419 41.2977C238.341 42.9395 237.872 44.5389 237.051 45.9626C236.229 47.3863 235.08 48.5932 233.697 49.4825C233.001 49.9082 232.205 50.1434 231.389 50.1646ZM235.282 38.8842C234.719 38.9121 234.173 39.0856 233.697 39.3879C232.538 40.1579 231.573 41.1857 230.878 42.3908C230.183 43.596 229.776 44.9458 229.689 46.3345C229.581 46.7524 229.612 47.1943 229.779 47.5923C229.946 47.9904 230.239 48.3227 230.613 48.5383C230.987 48.7539 231.422 48.8409 231.85 48.7859C232.278 48.7309 232.676 48.5369 232.984 48.2338C234.144 47.4651 235.11 46.4375 235.805 45.2321C236.501 44.0267 236.907 42.6763 236.992 41.2872C237.046 40.8711 236.989 40.4482 236.827 40.0613C236.665 39.6743 236.403 39.3371 236.069 39.0836C235.83 38.9466 235.557 38.8777 235.282 38.8842Z" fill="white"/>
<path d="M237.895 76.6603L98.3332 157.186C97.5372 157.701 96.8749 158.398 96.4006 159.219C95.9264 160.04 95.6536 160.961 95.6049 161.908V204.858C95.6049 206.599 96.8221 207.303 98.3332 206.432L237.895 125.874C238.689 125.358 239.351 124.661 239.825 123.84C240.299 123.02 240.573 122.099 240.623 121.152V78.2343C240.57 76.4924 239.353 75.7894 237.895 76.6603Z" fill="#BA68C8"/>
<path opacity="0.2" d="M237.895 76.6603L98.3332 157.186C97.5372 157.701 96.8749 158.398 96.4006 159.219C95.9264 160.04 95.6536 160.961 95.6049 161.908V204.858C95.6049 206.599 96.8221 207.303 98.3332 206.432L237.895 125.874C238.689 125.358 239.351 124.661 239.825 123.84C240.299 123.02 240.573 122.099 240.623 121.152V78.2343C240.57 76.4924 239.353 75.7894 237.895 76.6603Z" fill="white"/>
<path d="M149.068 135.056L174.357 120.449C175.617 119.725 176.635 120.239 176.635 121.603C176.577 122.366 176.342 123.104 175.946 123.759C175.55 124.413 175.006 124.965 174.357 125.37L149.068 139.977C147.809 140.701 146.791 140.187 146.791 138.823C146.848 138.06 147.084 137.322 147.48 136.667C147.876 136.013 148.42 135.461 149.068 135.056Z" fill="white"/>
<path d="M146.791 148.666C146.791 150.03 147.841 150.544 149.068 149.82L225.513 105.685C226.16 105.277 226.703 104.723 227.096 104.066C227.49 103.41 227.724 102.671 227.779 101.907C227.779 100.554 226.73 100.039 225.513 100.764L149.068 144.899C148.42 145.304 147.876 145.856 147.48 146.51C147.084 147.165 146.848 147.903 146.791 148.666Z" fill="white"/>
<path d="M146.791 158.508C146.791 159.873 147.841 160.387 149.068 159.663L225.513 115.528C226.16 115.12 226.703 114.565 227.096 113.909C227.49 113.253 227.724 112.513 227.779 111.75C227.779 110.396 226.73 109.882 225.513 110.606L149.068 154.741C148.42 155.146 147.876 155.698 147.48 156.353C147.084 157.007 146.848 157.746 146.791 158.508Z" fill="white"/>
<path d="M146.791 168.351C146.791 169.715 147.841 170.229 149.068 169.505L225.513 125.37C226.16 124.963 226.703 124.408 227.096 123.752C227.49 123.096 227.724 122.356 227.779 121.593C227.779 120.239 226.73 119.725 225.513 120.449L149.068 164.584C148.42 164.989 147.876 165.541 147.48 166.196C147.084 166.85 146.848 167.589 146.791 168.351Z" fill="white"/>
<path d="M102.635 159.642L135.543 140.638C137.054 139.778 138.271 140.481 138.271 142.212V175.298C138.22 176.244 137.946 177.165 137.472 177.985C136.998 178.806 136.337 179.503 135.543 180.02L102.635 199.013C101.135 199.884 99.9071 199.181 99.9071 197.449V164.364C99.9576 163.417 100.231 162.496 100.705 161.676C101.179 160.855 101.841 160.158 102.635 159.642Z" fill="white"/>
<path d="M129.289 157.155L119.498 177.449L114.514 174.574C114.032 174.296 113.46 174.221 112.923 174.364C112.386 174.508 111.928 174.859 111.649 175.34L99.9071 195.665V197.439C99.9071 199.181 101.135 199.884 102.635 199.013L135.543 180.02C136.337 179.503 136.999 178.806 137.473 177.986C137.947 177.165 138.22 176.244 138.271 175.298V163.682L131.65 156.777C131.499 156.584 131.3 156.435 131.073 156.346C130.846 156.256 130.599 156.229 130.357 156.268C130.116 156.306 129.89 156.409 129.702 156.565C129.514 156.721 129.371 156.925 129.289 157.155Z" fill="#BA68C8"/>
<path d="M104.85 171.751C106.884 170.424 108.577 168.636 109.791 166.532C111.005 164.428 111.707 162.067 111.838 159.642C111.908 158.836 111.787 158.026 111.484 157.277C111.181 156.527 110.706 155.86 110.096 155.329L102.635 159.642C101.841 160.158 101.179 160.855 100.705 161.676C100.231 162.496 99.9576 163.417 99.9071 164.364V172.234C101.177 172.968 102.919 172.863 104.85 171.751Z" fill="#BA68C8"/>
<path d="M237.895 140.638L98.3332 221.164C97.5384 221.681 96.877 222.377 96.4029 223.198C95.9287 224.019 95.6553 224.94 95.6049 225.886V268.867C95.6049 270.598 96.8221 271.301 98.3332 270.441L237.895 189.863C238.689 189.346 239.351 188.649 239.825 187.829C240.299 187.008 240.573 186.087 240.623 185.141V142.212C240.57 140.481 239.353 139.799 237.895 140.638Z" fill="#BA68C8"/>
<path opacity="0.2" d="M237.895 140.638L98.3332 221.164C97.5384 221.681 96.877 222.377 96.4029 223.198C95.9287 224.019 95.6553 224.94 95.6049 225.886V268.867C95.6049 270.598 96.8221 271.301 98.3332 270.441L237.895 189.863C238.689 189.346 239.351 188.649 239.825 187.829C240.299 187.008 240.573 186.087 240.623 185.141V142.212C240.57 140.481 239.353 139.799 237.895 140.638Z" fill="white"/>
<path d="M149.068 199.034L174.357 184.437C175.617 183.713 176.635 184.228 176.635 185.581C176.579 186.346 176.344 187.086 175.948 187.743C175.553 188.399 175.008 188.953 174.357 189.359L149.068 203.955C147.809 204.679 146.791 204.165 146.791 202.811C146.847 202.047 147.082 201.306 147.478 200.65C147.873 199.993 148.418 199.44 149.068 199.034Z" fill="white"/>
<path d="M146.791 212.654C146.791 214.008 147.841 214.522 149.068 213.798L225.513 169.663C226.159 169.256 226.7 168.703 227.094 168.049C227.488 167.395 227.722 166.657 227.779 165.896C227.779 164.532 226.73 164.017 225.513 164.741L149.068 208.876C148.418 209.282 147.873 209.836 147.478 210.493C147.082 211.149 146.847 211.89 146.791 212.654Z" fill="white"/>
<path d="M146.791 222.497C146.791 223.85 147.841 224.365 149.068 223.641L225.513 179.506C226.159 179.099 226.7 178.546 227.094 177.892C227.488 177.237 227.722 176.5 227.779 175.738C227.779 174.374 226.73 173.86 225.513 174.584L149.068 218.719C148.418 219.125 147.873 219.679 147.478 220.335C147.082 220.992 146.847 221.732 146.791 222.497Z" fill="white"/>
<path d="M146.791 232.34C146.791 233.693 147.841 234.207 149.068 233.483L225.513 189.348C226.159 188.942 226.7 188.389 227.094 187.735C227.488 187.08 227.722 186.343 227.779 185.581C227.779 184.217 226.73 183.703 225.513 184.427L149.068 228.562C148.418 228.968 147.873 229.522 147.478 230.178C147.082 230.835 146.847 231.575 146.791 232.34Z" fill="white"/>
<path d="M102.635 223.63L135.543 204.627C137.054 203.756 138.271 204.459 138.271 206.201V239.276C138.222 240.223 137.949 241.144 137.475 241.965C137.001 242.786 136.338 243.483 135.543 243.998L102.635 263.001C101.135 263.872 99.9071 263.169 99.9071 261.427V228.352C99.9576 227.406 100.231 226.485 100.705 225.664C101.179 224.843 101.841 224.147 102.635 223.63Z" fill="white"/>
<path d="M129.289 221.143L119.498 241.437L114.514 238.552C114.275 238.415 114.011 238.326 113.738 238.291C113.464 238.255 113.187 238.275 112.921 238.347C112.655 238.419 112.405 238.543 112.187 238.711C111.969 238.879 111.786 239.089 111.649 239.328L99.9071 259.654V261.427C99.9071 263.169 101.135 263.872 102.635 263.001L135.543 243.998C136.337 243.484 136.998 242.789 137.473 241.97C137.947 241.151 138.22 240.231 138.271 239.286V227.66L131.65 220.765C131.501 220.569 131.303 220.417 131.075 220.325C130.847 220.234 130.598 220.206 130.355 220.245C130.113 220.283 129.885 220.388 129.697 220.546C129.509 220.704 129.368 220.911 129.289 221.143Z" fill="#BA68C8"/>
<path d="M104.85 235.729C106.884 234.404 108.577 232.618 109.791 230.516C111.005 228.413 111.707 226.054 111.838 223.63C111.908 222.825 111.787 222.015 111.484 221.265C111.181 220.516 110.706 219.848 110.096 219.317L102.635 223.63C101.841 224.147 101.179 224.843 100.705 225.664C100.231 226.485 99.9576 227.406 99.9071 228.352V236.222C101.177 236.946 102.919 236.841 104.85 235.729Z" fill="#BA68C8"/>
<path d="M236.31 8.63193V1.94766C236.31 0.205767 235.082 -0.497287 233.582 0.373661L51.4908 105.507C50.6961 106.023 50.0347 106.72 49.5606 107.54C49.0864 108.361 48.813 109.282 48.7626 110.229V116.923L236.31 8.63193Z" fill="#BA68C8"/>
<path d="M213.97 14.2564C213.383 14.6418 212.895 15.1598 212.545 15.7686C212.195 16.3774 211.993 17.0599 211.955 17.7611C211.955 19.0518 212.858 19.5765 213.97 18.9259C214.56 18.5458 215.052 18.0307 215.404 17.4231C215.756 16.8155 215.959 16.1329 215.995 15.4316C215.995 14.1409 215.093 13.6163 213.97 14.2564Z" fill="#F5F5F5"/>
<path d="M221.997 9.68126C221.408 10.0655 220.918 10.5831 220.566 11.1919C220.214 11.8008 220.011 12.4839 219.972 13.186C219.972 14.4767 220.885 14.9909 221.997 14.3508C222.588 13.9684 223.079 13.4513 223.432 12.8421C223.784 12.2328 223.986 11.5487 224.022 10.846C224.022 9.50287 223.12 8.9887 221.997 9.68126Z" fill="#F5F5F5"/>
<path d="M230.025 5.00123C229.434 5.38136 228.943 5.89647 228.59 6.50404C228.238 7.11161 228.036 7.79422 227.999 8.49552C227.999 9.7862 228.902 10.3109 230.025 9.67077C230.612 9.28532 231.1 8.76731 231.45 8.15851C231.8 7.54972 232.002 6.8672 232.039 6.16599C232.039 4.87531 231.137 4.35064 230.025 5.00123Z" fill="#F5F5F5"/>
<path d="M239.217 334.157C239.534 334.963 239.753 335.805 239.867 336.665C240.163 337.553 240.232 338.502 240.067 339.424C239.36 340.602 238.236 341.471 236.919 341.859C235.981 342.075 235.009 342.093 234.064 341.912C233.119 341.731 232.222 341.356 231.431 340.809C229.51 339.666 228.073 338.27 225.345 337.504C223.399 337.085 221.566 336.251 219.972 335.059C218.461 333.852 216.446 330.494 219.332 329.718C222.218 328.941 228.503 331.68 234.222 331.932L239.217 334.157Z" fill="#263238"/>
<path d="M238.944 330.379C238.944 330.379 239.28 334.387 239.28 334.881C239.28 336.234 234.285 338.029 233.362 334.881L232.564 330.62L238.944 330.379Z" fill="#F28F8F"/>
<path d="M232.816 242.434C234.533 244.96 236.106 247.58 237.527 250.283C237.527 250.283 238.021 256.118 238.021 260C238.021 267.136 236.919 272.645 235.922 286.706C237.545 289.472 238.474 292.59 238.629 295.793C239.049 302.162 239.059 302.089 239.101 331.47C238.145 331.986 237.096 332.306 236.015 332.41C234.934 332.515 233.842 332.402 232.805 332.079L223.361 290.934L222.312 274.785L219.353 254.711L232.816 242.434Z" fill="#37474F"/>
<path d="M210.465 341.512C210.801 341.859 210.685 342.562 210.843 343.716C211.017 344.604 211.063 345.512 210.979 346.413C210.429 347.661 209.434 348.659 208.188 349.215C207.282 349.541 206.319 349.677 205.358 349.614C204.398 349.551 203.461 349.29 202.606 348.847C200.57 347.945 198.964 346.749 196.163 346.318C194.18 346.148 192.258 345.55 190.528 344.566C188.88 343.517 186.456 340.474 189.227 339.319C191.997 338.165 198.943 340.232 204.641 339.771L210.465 341.512Z" fill="#263238"/>
<path d="M211.777 336.476C211.777 336.476 210.727 341.051 210.444 342.069C209.814 344.514 204.389 344.639 204.389 341.817L204.757 335.311L211.777 336.476Z" fill="#F28F8F"/>
<path d="M220.57 243.683C223.288 249.024 225.911 253.736 225.995 259.423C226.195 271.459 221.2 284.712 219.363 293.411C219.911 296.559 220.066 299.763 219.825 302.949C219.458 306.591 211.158 339.676 211.158 339.676C211.158 339.676 206.541 340.641 204.578 338.553L206.908 274.848L207.537 256.348L220.57 243.683Z" fill="#37474F"/>
<path d="M216.834 211.059L218.545 220.535L227.107 219.905L225.313 209.17L216.834 211.059Z" fill="#FFA8A7"/>
<path d="M236.142 219.212C235.292 216.642 232.029 213.84 228.797 214.448C223.942 215.274 219.158 216.466 214.484 218.016C211.493 219.066 208.765 221.678 208.513 231.521L207.579 256.285C208.873 257.435 210.424 258.256 212.102 258.678C216.646 259.927 219.647 260.672 226.551 259.161C235.544 257.198 237.685 251.752 237.685 251.752C237.685 251.752 237.339 238.646 237.066 231.521C236.845 225.467 236.719 220.986 236.142 219.212Z" fill="#455A64"/>
<path d="M213.183 198.96L169.583 187.134C165.637 186.452 163.99 196.085 167.935 196.757L212.711 201.279L213.183 198.96Z" fill="#263238"/>
<path d="M200.643 218.94L191.734 219.212C191.734 219.212 193.078 205.959 193.907 204.217C194.736 202.476 196.719 202.119 198.692 201.563C200.664 201.006 200.654 200.062 200.654 200.062L198.88 199.884C197.327 199.726 196.708 197.785 197.38 196.473C197.705 195.865 198.23 194.899 199.174 195.162L201.525 195.802C201.561 194.765 201.303 193.739 200.78 192.843C199.993 191.972 199.468 192.245 197.894 191.699C196.729 191.29 194.347 190.566 192.427 191.353C190.507 192.14 189.048 195.749 188.555 198.299C188.056 201.248 187.247 204.136 186.141 206.914C184.431 211.636 181.944 221.332 181.682 225.215C181.566 227.009 181.734 228.079 183.728 228.552C185.722 229.024 200.391 229.055 200.391 229.055L200.643 218.94Z" fill="#FFA8A7"/>
<path d="M210.497 199.842C210.497 199.842 208.398 202.906 208.692 203.242C209.166 203.558 209.691 203.788 210.245 203.924L210.497 199.842Z" fill="#FFA8A7"/>
<path d="M216.824 190.167C214.83 191.216 211.388 193.032 210.434 200.335C209.458 207.827 210.748 210.241 211.756 211.237C212.448 211.909 216.163 211.951 218.052 211.384C220.381 210.692 225.638 208.688 228.041 204.837C230.864 200.303 231.494 194.238 228.314 191.825C226.696 190.598 224.793 189.802 222.783 189.512C220.773 189.222 218.723 189.447 216.824 190.167Z" fill="#FFA8A7"/>
<path d="M222.69 280.588L227.233 267.744C230.755 266.496 233.911 264.39 236.415 261.616C236.415 261.616 235.366 265.278 228.188 269.035L223.204 281.186V287.944L222.69 280.588Z" fill="#263238"/>
<path d="M210.024 192.633C210.675 194.427 211.777 198.834 216.373 200.671C216.373 200.671 217.034 197.869 219.384 198.163C221.735 198.457 222.144 201.468 220.696 203.336C219.248 205.204 217.842 204.532 217.842 204.532C217.842 204.532 217.527 208.551 220.213 210.377C221.213 210.967 222.337 211.316 223.495 211.398C224.653 211.48 225.814 211.292 226.887 210.849C228.43 210.146 230.623 206.442 231.903 203.399C234.61 196.977 234.999 191.856 230.854 190.198C230.339 187.281 229.028 186.179 226.383 185.634C220.696 184.469 216.394 188.205 211.619 187.544C209.174 187.197 209.269 190.576 210.024 192.633Z" fill="#263238"/>
<path d="M230.99 191.216L233.676 189.548C233.442 189.221 233.092 188.995 232.698 188.916C232.303 188.837 231.893 188.911 231.552 189.124C231.21 189.336 230.962 189.67 230.857 190.059C230.753 190.448 230.8 190.861 230.99 191.216Z" fill="#263238"/>
<path d="M198.65 218.761C198.65 218.761 211.189 218.037 214.39 218.016C217.59 217.995 220.99 223.462 218.996 227.187C217.674 229.632 213.55 230.472 208.356 230.724C203.162 230.975 197.926 230.976 197.926 230.976C197.926 230.976 193.256 225.655 198.65 218.761Z" fill="#455A64"/>
<path d="M208.513 230.724C208.513 230.724 216.457 230.619 219.059 227.187C219.059 227.187 218.45 229.286 215.365 230.577C213.154 231.426 210.825 231.929 208.461 232.067L208.513 230.724Z" fill="#37474F"/>
<path d="M169.583 187.134C165.637 186.452 163.99 196.085 167.935 196.757L174.231 197.386C171.671 197.124 173.445 188.173 175.396 188.698L169.583 187.134Z" fill="#455A64"/>
<path d="M328.368 184.563C328.369 186.517 327.781 188.425 326.681 190.039C325.581 191.653 324.02 192.899 322.202 193.612C320.384 194.326 318.392 194.475 316.488 194.04C314.584 193.605 312.855 192.607 311.526 191.174L310.886 190.398C309.393 188.406 308.721 185.917 309.009 183.444C309.297 180.971 310.523 178.703 312.435 177.108C314.346 175.513 316.797 174.712 319.281 174.871C321.766 175.031 324.095 176.137 325.787 177.963L326.448 178.761C327.694 180.439 328.368 182.473 328.368 184.563Z" fill="#455A64"/>
<path d="M328.368 184.563C328.369 186.517 327.781 188.425 326.681 190.039C325.581 191.653 324.02 192.899 322.202 193.612C320.384 194.326 318.392 194.475 316.488 194.04C314.584 193.605 312.855 192.607 311.527 191.174L310.886 190.398L270.424 141.53L287.476 131.687L325.787 177.942L326.448 178.74C327.699 180.423 328.372 182.466 328.368 184.563Z" fill="#455A64"/>
<path d="M294.895 171.079C296.594 172.862 298.906 173.932 301.365 174.075C303.823 174.217 306.244 173.421 308.138 171.847C310.032 170.273 311.257 168.039 311.567 165.596C311.876 163.153 311.247 160.683 309.806 158.687L304.8 152.653C306.296 154.646 306.97 157.137 306.681 159.612C306.392 162.087 305.164 164.357 303.25 165.952C301.335 167.547 298.881 168.346 296.395 168.183C293.908 168.02 291.579 166.908 289.889 165.077L294.895 171.079Z" fill="#BA68C8"/>
<path d="M286.825 54.8656C289.88 55.2056 292.833 56.1661 295.503 57.6883L283.194 50.5319C274.936 44.855 263.047 45.1907 249.836 52.8089C224.893 67.2163 204.662 102.254 204.662 131.068C204.662 145.224 209.479 155.339 217.422 160.145L217.59 160.25L230.728 167.816C228.398 166.3 226.367 164.369 224.736 162.118C227.973 162.472 231.246 162.285 234.421 161.562C235.576 161.31 236.74 161.006 237.926 160.628C237.771 160.581 237.62 160.522 237.475 160.45C236.843 160.154 236.239 159.803 235.67 159.4C234.637 158.68 233.718 157.81 232.942 156.819C231.881 155.461 231.019 153.96 230.381 152.359C229.526 152.483 228.664 152.546 227.8 152.548C225.758 152.589 223.731 152.184 221.861 151.362C221.424 151.162 221 150.934 220.591 150.68C220.224 150.45 219.857 150.177 219.542 149.904C218.783 146.352 218.413 142.728 218.44 139.096C218.44 110.291 238.671 75.2437 263.635 60.8363C266.822 58.977 270.199 57.4644 273.708 56.3242C274.654 56.7105 275.544 57.2223 276.353 57.8457C277.21 58.5031 277.982 59.2645 278.651 60.1123C279.715 61.4732 280.581 62.9783 281.222 64.5825C282.08 64.4622 282.947 64.4026 283.814 64.4041C286.186 64.3404 288.533 64.909 290.613 66.0515C291.14 66.3384 291.642 66.6683 292.114 67.0379C291.925 66.1984 291.726 65.3695 291.484 64.5825C290.536 61.0866 288.957 57.7936 286.825 54.8656Z" fill="#263238"/>
<path d="M295.503 57.6883L294.79 57.3001C292.309 56.0009 289.608 55.1753 286.825 54.8656C283.839 54.5326 280.818 54.6707 277.874 55.2749C276.456 55.5436 275.055 55.894 273.677 56.3242C270.168 57.4644 266.791 58.9771 263.603 60.8363C238.64 75.2437 218.409 110.291 218.409 139.096C218.382 142.728 218.751 146.352 219.51 149.904C219.647 150.544 219.804 151.153 219.962 151.761C220.897 155.475 222.52 158.981 224.747 162.097C225.741 163.468 226.885 164.725 228.157 165.843C228.968 166.557 229.831 167.209 230.738 167.795C238.975 173.115 250.676 172.653 263.582 165.182C288.546 150.775 308.777 115.738 308.777 86.9228C308.767 72.5154 303.698 62.3894 295.503 57.6883ZM290.571 66.083C291.098 66.3699 291.6 66.6998 292.072 67.0694C292.863 67.712 293.584 68.4366 294.223 69.231C297.371 73.1765 299.039 79.3151 299.039 86.9543C299.039 112.138 280.571 144.164 258.713 156.788C253.204 159.936 247.905 161.656 243.404 161.656C241.526 161.678 239.663 161.322 237.926 160.607C237.771 160.56 237.62 160.501 237.475 160.429C236.843 160.133 236.239 159.782 235.67 159.379C234.962 158.882 234.308 158.313 233.718 157.679C233.456 157.407 233.204 157.102 232.952 156.798C231.892 155.44 231.03 153.939 230.392 152.338C228.793 148.104 228.031 143.599 228.146 139.075C228.146 138.739 228.146 138.414 228.146 138.025C228.608 112.946 246.877 81.6446 268.451 69.1995C268.944 68.9162 269.448 68.6329 269.952 68.3706C273.431 66.4271 277.23 65.1228 281.169 64.5195C282.028 64.3992 282.894 64.3396 283.761 64.3411C285.628 64.325 287.48 64.6818 289.207 65.3904C289.68 65.5785 290.137 65.8067 290.571 66.0725V66.083Z" fill="#455A64"/>
<path opacity="0.6" d="M294.821 84.0371C294.821 109.221 276.353 141.247 254.495 153.87C248.986 157.018 243.697 158.739 239.185 158.739C237.311 158.761 235.451 158.404 233.718 157.69C233.456 157.417 233.204 157.113 232.952 156.808C231.892 155.451 231.03 153.949 230.392 152.349C228.793 148.114 228.031 143.61 228.146 139.085C228.146 138.749 228.146 138.424 228.146 138.036C228.608 112.957 246.877 81.6551 268.451 69.21C268.944 68.9267 269.448 68.6434 269.952 68.3811C273.431 66.4376 277.23 65.1333 281.169 64.53C282.028 64.4097 282.894 64.3501 283.761 64.3516C285.628 64.3355 287.48 64.6923 289.207 65.4009C289.49 65.6843 289.753 65.9886 290.005 66.2929C293.153 70.2594 294.821 76.398 294.821 84.0371Z" fill="white"/>
</svg>
