<svg width="57" height="56" viewBox="0 0 57 56" fill="none" xmlns="http://www.w3.org/2000/svg">
<path d="M42.3923 0.396207L42.392 0.396068C42.0366 0.251141 41.6452 0.21294 41.2674 0.286479C40.8897 0.360014 40.5433 0.541835 40.2717 0.808275L31.5022 9.42349C31.5022 9.4235 31.5022 9.42352 31.5022 9.42354C31.3221 9.60087 31.1797 9.81108 31.0827 10.042C30.9858 10.273 30.9361 10.5203 30.9366 10.7699V10.7703V22.8019V22.9068L30.8618 22.9803L27.6126 26.1723L27.5112 26.272L27.3737 26.2358C26.7759 26.0783 26.1497 26.0544 25.5413 26.1661C24.9329 26.2778 24.358 26.522 23.8589 26.8806C23.3598 27.2392 22.9493 27.7029 22.6573 28.2373C22.3658 28.7708 22.1997 29.3614 22.171 29.9658L22.1668 30.1581C22.1675 31.2318 22.602 32.2623 23.3763 33.023C24.1514 33.7845 25.2036 34.2131 26.3016 34.2131C26.9368 34.213 27.5633 34.0694 28.1327 33.7937C28.702 33.5179 29.1988 33.1175 29.585 32.6237C29.971 32.1298 30.2362 31.5557 30.3602 30.9458C30.4842 30.3359 30.4638 29.7061 30.3006 29.1051L30.2623 28.964L30.3666 28.8614L33.6114 25.6693L33.6844 25.5975H33.7867H46.0338H46.0342C46.2901 25.598 46.5434 25.5489 46.7798 25.4531C47.016 25.3574 47.2304 25.2171 47.4108 25.0403L42.3923 0.396207ZM42.3923 0.396207C42.7481 0.540663 43.0515 0.785263 43.2646 1.09837C43.4778 1.41142 43.5913 1.77907 43.5913 2.15481V12.9242V13.1742H43.8413H54.8036H54.8041C55.1897 13.1735 55.5666 13.2854 55.8868 13.4951C56.2069 13.7048 56.4558 14.0027 56.6026 14.3505C56.7493 14.6983 56.7875 15.0807 56.7127 15.4496C56.6378 15.8185 56.4529 16.1579 56.1809 16.4245L56.1807 16.4247L47.4111 25.04L42.3923 0.396207ZM45.1261 21.7898H45.2284L45.3013 21.7181L49.6862 17.4103L50.1222 16.982H49.511H41.6489C41.6354 16.982 41.5959 16.9755 41.5242 16.9365C41.4554 16.899 41.3736 16.8406 41.2806 16.7617C41.0945 16.6037 40.887 16.3837 40.6775 16.1425C40.4893 15.926 40.3052 15.699 40.1384 15.4936C40.1203 15.4713 40.1024 15.4492 40.0847 15.4274C39.9445 15.2547 39.8125 15.0933 39.7064 14.9777V7.35426V6.7582L39.2812 7.17592L34.8963 11.4837L34.8215 11.5572V11.662V21.5398V21.7898H35.0715H45.1261ZM26.3045 8.36645V8.36644H26.3016C21.9008 8.36707 17.5994 9.65442 13.9451 12.065C10.2908 14.4757 7.44875 17.9007 5.78165 21.9045C4.11454 25.9083 3.69803 30.3093 4.58538 34.5467C5.47271 38.7841 7.62357 42.6655 10.7633 45.697C13.903 48.7284 17.8895 50.7728 22.2149 51.5704C26.5403 52.368 31.0095 51.8829 35.0536 50.1767C39.0978 48.4705 42.5342 45.6201 44.9248 41.9879C47.2826 38.4057 48.5176 34.2231 48.4786 29.9593C49.3697 29.6232 50.1802 29.1068 50.8569 28.4426L50.8572 28.4423L52.1869 27.1326C52.8103 32.2847 51.8252 37.506 49.3556 42.1016C46.8074 46.8437 42.807 50.6806 37.9185 53.0698C33.0299 55.4591 27.5006 56.2797 22.1113 55.4156C16.722 54.5515 11.7457 52.0465 7.88469 48.2549C4.02374 44.4633 1.47304 39.5768 0.591834 34.2855C-0.289368 28.9942 0.543265 23.5644 2.97254 18.7626C5.40185 13.9607 9.30541 10.0289 14.1329 7.52285C18.8088 5.09548 24.1223 4.12479 29.3669 4.73343L28.0558 6.02143L28.231 6.19977L28.0558 6.02144C27.3769 6.68844 26.849 7.48837 26.5061 8.36875L26.3045 8.36645ZM17.9124 17.8281C20.326 16.2438 23.1521 15.3773 26.0517 15.3301V19.1386C23.9224 19.1853 21.8485 19.8271 20.0742 20.9919C18.2304 22.2022 16.7927 23.9229 15.9435 25.9369C15.0943 27.951 14.872 30.1675 15.305 32.3059C15.738 34.4444 16.8066 36.408 18.375 37.9488C19.9433 39.4896 21.941 40.5383 24.1151 40.9632C26.2892 41.388 28.5428 41.17 30.591 40.3366C32.6393 39.5031 34.3907 38.0913 35.6232 36.2791C36.8086 34.5362 37.4628 32.4983 37.5111 30.4053H41.3967C41.3479 33.2496 40.4669 36.0223 38.8557 38.3912C37.1973 40.8294 34.8397 42.7305 32.0806 43.8533C29.3214 44.9761 26.285 45.2699 23.3555 44.6975C20.4261 44.125 17.7359 42.7122 15.6248 40.6382C13.5137 38.5643 12.0766 35.9225 11.4944 33.0471C10.9122 30.1718 11.211 27.1914 12.3531 24.4826C13.4952 21.7738 15.4296 19.4578 17.9124 17.8281Z" fill="#FFC727" stroke="white" stroke-width="0.5"/>
</svg>
