<svg width="635" height="249" viewBox="0 0 635 249" fill="none" xmlns="http://www.w3.org/2000/svg">
<path d="M62.5312 30H51.75V21.4286C51.75 16.7009 55.6178 12.8571 60.375 12.8571H61.4531C63.2455 12.8571 64.6875 11.4241 64.6875 9.64286V3.21429C64.6875 1.43304 63.2455 0 61.4531 0H60.375C48.4617 0 38.8125 9.58928 38.8125 21.4286V53.5714C38.8125 57.1205 41.71 60 45.2812 60H62.5312C66.1025 60 69 57.1205 69 53.5714V36.4286C69 32.8795 66.1025 30 62.5312 30ZM23.7188 30H12.9375V21.4286C12.9375 16.7009 16.8053 12.8571 21.5625 12.8571H22.6406C24.433 12.8571 25.875 11.4241 25.875 9.64286V3.21429C25.875 1.43304 24.433 0 22.6406 0H21.5625C9.64922 0 0 9.58928 0 21.4286V53.5714C0 57.1205 2.89746 60 6.46875 60H23.7188C27.29 60 30.1875 57.1205 30.1875 53.5714V36.4286C30.1875 32.8795 27.29 30 23.7188 30Z" fill="#FFC727"/>
<path d="M628.531 178H611.281C607.71 178 604.812 180.879 604.812 184.429V201.571C604.812 205.121 607.71 208 611.281 208H622.062V216.571C622.062 221.299 618.195 225.143 613.438 225.143H612.359C610.567 225.143 609.125 226.576 609.125 228.357V234.786C609.125 236.567 610.567 238 612.359 238H613.438C625.351 238 635 228.411 635 216.571V184.429C635 180.879 632.103 178 628.531 178ZM589.719 178H572.469C568.897 178 566 180.879 566 184.429V201.571C566 205.121 568.897 208 572.469 208H583.25V216.571C583.25 221.299 579.382 225.143 574.625 225.143H573.547C571.754 225.143 570.312 226.576 570.312 228.357V234.786C570.312 236.567 571.754 238 573.547 238H574.625C586.538 238 596.188 228.411 596.188 216.571V184.429C596.188 180.879 593.29 178 589.719 178Z" fill="#FFC727"/>
<path d="M415.6 227.393H412.86L412.846 225.796H415.109C415.509 225.796 415.834 225.748 416.083 225.65C416.337 225.552 416.522 225.411 416.64 225.225C416.757 225.035 416.815 224.8 416.815 224.522C416.815 224.205 416.757 223.948 416.64 223.753C416.522 223.558 416.337 223.416 416.083 223.328C415.834 223.235 415.512 223.189 415.116 223.189H413.725V232H411.337V221.336H415.116C415.756 221.336 416.327 221.395 416.83 221.512C417.333 221.629 417.76 221.81 418.112 222.054C418.468 222.298 418.739 222.603 418.925 222.969C419.11 223.335 419.203 223.768 419.203 224.266C419.203 224.7 419.105 225.105 418.91 225.481C418.72 225.857 418.412 226.163 417.987 226.397C417.562 226.631 416.994 226.758 416.281 226.778L415.6 227.393ZM415.504 232H412.252L413.117 230.154H415.504C415.871 230.154 416.168 230.096 416.398 229.979C416.627 229.861 416.796 229.703 416.903 229.502C417.011 229.302 417.064 229.078 417.064 228.829C417.064 228.536 417.013 228.282 416.911 228.067C416.813 227.852 416.657 227.686 416.442 227.569C416.232 227.452 415.951 227.393 415.6 227.393H413.461L413.476 225.796H416.09L416.647 226.426C417.326 226.412 417.868 226.521 418.273 226.756C418.683 226.985 418.979 227.288 419.159 227.664C419.34 228.04 419.43 228.438 419.43 228.858C419.43 229.551 419.281 230.132 418.983 230.601C418.686 231.065 418.244 231.414 417.658 231.648C417.077 231.883 416.359 232 415.504 232ZM423.268 220.75V232H420.976V220.75H423.268ZM429.113 230.11V226.712C429.113 226.473 429.076 226.268 429.003 226.097C428.93 225.926 428.815 225.792 428.659 225.694C428.502 225.596 428.3 225.547 428.051 225.547C427.841 225.547 427.658 225.584 427.501 225.657C427.35 225.73 427.233 225.835 427.15 225.972C427.072 226.109 427.033 226.277 427.033 226.478H424.748C424.748 226.121 424.828 225.789 424.989 225.481C425.15 225.174 425.38 224.903 425.678 224.668C425.98 224.434 426.342 224.253 426.762 224.126C427.182 223.995 427.653 223.929 428.175 223.929C428.795 223.929 429.347 224.034 429.831 224.244C430.319 224.449 430.705 224.759 430.988 225.174C431.271 225.584 431.413 226.102 431.413 226.727V230.044C431.413 230.523 431.439 230.899 431.493 231.172C431.552 231.441 431.635 231.675 431.742 231.875V232H429.435C429.328 231.771 429.247 231.487 429.193 231.15C429.14 230.809 429.113 230.462 429.113 230.11ZM429.398 227.166L429.413 228.426H428.278C428.024 228.426 427.804 228.458 427.619 228.521C427.438 228.584 427.292 228.672 427.179 228.785C427.067 228.892 426.984 229.019 426.93 229.166C426.881 229.307 426.857 229.463 426.857 229.634C426.857 229.795 426.896 229.942 426.974 230.074C427.052 230.201 427.16 230.301 427.296 230.374C427.433 230.447 427.592 230.484 427.772 230.484C428.07 230.484 428.324 230.425 428.534 230.308C428.749 230.191 428.915 230.049 429.032 229.883C429.149 229.712 429.208 229.554 429.208 229.407L429.757 230.359C429.669 230.555 429.562 230.757 429.435 230.967C429.308 231.172 429.147 231.365 428.952 231.546C428.756 231.722 428.52 231.866 428.241 231.978C427.968 232.09 427.638 232.146 427.252 232.146C426.754 232.146 426.303 232.046 425.897 231.846C425.492 231.641 425.167 231.36 424.923 231.004C424.684 230.647 424.564 230.237 424.564 229.773C424.564 229.358 424.64 228.99 424.792 228.667C424.943 228.345 425.17 228.072 425.473 227.847C425.78 227.623 426.166 227.454 426.63 227.342C427.094 227.225 427.636 227.166 428.256 227.166H429.398ZM435.324 224.075V232H433.031V224.075H435.324ZM432.892 222.024C432.892 221.692 433.009 221.421 433.244 221.211C433.478 220.997 433.786 220.889 434.167 220.889C434.547 220.889 434.855 220.997 435.089 221.211C435.329 221.421 435.448 221.692 435.448 222.024C435.448 222.352 435.329 222.623 435.089 222.837C434.855 223.047 434.547 223.152 434.167 223.152C433.786 223.152 433.478 223.047 433.244 222.837C433.009 222.623 432.892 222.352 432.892 222.024ZM441.19 229.795C441.19 229.649 441.144 229.52 441.051 229.407C440.963 229.295 440.802 229.192 440.568 229.1C440.338 229.007 440.014 228.914 439.594 228.821C439.198 228.738 438.83 228.631 438.488 228.499C438.146 228.362 437.848 228.199 437.594 228.008C437.34 227.813 437.143 227.583 437.001 227.32C436.859 227.051 436.789 226.746 436.789 226.404C436.789 226.072 436.859 225.757 437.001 225.459C437.147 225.162 437.357 224.898 437.631 224.668C437.909 224.439 438.246 224.258 438.642 224.126C439.042 223.995 439.496 223.929 440.004 223.929C440.702 223.929 441.305 224.039 441.813 224.258C442.321 224.473 442.711 224.776 442.985 225.167C443.258 225.552 443.395 225.994 443.395 226.492H441.11C441.11 226.287 441.071 226.109 440.993 225.958C440.915 225.806 440.795 225.689 440.634 225.606C440.473 225.518 440.26 225.474 439.997 225.474C439.792 225.474 439.611 225.511 439.455 225.584C439.303 225.652 439.184 225.748 439.096 225.87C439.013 225.992 438.971 226.133 438.971 226.294C438.971 226.407 438.996 226.509 439.044 226.602C439.098 226.69 439.179 226.773 439.286 226.851C439.398 226.924 439.542 226.99 439.718 227.049C439.899 227.107 440.119 227.164 440.377 227.217C440.929 227.32 441.432 227.464 441.886 227.649C442.345 227.835 442.711 228.091 442.985 228.418C443.263 228.746 443.402 229.178 443.402 229.715C443.402 230.066 443.322 230.389 443.161 230.682C443.004 230.975 442.777 231.231 442.479 231.451C442.182 231.67 441.825 231.841 441.41 231.963C440.995 232.085 440.526 232.146 440.004 232.146C439.257 232.146 438.625 232.012 438.107 231.744C437.589 231.475 437.199 231.138 436.935 230.733C436.676 230.323 436.547 229.903 436.547 229.473H438.693C438.703 229.737 438.769 229.952 438.891 230.118C439.018 230.284 439.181 230.406 439.381 230.484C439.582 230.557 439.806 230.594 440.055 230.594C440.304 230.594 440.512 230.56 440.678 230.491C440.844 230.423 440.971 230.33 441.059 230.213C441.146 230.091 441.19 229.952 441.19 229.795ZM448.412 232.146C447.782 232.146 447.218 232.046 446.72 231.846C446.222 231.646 445.8 231.37 445.453 231.019C445.111 230.662 444.85 230.252 444.669 229.788C444.489 229.324 444.398 228.829 444.398 228.301V228.023C444.398 227.432 444.481 226.888 444.647 226.39C444.813 225.892 445.055 225.459 445.373 225.093C445.695 224.722 446.09 224.437 446.559 224.236C447.028 224.031 447.562 223.929 448.163 223.929C448.725 223.929 449.225 224.021 449.665 224.207C450.104 224.388 450.475 224.649 450.778 224.991C451.081 225.328 451.31 225.735 451.466 226.214C451.627 226.688 451.708 227.22 451.708 227.811V228.748H445.321V227.276H449.467V227.1C449.467 226.822 449.416 226.578 449.313 226.368C449.215 226.158 449.069 225.997 448.874 225.884C448.683 225.767 448.441 225.708 448.148 225.708C447.87 225.708 447.638 225.767 447.453 225.884C447.267 226.001 447.118 226.167 447.006 226.382C446.898 226.592 446.82 226.839 446.771 227.122C446.723 227.4 446.698 227.701 446.698 228.023V228.301C446.698 228.609 446.74 228.89 446.823 229.144C446.906 229.397 447.028 229.615 447.189 229.795C447.35 229.976 447.545 230.118 447.775 230.22C448.004 230.323 448.266 230.374 448.559 230.374C448.92 230.374 449.264 230.306 449.591 230.169C449.918 230.027 450.202 229.808 450.441 229.51L451.51 230.733C451.349 230.967 451.122 231.194 450.829 231.414C450.541 231.629 450.194 231.805 449.789 231.941C449.384 232.078 448.925 232.146 448.412 232.146ZM460.878 228.294H458.197V226.441H460.878C461.273 226.441 461.591 226.375 461.83 226.243C462.074 226.111 462.252 225.931 462.365 225.701C462.482 225.467 462.541 225.203 462.541 224.91C462.541 224.607 462.482 224.327 462.365 224.068C462.252 223.804 462.074 223.592 461.83 223.431C461.591 223.27 461.273 223.189 460.878 223.189H459.062V232H456.674V221.336H460.878C461.728 221.336 462.455 221.49 463.061 221.797C463.671 222.105 464.137 222.527 464.459 223.064C464.787 223.597 464.95 224.207 464.95 224.896C464.95 225.584 464.787 226.182 464.459 226.69C464.137 227.198 463.671 227.593 463.061 227.876C462.455 228.155 461.728 228.294 460.878 228.294ZM470.392 230.11V226.712C470.392 226.473 470.355 226.268 470.282 226.097C470.209 225.926 470.094 225.792 469.938 225.694C469.782 225.596 469.579 225.547 469.33 225.547C469.12 225.547 468.937 225.584 468.781 225.657C468.629 225.73 468.512 225.835 468.429 225.972C468.351 226.109 468.312 226.277 468.312 226.478H466.027C466.027 226.121 466.107 225.789 466.269 225.481C466.43 225.174 466.659 224.903 466.957 224.668C467.26 224.434 467.621 224.253 468.041 224.126C468.461 223.995 468.932 223.929 469.455 223.929C470.075 223.929 470.626 224.034 471.11 224.244C471.598 224.449 471.984 224.759 472.267 225.174C472.55 225.584 472.692 226.102 472.692 226.727V230.044C472.692 230.523 472.719 230.899 472.772 231.172C472.831 231.441 472.914 231.675 473.021 231.875V232H470.714C470.607 231.771 470.526 231.487 470.473 231.15C470.419 230.809 470.392 230.462 470.392 230.11ZM470.678 227.166L470.692 228.426H469.557C469.303 228.426 469.083 228.458 468.898 228.521C468.717 228.584 468.571 228.672 468.458 228.785C468.346 228.892 468.263 229.019 468.209 229.166C468.161 229.307 468.136 229.463 468.136 229.634C468.136 229.795 468.175 229.942 468.253 230.074C468.332 230.201 468.439 230.301 468.576 230.374C468.712 230.447 468.871 230.484 469.052 230.484C469.35 230.484 469.604 230.425 469.813 230.308C470.028 230.191 470.194 230.049 470.312 229.883C470.429 229.712 470.487 229.554 470.487 229.407L471.037 230.359C470.949 230.555 470.841 230.757 470.714 230.967C470.587 231.172 470.426 231.365 470.231 231.546C470.036 231.722 469.799 231.866 469.521 231.978C469.247 232.09 468.917 232.146 468.532 232.146C468.034 232.146 467.582 232.046 467.177 231.846C466.771 231.641 466.447 231.36 466.203 231.004C465.963 230.647 465.844 230.237 465.844 229.773C465.844 229.358 465.919 228.99 466.071 228.667C466.222 228.345 466.449 228.072 466.752 227.847C467.06 227.623 467.445 227.454 467.909 227.342C468.373 227.225 468.915 227.166 469.535 227.166H470.678ZM478.412 229.795C478.412 229.649 478.366 229.52 478.273 229.407C478.185 229.295 478.024 229.192 477.79 229.1C477.56 229.007 477.235 228.914 476.815 228.821C476.42 228.738 476.051 228.631 475.709 228.499C475.368 228.362 475.07 228.199 474.816 228.008C474.562 227.813 474.364 227.583 474.223 227.32C474.081 227.051 474.01 226.746 474.01 226.404C474.01 226.072 474.081 225.757 474.223 225.459C474.369 225.162 474.579 224.898 474.853 224.668C475.131 224.439 475.468 224.258 475.863 224.126C476.264 223.995 476.718 223.929 477.226 223.929C477.924 223.929 478.527 224.039 479.035 224.258C479.542 224.473 479.933 224.776 480.207 225.167C480.48 225.552 480.617 225.994 480.617 226.492H478.332C478.332 226.287 478.292 226.109 478.214 225.958C478.136 225.806 478.017 225.689 477.855 225.606C477.694 225.518 477.482 225.474 477.218 225.474C477.013 225.474 476.833 225.511 476.676 225.584C476.525 225.652 476.405 225.748 476.317 225.87C476.234 225.992 476.193 226.133 476.193 226.294C476.193 226.407 476.217 226.509 476.266 226.602C476.32 226.69 476.4 226.773 476.508 226.851C476.62 226.924 476.764 226.99 476.94 227.049C477.121 227.107 477.34 227.164 477.599 227.217C478.151 227.32 478.654 227.464 479.108 227.649C479.567 227.835 479.933 228.091 480.207 228.418C480.485 228.746 480.624 229.178 480.624 229.715C480.624 230.066 480.543 230.389 480.382 230.682C480.226 230.975 479.999 231.231 479.701 231.451C479.403 231.67 479.047 231.841 478.632 231.963C478.217 232.085 477.748 232.146 477.226 232.146C476.479 232.146 475.846 232.012 475.329 231.744C474.811 231.475 474.42 231.138 474.157 230.733C473.898 230.323 473.769 229.903 473.769 229.473H475.915C475.924 229.737 475.99 229.952 476.112 230.118C476.239 230.284 476.403 230.406 476.603 230.484C476.803 230.557 477.028 230.594 477.277 230.594C477.526 230.594 477.733 230.56 477.899 230.491C478.065 230.423 478.192 230.33 478.28 230.213C478.368 230.091 478.412 229.952 478.412 229.795ZM485.209 230.367C485.453 230.367 485.666 230.32 485.846 230.228C486.027 230.135 486.166 230.005 486.264 229.839C486.366 229.668 486.417 229.463 486.417 229.224H488.571C488.571 229.8 488.422 230.308 488.124 230.748C487.831 231.187 487.436 231.531 486.938 231.78C486.439 232.024 485.878 232.146 485.253 232.146C484.638 232.146 484.101 232.046 483.642 231.846C483.183 231.641 482.799 231.355 482.492 230.989C482.184 230.623 481.952 230.198 481.796 229.715C481.645 229.227 481.569 228.699 481.569 228.133V227.942C481.569 227.381 481.645 226.856 481.796 226.368C481.952 225.879 482.184 225.452 482.492 225.086C482.799 224.72 483.18 224.437 483.634 224.236C484.093 224.031 484.63 223.929 485.246 223.929C485.895 223.929 486.469 224.053 486.967 224.302C487.47 224.551 487.863 224.91 488.146 225.379C488.429 225.843 488.571 226.402 488.571 227.056H486.417C486.417 226.802 486.371 226.575 486.278 226.375C486.19 226.17 486.054 226.009 485.868 225.892C485.688 225.77 485.463 225.708 485.194 225.708C484.916 225.708 484.687 225.77 484.506 225.892C484.33 226.009 484.196 226.172 484.103 226.382C484.01 226.592 483.947 226.832 483.913 227.1C483.878 227.364 483.861 227.645 483.861 227.942V228.133C483.861 228.436 483.878 228.724 483.913 228.997C483.947 229.266 484.01 229.502 484.103 229.708C484.201 229.913 484.337 230.074 484.513 230.191C484.689 230.308 484.921 230.367 485.209 230.367ZM493.903 230.11V226.712C493.903 226.473 493.866 226.268 493.793 226.097C493.72 225.926 493.605 225.792 493.449 225.694C493.292 225.596 493.09 225.547 492.841 225.547C492.631 225.547 492.448 225.584 492.292 225.657C492.14 225.73 492.023 225.835 491.94 225.972C491.862 226.109 491.823 226.277 491.823 226.478H489.538C489.538 226.121 489.618 225.789 489.779 225.481C489.94 225.174 490.17 224.903 490.468 224.668C490.771 224.434 491.132 224.253 491.552 224.126C491.972 223.995 492.443 223.929 492.965 223.929C493.585 223.929 494.137 224.034 494.621 224.244C495.109 224.449 495.495 224.759 495.778 225.174C496.061 225.584 496.203 226.102 496.203 226.727V230.044C496.203 230.523 496.229 230.899 496.283 231.172C496.342 231.441 496.425 231.675 496.532 231.875V232H494.225C494.118 231.771 494.037 231.487 493.983 231.15C493.93 230.809 493.903 230.462 493.903 230.11ZM494.188 227.166L494.203 228.426H493.068C492.814 228.426 492.594 228.458 492.409 228.521C492.228 228.584 492.082 228.672 491.969 228.785C491.857 228.892 491.774 229.019 491.72 229.166C491.671 229.307 491.647 229.463 491.647 229.634C491.647 229.795 491.686 229.942 491.764 230.074C491.842 230.201 491.95 230.301 492.086 230.374C492.223 230.447 492.382 230.484 492.562 230.484C492.86 230.484 493.114 230.425 493.324 230.308C493.539 230.191 493.705 230.049 493.822 229.883C493.939 229.712 493.998 229.554 493.998 229.407L494.547 230.359C494.459 230.555 494.352 230.757 494.225 230.967C494.098 231.172 493.937 231.365 493.742 231.546C493.546 231.722 493.31 231.866 493.031 231.978C492.758 232.09 492.428 232.146 492.042 232.146C491.544 232.146 491.093 232.046 490.688 231.846C490.282 231.641 489.958 231.36 489.713 231.004C489.474 230.647 489.354 230.237 489.354 229.773C489.354 229.358 489.43 228.99 489.582 228.667C489.733 228.345 489.96 228.072 490.263 227.847C490.57 227.623 490.956 227.454 491.42 227.342C491.884 227.225 492.426 227.166 493.046 227.166H494.188ZM500.114 220.75V232H497.821V220.75H500.114Z" fill="white"/>
<path d="M89.7188 95V72.6562H91.8281L106.75 92.2188V72.6562H108.234V95H106.906L91.2031 74.5V95H89.7188ZM115.359 72.6562V74.5312H113.406V72.6562H115.359ZM115.203 78.5938V95H113.562V78.5938H115.203ZM120.531 95V78.5938H121.703L121.906 80.6875C124 79.2917 126.052 78.5938 128.062 78.5938C132.052 78.5938 134.047 80.3177 134.047 83.7656V95H132.406V83.7188C132.406 81.2812 130.932 80.0625 127.984 80.0625C126.016 80.0625 124.078 80.7552 122.172 82.1406V95H120.531ZM150.969 80.4375C149.458 80.1875 147.974 80.0625 146.516 80.0625C142.089 80.0625 139.875 82.2656 139.875 86.6719C139.875 91.1823 141.943 93.4375 146.078 93.4375C147.578 93.4375 149.208 93.1562 150.969 92.5938V80.4375ZM152.609 95C152.609 98.9583 150.198 100.938 145.375 100.938C143.354 100.938 141.562 100.677 140 100.156V98.75C141.594 99.2708 143.396 99.5312 145.406 99.5312C149.115 99.5312 150.969 98.0208 150.969 95V94.2188C149.115 94.7396 147.479 95 146.062 95C140.875 95 138.281 92.2344 138.281 86.7031C138.281 81.2969 141.068 78.5938 146.641 78.5938C148.755 78.5938 150.745 78.8177 152.609 79.2656V95ZM171.141 78.5938V95H169.938L169.75 92.9062C167.865 94.3021 165.76 95 163.438 95C159.562 95 157.625 92.9635 157.625 88.8906V78.5938H159.266V88.9375C159.266 92 160.682 93.5312 163.516 93.5312C165.589 93.5312 167.583 92.8385 169.5 91.4531V78.5938H171.141ZM182.766 78.5938C187.255 78.5938 189.5 81.0781 189.5 86.0469C189.5 86.401 189.49 86.7708 189.469 87.1562H177.016C177.016 91.4479 179.286 93.5938 183.828 93.5938C185.693 93.5938 187.349 93.3333 188.797 92.8125V94.2188C187.349 94.7396 185.693 95 183.828 95C178.193 95 175.375 92.2031 175.375 86.6094C175.375 81.2656 177.839 78.5938 182.766 78.5938ZM177.016 85.6875H187.922C187.859 81.875 186.141 79.9688 182.766 79.9688C179.12 79.9688 177.203 81.875 177.016 85.6875ZM183.312 72.6562H185.797L182.062 76.3906H180.75L183.312 72.6562ZM194.062 95V78.5938H195.234L195.406 80.6562C197.083 79.2812 198.901 78.5938 200.859 78.5938C203.443 78.5938 205.115 79.3438 205.875 80.8438C207.76 79.3438 209.672 78.5938 211.609 78.5938C215.276 78.5938 217.109 80.4115 217.109 84.0469V95H215.469V84.0469C215.469 81.3906 214.177 80.0625 211.594 80.0625C209.531 80.0625 207.828 80.7708 206.484 82.1875V95H204.844V83.7812C204.844 81.3021 203.51 80.0625 200.844 80.0625C198.906 80.0625 197.193 80.7708 195.703 82.1875V95H194.062ZM236.547 78.5938C241.036 78.5938 243.281 81.0781 243.281 86.0469C243.281 86.401 243.271 86.7708 243.25 87.1562H230.797C230.797 91.4479 233.068 93.5938 237.609 93.5938C239.474 93.5938 241.13 93.3333 242.578 92.8125V94.2188C241.13 94.7396 239.474 95 237.609 95C231.974 95 229.156 92.2031 229.156 86.6094C229.156 81.2656 231.62 78.5938 236.547 78.5938ZM230.797 85.6875H241.703C241.641 81.875 239.922 79.9688 236.547 79.9688C232.901 79.9688 230.984 81.875 230.797 85.6875ZM237.094 72.6562H239.578L235.844 76.3906H234.531L237.094 72.6562ZM255.594 75.9375H256.75L257.047 78.5938H261.969V80H257.188V90.3594C257.188 92.5156 257.979 93.5938 259.562 93.5938H261.969V95H259.594C256.927 95 255.594 93.526 255.594 90.5781V75.9375ZM264.531 90.3594C264.531 87.099 266.698 85.4688 271.031 85.4688C272.562 85.4688 274.198 85.5729 275.938 85.7812V83.7656C275.938 81.2552 274.359 80 271.203 80C269.516 80 267.786 80.2604 266.016 80.7812V79.375C267.786 78.8542 269.516 78.5938 271.203 78.5938C275.453 78.5938 277.578 80.2917 277.578 83.6875V95H276.578L276.203 93.375C274.151 94.4583 272.161 95 270.234 95C266.432 95 264.531 93.4531 264.531 90.3594ZM271.031 86.875C267.792 86.875 266.172 88.0208 266.172 90.3125C266.172 92.5 267.526 93.5938 270.234 93.5938C272.234 93.5938 274.135 93.0625 275.938 92V87.1875C274.198 86.9792 272.562 86.875 271.031 86.875ZM267.781 73.375C268.406 72.8958 269.083 72.6562 269.812 72.6562C270.354 72.6562 270.927 72.7917 271.531 73.0625C272.135 73.3333 272.729 73.4688 273.312 73.4688C274.094 73.4688 274.854 73.2292 275.594 72.75V74.1562C274.969 74.6354 274.292 74.875 273.562 74.875C273.021 74.875 272.448 74.7396 271.844 74.4688C271.24 74.1979 270.646 74.0625 270.062 74.0625C269.281 74.0625 268.521 74.3021 267.781 74.7812V73.375ZM283.453 86.7344C283.453 91.4115 285.458 93.75 289.469 93.75C293.479 93.75 295.484 91.4115 295.484 86.7344C295.484 82.1406 293.479 79.8438 289.469 79.8438C285.458 79.8438 283.453 82.1406 283.453 86.7344ZM281.812 86.7969C281.812 81.224 284.365 78.4375 289.469 78.4375C294.573 78.4375 297.125 81.224 297.125 86.7969C297.125 92.3594 294.573 95.1406 289.469 95.1406C284.385 95.1406 281.833 92.3594 281.812 86.7969ZM308.844 94.2188V92.6562C310.667 93.2812 312.458 93.5938 314.219 93.5938C317.667 93.5938 319.391 92.5 319.391 90.3125C319.391 88.5417 318.115 87.6562 315.562 87.6562H313.469C310.031 87.6562 308.312 86.1979 308.312 83.2812C308.312 80.1562 310.589 78.5938 315.141 78.5938C316.891 78.5938 318.677 78.8542 320.5 79.375V80.9375C318.677 80.3125 316.891 80 315.141 80C311.682 80 309.953 81.0938 309.953 83.2812C309.953 85.1562 311.125 86.0938 313.469 86.0938H315.562C319.208 86.0938 321.031 87.5 321.031 90.3125C321.031 93.4375 318.76 95 314.219 95C312.458 95 310.667 94.7396 308.844 94.2188ZM324.312 90.3594C324.312 87.099 326.479 85.4688 330.812 85.4688C332.344 85.4688 333.979 85.5729 335.719 85.7812V83.7656C335.719 81.2552 334.141 80 330.984 80C329.297 80 327.568 80.2604 325.797 80.7812V79.375C327.568 78.8542 329.297 78.5938 330.984 78.5938C335.234 78.5938 337.359 80.2917 337.359 83.6875V95H336.359L335.984 93.375C333.932 94.4583 331.943 95 330.016 95C326.214 95 324.312 93.4531 324.312 90.3594ZM330.812 86.875C327.573 86.875 325.953 88.0208 325.953 90.3125C325.953 92.5 327.307 93.5938 330.016 93.5938C332.016 93.5938 333.917 93.0625 335.719 92V87.1875C333.979 86.9792 332.344 86.875 330.812 86.875ZM332.344 72.6562H334.828L331.094 76.3906H329.781L332.344 72.6562ZM344.016 93.0781C345.693 93.3802 347.208 93.5312 348.562 93.5312C352.833 93.5312 354.969 91.1406 354.969 86.3594C354.969 82.224 353.005 80.1562 349.078 80.1562C347.578 80.1562 345.891 80.4375 344.016 81V93.0781ZM342.375 72.6562H344.016V79.375C345.984 78.8542 347.677 78.5938 349.094 78.5938C354.073 78.5938 356.562 81.2188 356.562 86.4688C356.562 92.1562 353.943 95 348.703 95C346.349 95 344.24 94.776 342.375 94.3281V72.6562ZM362.891 72.6562V74.5312H360.938V72.6562H362.891ZM362.734 78.5938V95H361.094V78.5938H362.734ZM368.922 86.7344C368.922 91.4115 370.927 93.75 374.938 93.75C378.948 93.75 380.953 91.4115 380.953 86.7344C380.953 82.1406 378.948 79.8438 374.938 79.8438C370.927 79.8438 368.922 82.1406 368.922 86.7344ZM367.281 86.7969C367.281 81.224 369.833 78.4375 374.938 78.4375C380.042 78.4375 382.594 81.224 382.594 86.7969C382.594 92.3594 380.042 95.1406 374.938 95.1406C369.854 95.1406 367.302 92.3594 367.281 86.7969ZM406.531 80.4375C404.917 80.1875 403.38 80.0625 401.922 80.0625C397.599 80.0625 395.438 82.2656 395.438 86.6719C395.438 91.1823 397.505 93.4375 401.641 93.4375C403.141 93.4375 404.771 93.1562 406.531 92.5938V80.4375ZM408.172 100.938H406.531V94.2188C404.677 94.7396 403.042 95 401.625 95C396.438 95 393.844 92.2344 393.844 86.7031C393.844 81.2969 396.578 78.5938 402.047 78.5938C404.266 78.5938 406.307 78.8177 408.172 79.2656V100.938ZM426.703 78.5938V95H425.5L425.312 92.9062C423.427 94.3021 421.323 95 419 95C415.125 95 413.188 92.9635 413.188 88.8906V78.5938H414.828V88.9375C414.828 92 416.245 93.5312 419.078 93.5312C421.151 93.5312 423.146 92.8385 425.062 91.4531V78.5938H426.703ZM438.328 78.5938C442.818 78.5938 445.062 81.0781 445.062 86.0469C445.062 86.401 445.052 86.7708 445.031 87.1562H432.578C432.578 91.4479 434.849 93.5938 439.391 93.5938C441.255 93.5938 442.911 93.3333 444.359 92.8125V94.2188C442.911 94.7396 441.255 95 439.391 95C433.755 95 430.938 92.2031 430.938 86.6094C430.938 81.2656 433.401 78.5938 438.328 78.5938ZM432.578 85.6875H443.484C443.422 81.875 441.703 79.9688 438.328 79.9688C434.682 79.9688 432.766 81.875 432.578 85.6875ZM457.094 95V78.5938H458.266L458.469 80.6875C460.562 79.2917 462.615 78.5938 464.625 78.5938C468.615 78.5938 470.609 80.3177 470.609 83.7656V95H468.969V83.7188C468.969 81.2812 467.495 80.0625 464.547 80.0625C462.578 80.0625 460.641 80.7552 458.734 82.1406V95H457.094ZM474.688 90.3594C474.688 87.099 476.854 85.4688 481.188 85.4688C482.719 85.4688 484.354 85.5729 486.094 85.7812V83.7656C486.094 81.2552 484.516 80 481.359 80C479.672 80 477.943 80.2604 476.172 80.7812V79.375C477.943 78.8542 479.672 78.5938 481.359 78.5938C485.609 78.5938 487.734 80.2917 487.734 83.6875V95H486.734L486.359 93.375C484.307 94.4583 482.318 95 480.391 95C476.589 95 474.688 93.4531 474.688 90.3594ZM481.188 86.875C477.948 86.875 476.328 88.0208 476.328 90.3125C476.328 92.5 477.682 93.5938 480.391 93.5938C482.391 93.5938 484.292 93.0625 486.094 92V87.1875C484.354 86.9792 482.719 86.875 481.188 86.875ZM477.938 73.375C478.562 72.8958 479.24 72.6562 479.969 72.6562C480.51 72.6562 481.083 72.7917 481.688 73.0625C482.292 73.3333 482.885 73.4688 483.469 73.4688C484.25 73.4688 485.01 73.2292 485.75 72.75V74.1562C485.125 74.6354 484.448 74.875 483.719 74.875C483.177 74.875 482.604 74.7396 482 74.4688C481.396 74.1979 480.802 74.0625 480.219 74.0625C479.438 74.0625 478.677 74.3021 477.938 74.7812V73.375ZM493.609 86.7344C493.609 91.4115 495.615 93.75 499.625 93.75C503.635 93.75 505.641 91.4115 505.641 86.7344C505.641 82.1406 503.635 79.8438 499.625 79.8438C495.615 79.8438 493.609 82.1406 493.609 86.7344ZM491.969 86.7969C491.969 81.224 494.521 78.4375 499.625 78.4375C504.729 78.4375 507.281 81.224 507.281 86.7969C507.281 92.3594 504.729 95.1406 499.625 95.1406C494.542 95.1406 491.99 92.3594 491.969 86.7969ZM146.219 111.938H147.375L147.672 114.594H152.594V116H147.812V126.359C147.812 128.516 148.604 129.594 150.188 129.594H152.594V131H150.219C147.552 131 146.219 129.526 146.219 126.578V111.938ZM162.703 114.594C167.193 114.594 169.438 117.078 169.438 122.047C169.438 122.401 169.427 122.771 169.406 123.156H156.953C156.953 127.448 159.224 129.594 163.766 129.594C165.63 129.594 167.286 129.333 168.734 128.812V130.219C167.286 130.74 165.63 131 163.766 131C158.13 131 155.312 128.203 155.312 122.609C155.312 117.266 157.776 114.594 162.703 114.594ZM156.953 121.688H167.859C167.797 117.875 166.078 115.969 162.703 115.969C159.057 115.969 157.141 117.875 156.953 121.688ZM173.656 131V114.594H174.828L175.031 116.688C177.125 115.292 179.177 114.594 181.188 114.594C185.177 114.594 187.172 116.318 187.172 119.766V131H185.531V119.719C185.531 117.281 184.057 116.062 181.109 116.062C179.141 116.062 177.203 116.755 175.297 118.141V131H173.656ZM192.188 131V108.656H193.828V116.375C195.745 115.188 197.708 114.594 199.719 114.594C203.708 114.594 205.703 116.63 205.703 120.703V131H204.062V120.031C204.062 117.385 202.589 116.062 199.641 116.062C197.672 116.062 195.734 116.755 193.828 118.141V131H192.188ZM209.781 126.359C209.781 123.099 211.948 121.469 216.281 121.469C217.812 121.469 219.448 121.573 221.188 121.781V119.766C221.188 117.255 219.609 116 216.453 116C214.766 116 213.036 116.26 211.266 116.781V115.375C213.036 114.854 214.766 114.594 216.453 114.594C220.703 114.594 222.828 116.292 222.828 119.688V131H221.828L221.453 129.375C219.401 130.458 217.411 131 215.484 131C211.682 131 209.781 129.453 209.781 126.359ZM216.281 122.875C213.042 122.875 211.422 124.021 211.422 126.312C211.422 128.5 212.776 129.594 215.484 129.594C217.484 129.594 219.385 129.062 221.188 128V123.188C219.448 122.979 217.812 122.875 216.281 122.875ZM234.719 126.359C234.719 123.099 236.885 121.469 241.219 121.469C242.75 121.469 244.385 121.573 246.125 121.781V119.766C246.125 117.255 244.547 116 241.391 116C239.703 116 237.974 116.26 236.203 116.781V115.375C237.974 114.854 239.703 114.594 241.391 114.594C245.641 114.594 247.766 116.292 247.766 119.688V131H246.766L246.391 129.375C244.339 130.458 242.349 131 240.422 131C236.62 131 234.719 129.453 234.719 126.359ZM241.219 122.875C237.979 122.875 236.359 124.021 236.359 126.312C236.359 128.5 237.714 129.594 240.422 129.594C242.422 129.594 244.323 129.062 246.125 128V123.188C244.385 122.979 242.75 122.875 241.219 122.875ZM254.734 108.656V131H253.094V108.656H254.734ZM271.969 116.438C270.458 116.188 268.974 116.062 267.516 116.062C263.089 116.062 260.875 118.266 260.875 122.672C260.875 127.182 262.943 129.438 267.078 129.438C268.578 129.438 270.208 129.156 271.969 128.594V116.438ZM273.609 131C273.609 134.958 271.198 136.938 266.375 136.938C264.354 136.938 262.562 136.677 261 136.156V134.75C262.594 135.271 264.396 135.531 266.406 135.531C270.115 135.531 271.969 134.021 271.969 131V130.219C270.115 130.74 268.479 131 267.062 131C261.875 131 259.281 128.234 259.281 122.703C259.281 117.297 262.068 114.594 267.641 114.594C269.755 114.594 271.745 114.818 273.609 115.266V131ZM279.484 122.734C279.484 127.411 281.49 129.75 285.5 129.75C289.51 129.75 291.516 127.411 291.516 122.734C291.516 118.141 289.51 115.844 285.5 115.844C281.49 115.844 279.484 118.141 279.484 122.734ZM277.844 122.797C277.844 117.224 280.396 114.438 285.5 114.438C290.604 114.438 293.156 117.224 293.156 122.797C293.156 128.359 290.604 131.141 285.5 131.141C280.417 131.141 277.865 128.359 277.844 122.797ZM306.828 128.594C308.484 129.156 310.01 129.438 311.406 129.438C315.646 129.438 317.766 127.078 317.766 122.359C317.766 118.161 315.656 116.062 311.438 116.062C309.979 116.062 308.443 116.188 306.828 116.438V128.594ZM305.188 115.266C307.052 114.818 309.146 114.594 311.469 114.594C316.729 114.594 319.359 117.193 319.359 122.391C319.359 128.13 316.714 131 311.422 131C310.109 131 308.578 130.74 306.828 130.219V136.938H305.188V115.266ZM323.594 131V114.594H324.766L324.969 117.312C326.615 115.5 328.448 114.594 330.469 114.594V115.906C328.51 115.906 326.766 116.859 325.234 118.766V131H323.594ZM332.594 126.359C332.594 123.099 334.76 121.469 339.094 121.469C340.625 121.469 342.26 121.573 344 121.781V119.766C344 117.255 342.422 116 339.266 116C337.578 116 335.849 116.26 334.078 116.781V115.375C335.849 114.854 337.578 114.594 339.266 114.594C343.516 114.594 345.641 116.292 345.641 119.688V131H344.641L344.266 129.375C342.214 130.458 340.224 131 338.297 131C334.495 131 332.594 129.453 332.594 126.359ZM339.094 122.875C335.854 122.875 334.234 124.021 334.234 126.312C334.234 128.5 335.589 129.594 338.297 129.594C340.297 129.594 342.198 129.062 344 128V123.188C342.26 122.979 340.625 122.875 339.094 122.875ZM357.531 126.359C357.531 123.099 359.698 121.469 364.031 121.469C365.562 121.469 367.198 121.573 368.938 121.781V119.766C368.938 117.255 367.359 116 364.203 116C362.516 116 360.786 116.26 359.016 116.781V115.375C360.786 114.854 362.516 114.594 364.203 114.594C368.453 114.594 370.578 116.292 370.578 119.688V131H369.578L369.203 129.375C367.151 130.458 365.161 131 363.234 131C359.432 131 357.531 129.453 357.531 126.359ZM364.031 122.875C360.792 122.875 359.172 124.021 359.172 126.312C359.172 128.5 360.526 129.594 363.234 129.594C365.234 129.594 367.135 129.062 368.938 128V123.188C367.198 122.979 365.562 122.875 364.031 122.875ZM377.234 128.594C378.891 129.156 380.417 129.438 381.812 129.438C386.052 129.438 388.172 127.078 388.172 122.359C388.172 118.161 386.062 116.062 381.844 116.062C380.385 116.062 378.849 116.188 377.234 116.438V128.594ZM375.594 115.266C377.458 114.818 379.552 114.594 381.875 114.594C387.135 114.594 389.766 117.193 389.766 122.391C389.766 128.13 387.12 131 381.828 131C380.516 131 378.984 130.74 377.234 130.219V136.938H375.594V115.266ZM394 131V114.594H395.172L395.375 117.312C397.021 115.5 398.854 114.594 400.875 114.594V115.906C398.917 115.906 397.172 116.859 395.641 118.766V131H394ZM410.547 114.594C415.036 114.594 417.281 117.078 417.281 122.047C417.281 122.401 417.271 122.771 417.25 123.156H404.797C404.797 127.448 407.068 129.594 411.609 129.594C413.474 129.594 415.13 129.333 416.578 128.812V130.219C415.13 130.74 413.474 131 411.609 131C405.974 131 403.156 128.203 403.156 122.609C403.156 117.266 405.62 114.594 410.547 114.594ZM404.797 121.688H415.703C415.641 117.875 413.922 115.969 410.547 115.969C406.901 115.969 404.984 117.875 404.797 121.688ZM421.5 131V114.594H422.672L422.875 116.688C424.969 115.292 427.021 114.594 429.031 114.594C433.021 114.594 435.016 116.318 435.016 119.766V131H433.375V119.719C433.375 117.281 431.901 116.062 428.953 116.062C426.984 116.062 425.047 116.755 423.141 118.141V131H421.5ZM451.984 117C450.401 116.438 448.755 116.156 447.047 116.156C443.016 116.156 441 118.224 441 122.359C441 127.141 443.016 129.531 447.047 129.531C448.755 129.531 450.401 129.328 451.984 128.922V117ZM453.625 130.016C451.844 130.672 449.599 131 446.891 131C441.797 131 439.25 128.156 439.25 122.469C439.25 117.219 441.844 114.594 447.031 114.594C448.656 114.594 450.307 114.854 451.984 115.375V108.656H453.625V130.016ZM465.234 114.594C469.724 114.594 471.969 117.078 471.969 122.047C471.969 122.401 471.958 122.771 471.938 123.156H459.484C459.484 127.448 461.755 129.594 466.297 129.594C468.161 129.594 469.818 129.333 471.266 128.812V130.219C469.818 130.74 468.161 131 466.297 131C460.661 131 457.844 128.203 457.844 122.609C457.844 117.266 460.307 114.594 465.234 114.594ZM459.484 121.688H470.391C470.328 117.875 468.609 115.969 465.234 115.969C461.589 115.969 459.672 117.875 459.484 121.688ZM476.188 131V114.594H477.359L477.562 117.312C479.208 115.5 481.042 114.594 483.062 114.594V115.906C481.104 115.906 479.359 116.859 477.828 118.766V131H476.188ZM500.547 114.594C505.036 114.594 507.281 117.078 507.281 122.047C507.281 122.401 507.271 122.771 507.25 123.156H494.797C494.797 127.448 497.068 129.594 501.609 129.594C503.474 129.594 505.13 129.333 506.578 128.812V130.219C505.13 130.74 503.474 131 501.609 131C495.974 131 493.156 128.203 493.156 122.609C493.156 117.266 495.62 114.594 500.547 114.594ZM494.797 121.688H505.703C505.641 117.875 503.922 115.969 500.547 115.969C496.901 115.969 494.984 117.875 494.797 121.688ZM117.375 167V150.594H118.547L118.75 152.688C120.844 151.292 122.896 150.594 124.906 150.594C128.896 150.594 130.891 152.318 130.891 155.766V167H129.25V155.719C129.25 153.281 127.776 152.062 124.828 152.062C122.859 152.062 120.922 152.755 119.016 154.141V167H117.375ZM142.516 150.594C147.005 150.594 149.25 153.078 149.25 158.047C149.25 158.401 149.24 158.771 149.219 159.156H136.766C136.766 163.448 139.036 165.594 143.578 165.594C145.443 165.594 147.099 165.333 148.547 164.812V166.219C147.099 166.74 145.443 167 143.578 167C137.943 167 135.125 164.203 135.125 158.609C135.125 153.266 137.589 150.594 142.516 150.594ZM136.766 157.688H147.672C147.609 153.875 145.891 151.969 142.516 151.969C138.87 151.969 136.953 153.875 136.766 157.688ZM153.469 167V150.594H154.641L154.812 152.656C156.49 151.281 158.307 150.594 160.266 150.594C162.849 150.594 164.521 151.344 165.281 152.844C167.167 151.344 169.078 150.594 171.016 150.594C174.682 150.594 176.516 152.411 176.516 156.047V167H174.875V156.047C174.875 153.391 173.583 152.062 171 152.062C168.938 152.062 167.234 152.771 165.891 154.188V167H164.25V155.781C164.25 153.302 162.917 152.062 160.25 152.062C158.312 152.062 156.599 152.771 155.109 154.188V167H153.469ZM189.281 147.938H190.438L190.734 150.594H195.656V152H190.875V162.359C190.875 164.516 191.667 165.594 193.25 165.594H195.656V167H193.281C190.615 167 189.281 165.526 189.281 162.578V147.938ZM198.219 162.359C198.219 159.099 200.385 157.469 204.719 157.469C206.25 157.469 207.885 157.573 209.625 157.781V155.766C209.625 153.255 208.047 152 204.891 152C203.203 152 201.474 152.26 199.703 152.781V151.375C201.474 150.854 203.203 150.594 204.891 150.594C209.141 150.594 211.266 152.292 211.266 155.688V167H210.266L209.891 165.375C207.839 166.458 205.849 167 203.922 167C200.12 167 198.219 165.453 198.219 162.359ZM204.719 158.875C201.479 158.875 199.859 160.021 199.859 162.312C199.859 164.5 201.214 165.594 203.922 165.594C205.922 165.594 207.823 165.062 209.625 164V159.188C207.885 158.979 206.25 158.875 204.719 158.875ZM201.469 145.375C202.094 144.896 202.771 144.656 203.5 144.656C204.042 144.656 204.615 144.792 205.219 145.062C205.823 145.333 206.417 145.469 207 145.469C207.781 145.469 208.542 145.229 209.281 144.75V146.156C208.656 146.635 207.979 146.875 207.25 146.875C206.708 146.875 206.135 146.74 205.531 146.469C204.927 146.198 204.333 146.062 203.75 146.062C202.969 146.062 202.208 146.302 201.469 146.781V145.375ZM217.141 158.734C217.141 163.411 219.146 165.75 223.156 165.75C227.167 165.75 229.172 163.411 229.172 158.734C229.172 154.141 227.167 151.844 223.156 151.844C219.146 151.844 217.141 154.141 217.141 158.734ZM215.5 158.797C215.5 153.224 218.052 150.438 223.156 150.438C228.26 150.438 230.812 153.224 230.812 158.797C230.812 164.359 228.26 167.141 223.156 167.141C218.073 167.141 215.521 164.359 215.5 158.797ZM242.781 147.938H243.938L244.234 150.594H249.156V152H244.375V162.359C244.375 164.516 245.167 165.594 246.75 165.594H249.156V167H246.781C244.115 167 242.781 165.526 242.781 162.578V147.938ZM253.516 158.734C253.516 163.411 255.521 165.75 259.531 165.75C263.542 165.75 265.547 163.411 265.547 158.734C265.547 154.141 263.542 151.844 259.531 151.844C255.521 151.844 253.516 154.141 253.516 158.734ZM251.875 158.797C251.875 153.224 254.427 150.438 259.531 150.438C264.635 150.438 267.188 153.224 267.188 158.797C267.188 164.359 264.635 167.141 259.531 167.141C254.448 167.141 251.896 164.359 251.875 158.797ZM273.359 144.656V167H271.719V144.656H273.359ZM279.547 158.734C279.547 163.411 281.552 165.75 285.562 165.75C289.573 165.75 291.578 163.411 291.578 158.734C291.578 154.141 289.573 151.844 285.562 151.844C281.552 151.844 279.547 154.141 279.547 158.734ZM277.906 158.797C277.906 153.224 280.458 150.438 285.562 150.438C290.667 150.438 293.219 153.224 293.219 158.797C293.219 164.359 290.667 167.141 285.562 167.141C280.479 167.141 277.927 164.359 277.906 158.797ZM317.156 152.438C315.542 152.188 314.005 152.062 312.547 152.062C308.224 152.062 306.062 154.266 306.062 158.672C306.062 163.182 308.13 165.438 312.266 165.438C313.766 165.438 315.396 165.156 317.156 164.594V152.438ZM318.797 172.938H317.156V166.219C315.302 166.74 313.667 167 312.25 167C307.062 167 304.469 164.234 304.469 158.703C304.469 153.297 307.203 150.594 312.672 150.594C314.891 150.594 316.932 150.818 318.797 151.266V172.938ZM337.328 150.594V167H336.125L335.938 164.906C334.052 166.302 331.948 167 329.625 167C325.75 167 323.812 164.964 323.812 160.891V150.594H325.453V160.938C325.453 164 326.87 165.531 329.703 165.531C331.776 165.531 333.771 164.839 335.688 163.453V150.594H337.328ZM348.953 150.594C353.443 150.594 355.688 153.078 355.688 158.047C355.688 158.401 355.677 158.771 355.656 159.156H343.203C343.203 163.448 345.474 165.594 350.016 165.594C351.88 165.594 353.536 165.333 354.984 164.812V166.219C353.536 166.74 351.88 167 350.016 167C344.38 167 341.562 164.203 341.562 158.609C341.562 153.266 344.026 150.594 348.953 150.594ZM343.203 157.688H354.109C354.047 153.875 352.328 151.969 348.953 151.969C345.307 151.969 343.391 153.875 343.203 157.688ZM367.719 167V150.594H368.891L369.094 152.688C371.188 151.292 373.24 150.594 375.25 150.594C379.24 150.594 381.234 152.318 381.234 155.766V167H379.594V155.719C379.594 153.281 378.12 152.062 375.172 152.062C373.203 152.062 371.266 152.755 369.359 154.141V167H367.719ZM385.312 162.359C385.312 159.099 387.479 157.469 391.812 157.469C393.344 157.469 394.979 157.573 396.719 157.781V155.766C396.719 153.255 395.141 152 391.984 152C390.297 152 388.568 152.26 386.797 152.781V151.375C388.568 150.854 390.297 150.594 391.984 150.594C396.234 150.594 398.359 152.292 398.359 155.688V167H397.359L396.984 165.375C394.932 166.458 392.943 167 391.016 167C387.214 167 385.312 165.453 385.312 162.359ZM391.812 158.875C388.573 158.875 386.953 160.021 386.953 162.312C386.953 164.5 388.307 165.594 391.016 165.594C393.016 165.594 394.917 165.062 396.719 164V159.188C394.979 158.979 393.344 158.875 391.812 158.875ZM388.562 145.375C389.188 144.896 389.865 144.656 390.594 144.656C391.135 144.656 391.708 144.792 392.312 145.062C392.917 145.333 393.51 145.469 394.094 145.469C394.875 145.469 395.635 145.229 396.375 144.75V146.156C395.75 146.635 395.073 146.875 394.344 146.875C393.802 146.875 393.229 146.74 392.625 146.469C392.021 146.198 391.427 146.062 390.844 146.062C390.062 146.062 389.302 146.302 388.562 146.781V145.375ZM404.234 158.734C404.234 163.411 406.24 165.75 410.25 165.75C414.26 165.75 416.266 163.411 416.266 158.734C416.266 154.141 414.26 151.844 410.25 151.844C406.24 151.844 404.234 154.141 404.234 158.734ZM402.594 158.797C402.594 153.224 405.146 150.438 410.25 150.438C415.354 150.438 417.906 153.224 417.906 158.797C417.906 164.359 415.354 167.141 410.25 167.141C405.167 167.141 402.615 164.359 402.594 158.797ZM429.875 147.938H431.031L431.328 150.594H436.25V152H431.469V162.359C431.469 164.516 432.26 165.594 433.844 165.594H436.25V167H433.875C431.208 167 429.875 165.526 429.875 162.578V147.938ZM446.359 150.594C450.849 150.594 453.094 153.078 453.094 158.047C453.094 158.401 453.083 158.771 453.062 159.156H440.609C440.609 163.448 442.88 165.594 447.422 165.594C449.286 165.594 450.943 165.333 452.391 164.812V166.219C450.943 166.74 449.286 167 447.422 167C441.786 167 438.969 164.203 438.969 158.609C438.969 153.266 441.432 150.594 446.359 150.594ZM440.609 157.688H451.516C451.453 153.875 449.734 151.969 446.359 151.969C442.714 151.969 440.797 153.875 440.609 157.688ZM457.312 167V150.594H458.484L458.688 152.688C460.781 151.292 462.833 150.594 464.844 150.594C468.833 150.594 470.828 152.318 470.828 155.766V167H469.188V155.719C469.188 153.281 467.714 152.062 464.766 152.062C462.797 152.062 460.859 152.755 458.953 154.141V167H457.312ZM475.844 167V144.656H477.484V152.375C479.401 151.188 481.365 150.594 483.375 150.594C487.365 150.594 489.359 152.63 489.359 156.703V167H487.719V156.031C487.719 153.385 486.245 152.062 483.297 152.062C481.328 152.062 479.391 152.755 477.484 154.141V167H475.844ZM493.438 162.359C493.438 159.099 495.604 157.469 499.938 157.469C501.469 157.469 503.104 157.573 504.844 157.781V155.766C504.844 153.255 503.266 152 500.109 152C498.422 152 496.693 152.26 494.922 152.781V151.375C496.693 150.854 498.422 150.594 500.109 150.594C504.359 150.594 506.484 152.292 506.484 155.688V167H505.484L505.109 165.375C503.057 166.458 501.068 167 499.141 167C495.339 167 493.438 165.453 493.438 162.359ZM499.938 158.875C496.698 158.875 495.078 160.021 495.078 162.312C495.078 164.5 496.432 165.594 499.141 165.594C501.141 165.594 503.042 165.062 504.844 164V159.188C503.104 158.979 501.469 158.875 499.938 158.875ZM277.125 198.359C277.125 195.099 279.292 193.469 283.625 193.469C285.156 193.469 286.792 193.573 288.531 193.781V191.766C288.531 189.255 286.953 188 283.797 188C282.109 188 280.38 188.26 278.609 188.781V187.375C280.38 186.854 282.109 186.594 283.797 186.594C288.047 186.594 290.172 188.292 290.172 191.688V203H289.172L288.797 201.375C286.745 202.458 284.755 203 282.828 203C279.026 203 277.125 201.453 277.125 198.359ZM283.625 194.875C280.385 194.875 278.766 196.021 278.766 198.312C278.766 200.5 280.12 201.594 282.828 201.594C284.828 201.594 286.729 201.062 288.531 200V195.188C286.792 194.979 285.156 194.875 283.625 194.875ZM297.141 180.656V203H295.5V180.656H297.141ZM314.375 188.438C312.865 188.188 311.38 188.062 309.922 188.062C305.495 188.062 303.281 190.266 303.281 194.672C303.281 199.182 305.349 201.438 309.484 201.438C310.984 201.438 312.615 201.156 314.375 200.594V188.438ZM316.016 203C316.016 206.958 313.604 208.938 308.781 208.938C306.76 208.938 304.969 208.677 303.406 208.156V206.75C305 207.271 306.802 207.531 308.812 207.531C312.521 207.531 314.375 206.021 314.375 203V202.219C312.521 202.74 310.885 203 309.469 203C304.281 203 301.688 200.234 301.688 194.703C301.688 189.297 304.474 186.594 310.047 186.594C312.161 186.594 314.151 186.818 316.016 187.266V203ZM321.891 194.734C321.891 199.411 323.896 201.75 327.906 201.75C331.917 201.75 333.922 199.411 333.922 194.734C333.922 190.141 331.917 187.844 327.906 187.844C323.896 187.844 321.891 190.141 321.891 194.734ZM320.25 194.797C320.25 189.224 322.802 186.438 327.906 186.438C333.01 186.438 335.562 189.224 335.562 194.797C335.562 200.359 333.01 203.141 327.906 203.141C322.823 203.141 320.271 200.359 320.25 194.797ZM349.234 200.594C350.891 201.156 352.417 201.438 353.812 201.438C358.052 201.438 360.172 199.078 360.172 194.359C360.172 190.161 358.062 188.062 353.844 188.062C352.385 188.062 350.849 188.188 349.234 188.438V200.594ZM347.594 187.266C349.458 186.818 351.552 186.594 353.875 186.594C359.135 186.594 361.766 189.193 361.766 194.391C361.766 200.13 359.12 203 353.828 203C352.516 203 350.984 202.74 349.234 202.219V208.938H347.594V187.266ZM366 203V186.594H367.172L367.375 189.312C369.021 187.5 370.854 186.594 372.875 186.594V187.906C370.917 187.906 369.172 188.859 367.641 190.766V203H366ZM375 198.359C375 195.099 377.167 193.469 381.5 193.469C383.031 193.469 384.667 193.573 386.406 193.781V191.766C386.406 189.255 384.828 188 381.672 188C379.984 188 378.255 188.26 376.484 188.781V187.375C378.255 186.854 379.984 186.594 381.672 186.594C385.922 186.594 388.047 188.292 388.047 191.688V203H387.047L386.672 201.375C384.62 202.458 382.63 203 380.703 203C376.901 203 375 201.453 375 198.359ZM381.5 194.875C378.26 194.875 376.641 196.021 376.641 198.312C376.641 200.5 377.995 201.594 380.703 201.594C382.703 201.594 384.604 201.062 386.406 200V195.188C384.667 194.979 383.031 194.875 381.5 194.875ZM407.484 186.594C411.974 186.594 414.219 189.078 414.219 194.047C414.219 194.401 414.208 194.771 414.188 195.156H401.734C401.734 199.448 404.005 201.594 408.547 201.594C410.411 201.594 412.068 201.333 413.516 200.812V202.219C412.068 202.74 410.411 203 408.547 203C402.911 203 400.094 200.203 400.094 194.609C400.094 189.266 402.557 186.594 407.484 186.594ZM401.734 193.688H412.641C412.578 189.875 410.859 187.969 407.484 187.969C403.839 187.969 401.922 189.875 401.734 193.688ZM418.438 203V186.594H419.609L419.812 188.688C421.906 187.292 423.958 186.594 425.969 186.594C429.958 186.594 431.953 188.318 431.953 191.766V203H430.312V191.719C430.312 189.281 428.839 188.062 425.891 188.062C423.922 188.062 421.984 188.755 420.078 190.141V203H418.438ZM436.656 202.219V200.656C438.479 201.281 440.271 201.594 442.031 201.594C445.479 201.594 447.203 200.5 447.203 198.312C447.203 196.542 445.927 195.656 443.375 195.656H441.281C437.844 195.656 436.125 194.198 436.125 191.281C436.125 188.156 438.401 186.594 442.953 186.594C444.703 186.594 446.49 186.854 448.312 187.375V188.938C446.49 188.312 444.703 188 442.953 188C439.495 188 437.766 189.094 437.766 191.281C437.766 193.156 438.938 194.094 441.281 194.094H443.375C447.021 194.094 448.844 195.5 448.844 198.312C448.844 201.438 446.573 203 442.031 203C440.271 203 438.479 202.74 436.656 202.219ZM455.172 180.656V182.531H453.219V180.656H455.172ZM455.016 186.594V203H453.375V186.594H455.016ZM460.344 203V186.594H461.516L461.719 188.688C463.812 187.292 465.865 186.594 467.875 186.594C471.865 186.594 473.859 188.318 473.859 191.766V203H472.219V191.719C472.219 189.281 470.745 188.062 467.797 188.062C465.828 188.062 463.891 188.755 461.984 190.141V203H460.344ZM477.938 198.359C477.938 195.099 480.104 193.469 484.438 193.469C485.969 193.469 487.604 193.573 489.344 193.781V191.766C489.344 189.255 487.766 188 484.609 188C482.922 188 481.193 188.26 479.422 188.781V187.375C481.193 186.854 482.922 186.594 484.609 186.594C488.859 186.594 490.984 188.292 490.984 191.688V203H489.984L489.609 201.375C487.557 202.458 485.568 203 483.641 203C479.839 203 477.938 201.453 477.938 198.359ZM484.438 194.875C481.198 194.875 479.578 196.021 479.578 198.312C479.578 200.5 480.932 201.594 483.641 201.594C485.641 201.594 487.542 201.062 489.344 200V195.188C487.604 194.979 485.969 194.875 484.438 194.875ZM496 203V186.594H497.172L497.375 189.312C499.021 187.5 500.854 186.594 502.875 186.594V187.906C500.917 187.906 499.172 188.859 497.641 190.766V203H496ZM507.266 201.047V203H505.156V201.047H507.266Z" fill="white"/>
</svg>
