<svg width="191" height="173" viewBox="0 0 191 173" fill="none" xmlns="http://www.w3.org/2000/svg">
<path d="M95.6239 170.967C147.333 170.967 189.248 133.143 189.248 86.4836C189.248 39.8246 147.333 2 95.6239 2C43.9168 2 2 39.8246 2 86.4836C2 133.143 43.9168 170.967 95.6239 170.967Z" fill="#1D2225" stroke="black" stroke-width="3"/>
<mask id="mask0_261_98" style="mask-type:alpha" maskUnits="userSpaceOnUse" x="0" y="0" width="191" height="173">
<path d="M95.6239 170.967C147.333 170.967 189.248 133.143 189.248 86.4836C189.248 39.8246 147.333 2 95.6239 2C43.9168 2 2 39.8246 2 86.4836C2 133.143 43.9168 170.967 95.6239 170.967Z" fill="white" stroke="black" stroke-width="3"/>
</mask>
<g mask="url(#mask0_261_98)">
<g filter="url(#filter0_d_261_98)">
<path fill-rule="evenodd" clip-rule="evenodd" d="M95.6239 122.325C120.692 122.325 141.017 103.986 141.017 81.3634C141.017 58.7407 120.692 40.4016 95.6239 40.4016C70.5537 40.4016 50.2305 58.7407 50.2305 81.3634C50.2305 103.986 70.5537 122.325 95.6239 122.325Z" fill="#010101" fill-opacity="0.88"/>
<path d="M132.506 81.3634C132.506 99.7445 115.994 114.645 95.6235 114.645C75.2538 114.645 58.7414 99.7445 58.7414 81.3634C58.7414 62.9823 75.2538 48.0819 95.6235 48.0819C115.994 48.0819 132.506 62.9823 132.506 81.3634Z" fill="#010101" fill-opacity="0.88" stroke="#FFC727" stroke-width="3"/>
</g>
<g filter="url(#filter1_d_261_98)">
<path fill-rule="evenodd" clip-rule="evenodd" d="M95.6237 240.09C136.364 240.09 169.388 210.289 169.388 173.527C169.388 136.766 136.364 106.964 95.6237 106.964C54.8848 106.964 21.8594 136.766 21.8594 173.527C21.8594 210.289 54.8848 240.09 95.6237 240.09Z" fill="#010101" fill-opacity="0.88"/>
<path d="M160.876 173.527C160.876 206.047 131.66 232.41 95.6235 232.41C59.5851 232.41 30.3705 206.047 30.3705 173.527C30.3705 141.007 59.5851 114.645 95.6235 114.645C131.66 114.645 160.876 141.007 160.876 173.527Z" fill="#010101" fill-opacity="0.88" stroke="#FFC727" stroke-width="3"/>
</g>
</g>
<defs>
<filter id="filter0_d_261_98" x="49.2305" y="40.4016" width="98.7868" height="89.9236" filterUnits="userSpaceOnUse" color-interpolation-filters="sRGB">
<feFlood flood-opacity="0" result="BackgroundImageFix"/>
<feColorMatrix in="SourceAlpha" type="matrix" values="0 0 0 0 0 0 0 0 0 0 0 0 0 0 0 0 0 0 127 0" result="hardAlpha"/>
<feOffset dx="3" dy="4"/>
<feGaussianBlur stdDeviation="2"/>
<feColorMatrix type="matrix" values="0 0 0 0 0 0 0 0 0 0 0 0 0 0 0 0 0 0 0.2 0"/>
<feBlend mode="normal" in2="BackgroundImageFix" result="effect1_dropShadow_261_98"/>
<feBlend mode="normal" in="SourceGraphic" in2="effect1_dropShadow_261_98" result="shape"/>
</filter>
<filter id="filter1_d_261_98" x="20.8594" y="106.964" width="155.529" height="141.126" filterUnits="userSpaceOnUse" color-interpolation-filters="sRGB">
<feFlood flood-opacity="0" result="BackgroundImageFix"/>
<feColorMatrix in="SourceAlpha" type="matrix" values="0 0 0 0 0 0 0 0 0 0 0 0 0 0 0 0 0 0 127 0" result="hardAlpha"/>
<feOffset dx="3" dy="4"/>
<feGaussianBlur stdDeviation="2"/>
<feColorMatrix type="matrix" values="0 0 0 0 0 0 0 0 0 0 0 0 0 0 0 0 0 0 0.2 0"/>
<feBlend mode="normal" in2="BackgroundImageFix" result="effect1_dropShadow_261_98"/>
<feBlend mode="normal" in="SourceGraphic" in2="effect1_dropShadow_261_98" result="shape"/>
</filter>
</defs>
</svg>
