<svg width="39" height="16" viewBox="0 0 39 16" fill="none" xmlns="http://www.w3.org/2000/svg">
<path d="M10.0502 1.25502L7.41116 1.81281L7.39897 10.4464C7.39897 12.0409 8.60572 13.0716 10.2086 13.0716C11.0985 13.0716 11.7506 12.9079 12.1102 12.7139V10.6646C11.7628 10.8041 10.0563 11.3013 10.0563 9.71277V5.88102H12.1102V3.58924H10.0563L10.0502 1.25502ZM15.4805 4.38348L15.316 3.58924H12.9756V12.8776H15.6756V6.62675C16.3155 5.79007 17.3943 5.95377 17.7417 6.0629V3.58924C17.376 3.46192 16.1144 3.22546 15.4805 4.38348ZM21.106 0L18.3877 0.575976V2.77075L21.106 2.19477V0ZM2.73043 6.32361C2.73043 5.90527 3.08392 5.74157 3.65073 5.73551C4.47351 5.73551 5.5218 5.98409 6.34458 6.42668V3.89238C5.44866 3.54074 4.55274 3.40129 3.65682 3.40129C1.46273 3.40129 0 4.54111 0 6.44487C0 9.42781 4.11392 8.94278 4.11392 10.2281C4.11392 10.7253 3.6812 10.889 3.07782 10.889C2.1819 10.889 1.02391 10.5191 0.115799 10.028V12.4532C1.12143 12.8837 2.13924 13.0656 3.07173 13.0656C5.32067 13.0656 6.86873 12.1076 6.86873 10.1675C6.86873 6.96021 2.73043 7.53619 2.73043 6.32361ZM39 8.34256C39 5.58393 37.6592 3.40735 35.0872 3.40735C32.5152 3.40735 30.9489 5.58393 30.9489 8.32436C30.9489 11.568 32.7956 13.0656 35.4285 13.0656C36.7206 13.0656 37.6896 12.7745 38.4271 12.3683V10.3433C37.6896 10.7131 36.8425 10.9375 35.7698 10.9375C34.7154 10.9375 33.789 10.5676 33.6671 9.30656H38.9634C38.9756 9.16711 39 8.60326 39 8.34256ZM33.6428 7.32399C33.6428 6.11141 34.3924 5.60212 35.0689 5.60212C35.7332 5.60212 36.4402 6.11141 36.4402 7.32399H33.6428ZM26.7618 3.40735C25.7014 3.40735 25.0188 3.90451 24.6409 4.2501L24.5007 3.58318H22.1177V16L24.8237 15.4301L24.8298 12.3865C25.2199 12.6715 25.7989 13.0656 26.7436 13.0656C28.6817 13.0656 30.4491 11.659 30.4491 8.23948C30.4552 5.11103 28.6634 3.40735 26.7618 3.40735ZM26.1158 10.8344C25.4819 10.8344 25.1041 10.604 24.842 10.3251L24.8237 6.32361C25.1041 6.0144 25.4941 5.79007 26.1158 5.79007C27.1031 5.79007 27.7857 6.89352 27.7857 8.30011C27.7918 9.74915 27.1214 10.8344 26.1158 10.8344ZM18.3938 12.8776H21.112V3.58924H18.3938V12.8776Z" fill="white" fill-opacity="0.7"/>
</svg>
