<svg width="127" height="39" viewBox="0 0 127 39" fill="none" xmlns="http://www.w3.org/2000/svg">
<g filter="url(#filter0_d_182_417)">
<rect width="121" height="33" rx="5" fill="white"/>
</g>
<path d="M20.5996 18.6641H22.8145C22.778 19.3477 22.5911 19.9515 22.2539 20.4756C21.9212 20.9951 21.4587 21.403 20.8662 21.6992C20.2738 21.9909 19.5697 22.1367 18.7539 22.1367C18.1022 22.1367 17.5189 22.0251 17.0039 21.8018C16.4889 21.5785 16.0514 21.2594 15.6914 20.8447C15.3359 20.4255 15.0625 19.9219 14.8711 19.334C14.6842 18.7415 14.5908 18.0739 14.5908 17.3311V16.7227C14.5908 15.9798 14.6888 15.3122 14.8848 14.7197C15.0807 14.1273 15.361 13.6214 15.7256 13.2021C16.0902 12.7829 16.5277 12.4616 17.0381 12.2383C17.5485 12.015 18.1182 11.9033 18.7471 11.9033C19.5947 11.9033 20.3102 12.056 20.8936 12.3613C21.4769 12.6667 21.9281 13.0859 22.2471 13.6191C22.5706 14.1523 22.7643 14.7607 22.8281 15.4443H20.6064C20.5882 15.057 20.5153 14.7311 20.3877 14.4668C20.2601 14.1979 20.0641 13.9951 19.7998 13.8584C19.5355 13.7217 19.1846 13.6533 18.7471 13.6533C18.4281 13.6533 18.1478 13.7126 17.9062 13.8311C17.6693 13.9495 17.471 14.1341 17.3115 14.3848C17.1566 14.6354 17.0404 14.9544 16.9629 15.3418C16.8854 15.7246 16.8467 16.1803 16.8467 16.709V17.3311C16.8467 17.8551 16.8809 18.3086 16.9492 18.6914C17.0176 19.0742 17.127 19.391 17.2773 19.6416C17.4323 19.8923 17.6305 20.0791 17.8721 20.2021C18.1136 20.3252 18.4076 20.3867 18.7539 20.3867C19.1504 20.3867 19.4808 20.3252 19.7451 20.2021C20.0094 20.0745 20.2122 19.8831 20.3535 19.6279C20.4948 19.3727 20.5768 19.0514 20.5996 18.6641ZM28.1875 13.9404L25.6172 22H23.2383L26.9229 12.0469H28.4268L28.1875 13.9404ZM30.3203 22L27.7432 13.9404L27.4766 12.0469H29.001L32.6992 22H30.3203ZM30.2109 18.2949V20.0176H25.0225V18.2949H30.2109ZM36.6777 22H34.4902L34.5039 20.2773H36.6777C37.1745 20.2773 37.5938 20.1634 37.9355 19.9355C38.2773 19.7031 38.5371 19.3613 38.7148 18.9102C38.8926 18.4544 38.9814 17.9007 38.9814 17.249V16.791C38.9814 16.2988 38.9313 15.8659 38.8311 15.4922C38.7308 15.1139 38.5827 14.7972 38.3867 14.542C38.1908 14.2868 37.9469 14.0954 37.6553 13.9678C37.3682 13.8402 37.0378 13.7764 36.6641 13.7764H34.4492V12.0469H36.6641C37.3385 12.0469 37.9538 12.1608 38.5098 12.3887C39.0703 12.6165 39.5534 12.9424 39.959 13.3662C40.3691 13.79 40.6859 14.2913 40.9092 14.8701C41.1325 15.4489 41.2441 16.0938 41.2441 16.8047V17.249C41.2441 17.9554 41.1325 18.6003 40.9092 19.1836C40.6859 19.7624 40.3691 20.2637 39.959 20.6875C39.5534 21.1068 39.0726 21.4303 38.5166 21.6582C37.9606 21.8861 37.3477 22 36.6777 22ZM35.7549 12.0469V22H33.5264V12.0469H35.7549ZM46.5898 13.9404L44.0195 22H41.6406L45.3252 12.0469H46.8291L46.5898 13.9404ZM48.7227 22L46.1455 13.9404L45.8789 12.0469H47.4033L51.1016 22H48.7227ZM48.6133 18.2949V20.0176H43.4248V18.2949H48.6133ZM57.0898 19.375C57.0898 19.2064 57.0648 19.056 57.0146 18.9238C56.9645 18.7871 56.8734 18.6618 56.7412 18.5479C56.609 18.4339 56.4222 18.32 56.1807 18.2061C55.9391 18.0876 55.6224 17.9668 55.2305 17.8438C54.7839 17.6979 54.3577 17.5339 53.9521 17.3516C53.5511 17.1647 53.1934 16.9482 52.8789 16.7021C52.5645 16.4561 52.3161 16.1689 52.1338 15.8408C51.9561 15.5127 51.8672 15.1299 51.8672 14.6924C51.8672 14.2686 51.9606 13.8857 52.1475 13.5439C52.3343 13.2021 52.5964 12.9105 52.9336 12.6689C53.2708 12.4229 53.6673 12.236 54.123 12.1084C54.5788 11.9762 55.0801 11.9102 55.627 11.9102C56.3561 11.9102 56.9964 12.04 57.5479 12.2998C58.1038 12.555 58.5368 12.915 58.8467 13.3799C59.1566 13.8402 59.3115 14.3757 59.3115 14.9863H57.0967C57.0967 14.7174 57.0397 14.4805 56.9258 14.2754C56.8164 14.0658 56.6478 13.9017 56.4199 13.7832C56.1966 13.6647 55.9163 13.6055 55.5791 13.6055C55.251 13.6055 54.9753 13.6556 54.752 13.7559C54.5332 13.8516 54.3669 13.9837 54.2529 14.1523C54.1436 14.321 54.0889 14.5055 54.0889 14.7061C54.0889 14.8656 54.1299 15.0114 54.2119 15.1436C54.2985 15.2712 54.4215 15.3919 54.5811 15.5059C54.7451 15.6152 54.9456 15.7201 55.1826 15.8203C55.4196 15.9206 55.6908 16.0163 55.9961 16.1074C56.5293 16.276 57.001 16.4629 57.4111 16.668C57.8258 16.873 58.1745 17.1055 58.457 17.3652C58.7396 17.625 58.9515 17.9189 59.0928 18.2471C59.2386 18.5752 59.3115 18.9466 59.3115 19.3613C59.3115 19.8034 59.2249 20.1953 59.0518 20.5371C58.8831 20.8789 58.637 21.1706 58.3135 21.4121C57.9945 21.6491 57.6117 21.8291 57.165 21.9521C56.7184 22.0752 56.2194 22.1367 55.668 22.1367C55.1667 22.1367 54.6722 22.0729 54.1846 21.9453C53.6969 21.8132 53.2549 21.6126 52.8584 21.3438C52.4665 21.0749 52.152 20.7331 51.915 20.3184C51.6826 19.8991 51.5664 19.4023 51.5664 18.8281H53.7949C53.7949 19.1289 53.8382 19.3841 53.9248 19.5938C54.0114 19.7988 54.1344 19.9652 54.2939 20.0928C54.458 20.2204 54.6562 20.3115 54.8887 20.3662C55.1211 20.4209 55.3809 20.4482 55.668 20.4482C56.0007 20.4482 56.2695 20.4027 56.4746 20.3115C56.6842 20.2158 56.8392 20.0859 56.9395 19.9219C57.0397 19.7578 57.0898 19.5755 57.0898 19.375ZM65.2588 12.0469V22H63.0371V12.0469H65.2588ZM68.2871 12.0469V13.7764H60.0703V12.0469H68.2871ZM69.3877 12.0469H73.209C73.9701 12.0469 74.6286 12.1608 75.1846 12.3887C75.7451 12.6165 76.1758 12.9538 76.4766 13.4004C76.7773 13.847 76.9277 14.3984 76.9277 15.0547C76.9277 15.6016 76.8389 16.0664 76.6611 16.4492C76.4834 16.832 76.2327 17.1488 75.9092 17.3994C75.5902 17.6501 75.2165 17.8529 74.7881 18.0078L74.0635 18.4043H70.8096L70.7959 16.6748H73.2158C73.5485 16.6748 73.8242 16.6156 74.043 16.4971C74.2617 16.3786 74.4258 16.2122 74.5352 15.998C74.6491 15.7793 74.7061 15.5241 74.7061 15.2324C74.7061 14.9316 74.6491 14.6719 74.5352 14.4531C74.4212 14.2344 74.2526 14.068 74.0293 13.9541C73.8105 13.8356 73.5371 13.7764 73.209 13.7764H71.6162V22H69.3877V12.0469ZM74.8975 22L72.6621 17.5771L75.0137 17.5703L77.2832 21.8975V22H74.8975ZM85.2061 20.2773V22H79.9082V20.2773H85.2061ZM80.667 12.0469V22H78.4385V12.0469H80.667ZM84.5225 16.0527V17.7207H79.9082V16.0527H84.5225ZM85.2129 12.0469V13.7764H79.9082V12.0469H85.2129ZM90.374 16.8867V18.5547H86.3955V16.8867H90.374ZM97.3672 19.375C97.3672 19.2064 97.3421 19.056 97.292 18.9238C97.2419 18.7871 97.1507 18.6618 97.0186 18.5479C96.8864 18.4339 96.6995 18.32 96.458 18.2061C96.2165 18.0876 95.8997 17.9668 95.5078 17.8438C95.0612 17.6979 94.6351 17.5339 94.2295 17.3516C93.8285 17.1647 93.4707 16.9482 93.1562 16.7021C92.8418 16.4561 92.5934 16.1689 92.4111 15.8408C92.2334 15.5127 92.1445 15.1299 92.1445 14.6924C92.1445 14.2686 92.238 13.8857 92.4248 13.5439C92.6117 13.2021 92.8737 12.9105 93.2109 12.6689C93.5482 12.4229 93.9447 12.236 94.4004 12.1084C94.8561 11.9762 95.3574 11.9102 95.9043 11.9102C96.6335 11.9102 97.2738 12.04 97.8252 12.2998C98.3812 12.555 98.8141 12.915 99.124 13.3799C99.4339 13.8402 99.5889 14.3757 99.5889 14.9863H97.374C97.374 14.7174 97.3171 14.4805 97.2031 14.2754C97.0938 14.0658 96.9251 13.9017 96.6973 13.7832C96.474 13.6647 96.1937 13.6055 95.8564 13.6055C95.5283 13.6055 95.2526 13.6556 95.0293 13.7559C94.8105 13.8516 94.6442 13.9837 94.5303 14.1523C94.4209 14.321 94.3662 14.5055 94.3662 14.7061C94.3662 14.8656 94.4072 15.0114 94.4893 15.1436C94.5758 15.2712 94.6989 15.3919 94.8584 15.5059C95.0225 15.6152 95.223 15.7201 95.46 15.8203C95.6969 15.9206 95.9681 16.0163 96.2734 16.1074C96.8066 16.276 97.2783 16.4629 97.6885 16.668C98.1032 16.873 98.4518 17.1055 98.7344 17.3652C99.0169 17.625 99.2288 17.9189 99.3701 18.2471C99.516 18.5752 99.5889 18.9466 99.5889 19.3613C99.5889 19.8034 99.5023 20.1953 99.3291 20.5371C99.1605 20.8789 98.9144 21.1706 98.5908 21.4121C98.2718 21.6491 97.889 21.8291 97.4424 21.9521C96.9958 22.0752 96.4967 22.1367 95.9453 22.1367C95.444 22.1367 94.9495 22.0729 94.4619 21.9453C93.9743 21.8132 93.5322 21.6126 93.1357 21.3438C92.7438 21.0749 92.4294 20.7331 92.1924 20.3184C91.96 19.8991 91.8438 19.4023 91.8438 18.8281H94.0723C94.0723 19.1289 94.1156 19.3841 94.2021 19.5938C94.2887 19.7988 94.4118 19.9652 94.5713 20.0928C94.7354 20.2204 94.9336 20.3115 95.166 20.3662C95.3984 20.4209 95.6582 20.4482 95.9453 20.4482C96.278 20.4482 96.5469 20.4027 96.752 20.3115C96.9616 20.2158 97.1165 20.0859 97.2168 19.9219C97.3171 19.7578 97.3672 19.5755 97.3672 19.375ZM107.669 20.2773V22H102.371V20.2773H107.669ZM103.13 12.0469V22H100.901V12.0469H103.13ZM106.985 16.0527V17.7207H102.371V16.0527H106.985ZM107.676 12.0469V13.7764H102.371V12.0469H107.676Z" fill="#263238" fill-opacity="0.85"/>
<defs>
<filter id="filter0_d_182_417" x="0" y="0" width="127" height="39" filterUnits="userSpaceOnUse" color-interpolation-filters="sRGB">
<feFlood flood-opacity="0" result="BackgroundImageFix"/>
<feColorMatrix in="SourceAlpha" type="matrix" values="0 0 0 0 0 0 0 0 0 0 0 0 0 0 0 0 0 0 127 0" result="hardAlpha"/>
<feOffset dx="3" dy="3"/>
<feGaussianBlur stdDeviation="1.5"/>
<feComposite in2="hardAlpha" operator="out"/>
<feColorMatrix type="matrix" values="0 0 0 0 0 0 0 0 0 0 0 0 0 0 0 0 0 0 0.44 0"/>
<feBlend mode="normal" in2="BackgroundImageFix" result="effect1_dropShadow_182_417"/>
<feBlend mode="normal" in="SourceGraphic" in2="effect1_dropShadow_182_417" result="shape"/>
</filter>
</defs>
</svg>
