<svg width="41" height="12" viewBox="0 0 41 12" fill="none" xmlns="http://www.w3.org/2000/svg">
<path d="M7.76123 9.28613V11H2.08496V9.28613H7.76123ZM2.80273 0.335938V11H0.605469V0.335938H2.80273ZM7.02148 4.6792V6.34912H2.08496V4.6792H7.02148ZM7.75391 0.335938V2.05713H2.08496V0.335938H7.75391ZM10.9766 4.76709V11H8.86719V3.0752H10.8447L10.9766 4.76709ZM10.6689 6.75928H10.0977C10.0977 6.17334 10.1733 5.646 10.3247 5.17725C10.4761 4.70361 10.6885 4.30078 10.9619 3.96875C11.2354 3.63184 11.5601 3.37549 11.936 3.19971C12.3169 3.01904 12.7417 2.92871 13.2104 2.92871C13.5815 2.92871 13.9209 2.98242 14.2285 3.08984C14.5361 3.19727 14.7998 3.36816 15.0195 3.60254C15.2441 3.83691 15.415 4.14697 15.5322 4.53271C15.6543 4.91846 15.7153 5.38965 15.7153 5.94629V11H13.5913V5.93896C13.5913 5.5874 13.5425 5.31396 13.4448 5.11865C13.3472 4.92334 13.2031 4.78662 13.0127 4.7085C12.8271 4.62549 12.5977 4.58398 12.3242 4.58398C12.041 4.58398 11.7944 4.64014 11.5845 4.75244C11.3794 4.86475 11.2085 5.021 11.0718 5.22119C10.9399 5.4165 10.8398 5.646 10.7715 5.90967C10.7031 6.17334 10.6689 6.45654 10.6689 6.75928ZM21.2012 3.0752V4.56934H16.5869V3.0752H21.2012ZM17.7295 1.11963H19.8389V8.6123C19.8389 8.8418 19.8682 9.01758 19.9268 9.13965C19.9902 9.26172 20.083 9.34717 20.2051 9.396C20.3271 9.43994 20.481 9.46191 20.6665 9.46191C20.7983 9.46191 20.9155 9.45703 21.0181 9.44727C21.1255 9.43262 21.2158 9.41797 21.2891 9.40332L21.2964 10.9561C21.1157 11.0146 20.9204 11.061 20.7104 11.0952C20.5005 11.1294 20.2686 11.1465 20.0146 11.1465C19.5508 11.1465 19.1455 11.0708 18.7988 10.9194C18.457 10.7632 18.1934 10.5142 18.0078 10.1724C17.8223 9.83057 17.7295 9.38135 17.7295 8.82471V1.11963ZM24.5117 4.80371V11H22.4023V3.0752H24.3872L24.5117 4.80371ZM26.8994 3.02393L26.8628 4.97949C26.7603 4.96484 26.6357 4.95264 26.4893 4.94287C26.3477 4.92822 26.2183 4.9209 26.1011 4.9209C25.8032 4.9209 25.5444 4.95996 25.3247 5.03809C25.1099 5.11133 24.9292 5.22119 24.7827 5.36768C24.6411 5.51416 24.5337 5.69238 24.4604 5.90234C24.3921 6.1123 24.353 6.35156 24.3433 6.62012L23.9185 6.48828C23.9185 5.97559 23.9697 5.50439 24.0723 5.07471C24.1748 4.64014 24.3237 4.26172 24.519 3.93945C24.7192 3.61719 24.9634 3.36816 25.2515 3.19238C25.5396 3.0166 25.8691 2.92871 26.2402 2.92871C26.3574 2.92871 26.4771 2.93848 26.5991 2.95801C26.7212 2.97266 26.8213 2.99463 26.8994 3.02393ZM31.9238 9.21289V5.68262C31.9238 5.42871 31.8823 5.21143 31.7993 5.03076C31.7163 4.84521 31.5869 4.70117 31.4111 4.59863C31.2402 4.49609 31.0181 4.44482 30.7446 4.44482C30.5103 4.44482 30.3076 4.48633 30.1367 4.56934C29.9658 4.64746 29.834 4.76221 29.7412 4.91357C29.6484 5.06006 29.6021 5.2334 29.6021 5.43359H27.4927C27.4927 5.09668 27.5708 4.77686 27.7271 4.47412C27.8833 4.17139 28.1104 3.90527 28.4082 3.67578C28.7061 3.44141 29.0601 3.2583 29.4702 3.12646C29.8853 2.99463 30.3491 2.92871 30.8618 2.92871C31.4771 2.92871 32.0239 3.03125 32.5024 3.23633C32.981 3.44141 33.3569 3.74902 33.6304 4.15918C33.9087 4.56934 34.0479 5.08203 34.0479 5.69727V9.08838C34.0479 9.52295 34.0747 9.87939 34.1284 10.1577C34.1821 10.4312 34.2603 10.6704 34.3628 10.8755V11H32.2314C32.1289 10.7852 32.0508 10.5166 31.9971 10.1943C31.9482 9.86719 31.9238 9.54004 31.9238 9.21289ZM32.2021 6.17334L32.2168 7.36719H31.0376C30.7593 7.36719 30.5176 7.39893 30.3125 7.4624C30.1074 7.52588 29.939 7.61621 29.8071 7.7334C29.6753 7.8457 29.5776 7.97754 29.5142 8.12891C29.4556 8.28027 29.4263 8.44629 29.4263 8.62695C29.4263 8.80762 29.4678 8.97119 29.5508 9.11768C29.6338 9.25928 29.7534 9.37158 29.9097 9.45459C30.0659 9.53271 30.249 9.57178 30.459 9.57178C30.7764 9.57178 31.0522 9.5083 31.2866 9.38135C31.521 9.25439 31.7017 9.09814 31.8286 8.9126C31.9604 8.72705 32.0288 8.55127 32.0337 8.38525L32.5903 9.27881C32.5122 9.479 32.4048 9.68652 32.2681 9.90137C32.1362 10.1162 31.9678 10.3188 31.7627 10.5093C31.5576 10.6948 31.311 10.8486 31.0229 10.9707C30.7349 11.0879 30.3931 11.1465 29.9976 11.1465C29.4946 11.1465 29.0381 11.0464 28.6279 10.8462C28.2227 10.6411 27.9004 10.3604 27.6611 10.0039C27.4268 9.64258 27.3096 9.23242 27.3096 8.77344C27.3096 8.3584 27.3877 7.98975 27.5439 7.66748C27.7002 7.34521 27.9297 7.07422 28.2324 6.85449C28.54 6.62988 28.9233 6.46143 29.3823 6.34912C29.8413 6.23193 30.3735 6.17334 30.979 6.17334H32.2021ZM37.7832 4.80371V11H35.6738V3.0752H37.6587L37.7832 4.80371ZM40.1709 3.02393L40.1343 4.97949C40.0317 4.96484 39.9072 4.95264 39.7607 4.94287C39.6191 4.92822 39.4897 4.9209 39.3726 4.9209C39.0747 4.9209 38.8159 4.95996 38.5962 5.03809C38.3813 5.11133 38.2007 5.22119 38.0542 5.36768C37.9126 5.51416 37.8052 5.69238 37.7319 5.90234C37.6636 6.1123 37.6245 6.35156 37.6147 6.62012L37.1899 6.48828C37.1899 5.97559 37.2412 5.50439 37.3438 5.07471C37.4463 4.64014 37.5952 4.26172 37.7905 3.93945C37.9907 3.61719 38.2349 3.36816 38.5229 3.19238C38.811 3.0166 39.1406 2.92871 39.5117 2.92871C39.6289 2.92871 39.7485 2.93848 39.8706 2.95801C39.9927 2.97266 40.0928 2.99463 40.1709 3.02393Z" fill="white"/>
</svg>
