<svg width="152" height="73" viewBox="0 0 152 73" fill="none" xmlns="http://www.w3.org/2000/svg">
<path d="M67.7964 37.12C67.8497 37.28 67.8764 37.4667 67.8764 37.68C67.9031 37.8933 67.9164 38.0933 67.9164 38.28C67.9164 38.76 67.8631 39.2133 67.7564 39.64C67.6497 40.0667 67.4764 40.44 67.2364 40.76C66.9964 41.08 66.6764 41.3467 66.2764 41.56C65.9031 41.7467 65.4231 41.84 64.8364 41.84C64.2764 41.84 63.7164 41.72 63.1564 41.48C62.6231 41.24 61.9564 40.8933 61.1564 40.44L52.5564 35.48C51.8631 34.5733 51.5164 33.3733 51.5164 31.88C51.5164 30.76 51.6764 29.8933 51.9964 29.28C52.3164 28.6667 52.7831 28.1867 53.3964 27.84L64.3964 21.44C65.7031 21.7867 66.5831 22.2667 67.0364 22.88C67.5164 23.4667 67.7564 24.1067 67.7564 24.8C67.7564 25.7333 67.5164 26.4667 67.0364 27C66.5831 27.5067 65.9031 27.9867 64.9964 28.44L57.9564 32L67.7964 37.12ZM84.2155 26.16C84.1621 26 84.1221 25.8133 84.0955 25.6C84.0955 25.3867 84.0955 25.1867 84.0955 25C84.0955 24.52 84.1488 24.0667 84.2555 23.64C84.3621 23.2133 84.5355 22.84 84.7755 22.52C85.0155 22.2 85.3221 21.9467 85.6955 21.76C86.0955 21.5467 86.5888 21.44 87.1755 21.44C87.7355 21.44 88.2821 21.56 88.8155 21.8C89.3755 22.04 90.0555 22.3867 90.8555 22.84L99.4555 27.8C100.149 28.7067 100.495 29.9067 100.495 31.4C100.495 32.52 100.335 33.3867 100.015 34C99.6955 34.6133 99.2288 35.0933 98.6155 35.44L87.6155 41.84C86.3088 41.4933 85.4155 41.0267 84.9355 40.44C84.4821 39.8267 84.2555 39.1733 84.2555 38.48C84.2555 37.5467 84.4821 36.8267 84.9355 36.32C85.4155 35.7867 86.1088 35.2933 87.0155 34.84L94.0555 31.28L84.2155 26.16Z" fill="white"/>
<path d="M74.7845 46.24C74.4112 46.2933 74.0512 46.32 73.7045 46.32C73.3579 46.3467 73.0379 46.36 72.7445 46.36C71.6245 46.36 70.7579 46.12 70.1445 45.64C69.5579 45.16 69.2645 44.3867 69.2645 43.32C69.2645 42.6 69.3712 41.88 69.5845 41.16C69.7979 40.4133 69.9845 39.76 70.1445 39.2L77.1845 13.8C77.5845 13.7467 77.9579 13.72 78.3045 13.72C78.6512 13.6933 78.9712 13.68 79.2645 13.68C80.3312 13.68 81.1712 13.9067 81.7845 14.36C82.4245 14.8133 82.7445 15.5467 82.7445 16.56C82.7445 17.3333 82.6379 18.0667 82.4245 18.76C82.2112 19.4533 82.0112 20.1467 81.8245 20.84L74.7845 46.24Z" fill="#01B671"/>
<path d="M14.3237 72H8.00367C7.75034 72 7.56367 71.9467 7.44367 71.84C7.33701 71.72 7.28367 71.5333 7.28367 71.28V68.94C7.28367 68.6867 7.33701 68.5067 7.44367 68.4C7.56367 68.28 7.75034 68.22 8.00367 68.22H13.3837C13.557 68.22 13.6837 68.1667 13.7637 68.06C13.857 67.94 13.9037 67.8 13.9037 67.64C13.9037 67.4133 13.857 67.2467 13.7637 67.14C13.6837 67.0333 13.557 66.9733 13.3837 66.96L10.3837 66.54C9.45034 66.4067 8.69701 66.1 8.12367 65.62C7.56367 65.14 7.28367 64.34 7.28367 63.22V61.12C7.28367 59.9867 7.65034 59.12 8.38367 58.52C9.11701 57.9067 10.1303 57.6 11.4237 57.6H17.0237C17.277 57.6 17.457 57.66 17.5637 57.78C17.6837 57.8867 17.7437 58.0667 17.7437 58.32V60.7C17.7437 60.9533 17.6837 61.14 17.5637 61.26C17.457 61.3667 17.277 61.42 17.0237 61.42H12.3637C12.1903 61.42 12.057 61.48 11.9637 61.6C11.8703 61.7067 11.8237 61.8467 11.8237 62.02C11.8237 62.1933 11.8703 62.34 11.9637 62.46C12.057 62.58 12.1903 62.6467 12.3637 62.66L15.3437 63.06C16.277 63.1933 17.0303 63.5 17.6037 63.98C18.177 64.46 18.4637 65.26 18.4637 66.38V68.48C18.4637 69.6133 18.0903 70.4867 17.3437 71.1C16.6103 71.7 15.6037 72 14.3237 72ZM24.4715 72H21.3715C21.1182 72 20.9315 71.9467 20.8115 71.84C20.7048 71.72 20.6515 71.5333 20.6515 71.28V58.32C20.6515 58.0667 20.7048 57.8867 20.8115 57.78C20.9315 57.66 21.1182 57.6 21.3715 57.6H24.4715C24.7248 57.6 24.9048 57.66 25.0115 57.78C25.1315 57.8867 25.1915 58.0667 25.1915 58.32V62.92H25.9915L28.0515 58.26C28.1448 58.02 28.2715 57.8533 28.4315 57.76C28.5915 57.6533 28.7982 57.6 29.0515 57.6H32.1315C32.3582 57.6 32.5115 57.66 32.5915 57.78C32.6715 57.8867 32.6648 58.0467 32.5715 58.26L30.5315 62.92C31.2782 62.96 31.8715 63.2267 32.3115 63.72C32.7648 64.2 32.9915 64.84 32.9915 65.64V71.28C32.9915 71.5333 32.9315 71.72 32.8115 71.84C32.7048 71.9467 32.5248 72 32.2715 72H29.1915C28.9382 72 28.7515 71.9467 28.6315 71.84C28.5248 71.72 28.4715 71.5333 28.4715 71.28V67.38C28.4715 67.1667 28.4182 67 28.3115 66.88C28.2048 66.76 28.0448 66.7 27.8315 66.7H25.1915V71.28C25.1915 71.5333 25.1315 71.72 25.0115 71.84C24.9048 71.9467 24.7248 72 24.4715 72ZM47.7734 68.22C47.7734 68.8333 47.68 69.3933 47.4934 69.9C47.32 70.3933 47 70.82 46.5334 71.18C46.08 71.5267 45.4467 71.8 44.6334 72C43.8334 72.2 42.8134 72.3 41.5734 72.3C40.3334 72.3 39.3067 72.2 38.4934 72C37.68 71.8 37.04 71.5267 36.5734 71.18C36.12 70.82 35.8 70.3933 35.6134 69.9C35.44 69.3933 35.3534 68.8333 35.3534 68.22V61.4C35.3534 60.7867 35.44 60.2333 35.6134 59.74C35.8 59.2333 36.12 58.8 36.5734 58.44C37.04 58.08 37.68 57.8 38.4934 57.6C39.3067 57.4 40.3334 57.3 41.5734 57.3C42.8134 57.3 43.8334 57.4 44.6334 57.6C45.4467 57.8 46.08 58.08 46.5334 58.44C47 58.8 47.32 59.2333 47.4934 59.74C47.68 60.2333 47.7734 60.7867 47.7734 61.4V68.22ZM39.8934 67.5C39.8934 67.7667 39.9934 67.9933 40.1934 68.18C40.3934 68.3533 40.8534 68.44 41.5734 68.44C42.2934 68.44 42.7534 68.3533 42.9534 68.18C43.1534 67.9933 43.2534 67.7667 43.2534 67.5V62.12C43.2534 61.8667 43.1534 61.6533 42.9534 61.48C42.7534 61.2933 42.2934 61.2 41.5734 61.2C40.8534 61.2 40.3934 61.2933 40.1934 61.48C39.9934 61.6533 39.8934 61.8667 39.8934 62.12V67.5ZM62.5195 68.22C62.5195 68.8333 62.4261 69.3933 62.2395 69.9C62.0661 70.3933 61.7461 70.82 61.2795 71.18C60.8261 71.5267 60.1928 71.8 59.3795 72C58.5795 72.2 57.5595 72.3 56.3195 72.3C55.0795 72.3 54.0528 72.2 53.2395 72C52.4261 71.8 51.7861 71.5267 51.3195 71.18C50.8661 70.82 50.5461 70.3933 50.3595 69.9C50.1861 69.3933 50.0995 68.8333 50.0995 68.22V61.4C50.0995 60.7867 50.1861 60.2333 50.3595 59.74C50.5461 59.2333 50.8661 58.8 51.3195 58.44C51.7861 58.08 52.4261 57.8 53.2395 57.6C54.0528 57.4 55.0795 57.3 56.3195 57.3C57.5595 57.3 58.5795 57.4 59.3795 57.6C60.1928 57.8 60.8261 58.08 61.2795 58.44C61.7461 58.8 62.0661 59.2333 62.2395 59.74C62.4261 60.2333 62.5195 60.7867 62.5195 61.4V68.22ZM54.6395 67.5C54.6395 67.7667 54.7395 67.9933 54.9395 68.18C55.1395 68.3533 55.5995 68.44 56.3195 68.44C57.0395 68.44 57.4995 68.3533 57.6995 68.18C57.8995 67.9933 57.9995 67.7667 57.9995 67.5V62.12C57.9995 61.8667 57.8995 61.6533 57.6995 61.48C57.4995 61.2933 57.0395 61.2 56.3195 61.2C55.5995 61.2 55.1395 61.2933 54.9395 61.48C54.7395 61.6533 54.6395 61.8667 54.6395 62.12V67.5ZM73.4655 72H65.7855C65.5322 72 65.3455 71.9467 65.2255 71.84C65.1189 71.72 65.0655 71.5333 65.0655 71.28V58.32C65.0655 58.0667 65.1189 57.8867 65.2255 57.78C65.3455 57.66 65.5322 57.6 65.7855 57.6H72.1655C73.4722 57.6 74.4389 57.8533 75.0655 58.36C75.6922 58.8533 76.0055 59.62 76.0055 60.66V61.62C76.0055 62.18 75.9055 62.64 75.7055 63C75.5189 63.3467 75.2255 63.6067 74.8255 63.78C75.6789 63.86 76.3122 64.1533 76.7255 64.66C77.1389 65.1667 77.3455 65.9067 77.3455 66.88V68.72C77.3455 69.84 77.0255 70.6667 76.3855 71.2C75.7589 71.7333 74.7855 72 73.4655 72ZM69.5655 61V63.16H71.2655C71.5189 63.16 71.7055 63.0933 71.8255 62.96C71.9589 62.8267 72.0255 62.6267 72.0255 62.36V61.8C72.0255 61.5333 71.9589 61.3333 71.8255 61.2C71.7055 61.0667 71.5189 61 71.2655 61H69.5655ZM69.5655 66.24V68.6H72.1655C72.4189 68.6 72.6055 68.5333 72.7255 68.4C72.8589 68.2667 72.9255 68.0667 72.9255 67.8V67.02C72.9255 66.7533 72.8589 66.56 72.7255 66.44C72.6055 66.3067 72.4189 66.24 72.1655 66.24H69.5655ZM86.4671 72H83.2271C82.9738 72 82.7871 71.9467 82.6671 71.84C82.5604 71.72 82.5071 71.5333 82.5071 71.28V68.72L79.4471 64.62C79.1404 64.2067 78.9338 63.8467 78.8271 63.54C78.7338 63.2333 78.6871 62.7733 78.6871 62.16V58.32C78.6871 58.0667 78.7404 57.8867 78.8471 57.78C78.9671 57.66 79.1538 57.6 79.4071 57.6H82.4871C82.7404 57.6 82.9204 57.66 83.0271 57.78C83.1471 57.8867 83.2071 58.0667 83.2071 58.32V61.6C83.2071 61.7333 83.2138 61.8733 83.2271 62.02C83.2404 62.1667 83.2938 62.3067 83.3871 62.44L84.3071 63.88C84.3738 64 84.4404 64.0867 84.5071 64.14C84.5871 64.1933 84.6804 64.22 84.7871 64.22H84.9871C85.0938 64.22 85.1804 64.1933 85.2471 64.14C85.3271 64.0867 85.4004 64 85.4671 63.88L86.3871 62.44C86.4804 62.3067 86.5338 62.1667 86.5471 62.02C86.5604 61.8733 86.5671 61.7333 86.5671 61.6V58.32C86.5671 58.0667 86.6204 57.8867 86.7271 57.78C86.8471 57.66 87.0338 57.6 87.2871 57.6H90.2671C90.5204 57.6 90.7004 57.66 90.8071 57.78C90.9271 57.8867 90.9871 58.0667 90.9871 58.32V62.16C90.9871 62.7733 90.9338 63.2333 90.8271 63.54C90.7204 63.8467 90.5204 64.2067 90.2271 64.62L87.1871 68.74V71.28C87.1871 71.5333 87.1271 71.72 87.0071 71.84C86.9004 71.9467 86.7204 72 86.4671 72Z" fill="white"/>
<path d="M100.069 72H96.8287C96.5753 72 96.3887 71.9467 96.2687 71.84C96.162 71.72 96.1087 71.5333 96.1087 71.28V61.46H93.1687C92.9153 61.46 92.7287 61.4067 92.6087 61.3C92.502 61.18 92.4487 60.9933 92.4487 60.74V58.32C92.4487 58.0667 92.502 57.8867 92.6087 57.78C92.7287 57.66 92.9153 57.6 93.1687 57.6H103.729C103.982 57.6 104.162 57.66 104.269 57.78C104.389 57.8867 104.449 58.0667 104.449 58.32V60.74C104.449 60.9933 104.389 61.18 104.269 61.3C104.162 61.4067 103.982 61.46 103.729 61.46H100.789V71.28C100.789 71.5333 100.729 71.72 100.609 71.84C100.502 71.9467 100.322 72 100.069 72ZM116.394 72H107.114C106.86 72 106.674 71.9467 106.554 71.84C106.447 71.72 106.394 71.5333 106.394 71.28V58.32C106.394 58.0667 106.447 57.8867 106.554 57.78C106.674 57.66 106.86 57.6 107.114 57.6H116.394C116.647 57.6 116.827 57.66 116.934 57.78C117.054 57.8867 117.114 58.0667 117.114 58.32V60.66C117.114 60.9133 117.054 61.1 116.934 61.22C116.827 61.3267 116.647 61.38 116.394 61.38H110.874V62.92H114.774C115.027 62.92 115.207 62.98 115.314 63.1C115.434 63.2067 115.494 63.3867 115.494 63.64V65.78C115.494 66.0333 115.434 66.22 115.314 66.34C115.207 66.4467 115.027 66.5 114.774 66.5H110.874V68.22H116.394C116.647 68.22 116.827 68.28 116.934 68.4C117.054 68.5067 117.114 68.6867 117.114 68.94V71.28C117.114 71.5333 117.054 71.72 116.934 71.84C116.827 71.9467 116.647 72 116.394 72ZM128.962 72H124.082C122.415 72 121.175 71.6667 120.362 71C119.562 70.3333 119.162 69.3067 119.162 67.92V61.7C119.162 60.3133 119.562 59.2867 120.362 58.62C121.175 57.94 122.415 57.6 124.082 57.6H128.962C129.215 57.6 129.395 57.66 129.502 57.78C129.622 57.8867 129.682 58.0667 129.682 58.32V60.74C129.682 60.9933 129.622 61.18 129.502 61.3C129.395 61.4067 129.215 61.46 128.962 61.46H124.942C124.529 61.46 124.222 61.5467 124.022 61.72C123.822 61.88 123.722 62.1267 123.722 62.46V67.22C123.722 67.5533 123.822 67.8 124.022 67.96C124.222 68.1067 124.529 68.18 124.942 68.18H128.962C129.215 68.18 129.395 68.24 129.502 68.36C129.622 68.4667 129.682 68.6467 129.682 68.9V71.28C129.682 71.5333 129.622 71.72 129.502 71.84C129.395 71.9467 129.215 72 128.962 72ZM135.761 72H132.661C132.407 72 132.221 71.9467 132.101 71.84C131.994 71.72 131.941 71.5333 131.941 71.28V58.32C131.941 58.0667 131.994 57.8867 132.101 57.78C132.221 57.66 132.407 57.6 132.661 57.6H135.761C136.014 57.6 136.194 57.66 136.301 57.78C136.421 57.8867 136.481 58.0667 136.481 58.32V62.66H139.821V58.32C139.821 58.0667 139.874 57.8867 139.981 57.78C140.101 57.66 140.287 57.6 140.541 57.6H143.641C143.894 57.6 144.074 57.66 144.181 57.78C144.301 57.8867 144.361 58.0667 144.361 58.32V71.28C144.361 71.5333 144.301 71.72 144.181 71.84C144.074 71.9467 143.894 72 143.641 72H140.541C140.287 72 140.101 71.9467 139.981 71.84C139.874 71.72 139.821 71.5333 139.821 71.28V66.84H136.481V71.28C136.481 71.5333 136.421 71.72 136.301 71.84C136.194 71.9467 136.014 72 135.761 72Z" fill="#01B671"/>
</svg>
