<svg width="362" height="356" viewBox="0 0 362 356" fill="none" xmlns="http://www.w3.org/2000/svg">
<path d="M362 239.082H223.126V158.719H362V239.082ZM223.974 238.235H361.153V159.566H223.974V238.235Z" fill="#E0E0E0"/>
<path d="M333.351 201.57H241.726V204.256H333.351V201.57Z" fill="#F0F0F0"/>
<path d="M339.664 211.585H241.726V214.517H339.664V211.585Z" fill="#F0F0F0"/>
<path d="M339.664 221.72H241.726V224.652H339.664V221.72Z" fill="#F0F0F0"/>
<path d="M273.748 187.02H241.726V193.994H273.748V187.02Z" fill="#F0F0F0"/>
<path d="M361.576 159.142H223.575V171.938H361.576V159.142Z" fill="#E0E0E0"/>
<path d="M350.959 170.022C350.781 169.853 352.56 167.709 354.925 165.235C357.289 162.761 359.365 160.888 359.534 161.049C359.704 161.21 357.933 163.362 355.569 165.845C353.204 168.328 351.128 170.192 350.959 170.022Z" fill="white"/>
<path d="M359.551 170.022C359.382 170.192 357.314 168.328 354.941 165.845C352.569 163.362 350.798 161.218 350.976 161.049C351.154 160.879 353.213 162.744 355.585 165.235C357.958 167.726 359.712 169.853 359.551 170.022Z" fill="white"/>
<path d="M191.113 0H53.1124V79.5246H191.113V0Z" fill="#E6E6E6"/>
<path d="M162.896 42.4357H71.2714V45.1219H162.896V42.4357Z" fill="#F0F0F0"/>
<path d="M169.209 52.4515H71.2714V55.3833H169.209V52.4515Z" fill="#F0F0F0"/>
<path d="M169.209 62.5859H71.2714V65.5177H169.209V62.5859Z" fill="#F0F0F0"/>
<path d="M103.293 27.8866H71.2714V34.8604H103.293V27.8866Z" fill="#F0F0F0"/>
<path d="M191.113 0H53.1124V12.7951H191.113V0Z" fill="#E0E0E0"/>
<path d="M180.03 10.8208C179.852 10.6598 181.631 8.50751 183.995 6.03322C186.359 3.55893 188.436 1.68627 188.605 1.85575C188.774 2.02522 187.003 4.16903 184.639 6.64332C182.275 9.11761 180.199 10.9733 180.03 10.8208Z" fill="white"/>
<path d="M188.605 10.8208C188.436 10.9903 186.368 9.12606 183.995 6.6433C181.623 4.16054 179.852 2.0252 180.03 1.85573C180.208 1.68626 182.267 3.55044 184.639 6.0332C187.012 8.51596 188.783 10.6598 188.605 10.8208Z" fill="white"/>
<path d="M138.848 147.728H0V67.3565H138.848V147.728ZM0.847358 146.881H138.001V68.2039H0.847358V146.881Z" fill="#E0E0E0"/>
<path d="M110.207 110.216H18.5825V112.902H110.207V110.216Z" fill="#F0F0F0"/>
<path d="M116.52 120.232H18.5825V123.164H116.52V120.232Z" fill="#F0F0F0"/>
<path d="M116.52 130.366H18.5825V133.298H116.52V130.366Z" fill="#F0F0F0"/>
<path d="M50.6042 95.6667H18.5825V102.641H50.6042V95.6667Z" fill="#F0F0F0"/>
<path d="M138.424 67.7802H0.423706V80.5753H138.424V67.7802Z" fill="#E0E0E0"/>
<path d="M299.092 166.142H136.145V312.023H299.092V166.142Z" fill="#E6E6E6"/>
<path d="M144.339 120.189H16.693V252.809H144.339V120.189Z" fill="#F0F0F0"/>
<path d="M144.339 120.189H16.693V134.637H144.339V120.189Z" fill="#E0E0E0"/>
<path d="M27.234 127.265C27.2108 127.789 27.0342 128.294 26.7262 128.719C26.4182 129.143 25.9924 129.468 25.5015 129.652C25.0107 129.837 24.4764 129.873 23.965 129.757C23.4537 129.641 22.9877 129.377 22.625 128.998C22.2623 128.619 22.0188 128.142 21.9248 127.626C21.8307 127.111 21.8902 126.578 22.0959 126.096C22.3016 125.614 22.6444 125.202 23.0818 124.913C23.5192 124.624 24.0319 124.469 24.5564 124.469C25.2816 124.486 25.9703 124.79 26.472 125.314C26.9737 125.838 27.2477 126.539 27.234 127.265Z" fill="white"/>
<path d="M38.1057 127.265C38.0841 127.791 37.9082 128.3 37.5998 128.727C37.2915 129.154 36.8643 129.481 36.3715 129.667C35.8787 129.853 35.342 129.891 34.8282 129.774C34.3144 129.658 33.8461 129.393 33.4818 129.012C33.1174 128.632 32.873 128.153 32.7789 127.634C32.6848 127.116 32.7453 126.581 32.9527 126.097C33.1601 125.613 33.5054 125.2 33.9455 124.911C34.3857 124.621 34.9012 124.467 35.4281 124.468C36.1533 124.486 36.842 124.79 37.3437 125.314C37.8454 125.838 38.1194 126.539 38.1057 127.265Z" fill="white"/>
<path d="M48.9774 127.265C48.9558 127.791 48.7799 128.3 48.4715 128.727C48.1632 129.154 47.736 129.481 47.2432 129.667C46.7504 129.853 46.2137 129.891 45.6999 129.774C45.1861 129.658 44.7178 129.393 44.3535 129.012C43.9891 128.632 43.7447 128.153 43.6506 127.634C43.5565 127.116 43.617 126.581 43.8244 126.097C44.0318 125.613 44.3771 125.2 44.8172 124.911C45.2574 124.621 45.7729 124.467 46.2998 124.468C47.025 124.486 47.7137 124.79 48.2154 125.314C48.7171 125.838 48.9911 126.539 48.9774 127.265Z" fill="white"/>
<path d="M343.773 29.0051H180.826V191.41H343.773V29.0051Z" fill="#F0F0F0"/>
<path d="M343.773 29.0051H180.826V48.0283H343.773V29.0051Z" fill="#E0E0E0"/>
<path d="M194.706 38.326C194.676 39.0176 194.444 39.6852 194.038 40.2458C193.632 40.8065 193.07 41.2356 192.422 41.4798C191.775 41.724 191.069 41.7726 190.394 41.6195C189.719 41.4664 189.104 41.1184 188.625 40.6187C188.146 40.119 187.824 39.4896 187.7 38.8087C187.575 38.1277 187.654 37.4252 187.925 36.7884C188.196 36.1516 188.649 35.6085 189.226 35.2265C189.804 34.8446 190.48 34.6407 191.173 34.64C192.129 34.6623 193.038 35.0626 193.7 35.7534C194.363 36.4442 194.724 37.3692 194.706 38.326Z" fill="white"/>
<path d="M207.984 35.8348C208.454 36.3449 208.763 36.982 208.873 37.6667C208.984 38.3514 208.89 39.0533 208.604 39.6851C208.318 40.3169 207.853 40.8506 207.265 41.2197C206.678 41.5888 205.996 41.777 205.302 41.7609C204.609 41.7447 203.936 41.5249 203.367 41.1288C202.797 40.7327 202.357 40.1778 202.101 39.5334C201.845 38.8889 201.784 38.1834 201.926 37.5046C202.068 36.8258 202.407 36.2038 202.9 35.7161C203.591 35.059 204.514 34.7024 205.467 34.7247C206.42 34.7469 207.325 35.1461 207.984 35.8348Z" fill="white"/>
<path d="M223.33 38.326C223.3 39.0176 223.068 39.6852 222.662 40.2458C222.256 40.8065 221.694 41.2356 221.046 41.4798C220.398 41.724 219.693 41.7726 219.018 41.6195C218.343 41.4664 217.728 41.1184 217.249 40.6187C216.77 40.119 216.448 39.4896 216.324 38.8087C216.199 38.1277 216.278 37.4252 216.549 36.7884C216.82 36.1516 217.273 35.6085 217.85 35.2265C218.427 34.8446 219.104 34.6407 219.796 34.64C220.753 34.6623 221.662 35.0626 222.324 35.7534C222.986 36.4442 223.348 37.3692 223.33 38.326Z" fill="white"/>
<path d="M308.574 355.111C308.574 355.23 249.733 355.331 177.174 355.331C104.615 355.331 45.7489 355.23 45.7489 355.111C45.7489 354.992 104.581 354.891 177.174 354.891C249.767 354.891 308.574 355.001 308.574 355.111Z" fill="#263238"/>
<path d="M251.242 251.377C238.15 242.234 235.184 225.262 235.701 210.001C235.786 207.459 235.506 204.764 236.718 202.536C237.93 200.307 240.76 198.773 243.039 199.841C244.929 200.731 245.751 202.934 246.81 204.756C248.223 207.182 250.294 209.159 252.784 210.458C254.402 211.306 256.411 211.814 258.012 210.933C260.215 209.721 260.469 206.696 260.453 204.154C260.453 199.426 260.424 194.703 260.368 189.986C260.216 187.453 260.473 184.912 261.13 182.462C261.918 180.055 263.672 177.827 266.071 177.149C268.469 176.471 271.46 177.869 272.002 180.343C272.095 181.391 272.121 182.444 272.078 183.495C272.146 184.555 272.638 185.716 273.629 186.038C274.62 186.36 275.654 185.622 276.417 184.877C279.027 182.335 280.806 179.021 282.458 175.751C284.111 172.48 285.729 169.116 288.102 166.328C290.474 163.54 293.754 161.329 297.423 161.117C301.092 160.905 304.913 163.159 305.829 166.718C306.744 170.277 304.668 173.912 302.439 176.801C299.076 181.09 295.112 184.872 290.669 188.029C289.802 188.502 289.11 189.242 288.695 190.139C288.144 191.833 289.746 193.528 291.415 194.062C293.305 194.689 295.355 194.494 297.347 194.731C299.338 194.969 301.456 195.833 302.21 197.697C303.244 200.29 301.075 203.002 298.948 204.781C294.677 208.34 289.828 211.14 284.611 213.06C282.747 213.738 280.789 214.339 279.281 215.644C277.773 216.949 276.874 219.229 277.781 221.016C278.688 222.804 281.018 223.372 282.975 223.008C284.933 222.643 286.67 221.593 288.534 220.889C292.017 219.576 296.508 219.813 298.702 222.821C299.382 223.858 299.813 225.037 299.96 226.268C300.107 227.499 299.966 228.747 299.55 229.914C298.702 232.237 297.396 234.366 295.711 236.176C290.161 242.807 282.95 247.845 274.815 250.776C266.74 253.572 259.258 254.335 251.233 251.394" fill="#129099"/>
<path d="M302.1 163.21C302.1 163.21 302.024 163.294 301.855 163.447L301.1 164.116C300.439 164.71 299.465 165.574 298.236 166.718C294.753 169.952 291.518 173.445 288.559 177.166C286.67 179.513 284.712 182.174 282.628 185.063C280.543 187.953 278.391 191.071 276.256 194.384C273.979 197.878 271.895 201.493 270.011 205.213C269.028 207.154 268.164 209.179 267.274 211.246L264.647 217.559C261.185 225.511 258.169 233.65 255.614 241.938C253.556 248.719 252.138 255.678 251.377 262.723C250.885 267.478 250.805 272.267 251.14 277.035C251.276 278.73 251.403 280.027 251.521 280.908C251.572 281.331 251.606 281.67 251.64 281.916V282.264C251.604 282.153 251.578 282.04 251.564 281.925C251.521 281.679 251.471 281.348 251.403 280.925C251.25 280.077 251.089 278.739 250.937 277.044C250.528 272.266 250.556 267.462 251.022 262.69C251.735 255.614 253.122 248.623 255.165 241.811C257.698 233.499 260.706 225.34 264.173 217.373L266.867 211.085C267.757 209.026 268.63 206.984 269.621 205.035C271.518 201.304 273.62 197.68 275.917 194.181C278.086 190.791 280.272 187.724 282.331 184.86C284.39 181.996 286.382 179.318 288.263 176.979C291.251 173.268 294.53 169.8 298.067 166.608C299.321 165.481 300.321 164.633 300.999 164.066L301.787 163.43C301.883 163.346 301.988 163.272 302.1 163.21Z" fill="#263238"/>
<path d="M269.731 205.018C269.612 204.669 269.529 204.309 269.485 203.942C269.35 203.239 269.197 202.247 269.019 200.96C268.655 198.417 268.282 194.935 267.884 191.079C267.486 187.224 267.036 183.733 266.664 181.216C266.469 179.962 266.299 178.954 266.181 178.25C266.088 177.89 266.04 177.52 266.037 177.149C266.183 177.488 266.288 177.844 266.35 178.208C266.537 178.903 266.748 179.903 266.986 181.165C267.469 183.707 267.943 187.165 268.341 191.028C268.74 194.892 269.079 198.282 269.341 200.917C269.468 202.103 269.579 203.112 269.663 203.917C269.729 204.28 269.752 204.65 269.731 205.018Z" fill="#263238"/>
<path d="M302.337 198.934C301.925 199.024 301.505 199.075 301.083 199.087C300.236 199.163 299.033 199.265 297.541 199.434C294.559 199.756 290.457 200.349 285.958 201.197C281.459 202.044 277.417 203.002 274.51 203.739C273.061 204.112 271.892 204.451 271.121 204.679C270.709 204.826 270.283 204.928 269.85 204.984C270.241 204.788 270.65 204.626 271.07 204.501C271.866 204.222 273.019 203.832 274.459 203.417C277.349 202.569 281.391 201.561 285.907 200.697C289.733 199.965 293.593 199.428 297.474 199.087C298.973 198.96 300.185 198.909 301.033 198.892C301.468 198.862 301.905 198.877 302.337 198.934Z" fill="#263238"/>
<path d="M255.58 241.218C255.49 241.095 255.416 240.961 255.36 240.819L254.801 239.641C254.318 238.616 253.665 237.099 252.886 235.244C251.31 231.515 249.301 226.296 247.166 220.5C245.031 214.704 243.065 209.484 241.573 205.713C240.845 203.883 240.243 202.383 239.794 201.265L239.32 200.053C239.254 199.913 239.208 199.765 239.184 199.612C239.274 199.735 239.348 199.869 239.404 200.011L239.964 201.188C240.438 202.214 241.099 203.73 241.879 205.586C243.455 209.315 245.463 214.534 247.598 220.33C249.734 226.126 251.699 231.346 253.191 235.117C253.92 236.947 254.521 238.447 254.962 239.565C255.157 240.048 255.318 240.413 255.445 240.777C255.511 240.917 255.556 241.065 255.58 241.218Z" fill="#263238"/>
<path d="M298.863 227.262C298.728 227.339 298.582 227.399 298.431 227.439L297.177 227.863L292.542 229.363C288.627 230.634 283.221 232.447 277.29 234.447C271.358 236.447 265.926 238.226 261.986 239.413C260.02 240.014 258.419 240.472 257.309 240.777L256.029 241.107C255.881 241.155 255.727 241.186 255.572 241.201C255.707 241.123 255.853 241.063 256.004 241.023L257.258 240.599L261.893 239.099C265.808 237.828 271.214 236.015 277.146 234.015C283.077 232.015 288.5 230.236 292.44 229.049C294.415 228.448 296.008 227.99 297.126 227.685L298.406 227.355C298.555 227.307 298.708 227.276 298.863 227.262Z" fill="#263238"/>
<path d="M281.204 21.7178L276.841 23.2769L274.968 17.5742C271.528 7.05851 260.563 1.47441 250.488 5.02484C240.413 8.57528 235.049 20.1078 238.489 30.6235L240.362 36.3263L235.981 37.8939C234.31 38.5418 232.954 39.8086 232.193 41.4309C231.433 43.0531 231.326 44.9062 231.897 46.6047L244.039 83.7105C244.291 84.5514 244.71 85.333 245.27 86.0089C245.83 86.6849 246.52 87.2413 247.3 87.6452C248.079 88.0491 248.932 88.2923 249.807 88.3602C250.682 88.4281 251.562 88.3194 252.394 88.0406L297.618 71.8645C299.31 71.2177 300.686 69.9397 301.456 68.2993C302.225 66.6589 302.329 64.784 301.744 63.0689L289.593 25.9631C289.335 25.1246 288.91 24.3468 288.344 23.676C287.778 23.0053 287.083 22.4555 286.3 22.0593C285.517 21.663 284.663 21.4286 283.787 21.3699C282.912 21.3113 282.033 21.4296 281.204 21.7178ZM246.734 27.6493C245.806 24.9151 245.973 21.9279 247.199 19.3137C248.424 16.6995 250.614 14.6611 253.309 13.6255C254.64 13.1702 256.049 12.9876 257.452 13.0886C258.855 13.1897 260.223 13.5723 261.475 14.2137C262.727 14.855 263.837 15.742 264.739 16.8216C265.64 17.9013 266.315 19.1515 266.723 20.4976L268.587 26.2003L248.598 33.352L246.734 27.6493ZM272.155 60.5777L275.256 70.0511C275.313 70.2411 275.295 70.4457 275.205 70.6224C275.115 70.7992 274.96 70.9344 274.773 71.0002L270.426 72.5508C270.253 72.5988 270.068 72.578 269.91 72.4927C269.752 72.4074 269.633 72.2642 269.579 72.0933L266.452 62.6622C264.728 62.5682 263.074 61.9498 261.711 60.8898C260.348 59.8297 259.341 58.3786 258.826 56.7307C258.089 54.552 258.223 52.1728 259.201 50.0911C260.179 48.0093 261.924 46.3865 264.071 45.5625C265.131 45.2003 266.253 45.0552 267.371 45.1359C268.488 45.2166 269.578 45.5214 270.575 46.0322C271.572 46.543 272.456 47.2494 273.174 48.1091C273.893 48.9688 274.431 49.9644 274.756 51.0364C275.301 52.7104 275.346 54.5071 274.886 56.2063C274.425 57.9055 273.479 59.4335 272.163 60.6031L272.155 60.5777Z" fill="#129099"/>
<path d="M276.646 23.1753C276.646 23.2939 268.553 26.3359 258.487 29.9541C248.42 33.5723 240.209 36.4788 240.167 36.394C240.125 36.3093 248.259 33.2419 258.334 29.6152C268.409 25.9885 276.603 23.0651 276.646 23.1753Z" fill="#263238"/>
<path d="M286.255 24.7344C286.292 24.808 286.323 24.8845 286.348 24.9632C286.416 25.1327 286.492 25.353 286.594 25.6242C286.814 26.2427 287.119 27.0986 287.5 28.1662L290.754 37.6397C292.11 41.6562 293.728 46.4183 295.525 51.7059C296.372 54.3581 297.372 57.1205 298.304 60.0269C298.803 61.5247 299.019 63.1022 298.94 64.6789C298.868 65.4989 298.634 66.2966 298.253 67.0261C297.846 67.7532 297.302 68.3948 296.652 68.9157C295.343 69.8713 293.89 70.6122 292.347 71.1104L287.983 72.678L279.722 75.6353L265.732 80.6177L256.284 83.9394L253.742 84.7867L253.064 85.007C252.991 85.0393 252.914 85.0593 252.835 85.0664C252.835 85.0664 252.903 85.0664 253.047 84.9647L253.708 84.702L256.25 83.7445L265.647 80.2873L279.611 75.2031L287.856 72.2204L292.22 70.6443C293.719 70.1664 295.129 69.4481 296.398 68.5174C297.003 68.0341 297.509 67.4385 297.889 66.7634C298.248 66.0887 298.464 65.3475 298.524 64.5857C298.602 63.0665 298.396 61.5462 297.914 60.1032C296.999 57.2222 296.033 54.4343 295.16 51.7821C293.398 46.4861 291.771 41.707 290.483 37.6905C289.195 33.6741 288.11 30.4456 287.365 28.1747C287.009 27.0647 286.738 26.2004 286.517 25.5733L286.314 24.8954C286.288 24.8441 286.269 24.7901 286.255 24.7344Z" fill="#263238"/>
<path d="M262.393 13.0493C262.393 13.0493 261.944 12.829 261.114 12.4901C259.93 12.0353 258.678 11.7832 257.411 11.7444C255.532 11.68 253.662 12.0331 251.937 12.7782C249.838 13.706 248.044 15.2068 246.759 17.1082C245.466 19.0042 244.773 21.2448 244.768 23.5396C244.786 25.4205 245.071 27.2894 245.615 29.0898C246.056 30.632 246.514 31.8607 246.819 32.7165C246.999 33.1512 247.146 33.5988 247.259 34.0554C247.019 33.6489 246.817 33.2205 246.658 32.7759C246.31 31.9285 245.81 30.7252 245.319 29.1746C244.716 27.3552 244.387 25.456 244.344 23.5396C244.322 21.1581 245.032 18.8271 246.378 16.8625C247.707 14.8916 249.575 13.3444 251.759 12.4054C253.538 11.6561 255.466 11.3257 257.394 11.4394C258.689 11.5054 259.961 11.8069 261.147 12.3291C261.465 12.4755 261.771 12.6454 262.063 12.8375C262.183 12.8905 262.295 12.9619 262.393 13.0493Z" fill="#263238"/>
<path d="M262.783 46.2065C262.918 46.1245 263.06 46.0537 263.206 45.9946C263.631 45.8032 264.07 45.6473 264.52 45.5286C265.234 45.3178 265.971 45.1926 266.715 45.1557C267.726 45.1014 268.738 45.2542 269.689 45.6048C271.858 46.3675 273.849 48.5791 274.832 51.5364C275.304 53.1234 275.304 54.8132 274.832 56.4002C274.31 58.1227 273.373 59.6908 272.104 60.9675L272.155 60.7387C273.282 63.8315 274.51 67.1871 275.781 70.6867L275.858 70.8985L275.646 70.9748L273.705 71.6187L269.468 73.0338L269.257 73.1016L269.189 72.8898C268.028 69.3817 266.757 66.1109 265.799 62.8994L265.986 63.0435C264.329 62.9059 262.75 62.2841 261.444 61.2556C260.263 60.3456 259.294 59.1889 258.605 57.8661C257.984 56.6931 257.675 55.38 257.707 54.053C257.746 52.6968 258.085 51.366 258.699 50.1559C259.313 48.9459 260.186 47.8866 261.258 47.0538C261.699 46.6959 262.193 46.4099 262.724 46.2065C262.245 46.4905 261.781 46.7987 261.334 47.1301C260.157 48.1256 259.256 49.4064 258.715 50.85C258.252 51.9385 258.035 53.1162 258.08 54.2985C258.126 55.4808 258.432 56.6384 258.978 57.6882C259.655 58.9607 260.601 60.071 261.749 60.942C262.995 61.9197 264.501 62.5091 266.079 62.6367H266.223L266.265 62.7639C267.198 65.916 268.477 69.2122 269.655 72.7373L269.375 72.6017L273.612 71.1866L275.544 70.5341L275.408 70.8222C274.146 67.3226 272.926 63.9586 271.807 60.8658V60.7387L271.909 60.637C273.141 59.4133 274.059 57.9105 274.587 56.2561C275.036 54.738 275.036 53.1222 274.587 51.6041C273.663 48.757 271.756 46.5963 269.689 45.8336C268.774 45.4807 267.797 45.3164 266.816 45.3506C266.084 45.3674 265.357 45.4669 264.647 45.6472C263.384 45.9607 262.791 46.2488 262.783 46.2065Z" fill="#263238"/>
<path d="M236.591 290.873L151.948 290.483C147.06 290.456 142.383 288.49 138.943 285.017C135.503 281.544 133.583 276.848 133.603 271.96L134.501 59.7727C134.511 57.3509 134.998 54.955 135.935 52.7216C136.871 50.4883 138.239 48.4615 139.959 46.7569C141.679 45.0524 143.719 43.7036 145.961 42.7877C148.202 41.8717 150.603 41.4066 153.025 41.4189L237.659 41.8087C242.547 41.8333 247.225 43.797 250.666 47.2685C254.108 50.74 256.03 55.4354 256.012 60.3234L255.114 272.502C255.104 274.924 254.617 277.321 253.681 279.556C252.745 281.79 251.377 283.818 249.657 285.524C247.937 287.23 245.898 288.58 243.656 289.498C241.414 290.416 239.014 290.883 236.591 290.873Z" fill="#455A64"/>
<path d="M237.532 49.1044H221.127C220.591 49.1144 220.063 49.2296 219.573 49.4437C219.082 49.6577 218.638 49.9663 218.267 50.3519C217.895 50.7375 217.604 51.1925 217.408 51.6908C217.212 52.1892 217.117 52.7212 217.127 53.2565V56.2307C217.137 56.7656 217.042 57.2972 216.846 57.7951C216.65 58.2929 216.358 58.7473 215.987 59.1322C215.615 59.5171 215.172 59.825 214.681 60.0381C214.19 60.2512 213.662 60.3655 213.128 60.3743L181.148 60.2302C180.066 60.2014 179.04 59.7444 178.295 58.9595C177.55 58.1747 177.147 57.1262 177.174 56.0443V53.0701C177.202 51.9896 176.8 50.9424 176.056 50.1578C175.313 49.3732 174.289 48.9152 173.209 48.8841H167.438L153.075 48.8163C149.659 48.796 146.374 50.1302 143.939 52.5267C141.505 54.9232 140.119 58.1869 140.085 61.603L139.238 268.714C139.23 270.409 139.556 272.089 140.198 273.657C140.839 275.226 141.783 276.653 142.976 277.857C144.169 279.061 145.587 280.018 147.15 280.674C148.713 281.33 150.389 281.671 152.084 281.679L236.549 282.069C238.244 282.076 239.925 281.75 241.495 281.108C243.065 280.467 244.493 279.522 245.697 278.328C246.902 277.135 247.86 275.715 248.516 274.152C249.172 272.588 249.514 270.91 249.522 269.214L250.369 62.1029C250.389 58.6772 249.048 55.3836 246.641 52.9461C244.234 50.5086 240.957 49.1268 237.532 49.1044Z" fill="white"/>
<path d="M226.168 254.436L163.362 254.165C162.71 254.165 162.184 253.453 162.193 252.589L162.261 236.159C162.261 235.311 162.794 234.583 163.447 234.583L226.253 234.871C226.615 234.933 226.938 235.133 227.156 235.428C227.374 235.724 227.469 236.092 227.423 236.455L227.363 252.869C227.363 253.742 226.821 254.445 226.168 254.436Z" fill="#129099"/>
<path d="M182.907 247.513C182.484 247.513 182.078 247.445 181.688 247.31C181.303 247.174 181.005 246.995 180.793 246.773L181.029 246.31C181.235 246.516 181.509 246.684 181.85 246.814C182.192 246.939 182.544 247.001 182.907 247.001C183.417 247.001 183.799 246.909 184.054 246.724C184.309 246.535 184.436 246.291 184.436 245.993C184.436 245.765 184.366 245.583 184.225 245.448C184.089 245.312 183.921 245.209 183.72 245.139C183.52 245.063 183.241 244.982 182.883 244.895C182.455 244.786 182.113 244.683 181.858 244.586C181.604 244.483 181.384 244.328 181.2 244.122C181.021 243.916 180.931 243.637 180.931 243.285C180.931 242.998 181.007 242.737 181.159 242.504C181.311 242.266 181.544 242.076 181.858 241.935C182.173 241.794 182.563 241.724 183.029 241.724C183.355 241.724 183.672 241.77 183.981 241.862C184.295 241.949 184.566 242.071 184.794 242.228L184.59 242.708C184.352 242.55 184.097 242.434 183.826 242.358C183.555 242.277 183.289 242.236 183.029 242.236C182.531 242.236 182.154 242.334 181.899 242.529C181.65 242.718 181.525 242.965 181.525 243.269C181.525 243.496 181.593 243.681 181.728 243.822C181.869 243.957 182.043 244.063 182.249 244.139C182.46 244.209 182.742 244.288 183.094 244.374C183.512 244.477 183.848 244.58 184.103 244.683C184.363 244.781 184.582 244.933 184.761 245.139C184.94 245.339 185.03 245.613 185.03 245.96C185.03 246.247 184.951 246.51 184.794 246.749C184.642 246.982 184.406 247.169 184.086 247.31C183.767 247.445 183.374 247.513 182.907 247.513ZM186.341 241.772H186.942V247.464H186.341V241.772ZM193.551 241.772V247.464H193.055L189.396 242.846V247.464H188.794V241.772H189.29L192.958 246.391V241.772H193.551ZM199.418 244.618H199.995V246.789C199.729 247.023 199.415 247.201 199.052 247.326C198.689 247.451 198.306 247.513 197.905 247.513C197.336 247.513 196.824 247.388 196.368 247.139C195.913 246.89 195.555 246.546 195.295 246.106C195.035 245.662 194.905 245.166 194.905 244.618C194.905 244.071 195.035 243.578 195.295 243.139C195.555 242.694 195.913 242.347 196.368 242.098C196.824 241.848 197.339 241.724 197.913 241.724C198.347 241.724 198.745 241.794 199.109 241.935C199.472 242.071 199.778 242.274 200.027 242.545L199.653 242.927C199.204 242.483 198.632 242.26 197.938 242.26C197.477 242.26 197.06 242.363 196.686 242.569C196.317 242.77 196.027 243.052 195.815 243.415C195.604 243.773 195.498 244.174 195.498 244.618C195.498 245.063 195.604 245.464 195.815 245.822C196.027 246.18 196.317 246.461 196.686 246.667C197.054 246.873 197.469 246.976 197.93 246.976C198.515 246.976 199.011 246.83 199.418 246.537V244.618ZM206.119 247.513C205.382 247.513 204.807 247.302 204.395 246.879C203.983 246.456 203.777 245.841 203.777 245.033V241.772H204.379V245.009C204.379 245.67 204.528 246.163 204.826 246.489C205.124 246.814 205.555 246.976 206.119 246.976C206.688 246.976 207.122 246.814 207.42 246.489C207.718 246.163 207.867 245.67 207.867 245.009V241.772H208.453V245.033C208.453 245.841 208.247 246.456 207.835 246.879C207.428 247.302 206.856 247.513 206.119 247.513ZM212.396 241.772C213.123 241.772 213.692 241.946 214.104 242.293C214.516 242.64 214.722 243.117 214.722 243.724C214.722 244.331 214.516 244.808 214.104 245.155C213.692 245.497 213.123 245.667 212.396 245.667H210.868V247.464H210.266V241.772H212.396ZM212.38 245.139C212.944 245.139 213.375 245.017 213.673 244.773C213.971 244.524 214.12 244.174 214.12 243.724C214.12 243.263 213.971 242.911 213.673 242.667C213.375 242.418 212.944 242.293 212.38 242.293H210.868V245.139H212.38Z" fill="#E8E8E3"/>
<path d="M175.89 109.987L154.096 109.888L154.078 113.888L175.872 113.987L175.89 109.987Z" fill="#129099"/>
<path opacity="0.1" d="M175.89 109.987L154.096 109.888L154.078 113.888L175.872 113.987L175.89 109.987Z" fill="black"/>
<path d="M239.777 134.544C239.948 134.526 240.116 134.486 240.277 134.425C240.512 134.333 240.715 134.177 240.865 133.975C241.015 133.773 241.105 133.532 241.124 133.281C241.124 131.934 241.124 129.968 241.124 127.443C241.124 126.18 241.124 124.765 241.124 123.206C241.124 122.825 241.124 122.426 241.124 122.028C241.18 121.642 241.095 121.248 240.887 120.918C240.77 120.76 240.619 120.631 240.444 120.541C240.269 120.451 240.075 120.403 239.879 120.401H238.557H226.313L155.439 120.138C155.258 120.135 155.079 120.176 154.916 120.257C154.754 120.338 154.614 120.458 154.507 120.605C154.303 120.936 154.225 121.33 154.287 121.715C154.287 122.562 154.287 123.409 154.287 124.257C154.287 125.951 154.287 127.646 154.287 129.341C154.287 130.188 154.287 131.035 154.287 131.883C154.252 132.277 154.252 132.674 154.287 133.069C154.332 133.238 154.414 133.395 154.529 133.527C154.643 133.659 154.787 133.764 154.948 133.832C155.115 133.898 155.294 133.93 155.473 133.925H159.786L178.606 134.027L210.467 134.222L231.947 134.391L237.786 134.459H239.303C239.65 134.459 239.819 134.459 239.819 134.459H239.303H237.786H231.947H210.467L178.606 134.357L159.786 134.281H155.473C155.236 134.29 154.999 134.25 154.779 134.162C154.555 134.067 154.357 133.922 154.198 133.739C154.04 133.555 153.925 133.338 153.863 133.103C153.814 132.881 153.797 132.652 153.813 132.425V131.798C153.813 130.951 153.813 130.103 153.813 129.256C153.813 127.561 153.813 125.867 153.813 124.172C153.813 123.325 153.813 122.477 153.813 121.63C153.796 121.404 153.796 121.178 153.813 120.952C153.844 120.703 153.941 120.466 154.092 120.266C154.238 120.061 154.432 119.895 154.656 119.781C154.88 119.668 155.129 119.61 155.38 119.613L226.253 120.003L238.498 120.088H239.819C240.052 120.088 240.282 120.144 240.488 120.252C240.695 120.359 240.872 120.515 241.006 120.706C241.245 121.075 241.341 121.517 241.277 121.952C241.277 122.35 241.277 122.748 241.277 123.13C241.277 124.672 241.277 126.087 241.277 127.366C241.277 129.908 241.218 131.857 241.201 133.213C241.18 133.474 241.085 133.723 240.928 133.932C240.77 134.141 240.556 134.3 240.311 134.391C240.151 134.49 239.966 134.543 239.777 134.544Z" fill="#E0E0E0"/>
<path d="M200.502 124.392H160.642V128.129H200.502V124.392Z" fill="#129099"/>
<path opacity="0.2" d="M200.502 124.392H160.642V128.129H200.502V124.392Z" fill="white"/>
<path d="M175.741 146.473L153.947 146.375L153.929 150.374L175.723 150.473L175.741 146.473Z" fill="#129099"/>
<path opacity="0.1" d="M175.741 146.473L153.947 146.375L153.929 150.374L175.723 150.473L175.741 146.473Z" fill="black"/>
<path d="M239.226 171.031C239.397 171.01 239.567 170.979 239.735 170.938C239.971 170.862 240.189 170.737 240.373 170.57C240.557 170.404 240.704 170.2 240.802 169.972C240.936 169.63 240.988 169.261 240.955 168.895C240.955 168.489 240.955 168.048 240.955 167.557C240.955 166.574 240.955 165.455 240.955 164.167V158.787C240.995 158.397 240.909 158.005 240.709 157.668C240.5 157.323 240.171 157.066 239.785 156.948C239.363 156.872 238.934 156.85 238.506 156.88H226.312L155.685 156.617C155.305 156.618 154.939 156.757 154.653 157.008C154.368 157.259 154.184 157.605 154.135 157.982C154.135 158.787 154.135 159.676 154.135 160.524C154.135 162.218 154.135 163.913 154.135 165.608C154.135 166.455 154.135 167.302 154.135 168.15C154.103 168.546 154.12 168.944 154.185 169.336C154.291 169.68 154.509 169.978 154.804 170.183C155.117 170.382 155.485 170.477 155.855 170.455H157.032H159.481L178.233 170.548L209.984 170.743L231.388 170.912L237.21 170.98H238.726H239.235H238.726H237.21H231.388H209.984L178.216 170.946L159.464 170.878H155.778C155.32 170.905 154.865 170.784 154.482 170.531C154.096 170.264 153.815 169.872 153.685 169.421C153.609 168.99 153.587 168.552 153.618 168.116C153.618 167.269 153.618 166.421 153.618 165.574C153.618 163.879 153.618 162.184 153.618 160.49C153.618 159.642 153.618 158.795 153.618 157.948C153.679 157.463 153.916 157.018 154.282 156.695C154.649 156.372 155.12 156.194 155.609 156.194L226.236 156.583L238.43 156.677C238.884 156.649 239.34 156.68 239.785 156.77C240.226 156.914 240.597 157.216 240.828 157.617C241.047 157.99 241.142 158.424 241.099 158.854C241.099 159.253 241.099 159.642 241.099 160.032C241.099 161.566 241.099 162.972 241.099 164.269C241.099 165.565 241.099 166.658 241.099 167.658C241.099 168.141 241.099 168.59 241.099 169.006C241.13 169.385 241.069 169.765 240.921 170.116C240.811 170.35 240.652 170.557 240.454 170.724C240.257 170.89 240.026 171.012 239.777 171.082C239.592 171.097 239.405 171.08 239.226 171.031Z" fill="#E0E0E0"/>
<path d="M175.577 184.544L153.783 184.445L153.765 188.445L175.559 188.544L175.577 184.544Z" fill="#129099"/>
<path opacity="0.1" d="M175.577 184.544L153.783 184.445L153.765 188.445L175.559 188.544L175.577 184.544Z" fill="black"/>
<path d="M239.057 209.086C239.228 209.065 239.398 209.034 239.565 208.992C239.801 208.918 240.018 208.794 240.202 208.628C240.386 208.463 240.533 208.261 240.633 208.035C240.766 207.693 240.818 207.325 240.785 206.959C240.785 206.544 240.785 206.111 240.785 205.612C240.785 204.637 240.785 203.51 240.785 202.222V196.841C240.826 196.452 240.74 196.06 240.54 195.723C240.326 195.384 239.998 195.132 239.616 195.011C239.194 194.933 238.765 194.907 238.337 194.935H226.143L155.516 194.672C155.136 194.673 154.769 194.812 154.484 195.063C154.199 195.314 154.014 195.66 153.965 196.036C153.965 196.884 153.965 197.731 153.965 198.578C153.965 200.273 153.965 201.968 153.965 203.663C153.965 204.51 153.965 205.357 153.965 206.205C153.934 206.598 153.951 206.993 154.016 207.383C154.117 207.728 154.336 208.028 154.635 208.23C154.946 208.433 155.315 208.528 155.685 208.501H159.371L178.123 208.603L209.874 208.798L231.278 208.967L237.099 209.035H238.616C238.955 209.035 239.125 209.035 239.125 209.035C239.125 209.035 238.955 209.035 238.616 209.035H237.099H231.278H209.874L178.123 208.942L159.371 208.865H155.685C155.227 208.896 154.771 208.774 154.389 208.518C154.003 208.251 153.722 207.859 153.592 207.408C153.516 206.977 153.494 206.539 153.524 206.103C153.524 205.256 153.524 204.408 153.524 203.561C153.524 201.866 153.524 200.171 153.524 198.477C153.524 197.629 153.524 196.782 153.524 195.892C153.584 195.409 153.819 194.963 154.184 194.64C154.549 194.317 155.02 194.139 155.507 194.138L226.135 194.528L238.328 194.621C238.782 194.593 239.238 194.625 239.684 194.715C240.124 194.858 240.495 195.16 240.726 195.562C240.945 195.935 241.04 196.368 240.997 196.799C240.997 197.197 240.997 197.596 240.997 197.977C240.997 199.511 240.997 200.917 240.997 202.214C240.997 203.51 240.997 204.603 240.997 205.603C240.997 206.086 240.997 206.535 240.997 206.95C241.03 207.329 240.969 207.711 240.819 208.06C240.709 208.294 240.55 208.502 240.353 208.668C240.155 208.835 239.924 208.957 239.675 209.026C239.477 209.094 239.265 209.115 239.057 209.086Z" fill="#E0E0E0"/>
<path d="M199.651 161.936L159.792 161.755L159.775 165.492L199.634 165.673L199.651 161.936Z" fill="#129099"/>
<path opacity="0.2" d="M199.651 161.936L159.792 161.755L159.775 165.492L199.634 165.673L199.651 161.936Z" fill="white"/>
<path d="M163.396 202.171C163.371 202.512 163.247 202.838 163.038 203.109C162.829 203.38 162.546 203.583 162.223 203.694C161.9 203.805 161.551 203.819 161.22 203.734C160.889 203.649 160.59 203.468 160.361 203.215C160.132 202.961 159.982 202.646 159.93 202.308C159.878 201.971 159.926 201.625 160.069 201.315C160.212 201.004 160.443 200.742 160.733 200.562C161.023 200.381 161.36 200.29 161.701 200.299C162.173 200.325 162.616 200.536 162.933 200.887C163.251 201.237 163.417 201.699 163.396 202.171Z" fill="#129099"/>
<path d="M168.794 202.197C168.811 202.436 168.778 202.675 168.698 202.901C168.618 203.127 168.492 203.334 168.329 203.509C168.166 203.684 167.968 203.824 167.749 203.919C167.529 204.015 167.292 204.064 167.053 204.064C166.813 204.064 166.576 204.015 166.357 203.919C166.137 203.824 165.939 203.684 165.776 203.509C165.613 203.334 165.487 203.127 165.407 202.901C165.327 202.675 165.295 202.436 165.311 202.197C165.295 201.958 165.327 201.718 165.407 201.492C165.487 201.267 165.613 201.06 165.776 200.885C165.939 200.709 166.137 200.57 166.357 200.474C166.576 200.379 166.813 200.33 167.053 200.33C167.292 200.33 167.529 200.379 167.749 200.474C167.968 200.57 168.166 200.709 168.329 200.885C168.492 201.06 168.618 201.267 168.698 201.492C168.778 201.718 168.811 201.958 168.794 202.197Z" fill="#129099"/>
<path d="M174.2 202.222C174.175 202.563 174.05 202.889 173.842 203.16C173.633 203.43 173.35 203.634 173.027 203.745C172.703 203.856 172.355 203.87 172.024 203.785C171.693 203.7 171.394 203.519 171.165 203.266C170.935 203.012 170.786 202.697 170.734 202.359C170.682 202.021 170.73 201.676 170.873 201.365C171.016 201.055 171.247 200.793 171.537 200.612C171.827 200.432 172.164 200.34 172.505 200.349C172.977 200.378 173.418 200.59 173.735 200.94C174.052 201.29 174.219 201.75 174.2 202.222Z" fill="#129099"/>
<path d="M179.598 202.247C179.573 202.588 179.448 202.914 179.24 203.185C179.031 203.456 178.748 203.659 178.424 203.77C178.101 203.882 177.752 203.895 177.421 203.81C177.09 203.725 176.792 203.544 176.563 203.291C176.333 203.038 176.183 202.723 176.131 202.385C176.08 202.047 176.128 201.701 176.271 201.391C176.413 201.08 176.644 200.818 176.934 200.638C177.225 200.457 177.561 200.366 177.903 200.375C178.374 200.403 178.816 200.615 179.132 200.965C179.449 201.315 179.616 201.776 179.598 202.247Z" fill="#129099"/>
<path d="M184.995 202.264C184.972 202.606 184.849 202.933 184.641 203.205C184.433 203.477 184.15 203.682 183.827 203.794C183.504 203.906 183.155 203.921 182.823 203.837C182.492 203.753 182.192 203.573 181.962 203.319C181.732 203.066 181.581 202.751 181.529 202.413C181.476 202.075 181.525 201.729 181.667 201.418C181.81 201.107 182.041 200.844 182.331 200.664C182.621 200.483 182.959 200.391 183.301 200.4C183.77 200.429 184.21 200.64 184.527 200.988C184.844 201.336 185.012 201.794 184.995 202.264Z" fill="#129099"/>
<path d="M190.401 202.29C190.378 202.629 190.256 202.955 190.051 203.226C189.845 203.497 189.564 203.702 189.244 203.816C188.923 203.93 188.576 203.948 188.245 203.867C187.915 203.786 187.615 203.61 187.383 203.361C187.151 203.112 186.997 202.801 186.939 202.465C186.882 202.13 186.924 201.785 187.06 201.473C187.196 201.161 187.421 200.896 187.706 200.71C187.991 200.523 188.324 200.425 188.664 200.426C189.142 200.443 189.592 200.649 189.918 200.999C190.244 201.348 190.417 201.813 190.401 202.29Z" fill="#129099"/>
<path d="M195.799 202.315C195.816 202.554 195.783 202.794 195.703 203.02C195.623 203.245 195.498 203.452 195.334 203.627C195.171 203.803 194.973 203.942 194.754 204.038C194.534 204.133 194.297 204.182 194.058 204.182C193.818 204.182 193.581 204.133 193.362 204.038C193.142 203.942 192.945 203.803 192.781 203.627C192.618 203.452 192.492 203.245 192.412 203.02C192.332 202.794 192.3 202.554 192.316 202.315C192.3 202.076 192.332 201.837 192.412 201.611C192.492 201.385 192.618 201.178 192.781 201.003C192.945 200.828 193.142 200.688 193.362 200.593C193.581 200.498 193.818 200.448 194.058 200.448C194.297 200.448 194.534 200.498 194.754 200.593C194.973 200.688 195.171 200.828 195.334 201.003C195.498 201.178 195.623 201.385 195.703 201.611C195.783 201.837 195.816 202.076 195.799 202.315Z" fill="#129099"/>
<path d="M201.197 202.341C201.174 202.68 201.052 203.006 200.846 203.277C200.64 203.548 200.36 203.753 200.039 203.867C199.718 203.981 199.371 203.999 199.041 203.918C198.71 203.837 198.41 203.661 198.178 203.412C197.946 203.163 197.792 202.852 197.735 202.516C197.677 202.181 197.719 201.836 197.856 201.524C197.992 201.212 198.216 200.946 198.501 200.76C198.786 200.574 199.119 200.476 199.46 200.477C199.937 200.494 200.388 200.7 200.713 201.05C201.039 201.399 201.213 201.863 201.197 202.341Z" fill="#129099"/>
<path d="M206.594 202.366C206.571 202.707 206.448 203.034 206.24 203.306C206.033 203.578 205.75 203.783 205.426 203.896C205.103 204.008 204.754 204.023 204.423 203.939C204.091 203.854 203.792 203.674 203.561 203.421C203.331 203.168 203.181 202.853 203.128 202.515C203.076 202.176 203.124 201.83 203.266 201.519C203.409 201.208 203.64 200.946 203.93 200.765C204.221 200.584 204.558 200.493 204.9 200.502C205.37 200.53 205.81 200.741 206.126 201.089C206.443 201.438 206.611 201.896 206.594 202.366Z" fill="#129099"/>
<g opacity="0.2">
<path opacity="0.2" d="M163.396 202.171C163.371 202.512 163.247 202.838 163.038 203.109C162.829 203.38 162.546 203.583 162.223 203.694C161.9 203.805 161.551 203.819 161.22 203.734C160.889 203.649 160.59 203.468 160.361 203.215C160.132 202.961 159.982 202.646 159.93 202.308C159.878 201.971 159.926 201.625 160.069 201.315C160.212 201.004 160.443 200.742 160.733 200.562C161.023 200.381 161.36 200.29 161.701 200.299C162.173 200.325 162.616 200.536 162.933 200.887C163.251 201.237 163.417 201.699 163.396 202.171Z" fill="white"/>
<path opacity="0.2" d="M168.794 202.197C168.81 202.436 168.778 202.675 168.698 202.901C168.618 203.127 168.492 203.334 168.329 203.509C168.166 203.684 167.968 203.824 167.748 203.919C167.529 204.015 167.292 204.064 167.052 204.064C166.813 204.064 166.576 204.015 166.356 203.919C166.137 203.824 165.939 203.684 165.776 203.509C165.613 203.334 165.487 203.127 165.407 202.901C165.327 202.675 165.294 202.436 165.311 202.197C165.294 201.958 165.327 201.718 165.407 201.492C165.487 201.267 165.613 201.06 165.776 200.885C165.939 200.709 166.137 200.57 166.356 200.474C166.576 200.379 166.813 200.33 167.052 200.33C167.292 200.33 167.529 200.379 167.748 200.474C167.968 200.57 168.166 200.709 168.329 200.885C168.492 201.06 168.618 201.267 168.698 201.492C168.778 201.718 168.81 201.958 168.794 202.197Z" fill="white"/>
<path opacity="0.2" d="M174.2 202.222C174.175 202.563 174.05 202.889 173.842 203.16C173.633 203.43 173.35 203.634 173.027 203.745C172.703 203.856 172.355 203.87 172.024 203.785C171.693 203.7 171.394 203.519 171.165 203.266C170.935 203.012 170.786 202.697 170.734 202.359C170.682 202.021 170.73 201.676 170.873 201.365C171.016 201.055 171.247 200.793 171.537 200.612C171.827 200.432 172.164 200.34 172.505 200.349C172.977 200.378 173.418 200.59 173.735 200.94C174.052 201.29 174.219 201.75 174.2 202.222Z" fill="white"/>
<path opacity="0.2" d="M179.598 202.247C179.573 202.588 179.448 202.914 179.24 203.185C179.031 203.456 178.748 203.659 178.424 203.77C178.101 203.882 177.752 203.895 177.421 203.81C177.09 203.725 176.792 203.544 176.563 203.291C176.333 203.038 176.183 202.723 176.131 202.385C176.08 202.047 176.128 201.701 176.271 201.391C176.413 201.08 176.644 200.818 176.934 200.638C177.225 200.457 177.561 200.366 177.903 200.375C178.374 200.403 178.816 200.615 179.132 200.965C179.449 201.315 179.616 201.776 179.598 202.247Z" fill="white"/>
<path opacity="0.2" d="M184.995 202.264C184.972 202.606 184.849 202.933 184.641 203.205C184.433 203.477 184.15 203.682 183.827 203.794C183.504 203.906 183.155 203.921 182.823 203.837C182.492 203.753 182.192 203.573 181.962 203.319C181.732 203.066 181.581 202.751 181.529 202.413C181.476 202.075 181.525 201.729 181.667 201.418C181.81 201.107 182.041 200.844 182.331 200.664C182.621 200.483 182.959 200.391 183.301 200.4C183.77 200.429 184.21 200.64 184.527 200.988C184.844 201.336 185.012 201.794 184.995 202.264Z" fill="white"/>
<path opacity="0.2" d="M190.401 202.29C190.378 202.63 190.256 202.955 190.051 203.226C189.845 203.497 189.564 203.702 189.244 203.816C188.923 203.93 188.576 203.948 188.245 203.867C187.915 203.786 187.615 203.61 187.383 203.361C187.151 203.112 186.997 202.801 186.939 202.465C186.882 202.13 186.924 201.785 187.06 201.473C187.196 201.161 187.421 200.896 187.706 200.71C187.991 200.524 188.324 200.425 188.664 200.426C189.142 200.443 189.592 200.65 189.918 200.999C190.244 201.348 190.417 201.813 190.401 202.29Z" fill="white"/>
<path opacity="0.2" d="M195.799 202.315C195.816 202.554 195.783 202.794 195.703 203.02C195.623 203.245 195.498 203.452 195.334 203.627C195.171 203.803 194.973 203.942 194.754 204.038C194.534 204.133 194.297 204.182 194.058 204.182C193.818 204.182 193.581 204.133 193.362 204.038C193.142 203.942 192.945 203.803 192.781 203.627C192.618 203.452 192.492 203.245 192.412 203.02C192.332 202.794 192.3 202.554 192.316 202.315C192.3 202.076 192.332 201.837 192.412 201.611C192.492 201.385 192.618 201.178 192.781 201.003C192.945 200.828 193.142 200.688 193.362 200.593C193.581 200.498 193.818 200.448 194.058 200.448C194.297 200.448 194.534 200.498 194.754 200.593C194.973 200.688 195.171 200.828 195.334 201.003C195.498 201.178 195.623 201.385 195.703 201.611C195.783 201.837 195.816 202.076 195.799 202.315Z" fill="white"/>
<path opacity="0.2" d="M201.197 202.341C201.174 202.68 201.052 203.006 200.846 203.277C200.64 203.548 200.36 203.753 200.039 203.867C199.718 203.981 199.371 203.999 199.041 203.918C198.71 203.837 198.41 203.661 198.178 203.412C197.946 203.163 197.792 202.852 197.735 202.516C197.677 202.181 197.719 201.836 197.856 201.524C197.992 201.212 198.216 200.946 198.501 200.76C198.786 200.574 199.119 200.476 199.46 200.477C199.937 200.494 200.388 200.7 200.713 201.05C201.039 201.399 201.213 201.863 201.197 202.341Z" fill="white"/>
<path opacity="0.2" d="M206.594 202.366C206.571 202.707 206.448 203.034 206.24 203.306C206.033 203.578 205.75 203.783 205.426 203.896C205.103 204.008 204.754 204.023 204.423 203.939C204.091 203.854 203.792 203.674 203.561 203.421C203.331 203.168 203.181 202.853 203.128 202.515C203.076 202.176 203.124 201.83 203.266 201.519C203.409 201.208 203.64 200.946 203.93 200.765C204.221 200.584 204.558 200.493 204.9 200.502C205.37 200.53 205.81 200.741 206.126 201.089C206.443 201.438 206.611 201.896 206.594 202.366Z" fill="white"/>
</g>
<path d="M198.926 80.0415C199.514 79.7823 200.014 79.3557 200.362 78.8148C200.71 78.2739 200.891 77.6426 200.883 76.9995C200.905 76.5814 200.842 76.1632 200.697 75.7704C200.552 75.3776 200.329 75.0185 200.041 74.7148C199.752 74.4111 199.405 74.1692 199.021 74.004C198.636 73.8387 198.222 73.7535 197.803 73.7535C197.384 73.7535 196.97 73.8387 196.586 74.004C196.201 74.1692 195.854 74.4111 195.566 74.7148C195.278 75.0185 195.054 75.3776 194.909 75.7704C194.764 76.1632 194.701 76.5814 194.723 76.9995C194.71 77.649 194.89 78.2879 195.24 78.8353C195.59 79.3828 196.094 79.8143 196.689 80.0754C191.944 80.7872 192.155 85.9391 192.155 85.9391L203.374 85.9899C203.374 85.9899 203.637 80.7448 198.926 80.0415Z" fill="#129099"/>
<path opacity="0.1" d="M198.926 80.0415C199.514 79.7823 200.014 79.3557 200.362 78.8148C200.71 78.2739 200.891 77.6426 200.883 76.9995C200.905 76.5814 200.842 76.1632 200.697 75.7704C200.552 75.3776 200.329 75.0185 200.041 74.7148C199.752 74.4111 199.405 74.1692 199.021 74.004C198.636 73.8387 198.222 73.7535 197.803 73.7535C197.384 73.7535 196.97 73.8387 196.586 74.004C196.201 74.1692 195.854 74.4111 195.566 74.7148C195.278 75.0185 195.054 75.3776 194.909 75.7704C194.764 76.1632 194.701 76.5814 194.723 76.9995C194.71 77.649 194.89 78.2879 195.24 78.8353C195.59 79.3828 196.094 79.8143 196.689 80.0754C191.944 80.7872 192.155 85.9391 192.155 85.9391L203.374 85.9899C203.374 85.9899 203.637 80.7448 198.926 80.0415Z" fill="black"/>
<path d="M217.156 89.3128L177.17 89.1313L177.148 93.9104L217.135 94.0919L217.156 89.3128Z" fill="#129099"/>
<path opacity="0.2" d="M217.156 89.3128L177.17 89.1313L177.148 93.9104L217.135 94.0919L217.156 89.3128Z" fill="white"/>
<path d="M70.1529 114.08H69.7546L68.6022 114.165C67.9786 114.202 67.3584 114.284 66.7465 114.41C66.3502 114.466 65.957 114.542 65.5687 114.639L64.2553 115.004C62.0198 115.689 59.9106 116.734 58.0102 118.096C55.4994 119.919 53.4028 122.252 51.8584 124.943C50.9507 126.494 50.2283 128.147 49.7061 129.866C49.1574 131.735 48.8415 133.665 48.7656 135.611C48.7151 136.634 48.732 137.658 48.8164 138.679C48.8164 139.196 48.9604 139.712 49.0282 140.238C49.0853 140.767 49.1844 141.292 49.3248 141.805C50.0868 145.206 51.6328 148.381 53.8396 151.078C56.0464 153.774 58.8529 155.918 62.0352 157.338C64.3384 158.331 66.807 158.886 69.314 158.973C71.9033 159.115 74.4952 158.744 76.9402 157.88L77.6859 157.6H77.7876L77.8723 157.651L88.5575 163.074L88.244 163.345C87.1001 159.803 85.9985 156.372 84.9308 153.075V152.948L85.024 152.855C87.6161 150.244 89.5403 147.047 90.6335 143.534C91.6237 140.323 91.9127 136.936 91.4809 133.603C91.0968 130.641 90.1445 127.781 88.6761 125.18C87.4104 122.946 85.7776 120.941 83.8462 119.249C82.2527 117.909 80.489 116.787 78.601 115.91C77.1725 115.294 75.6847 114.826 74.1609 114.512L72.4662 114.232L71.2375 114.139L70.4918 114.088H70.2376C70.3221 114.079 70.4073 114.079 70.4918 114.088H71.246L72.4746 114.139L74.1694 114.385C75.7122 114.676 77.2202 115.127 78.6688 115.732C80.5892 116.598 82.3847 117.719 84.0072 119.062C85.9741 120.747 87.6416 122.752 88.9388 124.994C90.4489 127.623 91.4304 130.521 91.8283 133.527C92.2959 136.911 92.0271 140.356 91.0403 143.627C89.9399 147.213 87.9859 150.479 85.346 153.143L85.3969 152.923C86.4645 156.219 87.5746 159.651 88.727 163.184L88.888 163.701L88.405 163.455L77.7198 158.041H77.9062L77.1436 158.32C74.6515 159.197 72.0116 159.577 69.3733 159.439C66.8123 159.341 64.292 158.767 61.942 157.744C57.4592 155.824 53.7296 152.488 51.3246 148.245C50.2179 146.286 49.4096 144.173 48.9266 141.975C48.7943 141.448 48.6952 140.913 48.63 140.373C48.5622 139.84 48.452 139.314 48.4266 138.789C48.1973 135.774 48.5159 132.742 49.3672 129.841C49.9023 128.097 50.6449 126.425 51.5788 124.858C53.1601 122.143 55.3003 119.795 57.8577 117.969C59.7894 116.603 61.934 115.567 64.2044 114.902L65.5348 114.563C65.9263 114.472 66.3223 114.401 66.7211 114.351C67.3393 114.237 67.9653 114.169 68.5937 114.148L69.7546 114.105C69.8866 114.088 70.0197 114.079 70.1529 114.08Z" fill="#129099"/>
<path d="M74.9828 133.84H73.4152L70.0257 129.078V125.951C70.0257 125.951 67.6023 125.799 67.8904 129.892C68.1785 133.984 67.8904 132.942 67.8904 132.942C67.8904 132.942 62.7469 132.942 62.3232 133.408C61.8996 133.874 61.8741 138.84 61.8148 141.611C61.7823 142.279 61.974 142.938 62.3594 143.485C62.7447 144.031 63.3016 144.433 63.9417 144.627C64.1211 144.677 64.3063 144.703 64.4925 144.703C65.7805 144.703 72.3305 143.661 72.3305 143.661H75.0336L74.9828 133.84Z" fill="#129099"/>
<path d="M79.4653 133.001L78.4993 143.712H75.8217V133.222L79.4653 133.001Z" fill="#129099"/>
<path d="M111.402 351.052V343.807L98.4122 343.714L98.302 354.67L99.107 354.73C102.691 354.958 117.342 355.297 119.749 354.552C122.426 353.721 111.402 351.052 111.402 351.052Z" fill="#129099"/>
<path d="M120.054 353.874C120.054 353.993 115.19 354.094 109.199 354.094C103.208 354.094 98.3444 353.993 98.3444 353.874C98.3444 353.755 103.208 353.654 109.199 353.654C115.19 353.654 120.054 353.755 120.054 353.874Z" fill="#263238"/>
<path d="M111.631 352.535C111.521 352.476 111.631 352.094 111.894 351.688C112.156 351.281 112.512 351.111 112.597 351.196C112.682 351.281 112.504 351.603 112.25 351.95C111.995 352.298 111.741 352.594 111.631 352.535Z" fill="#263238"/>
<path d="M112.461 353.01C112.343 353.01 112.402 352.535 112.656 352.086C112.91 351.637 113.249 351.366 113.343 351.433C113.436 351.501 113.283 351.883 113.046 352.281C112.809 352.679 112.571 353.052 112.461 353.01Z" fill="#263238"/>
<path d="M102.259 353.84C102.208 353.84 102.013 353.687 101.734 353.365C101.392 352.951 101.012 352.571 100.598 352.23C100.191 351.905 99.7065 351.692 99.1918 351.611C98.7935 351.561 98.5393 351.611 98.5139 351.561C98.4885 351.51 98.7342 351.332 99.2002 351.298C99.8153 351.285 100.415 351.489 100.895 351.874C101.344 352.24 101.723 352.685 102.013 353.187C102.208 353.56 102.31 353.806 102.259 353.84Z" fill="#263238"/>
<path d="M111.673 351.171C111.733 351.272 111.512 351.527 111.139 351.662C110.767 351.798 110.436 351.747 110.419 351.662C110.402 351.578 110.665 351.4 110.987 351.281C111.309 351.162 111.606 351.069 111.673 351.171Z" fill="#263238"/>
<path d="M111.47 350.467C111.47 350.595 111.131 350.696 110.69 350.705C110.25 350.713 109.902 350.612 109.911 350.493C109.919 350.374 110.267 350.264 110.69 350.256C111.114 350.247 111.453 350.349 111.47 350.467Z" fill="#263238"/>
<path d="M143.39 351.052V343.807L130.4 343.714L130.29 354.56L131.095 354.619C134.679 354.848 149.338 355.297 151.736 354.552C154.414 353.721 143.39 351.052 143.39 351.052Z" fill="#129099"/>
<path d="M152.042 353.891C152.042 354.009 147.186 354.111 141.187 354.111C135.188 354.111 130.341 354.009 130.341 353.891C130.341 353.772 135.196 353.671 141.187 353.671C147.178 353.671 152.042 353.772 152.042 353.891Z" fill="#263238"/>
<path d="M143.619 352.535C143.517 352.476 143.619 352.094 143.881 351.688C144.144 351.281 144.5 351.111 144.585 351.196C144.67 351.281 144.492 351.603 144.237 351.95C143.983 352.298 143.729 352.594 143.619 352.535Z" fill="#263238"/>
<path d="M144.449 353.01C144.339 353.01 144.39 352.535 144.653 352.086C144.915 351.637 145.246 351.366 145.339 351.433C145.432 351.501 145.271 351.883 145.034 352.281C144.797 352.679 144.568 353.052 144.449 353.01Z" fill="#263238"/>
<path d="M134.247 353.84C134.196 353.84 134.01 353.687 133.722 353.365C133.38 352.951 133 352.571 132.586 352.23C132.179 351.905 131.694 351.692 131.18 351.611C130.79 351.561 130.527 351.611 130.502 351.561C130.476 351.51 130.722 351.332 131.188 351.298C131.803 351.285 132.403 351.489 132.883 351.874C133.334 352.238 133.714 352.683 134.001 353.187C134.196 353.56 134.298 353.806 134.247 353.84Z" fill="#263238"/>
<path d="M143.661 351.171C143.72 351.272 143.5 351.527 143.127 351.662C142.754 351.798 142.424 351.747 142.407 351.662C142.39 351.578 142.653 351.4 142.975 351.281C143.297 351.162 143.593 351.069 143.661 351.171Z" fill="#263238"/>
<path d="M143.475 350.467C143.475 350.595 143.136 350.696 142.695 350.705C142.254 350.713 141.916 350.612 141.924 350.493C141.932 350.374 142.271 350.264 142.695 350.256C143.119 350.247 143.475 350.349 143.475 350.467Z" fill="#263238"/>
<path d="M191.249 135.908C190.91 135.56 190.071 135.73 190.071 135.73C190.155 135.242 190.155 134.743 190.071 134.256C189.918 133.781 188.851 133.874 188.851 133.874C188.802 133.475 188.802 133.071 188.851 132.671C188.859 132.582 188.84 132.493 188.796 132.416C188.752 132.339 188.685 132.277 188.605 132.239C188.1 132.033 187.557 131.935 187.012 131.951C186.359 131.485 189.003 127.782 189.986 126.595C190.969 125.409 190.791 124.485 189.918 124.485C189.317 124.485 186.232 128.044 185.283 129.239C184.334 130.434 181.818 133.756 181.733 131.103C181.648 128.451 180.581 126.451 179.911 126.112C179.242 125.773 178.53 126.57 178.894 127.307C179.214 128.145 179.414 129.023 179.487 129.917C179.579 130.629 179.548 131.351 179.394 132.052C179.113 133.357 178.731 134.638 178.25 135.882H178.182C178.182 135.882 159.693 153.618 158.354 154.88C157.16 156.016 133.128 153.533 128.307 153.024C126.669 152.785 125.014 152.671 123.358 152.686C121.265 152.779 120.893 153.075 118.808 153.101C113.544 153.159 108.292 153.621 103.098 154.482C100.746 154.882 98.5496 155.92 96.7475 157.483C94.9454 159.046 93.6072 161.074 92.8789 163.345C88.0235 178.513 77.0248 214.416 75.0844 234.583C73.6181 237.242 72.2943 239.977 71.1187 242.777C69.7545 246.488 70.085 246.615 70.5425 246.7C71.7797 246.929 73.1863 240.269 73.7117 241.879C74.237 243.488 71.0425 249.818 72.3389 250.005C74.0337 250.242 75.381 243.226 75.542 242.667C75.703 242.107 76.5418 242.285 76.3893 242.811C76.1436 243.556 73.7625 251.462 75.4233 251.716C76.3385 251.852 76.4402 250.183 76.4402 250.183C76.4402 250.183 78.1349 242.616 78.906 242.768C79.6771 242.921 78.8551 247.386 78.4653 248.878C78.0756 250.369 78.6179 251.123 79.4144 250.759C79.9567 250.505 81.2532 245.971 81.609 244.497C81.9649 243.022 82.8547 238.938 84.0494 241.302C85.2442 243.666 87.0576 245.039 87.8032 245.073C87.9713 245.054 88.1296 244.984 88.258 244.874C88.3864 244.764 88.4788 244.618 88.5235 244.455C88.5681 244.292 88.5629 244.119 88.5086 243.959C88.4542 243.799 88.3532 243.659 88.2184 243.556C87.5771 242.93 87.0266 242.217 86.583 241.438C86.1877 240.831 85.901 240.16 85.7357 239.455C85.3942 238.049 85.1955 236.613 85.1425 235.167L85.0069 234.32C86.905 224.923 92.3705 197.341 100.259 179.725L103.496 186.385L104.903 191.317L96.2768 212.611L133.069 212.128L127.578 190.995L134.247 168.963C141.458 169.124 159.973 169.395 163.057 167.997C166.938 166.303 187.012 140.95 187.012 140.95C188.32 139.933 189.574 138.847 190.766 137.696C190.766 137.696 191.986 136.67 191.249 135.908Z" fill="#FFBE9D"/>
<path d="M94.6583 196.875C95.726 193.232 101.208 175.217 101.208 175.217C101.208 175.217 103.903 189.902 103.191 191.673C102.536 193.189 101.763 194.651 100.878 196.045C94.6583 205.51 95.4718 210.247 95.4718 210.247L133.052 209.103C133.137 203.849 130.027 191.63 129.383 189.681C128.739 187.732 130.883 181.352 130.883 181.352C130.883 181.352 135.12 177.039 134.967 174.819C134.887 172.824 134.64 170.84 134.23 168.887L157.109 169.734L156.388 154.228L123.528 150.94C122.384 154.168 112.038 152.584 112.038 152.584C100.869 152.957 100.175 155.007 95.5311 158.617C90.8876 162.227 83.202 193.206 83.202 193.206L94.6583 196.875Z" fill="#129099"/>
<path d="M116.876 193.206C116.225 193.323 115.562 193.357 114.902 193.308C113.673 193.308 111.987 193.223 110.131 193.037C108.275 192.85 106.598 192.588 105.403 192.35C104.744 192.266 104.098 192.1 103.479 191.859C104.142 191.859 104.803 191.922 105.454 192.045C106.657 192.198 108.326 192.41 110.173 192.596C112.021 192.783 113.699 192.91 114.91 192.994C115.571 193.003 116.229 193.074 116.876 193.206Z" fill="#263238"/>
<path d="M119.452 190.012C118.801 190.331 118.112 190.567 117.401 190.715C114.021 191.603 110.533 192.017 107.038 191.944C106.315 191.967 105.592 191.899 104.886 191.74C105.6 191.65 106.319 191.613 107.038 191.63C108.369 191.588 110.199 191.495 112.216 191.257C114.232 191.02 116.029 190.681 117.3 190.41C118.006 190.221 118.725 190.088 119.452 190.012Z" fill="#263238"/>
<path d="M132.095 175.759C132.077 176.405 131.989 177.047 131.832 177.674C131.612 178.852 131.273 180.462 130.84 182.224C130.408 183.987 129.993 185.614 129.62 186.715C129.47 187.346 129.249 187.957 128.959 188.537C129.007 187.893 129.126 187.257 129.315 186.639C129.637 185.317 130.002 183.792 130.408 182.123C130.815 180.453 131.205 178.928 131.527 177.606C131.642 176.97 131.832 176.35 132.095 175.759Z" fill="#263238"/>
<path d="M95.0567 194.715C93.0963 194.412 91.1617 193.961 89.2692 193.367C87.3354 192.915 85.4378 192.32 83.5919 191.588C85.5513 191.895 87.4856 192.346 89.3794 192.935C91.3136 193.386 93.2113 193.98 95.0567 194.715Z" fill="#263238"/>
<path d="M134.637 168.701C134.317 168.756 133.99 168.756 133.671 168.701C132.786 168.61 131.917 168.402 131.086 168.082C129.7 167.561 128.438 166.756 127.382 165.719C126.325 164.681 125.497 163.434 124.951 162.057C124.348 160.543 124.09 158.913 124.197 157.287C124.235 155.945 124.636 154.639 125.358 153.507C125.866 152.745 126.624 152.185 127.502 151.923C127.736 151.858 127.979 151.827 128.222 151.83C128.392 151.83 128.476 151.83 128.476 151.83C128.476 151.83 128.121 151.83 127.553 152.059C126.748 152.356 126.065 152.914 125.612 153.643C124.46 155.456 124.138 158.77 125.367 161.862C125.938 163.321 126.834 164.63 127.985 165.692C128.928 166.562 130.015 167.261 131.196 167.76C132.305 168.198 133.459 168.514 134.637 168.701Z" fill="#263238"/>
<path d="M154.389 169.429C154.177 166.831 154.109 164.223 154.185 161.617C154.119 159.013 154.198 156.407 154.423 153.813C154.635 156.408 154.703 159.014 154.626 161.617C154.697 164.223 154.618 166.832 154.389 169.429Z" fill="#263238"/>
<path d="M123.308 151.889C123.401 149.999 123.596 147.864 123.596 147.864C123.596 147.864 128.273 147.347 128.553 142.517C128.832 137.687 128.553 126.545 128.553 126.545L120.079 122.206L110.673 129.603L112.122 153.753L120.749 154.304C121.408 154.322 122.048 154.078 122.527 153.626C123.007 153.173 123.288 152.548 123.308 151.889Z" fill="#FFBE9D"/>
<path d="M124.146 138.696C124.146 138.696 124.146 138.789 124.07 138.899C124.007 138.979 123.926 139.042 123.833 139.084C123.74 139.125 123.638 139.143 123.536 139.136C122.994 139.136 122.469 138.509 122.282 137.78C122.194 137.427 122.194 137.058 122.282 136.704C122.3 136.55 122.355 136.403 122.444 136.275C122.533 136.148 122.652 136.045 122.791 135.976C122.905 135.929 123.033 135.929 123.147 135.976C123.231 136.018 123.3 136.086 123.341 136.171C123.401 136.315 123.341 136.408 123.341 136.399C123.341 136.391 123.341 136.315 123.257 136.23C123.212 136.169 123.147 136.127 123.074 136.111C123 136.096 122.924 136.108 122.858 136.145C122.755 136.208 122.668 136.296 122.607 136.401C122.547 136.506 122.514 136.625 122.511 136.747C122.44 137.062 122.44 137.389 122.511 137.704C122.681 138.365 123.138 138.899 123.545 138.95C123.624 138.961 123.705 138.955 123.783 138.933C123.86 138.911 123.932 138.874 123.994 138.823C124.096 138.755 124.13 138.687 124.146 138.696Z" fill="#EB996E"/>
<path d="M131.459 123.935C130.807 121.715 128.443 120.613 126.29 120.003C123.011 119.071 119.469 118.664 116.266 119.842C113.063 121.02 109.216 123.087 109.216 126.621C107.326 126.468 106.242 128.121 105.496 130.171C105.019 131.421 104.734 132.735 104.649 134.069C104.411 138.696 103.115 145.085 100.115 148.474C98.4206 150.364 96.0734 151.669 95.1075 154.024C94.2601 156.067 94.7007 158.49 93.9127 160.558C93.2094 162.379 91.6587 163.676 90.5232 165.26C89.3664 167.058 88.6857 169.12 88.5448 171.253C88.404 173.386 88.8078 175.52 89.7183 177.454C90.6352 179.338 91.9263 181.016 93.5127 182.386C95.0992 183.755 96.9478 184.787 98.946 185.419C102.904 186.623 107.125 186.664 111.106 185.538C114.093 184.823 116.88 183.441 119.257 181.496C121.689 179.51 123.36 176.743 123.985 173.666C124.587 170.209 123.621 166.692 122.901 163.252C120.647 152.38 121.291 151.813 124.138 141.721C124.206 141.543 124.24 141.356 124.29 141.178C124.341 141 124.367 140.916 124.401 140.78C124.482 140.381 124.524 139.975 124.528 139.568C124.112 139.723 123.661 139.756 123.227 139.663C122.793 139.57 122.395 139.355 122.079 139.043C121.762 138.711 121.542 138.299 121.44 137.852C121.339 137.404 121.36 136.937 121.503 136.501C121.703 136.024 122 135.594 122.377 135.239C122.754 134.885 123.201 134.613 123.689 134.442C124.629 134.052 125.638 133.849 126.561 133.417C128.519 132.485 129.875 130.553 130.798 128.527C131.558 127.124 131.792 125.495 131.459 123.935Z" fill="#263238"/>
<path d="M124.485 138.924C124.664 139.189 124.812 139.473 124.926 139.772C125.18 140.306 125.519 141.06 125.892 141.933L125.96 142.094H125.782L124.935 142.17C124.35 142.17 123.858 142.28 123.282 142.272C123.232 142.26 123.186 142.236 123.147 142.202C123.108 142.168 123.079 142.125 123.062 142.077C123.037 142 123.037 141.916 123.062 141.839C123.082 141.725 123.107 141.612 123.138 141.5L123.291 140.899C123.367 140.497 123.487 140.105 123.647 139.729C123.631 140.139 123.571 140.545 123.469 140.941L123.35 141.543C123.308 141.746 123.231 142.06 123.35 142.034C123.774 142.034 124.375 141.941 124.935 141.907L125.782 141.831L125.672 142.017C125.307 141.17 125.002 140.373 124.824 139.823C124.668 139.541 124.554 139.239 124.485 138.924Z" fill="#129099"/>
<path d="M95.4718 210.247L133.052 209.103L149.406 272.943L146.398 346.171H126.527L128.959 274.502L114.427 230.058L116.664 349.01L96.5818 349.307L94.4719 237.498C94.3787 234.388 93.3618 227.38 93.7432 224.296L95.4718 210.247Z" fill="#263238"/>
<path d="M119.427 230.964C118.812 231.003 118.194 230.966 117.588 230.854C116.453 230.719 114.902 230.482 113.199 230.143C111.495 229.804 109.97 229.414 108.869 229.1C108.28 228.971 107.71 228.766 107.174 228.49C107.174 228.363 109.936 229.024 113.326 229.71C116.715 230.397 119.444 230.837 119.427 230.964Z" fill="#455A64"/>
<path d="M146.195 342.155C146.195 342.274 141.695 342.375 136.145 342.375C130.595 342.375 126.087 342.274 126.087 342.155C126.087 342.036 130.586 341.935 136.145 341.935C141.704 341.935 146.195 342.028 146.195 342.155Z" fill="#455A64"/>
<path d="M116.486 345.917C116.486 346.044 112.114 346.137 106.725 346.137C101.336 346.137 96.9717 346.044 96.9717 345.917C96.9717 345.79 101.344 345.697 106.725 345.697C112.106 345.697 116.486 345.798 116.486 345.917Z" fill="#455A64"/>
<path d="M113.893 345.612C113.775 345.612 113.249 319.624 112.716 287.568C112.182 255.512 111.868 229.507 111.978 229.507C112.089 229.507 112.631 255.487 113.156 287.56C113.682 319.632 114.021 345.612 113.893 345.612Z" fill="#455A64"/>
<path d="M143.525 342.155C143.516 342.039 143.516 341.923 143.525 341.807V340.791C143.525 339.875 143.593 338.562 143.644 336.893C143.763 333.503 143.932 328.58 144.144 322.547C144.602 310.413 145.246 293.686 145.949 275.222C145.949 275.044 145.949 274.875 145.949 274.722V274.781C141.5 256.987 137.475 240.836 134.552 229.151L131.162 215.331C130.773 213.712 130.476 212.45 130.264 211.568C130.163 211.153 130.095 210.831 130.036 210.586C130.002 210.475 129.983 210.361 129.976 210.247C130.02 210.353 130.054 210.464 130.078 210.577C130.146 210.814 130.23 211.136 130.349 211.543C130.578 212.39 130.908 213.678 131.332 215.288C132.179 218.559 133.374 223.27 134.865 229.075C137.814 240.751 141.882 256.86 146.39 274.68V274.739C146.39 274.892 146.39 275.069 146.39 275.239C145.635 293.703 144.949 310.421 144.449 322.555C144.186 328.597 143.966 333.486 143.814 336.893C143.729 338.587 143.661 339.875 143.619 340.791C143.619 341.223 143.568 341.562 143.559 341.807C143.561 341.924 143.549 342.041 143.525 342.155Z" fill="#455A64"/>
<path d="M137.043 273.231C135.616 273.7 134.146 274.026 132.654 274.205C130.824 274.519 129.265 274.739 128.561 274.773V274.603C128.79 274.671 128.909 274.714 128.909 274.748C128.909 274.781 128.765 274.748 128.527 274.748H128.019L128.527 274.595C129.188 274.4 130.747 274.078 132.578 273.748C134.046 273.429 135.541 273.256 137.043 273.231Z" fill="#455A64"/>
<path d="M136.696 275.663C135.374 275.723 134.05 275.664 132.739 275.485C131.415 275.458 130.096 275.313 128.798 275.053C131.447 274.836 134.112 275.042 136.696 275.663Z" fill="#455A64"/>
<path opacity="0.2" d="M95.3109 211.594C95.756 212.165 96.3166 212.637 96.9561 212.977C97.5956 213.317 98.2997 213.519 99.0223 213.568C100.536 213.748 102.067 213.719 103.573 213.483C113.275 212.407 123.553 211.416 133.052 209.103C120.757 209.789 107.767 209.56 95.4719 210.247L95.3448 211.297" fill="black"/>
<g opacity="0.2">
<path opacity="0.2" d="M107.979 228.922L114.91 255.818L114.427 230.058L107.979 228.922Z" fill="black"/>
</g>
</svg>
