<svg width="14" height="16" viewBox="0 0 14 16" fill="none" xmlns="http://www.w3.org/2000/svg">
<path d="M12.5 8.00002H4.75V4.77815C4.75 3.54065 5.74062 2.51253 6.97812 2.50003C8.22812 2.48753 9.25 3.50315 9.25 4.75002V5.25002C9.25 5.66565 9.58437 6.00002 10 6.00002H11C11.4156 6.00002 11.75 5.66565 11.75 5.25002V4.75002C11.75 2.12503 9.60937 -0.00934422 6.98437 3.07662e-05C4.35937 0.00940575 2.25 2.1719 2.25 4.7969V8.00002H1.5C0.671875 8.00002 0 8.67189 0 9.50001V14.5C0 15.3281 0.671875 16 1.5 16H12.5C13.3281 16 14 15.3281 14 14.5V9.50001C14 8.67189 13.3281 8.00002 12.5 8.00002Z" fill="#00A1AB"/>
</svg>
