<svg width="98" height="109" viewBox="0 0 98 109" fill="none" xmlns="http://www.w3.org/2000/svg">
<path d="M97.6093 69.3222C97.6093 91.1375 79.9246 108.822 58.1093 108.822C36.2939 108.822 18.6093 91.1375 18.6093 69.3222C18.6093 47.5069 36.2939 29.8222 58.1093 29.8222C79.9246 29.8222 97.6093 47.5069 97.6093 69.3222ZM53.5403 90.2371L82.8468 60.9306C83.8419 59.9355 83.8419 58.3219 82.8468 57.3267L79.2429 53.7228C78.2477 52.7275 76.6341 52.7275 75.6388 53.7228L51.7383 77.6232L40.5797 66.4646C39.5845 65.4695 37.9709 65.4695 36.9756 66.4646L33.3717 70.0685C32.3766 71.0637 32.3766 72.6773 33.3717 73.6724L49.9363 90.2369C50.9316 91.2322 52.545 91.2322 53.5403 90.2371Z" fill="#01B671"/>
<path d="M49.6093 90.3222L33.1093 73.8222C32.133 72.8272 32.3652 70.9063 33.3415 69.9112L36.8769 66.3079C37.8532 65.3128 39.4362 65.3128 40.4125 66.3079L51.6093 77.3222L74.806 53.5684C75.7823 52.5734 78.133 52.5734 79.1093 53.5684L82.6093 56.8222C83.5855 57.8171 84.0855 59.8271 83.1093 60.8222L68.1093 75.8222L53.6271 90.3222C52.6507 91.3171 50.5856 91.3172 49.6093 90.3222Z" fill="white"/>
<path d="M13.5211 42.8825C10.1208 40.1724 6.85083 37.5237 2.44996 34.3409C1.95957 33.9863 1.88852 33.2803 2.30273 32.8391L3.22547 31.8561C3.61066 31.4458 4.25847 31.434 4.65831 31.8301L14.5818 41.6602C15.456 42.5261 14.4833 43.6494 13.5211 42.8825Z" stroke="white" stroke-width="4"/>
<path d="M31.7667 24.766C29.4638 21.0778 27.2631 17.4909 24.1742 13.0237C23.83 12.5259 23.9982 11.8366 24.5358 11.5586L25.7333 10.9393C26.2332 10.6807 26.8479 10.8855 27.0929 11.3922L33.1741 23.9669C33.7098 25.0747 32.4184 25.8097 31.7667 24.766Z" stroke="white" stroke-width="4"/>
<path d="M54.9074 17.6404C54.0048 13.3869 53.1636 9.26378 51.7889 4.00946C51.6357 3.42398 52.0295 2.8338 52.6297 2.7564L53.9668 2.58398C54.525 2.51201 55.0326 2.91465 55.0896 3.47457L56.5032 17.3709C56.6278 18.595 55.1629 18.844 54.9074 17.6404Z" stroke="white" stroke-width="4"/>
</svg>
