<svg width="14" height="20" viewBox="0 0 14 20" fill="none" xmlns="http://www.w3.org/2000/svg">
<path d="M12.25 2.5H9.33333C9.33333 1.12109 8.28698 0 7 0C5.71302 0 4.66667 1.12109 4.66667 2.5H1.75C0.783854 2.5 0 3.33984 0 4.375V18.125C0 19.1602 0.783854 20 1.75 20H12.25C13.2161 20 14 19.1602 14 18.125V4.375C14 3.33984 13.2161 2.5 12.25 2.5ZM3.5 16.5625C3.0151 16.5625 2.625 16.1445 2.625 15.625C2.625 15.1055 3.0151 14.6875 3.5 14.6875C3.9849 14.6875 4.375 15.1055 4.375 15.625C4.375 16.1445 3.9849 16.5625 3.5 16.5625ZM3.5 12.8125C3.0151 12.8125 2.625 12.3945 2.625 11.875C2.625 11.3555 3.0151 10.9375 3.5 10.9375C3.9849 10.9375 4.375 11.3555 4.375 11.875C4.375 12.3945 3.9849 12.8125 3.5 12.8125ZM3.5 9.0625C3.0151 9.0625 2.625 8.64453 2.625 8.125C2.625 7.60547 3.0151 7.1875 3.5 7.1875C3.9849 7.1875 4.375 7.60547 4.375 8.125C4.375 8.64453 3.9849 9.0625 3.5 9.0625ZM7 1.5625C7.4849 1.5625 7.875 1.98047 7.875 2.5C7.875 3.01953 7.4849 3.4375 7 3.4375C6.5151 3.4375 6.125 3.01953 6.125 2.5C6.125 1.98047 6.5151 1.5625 7 1.5625ZM11.6667 15.9375C11.6667 16.1094 11.5354 16.25 11.375 16.25H6.125C5.96458 16.25 5.83333 16.1094 5.83333 15.9375V15.3125C5.83333 15.1406 5.96458 15 6.125 15H11.375C11.5354 15 11.6667 15.1406 11.6667 15.3125V15.9375ZM11.6667 12.1875C11.6667 12.3594 11.5354 12.5 11.375 12.5H6.125C5.96458 12.5 5.83333 12.3594 5.83333 12.1875V11.5625C5.83333 11.3906 5.96458 11.25 6.125 11.25H11.375C11.5354 11.25 11.6667 11.3906 11.6667 11.5625V12.1875ZM11.6667 8.4375C11.6667 8.60938 11.5354 8.75 11.375 8.75H6.125C5.96458 8.75 5.83333 8.60938 5.83333 8.4375V7.8125C5.83333 7.64062 5.96458 7.5 6.125 7.5H11.375C11.5354 7.5 11.6667 7.64062 11.6667 7.8125V8.4375Z" fill="#BA68C8"/>
</svg>
