<svg width="114" height="84" viewBox="0 0 114 84" fill="none" xmlns="http://www.w3.org/2000/svg">
<path d="M107.312 35.0833H6.6875C3.40831 35.0833 0.75 38.0252 0.75 41.6542V42.3458C0.75 45.9748 3.40831 48.9167 6.6875 48.9167H107.312C110.592 48.9167 113.25 45.9748 113.25 42.3458V41.6542C113.25 38.0252 110.592 35.0833 107.312 35.0833Z" fill="white"/>
<path d="M107.312 69.6667H6.6875C3.40831 69.6667 0.75 72.6085 0.75 76.2375V76.9292C0.75 80.5581 3.40831 83.5 6.6875 83.5H107.312C110.592 83.5 113.25 80.5581 113.25 76.9292V76.2375C113.25 72.6085 110.592 69.6667 107.312 69.6667Z" fill="white"/>
<path d="M107.312 0.5H6.6875C3.40831 0.5 0.75 3.44186 0.75 7.07083V7.7625C0.75 11.3915 3.40831 14.3333 6.6875 14.3333H107.312C110.592 14.3333 113.25 11.3915 113.25 7.7625V7.07083C113.25 3.44186 110.592 0.5 107.312 0.5Z" fill="white"/>
</svg>
