<svg width="35" height="31" viewBox="0 0 35 31" fill="none" xmlns="http://www.w3.org/2000/svg">
<g filter="url(#filter0_d_261_82)">
<mask id="path-1-inside-1_261_82" fill="white">
<path d="M26.5894 14.268L28.9694 4.44547C29.1413 3.73626 28.5666 3.06091 27.7912 3.06091H8.01568L7.5542 0.944802C7.43921 0.417358 6.94439 0.0385742 6.37039 0.0385742H1.20833C0.540981 0.0385742 0 0.545996 0 1.17195V1.92753C0 2.55349 0.540981 3.06091 1.20833 3.06091H4.72675L8.26354 19.2793C7.41741 19.7357 6.84722 20.5915 6.84722 21.5727C6.84722 23.0332 8.10953 24.2172 9.66667 24.2172C11.2238 24.2172 12.4861 23.0332 12.4861 21.5727C12.4861 20.8325 12.1615 20.1638 11.6391 19.6837H22.1942C21.6718 20.1638 21.3472 20.8325 21.3472 21.5727C21.3472 23.0332 22.6095 24.2172 24.1667 24.2172C25.7238 24.2172 26.9861 23.0332 26.9861 21.5727C26.9861 20.5257 26.3372 19.6208 25.3962 19.1924L25.674 18.046C25.8458 17.3368 25.2711 16.6614 24.4957 16.6614H10.9816L10.6521 15.1502H25.4111C25.9753 15.1502 26.4644 14.7841 26.5894 14.268Z"/>
</mask>
<path d="M26.5894 14.268L28.9694 4.44547C29.1413 3.73626 28.5666 3.06091 27.7912 3.06091H8.01568L7.5542 0.944802C7.43921 0.417358 6.94439 0.0385742 6.37039 0.0385742H1.20833C0.540981 0.0385742 0 0.545996 0 1.17195V1.92753C0 2.55349 0.540981 3.06091 1.20833 3.06091H4.72675L8.26354 19.2793C7.41741 19.7357 6.84722 20.5915 6.84722 21.5727C6.84722 23.0332 8.10953 24.2172 9.66667 24.2172C11.2238 24.2172 12.4861 23.0332 12.4861 21.5727C12.4861 20.8325 12.1615 20.1638 11.6391 19.6837H22.1942C21.6718 20.1638 21.3472 20.8325 21.3472 21.5727C21.3472 23.0332 22.6095 24.2172 24.1667 24.2172C25.7238 24.2172 26.9861 23.0332 26.9861 21.5727C26.9861 20.5257 26.3372 19.6208 25.3962 19.1924L25.674 18.046C25.8458 17.3368 25.2711 16.6614 24.4957 16.6614H10.9816L10.6521 15.1502H25.4111C25.9753 15.1502 26.4644 14.7841 26.5894 14.268Z" fill="#1C2124"/>
<path d="M26.5894 14.268L25.6175 14.0326L25.6175 14.0326L26.5894 14.268ZM28.9694 4.44547L29.9413 4.68096L29.9413 4.68094L28.9694 4.44547ZM8.01568 3.06091L7.03865 3.27398L7.21026 4.06091H8.01568V3.06091ZM7.5542 0.944802L6.57715 1.15782L6.57716 1.15787L7.5542 0.944802ZM4.72675 3.06091L5.70379 2.84784L5.53218 2.06091H4.72675V3.06091ZM8.26354 19.2793L8.73829 20.1594L9.40102 19.8019L9.24058 19.0662L8.26354 19.2793ZM11.6391 19.6837V18.6837H9.07268L10.9625 20.4201L11.6391 19.6837ZM22.1942 19.6837L22.8708 20.4201L24.7604 18.6837H22.1942V19.6837ZM25.3962 19.1924L24.4243 18.9569L24.2297 19.76L24.9818 20.1025L25.3962 19.1924ZM25.674 18.046L26.6458 18.2814V18.2814L25.674 18.046ZM10.9816 16.6614L10.0045 16.8745L10.1761 17.6614H10.9816V16.6614ZM10.6521 15.1502V14.1502H9.41051L9.67502 15.3633L10.6521 15.1502ZM27.5613 14.5035L29.9413 4.68096L27.9976 4.20998L25.6175 14.0326L27.5613 14.5035ZM29.9413 4.68094C30.2849 3.26285 29.1298 2.06091 27.7912 2.06091V4.06091C27.883 4.06091 27.9431 4.09907 27.974 4.13533C27.9894 4.15351 27.9958 4.16902 27.9982 4.17844C28.0002 4.18602 28.0012 4.19499 27.9976 4.20999L29.9413 4.68094ZM27.7912 2.06091H8.01568V4.06091H27.7912V2.06091ZM8.99272 2.84784L8.53124 0.731729L6.57716 1.15787L7.03865 3.27398L8.99272 2.84784ZM8.53125 0.731786C8.30722 -0.295767 7.37164 -0.961426 6.37039 -0.961426V1.03857C6.43689 1.03857 6.49063 1.06043 6.52657 1.08795C6.562 1.11507 6.5736 1.14151 6.57715 1.15782L8.53125 0.731786ZM6.37039 -0.961426H1.20833V1.03857H6.37039V-0.961426ZM1.20833 -0.961426C0.0499898 -0.961426 -1 -0.0656519 -1 1.17195H1C1 1.15661 1.00481 1.13105 1.03803 1.0999C1.07235 1.0677 1.1302 1.03857 1.20833 1.03857V-0.961426ZM-1 1.17195V1.92753H1V1.17195H-1ZM-1 1.92753C-1 3.16513 0.0499898 4.06091 1.20833 4.06091V2.06091C1.1302 2.06091 1.07235 2.03178 1.03803 1.99958C1.00481 1.96843 1 1.94287 1 1.92753H-1ZM1.20833 4.06091H4.72675V2.06091H1.20833V4.06091ZM3.74971 3.27397L7.2865 19.4923L9.24058 19.0662L5.70379 2.84784L3.74971 3.27397ZM7.78879 18.3991C6.65355 19.0115 5.84722 20.1863 5.84722 21.5727H7.84722C7.84722 20.9966 8.18126 20.4599 8.73829 20.1594L7.78879 18.3991ZM5.84722 21.5727C5.84722 23.6449 7.61854 25.2172 9.66667 25.2172V23.2172C8.60052 23.2172 7.84722 22.4216 7.84722 21.5727H5.84722ZM9.66667 25.2172C11.7148 25.2172 13.4861 23.6449 13.4861 21.5727H11.4861C11.4861 22.4216 10.7328 23.2172 9.66667 23.2172V25.2172ZM13.4861 21.5727C13.4861 20.5301 13.0271 19.601 12.3157 18.9474L10.9625 20.4201C11.296 20.7265 11.4861 21.1349 11.4861 21.5727H13.4861ZM11.6391 20.6837H22.1942V18.6837H11.6391V20.6837ZM21.5176 18.9474C20.8063 19.601 20.3472 20.5301 20.3472 21.5727H22.3472C22.3472 21.1349 22.5374 20.7265 22.8708 20.4201L21.5176 18.9474ZM20.3472 21.5727C20.3472 23.6449 22.1185 25.2172 24.1667 25.2172V23.2172C23.1005 23.2172 22.3472 22.4216 22.3472 21.5727H20.3472ZM24.1667 25.2172C26.2148 25.2172 27.9861 23.6449 27.9861 21.5727H25.9861C25.9861 22.4216 25.2328 23.2172 24.1667 23.2172V25.2172ZM27.9861 21.5727C27.9861 20.0927 27.0694 18.8554 25.8106 18.2823L24.9818 20.1025C25.6051 20.3863 25.9861 20.9586 25.9861 21.5727H27.9861ZM26.3681 19.4279L26.6458 18.2814L24.7021 17.8105L24.4243 18.9569L26.3681 19.4279ZM26.6458 18.2814C26.9894 16.8634 25.8343 15.6614 24.4957 15.6614V17.6614C24.5876 17.6614 24.6476 17.6996 24.6785 17.7358C24.694 17.754 24.7004 17.7695 24.7028 17.7789C24.7047 17.7865 24.7057 17.7955 24.7021 17.8105L26.6458 18.2814ZM24.4957 15.6614H10.9816V17.6614H24.4957V15.6614ZM11.9586 16.4484L11.6291 14.9372L9.67502 15.3633L10.0045 16.8745L11.9586 16.4484ZM10.6521 16.1502H25.4111V14.1502H10.6521V16.1502ZM25.4111 16.1502C26.3958 16.1502 27.3182 15.5069 27.5613 14.5035L25.6175 14.0326C25.6135 14.0492 25.6011 14.0756 25.5656 14.1022C25.5296 14.1291 25.4764 14.1502 25.4111 14.1502V16.1502Z" fill="white" mask="url(#path-1-inside-1_261_82)"/>
</g>
<defs>
<filter id="filter0_d_261_82" x="0" y="0.0385742" width="35" height="30.1787" filterUnits="userSpaceOnUse" color-interpolation-filters="sRGB">
<feFlood flood-opacity="0" result="BackgroundImageFix"/>
<feColorMatrix in="SourceAlpha" type="matrix" values="0 0 0 0 0 0 0 0 0 0 0 0 0 0 0 0 0 0 127 0" result="hardAlpha"/>
<feOffset dx="3" dy="3"/>
<feGaussianBlur stdDeviation="1.5"/>
<feComposite in2="hardAlpha" operator="out"/>
<feColorMatrix type="matrix" values="0 0 0 0 0 0 0 0 0 0 0 0 0 0 0 0 0 0 0.44 0"/>
<feBlend mode="normal" in2="BackgroundImageFix" result="effect1_dropShadow_261_82"/>
<feBlend mode="normal" in="SourceGraphic" in2="effect1_dropShadow_261_82" result="shape"/>
</filter>
</defs>
</svg>
