<svg width="436" height="47" viewBox="0 0 436 47" fill="none" xmlns="http://www.w3.org/2000/svg">
<path d="M69.9768 46H54.8088C54.2008 46 53.7528 45.872 53.4648 45.616C53.2088 45.328 53.0808 44.88 53.0808 44.272V38.656C53.0808 38.048 53.2088 37.616 53.4648 37.36C53.7528 37.072 54.2008 36.928 54.8088 36.928H67.7208C68.1368 36.928 68.4408 36.8 68.6328 36.544C68.8568 36.256 68.9688 35.92 68.9688 35.536C68.9688 34.992 68.8568 34.592 68.6328 34.336C68.4408 34.08 68.1368 33.936 67.7208 33.904L60.5208 32.896C58.2808 32.576 56.4728 31.84 55.0968 30.688C53.7528 29.536 53.0808 27.616 53.0808 24.928V19.888C53.0808 17.168 53.9608 15.088 55.7208 13.648C57.4808 12.176 59.9128 11.44 63.0168 11.44H76.4568C77.0648 11.44 77.4968 11.584 77.7528 11.872C78.0408 12.128 78.1848 12.56 78.1848 13.168V18.88C78.1848 19.488 78.0408 19.936 77.7528 20.224C77.4968 20.48 77.0648 20.608 76.4568 20.608H65.2728C64.8568 20.608 64.5368 20.752 64.3128 21.04C64.0888 21.296 63.9768 21.632 63.9768 22.048C63.9768 22.464 64.0888 22.816 64.3128 23.104C64.5368 23.392 64.8568 23.552 65.2728 23.584L72.4248 24.544C74.6648 24.864 76.4728 25.6 77.8488 26.752C79.2248 27.904 79.9128 29.824 79.9128 32.512V37.552C79.9128 40.272 79.0168 42.368 77.2248 43.84C75.4648 45.28 73.0488 46 69.9768 46ZM94.3316 46H86.8916C86.2836 46 85.8356 45.872 85.5476 45.616C85.2916 45.328 85.1636 44.88 85.1636 44.272V13.168C85.1636 12.56 85.2916 12.128 85.5476 11.872C85.8356 11.584 86.2836 11.44 86.8916 11.44H94.3316C94.9396 11.44 95.3716 11.584 95.6276 11.872C95.9156 12.128 96.0596 12.56 96.0596 13.168V24.208H97.9796L102.924 13.024C103.148 12.448 103.452 12.048 103.836 11.824C104.22 11.568 104.716 11.44 105.324 11.44H112.716C113.26 11.44 113.628 11.584 113.82 11.872C114.012 12.128 113.996 12.512 113.772 13.024L108.876 24.208C110.668 24.304 112.092 24.944 113.148 26.128C114.236 27.28 114.78 28.816 114.78 30.736V44.272C114.78 44.88 114.636 45.328 114.348 45.616C114.092 45.872 113.66 46 113.052 46H105.66C105.052 46 104.604 45.872 104.316 45.616C104.06 45.328 103.932 44.88 103.932 44.272V34.912C103.932 34.4 103.804 34 103.548 33.712C103.292 33.424 102.908 33.28 102.396 33.28H96.0596V44.272C96.0596 44.88 95.9156 45.328 95.6276 45.616C95.3716 45.872 94.9396 46 94.3316 46ZM150.256 36.928C150.256 38.4 150.032 39.744 149.584 40.96C149.168 42.144 148.4 43.168 147.28 44.032C146.192 44.864 144.672 45.52 142.72 46C140.8 46.48 138.352 46.72 135.376 46.72C132.4 46.72 129.936 46.48 127.984 46C126.032 45.52 124.496 44.864 123.376 44.032C122.288 43.168 121.52 42.144 121.072 40.96C120.656 39.744 120.448 38.4 120.448 36.928V20.56C120.448 19.088 120.656 17.76 121.072 16.576C121.52 15.36 122.288 14.32 123.376 13.456C124.496 12.592 126.032 11.92 127.984 11.44C129.936 10.96 132.4 10.72 135.376 10.72C138.352 10.72 140.8 10.96 142.72 11.44C144.672 11.92 146.192 12.592 147.28 13.456C148.4 14.32 149.168 15.36 149.584 16.576C150.032 17.76 150.256 19.088 150.256 20.56V36.928ZM131.344 35.2C131.344 35.84 131.584 36.384 132.064 36.832C132.544 37.248 133.648 37.456 135.376 37.456C137.104 37.456 138.208 37.248 138.688 36.832C139.168 36.384 139.408 35.84 139.408 35.2V22.288C139.408 21.68 139.168 21.168 138.688 20.752C138.208 20.304 137.104 20.08 135.376 20.08C133.648 20.08 132.544 20.304 132.064 20.752C131.584 21.168 131.344 21.68 131.344 22.288V35.2ZM185.647 36.928C185.647 38.4 185.423 39.744 184.975 40.96C184.559 42.144 183.791 43.168 182.671 44.032C181.583 44.864 180.063 45.52 178.111 46C176.191 46.48 173.743 46.72 170.767 46.72C167.791 46.72 165.327 46.48 163.375 46C161.423 45.52 159.887 44.864 158.767 44.032C157.679 43.168 156.911 42.144 156.463 40.96C156.047 39.744 155.839 38.4 155.839 36.928V20.56C155.839 19.088 156.047 17.76 156.463 16.576C156.911 15.36 157.679 14.32 158.767 13.456C159.887 12.592 161.423 11.92 163.375 11.44C165.327 10.96 167.791 10.72 170.767 10.72C173.743 10.72 176.191 10.96 178.111 11.44C180.063 11.92 181.583 12.592 182.671 13.456C183.791 14.32 184.559 15.36 184.975 16.576C185.423 17.76 185.647 19.088 185.647 20.56V36.928ZM166.735 35.2C166.735 35.84 166.975 36.384 167.455 36.832C167.935 37.248 169.039 37.456 170.767 37.456C172.495 37.456 173.599 37.248 174.079 36.832C174.559 36.384 174.799 35.84 174.799 35.2V22.288C174.799 21.68 174.559 21.168 174.079 20.752C173.599 20.304 172.495 20.08 170.767 20.08C169.039 20.08 167.935 20.304 167.455 20.752C166.975 21.168 166.735 21.68 166.735 22.288V35.2ZM211.917 46H193.485C192.877 46 192.429 45.872 192.141 45.616C191.885 45.328 191.757 44.88 191.757 44.272V13.168C191.757 12.56 191.885 12.128 192.141 11.872C192.429 11.584 192.877 11.44 193.485 11.44H208.797C211.933 11.44 214.253 12.048 215.757 13.264C217.261 14.448 218.013 16.288 218.013 18.784V21.088C218.013 22.432 217.773 23.536 217.293 24.4C216.845 25.232 216.141 25.856 215.181 26.272C217.229 26.464 218.749 27.168 219.741 28.384C220.733 29.6 221.229 31.376 221.229 33.712V38.128C221.229 40.816 220.461 42.8 218.925 44.08C217.421 45.36 215.085 46 211.917 46ZM202.557 19.6V24.784H206.637C207.245 24.784 207.693 24.624 207.981 24.304C208.301 23.984 208.461 23.504 208.461 22.864V21.52C208.461 20.88 208.301 20.4 207.981 20.08C207.693 19.76 207.245 19.6 206.637 19.6H202.557ZM202.557 32.176V37.84H208.797C209.405 37.84 209.853 37.68 210.141 37.36C210.461 37.04 210.621 36.56 210.621 35.92V34.048C210.621 33.408 210.461 32.944 210.141 32.656C209.853 32.336 209.405 32.176 208.797 32.176H202.557ZM243.121 46H235.345C234.737 46 234.289 45.872 234.001 45.616C233.745 45.328 233.617 44.88 233.617 44.272V38.128L226.273 28.288C225.537 27.296 225.041 26.432 224.785 25.696C224.561 24.96 224.449 23.856 224.449 22.384V13.168C224.449 12.56 224.577 12.128 224.833 11.872C225.121 11.584 225.569 11.44 226.177 11.44H233.569C234.177 11.44 234.609 11.584 234.865 11.872C235.153 12.128 235.297 12.56 235.297 13.168V21.04C235.297 21.36 235.313 21.696 235.345 22.048C235.377 22.4 235.505 22.736 235.729 23.056L237.937 26.512C238.097 26.8 238.257 27.008 238.417 27.136C238.609 27.264 238.833 27.328 239.089 27.328H239.569C239.825 27.328 240.033 27.264 240.193 27.136C240.385 27.008 240.561 26.8 240.721 26.512L242.929 23.056C243.153 22.736 243.281 22.4 243.313 22.048C243.345 21.696 243.361 21.36 243.361 21.04V13.168C243.361 12.56 243.489 12.128 243.745 11.872C244.033 11.584 244.481 11.44 245.089 11.44H252.241C252.849 11.44 253.281 11.584 253.537 11.872C253.825 12.128 253.969 12.56 253.969 13.168V22.384C253.969 23.856 253.841 24.96 253.585 25.696C253.329 26.432 252.849 27.296 252.145 28.288L244.849 38.176V44.272C244.849 44.88 244.705 45.328 244.417 45.616C244.161 45.872 243.729 46 243.121 46Z" fill="white"/>
<path d="M275.765 46H267.989C267.381 46 266.933 45.872 266.645 45.616C266.389 45.328 266.261 44.88 266.261 44.272V20.704H259.205C258.597 20.704 258.149 20.576 257.861 20.32C257.605 20.032 257.477 19.584 257.477 18.976V13.168C257.477 12.56 257.605 12.128 257.861 11.872C258.149 11.584 258.597 11.44 259.205 11.44H284.549C285.157 11.44 285.589 11.584 285.845 11.872C286.133 12.128 286.277 12.56 286.277 13.168V18.976C286.277 19.584 286.133 20.032 285.845 20.32C285.589 20.576 285.157 20.704 284.549 20.704H277.493V44.272C277.493 44.88 277.349 45.328 277.061 45.616C276.805 45.872 276.373 46 275.765 46ZM314.945 46H292.673C292.065 46 291.617 45.872 291.329 45.616C291.073 45.328 290.945 44.88 290.945 44.272V13.168C290.945 12.56 291.073 12.128 291.329 11.872C291.617 11.584 292.065 11.44 292.673 11.44H314.945C315.553 11.44 315.985 11.584 316.241 11.872C316.529 12.128 316.673 12.56 316.673 13.168V18.784C316.673 19.392 316.529 19.84 316.241 20.128C315.985 20.384 315.553 20.512 314.945 20.512H301.697V24.208H311.057C311.665 24.208 312.097 24.352 312.353 24.64C312.641 24.896 312.785 25.328 312.785 25.936V31.072C312.785 31.68 312.641 32.128 312.353 32.416C312.097 32.672 311.665 32.8 311.057 32.8H301.697V36.928H314.945C315.553 36.928 315.985 37.072 316.241 37.36C316.529 37.616 316.673 38.048 316.673 38.656V44.272C316.673 44.88 316.529 45.328 316.241 45.616C315.985 45.872 315.553 46 314.945 46ZM345.109 46H333.397C329.397 46 326.421 45.2 324.469 43.6C322.549 42 321.589 39.536 321.589 36.208V21.28C321.589 17.952 322.549 15.488 324.469 13.888C326.421 12.256 329.397 11.44 333.397 11.44H345.109C345.717 11.44 346.149 11.584 346.405 11.872C346.693 12.128 346.837 12.56 346.837 13.168V18.976C346.837 19.584 346.693 20.032 346.405 20.32C346.149 20.576 345.717 20.704 345.109 20.704H335.461C334.469 20.704 333.733 20.912 333.253 21.328C332.773 21.712 332.533 22.304 332.533 23.104V34.528C332.533 35.328 332.773 35.92 333.253 36.304C333.733 36.656 334.469 36.832 335.461 36.832H345.109C345.717 36.832 346.149 36.976 346.405 37.264C346.693 37.52 346.837 37.952 346.837 38.56V44.272C346.837 44.88 346.693 45.328 346.405 45.616C346.149 45.872 345.717 46 345.109 46ZM361.425 46H353.985C353.377 46 352.929 45.872 352.641 45.616C352.385 45.328 352.257 44.88 352.257 44.272V13.168C352.257 12.56 352.385 12.128 352.641 11.872C352.929 11.584 353.377 11.44 353.985 11.44H361.425C362.033 11.44 362.465 11.584 362.721 11.872C363.009 12.128 363.153 12.56 363.153 13.168V23.584H371.169V13.168C371.169 12.56 371.297 12.128 371.553 11.872C371.841 11.584 372.289 11.44 372.897 11.44H380.337C380.945 11.44 381.377 11.584 381.633 11.872C381.921 12.128 382.065 12.56 382.065 13.168V44.272C382.065 44.88 381.921 45.328 381.633 45.616C381.377 45.872 380.945 46 380.337 46H372.897C372.289 46 371.841 45.872 371.553 45.616C371.297 45.328 371.169 44.88 371.169 44.272V33.616H363.153V44.272C363.153 44.88 363.009 45.328 362.721 45.616C362.465 45.872 362.033 46 361.425 46Z" fill="#01B671"/>
</svg>
