<svg width="37" height="40" viewBox="0 0 37 40" fill="none" xmlns="http://www.w3.org/2000/svg">
<g filter="url(#filter0_d_77_58)">
<rect x="3.97278" width="48.0273" height="33" rx="16.5" fill="#01B671"/>
</g>
<path d="M20.9235 9.5C21.296 9.5 21.6602 9.3827 21.9699 9.16294C22.2796 8.94318 22.521 8.63082 22.6636 8.26537C22.8061 7.89992 22.8434 7.49778 22.7707 7.10982C22.6981 6.72186 22.5187 6.36549 22.2553 6.08579C21.9919 5.80608 21.6563 5.6156 21.2909 5.53843C20.9256 5.46126 20.5469 5.50087 20.2028 5.65224C19.8586 5.80362 19.5645 6.05996 19.3575 6.38886C19.1505 6.71776 19.0401 7.10444 19.0401 7.5C19.0401 8.03043 19.2385 8.53914 19.5917 8.91421C19.9449 9.28929 20.424 9.5 20.9235 9.5ZM27.9863 23.5H27.0446V18.5C27.0446 18.2348 26.9454 17.9804 26.7688 17.7929C26.5922 17.6054 26.3527 17.5 26.1029 17.5H21.3944V15.5H26.1029C26.3527 15.5 26.5922 15.3946 26.7688 15.2071C26.9454 15.0196 27.0446 14.7652 27.0446 14.5C27.0446 14.2348 26.9454 13.9804 26.7688 13.7929C26.5922 13.6054 26.3527 13.5 26.1029 13.5H21.3944V11.5C21.3944 11.2348 21.2951 10.9804 21.1185 10.7929C20.9419 10.6054 20.7024 10.5 20.4527 10.5C20.2029 10.5 19.9634 10.6054 19.7868 10.7929C19.6102 10.9804 19.5109 11.2348 19.5109 11.5V18.5C19.5109 18.7652 19.6102 19.0196 19.7868 19.2071C19.9634 19.3946 20.2029 19.5 20.4527 19.5H25.1612V24.5C25.1612 24.7652 25.2604 25.0196 25.437 25.2071C25.6136 25.3946 25.8532 25.5 26.1029 25.5H27.9863C28.2361 25.5 28.4756 25.3946 28.6522 25.2071C28.8288 25.0196 28.928 24.7652 28.928 24.5C28.928 24.2348 28.8288 23.9804 28.6522 23.7929C28.4756 23.6054 28.2361 23.5 27.9863 23.5ZM21.5827 21.9C21.1083 22.5716 20.447 23.0677 19.6924 23.3181C18.9377 23.5684 18.1281 23.5602 17.3781 23.2947C16.628 23.0293 15.9757 22.5199 15.5134 21.8388C15.0511 21.1578 14.8024 20.3395 14.8024 19.5C14.8035 18.7227 15.0178 17.9626 15.4192 17.3126C15.8206 16.6626 16.3916 16.1509 17.0625 15.84C17.2923 15.7339 17.473 15.5352 17.5648 15.2877C17.6566 15.0401 17.6521 14.764 17.5522 14.52C17.4523 14.276 17.2652 14.0841 17.0321 13.9866C16.799 13.8891 16.5389 13.8939 16.3091 14C15.5167 14.3674 14.8142 14.9231 14.2558 15.6243C13.6975 16.3254 13.2981 17.1532 13.0885 18.0441C12.8788 18.9349 12.8646 19.865 13.0467 20.7626C13.2289 21.6602 13.6026 22.5014 14.1391 23.2215C14.6757 23.9416 15.3607 24.5214 16.1414 24.9161C16.9222 25.3108 17.7778 25.5099 18.6424 25.4982C19.5071 25.4864 20.3576 25.2641 21.1286 24.8483C21.8996 24.4326 22.5704 23.8344 23.0894 23.1C23.2393 22.8878 23.3036 22.6211 23.2683 22.3586C23.233 22.096 23.1009 21.8591 22.9011 21.7C22.7013 21.5409 22.4501 21.4725 22.2029 21.51C21.9556 21.5476 21.7326 21.6878 21.5827 21.9Z" fill="white"/>
<defs>
<filter id="filter0_d_77_58" x="0.972778" y="0" width="54.0272" height="40" filterUnits="userSpaceOnUse" color-interpolation-filters="sRGB">
<feFlood flood-opacity="0" result="BackgroundImageFix"/>
<feColorMatrix in="SourceAlpha" type="matrix" values="0 0 0 0 0 0 0 0 0 0 0 0 0 0 0 0 0 0 127 0" result="hardAlpha"/>
<feOffset dy="4"/>
<feGaussianBlur stdDeviation="1.5"/>
<feComposite in2="hardAlpha" operator="out"/>
<feColorMatrix type="matrix" values="0 0 0 0 0 0 0 0 0 0 0 0 0 0 0 0 0 0 0.25 0"/>
<feBlend mode="normal" in2="BackgroundImageFix" result="effect1_dropShadow_77_58"/>
<feBlend mode="normal" in="SourceGraphic" in2="effect1_dropShadow_77_58" result="shape"/>
</filter>
</defs>
</svg>
