<svg width="27" height="26" viewBox="0 0 27 26" fill="none" xmlns="http://www.w3.org/2000/svg">
<path d="M24.7282 15.2003L26.9013 5.2879C27.0582 4.5722 26.5335 3.89067 25.8255 3.89067H9.94652C8.68166 3.89067 7.59339 2.99615 7.34854 1.75521V1.75521C7.24355 1.22295 6.79177 0.840698 6.26768 0.840698H1.55457C0.94526 0.840698 0.451328 1.35276 0.451328 1.98444V2.74693C0.451328 3.37861 0.94526 3.89067 1.55457 3.89067V3.89067C3.42134 3.89067 5.02747 5.21088 5.38883 7.04233L7.4595 17.5372C7.78134 19.1684 6.70305 20.9091 6.70305 22.5718V22.5718C6.70305 24.0457 7.85557 25.2405 9.27729 25.2405C10.699 25.2405 11.8515 24.0457 11.8515 22.5718V22.5718C11.8515 21.7879 12.4043 20.6655 13.1881 20.6655H18.6054C19.3892 20.6655 19.942 21.7879 19.942 22.5718V22.5718C19.942 24.0457 21.0945 25.2405 22.5162 25.2405C23.9379 25.2405 25.0905 24.0457 25.0905 22.5718C25.0905 21.9492 24.8848 21.3764 24.54 20.9225C24.1185 20.3675 23.7432 19.6935 23.8924 19.0128V19.0128C24.0493 18.2971 23.5246 17.6156 22.8166 17.6156H11.1046C10.7404 17.6156 10.427 17.358 10.3565 17.0007V17.0007C10.2636 16.5294 10.6243 16.0906 11.1046 16.0906H23.6524C24.1676 16.0906 24.6141 15.7211 24.7282 15.2003Z" fill="#1D2225"/>
</svg>
