<svg width="35" height="32" viewBox="0 0 35 32" fill="none" xmlns="http://www.w3.org/2000/svg">
<g filter="url(#filter0_d_182_429)">
<mask id="path-1-inside-1_182_429" fill="white">
<path d="M26.5894 15.3014L28.9694 4.73886C29.1413 3.97622 28.5666 3.25 27.7912 3.25H8.01568L7.5542 0.974492C7.43921 0.407316 6.94439 0 6.37038 0H1.20833C0.540981 0 0 0.545645 0 1.21875V2.03125C0 2.70436 0.540981 3.25 1.20833 3.25H4.72675L8.26354 20.6901C7.41741 21.1809 6.84722 22.1011 6.84722 23.1562C6.84722 24.7268 8.10953 26 9.66667 26C11.2238 26 12.4861 24.7268 12.4861 23.1562C12.4861 22.3603 12.1615 21.6412 11.6391 21.125H22.1942C21.6718 21.6412 21.3472 22.3603 21.3472 23.1562C21.3472 24.7268 22.6095 26 24.1667 26C25.7238 26 26.9861 24.7268 26.9861 23.1562C26.9861 22.0303 26.3372 21.0574 25.3962 20.5966L25.674 19.3639C25.8458 18.6012 25.2711 17.875 24.4957 17.875H10.9816L10.6521 16.25H25.4111C25.9753 16.25 26.4644 15.8562 26.5894 15.3014Z"/>
</mask>
<path d="M26.5894 15.3014L28.9694 4.73886C29.1413 3.97622 28.5666 3.25 27.7912 3.25H8.01568L7.5542 0.974492C7.43921 0.407316 6.94439 0 6.37038 0H1.20833C0.540981 0 0 0.545645 0 1.21875V2.03125C0 2.70436 0.540981 3.25 1.20833 3.25H4.72675L8.26354 20.6901C7.41741 21.1809 6.84722 22.1011 6.84722 23.1562C6.84722 24.7268 8.10953 26 9.66667 26C11.2238 26 12.4861 24.7268 12.4861 23.1562C12.4861 22.3603 12.1615 21.6412 11.6391 21.125H22.1942C21.6718 21.6412 21.3472 22.3603 21.3472 23.1562C21.3472 24.7268 22.6095 26 24.1667 26C25.7238 26 26.9861 24.7268 26.9861 23.1562C26.9861 22.0303 26.3372 21.0574 25.3962 20.5966L25.674 19.3639C25.8458 18.6012 25.2711 17.875 24.4957 17.875H10.9816L10.6521 16.25H25.4111C25.9753 16.25 26.4644 15.8562 26.5894 15.3014Z" fill="#1C2124"/>
<path d="M26.5894 15.3014L25.6138 15.0815L25.6138 15.0816L26.5894 15.3014ZM28.9694 4.73886L29.945 4.95868L29.945 4.95866L28.9694 4.73886ZM8.01568 3.25L7.03563 3.44876L7.19813 4.25H8.01568V3.25ZM7.5542 0.974492L6.57414 1.1732L6.57415 1.17325L7.5542 0.974492ZM4.72675 3.25L5.7068 3.05125L5.54431 2.25H4.72675V3.25ZM8.26354 20.6901L8.76529 21.5551L9.38627 21.1949L9.24359 20.4913L8.26354 20.6901ZM11.6391 21.125V20.125H9.20412L10.9362 21.8364L11.6391 21.125ZM22.1942 21.125L22.8971 21.8363L24.629 20.125H22.1942V21.125ZM25.3962 20.5966L24.4207 20.3768L24.247 21.1474L24.9565 21.4947L25.3962 20.5966ZM25.674 19.3639L26.6495 19.5837L26.6495 19.5837L25.674 19.3639ZM10.9816 17.875L10.0015 18.0737L10.164 18.875H10.9816V17.875ZM10.6521 16.25V15.25H9.42893L9.67201 16.4487L10.6521 16.25ZM27.5649 15.5212L29.945 4.95868L27.9939 4.51904L25.6138 15.0815L27.5649 15.5212ZM29.945 4.95866C30.2553 3.58143 29.2184 2.25 27.7912 2.25V4.25C27.9147 4.25 28.0273 4.37101 27.9939 4.51905L29.945 4.95866ZM27.7912 2.25H8.01568V4.25H27.7912V2.25ZM8.99573 3.05124L8.53425 0.775735L6.57415 1.17325L7.03563 3.44876L8.99573 3.05124ZM8.53426 0.775788C8.32589 -0.251952 7.42581 -1 6.37038 -1V1C6.46297 1 6.55253 1.06658 6.57414 1.1732L8.53426 0.775788ZM6.37038 -1H1.20833V1H6.37038V-1ZM1.20833 -1C-0.0193789 -1 -1 0.00146973 -1 1.21875H1C1 1.08982 1.10134 1 1.20833 1V-1ZM-1 1.21875V2.03125H1V1.21875H-1ZM-1 2.03125C-1 3.24853 -0.0193789 4.25 1.20833 4.25V2.25C1.10134 2.25 1 2.16018 1 2.03125H-1ZM1.20833 4.25H4.72675V2.25H1.20833V4.25ZM3.7467 3.44875L7.28349 20.8888L9.24359 20.4913L5.7068 3.05125L3.7467 3.44875ZM7.76179 19.825C6.61786 20.4886 5.84722 21.7325 5.84722 23.1562H7.84722C7.84722 22.4698 8.21695 21.8731 8.76529 21.5551L7.76179 19.825ZM5.84722 23.1562C5.84722 25.271 7.54917 27 9.66667 27V25C8.66989 25 7.84722 24.1826 7.84722 23.1562H5.84722ZM9.66667 27C11.7842 27 13.4861 25.271 13.4861 23.1562H11.4861C11.4861 24.1826 10.6634 25 9.66667 25V27ZM13.4861 23.1562C13.4861 22.083 13.0473 21.1105 12.3419 20.4136L10.9362 21.8364C11.2758 22.1718 11.4861 22.6376 11.4861 23.1562H13.4861ZM11.6391 22.125H22.1942V20.125H11.6391V22.125ZM21.4914 20.4137C20.7861 21.1106 20.3472 22.083 20.3472 23.1562H22.3472C22.3472 22.6376 22.5576 22.1718 22.8971 21.8363L21.4914 20.4137ZM20.3472 23.1562C20.3472 25.271 22.0492 27 24.1667 27V25C23.1699 25 22.3472 24.1826 22.3472 23.1562H20.3472ZM24.1667 27C26.2842 27 27.9861 25.271 27.9861 23.1562H25.9861C25.9861 24.1826 25.1635 25 24.1667 25V27ZM27.9861 23.1562C27.9861 21.6374 27.1098 20.3222 25.8359 19.6985L24.9565 21.4947C25.5647 21.7926 25.9861 22.4232 25.9861 23.1562H27.9861ZM26.3717 20.8164L26.6495 19.5837L24.6984 19.144L24.4207 20.3768L26.3717 20.8164ZM26.6495 19.5837C26.9598 18.2064 25.923 16.875 24.4957 16.875V18.875C24.6192 18.875 24.7318 18.996 24.6984 19.144L26.6495 19.5837ZM24.4957 16.875H10.9816V18.875H24.4957V16.875ZM11.9616 17.6763L11.6321 16.0513L9.67201 16.4487L10.0015 18.0737L11.9616 17.6763ZM10.6521 17.25H25.4111V15.25H10.6521V17.25ZM25.4111 17.25C26.4484 17.25 27.3384 16.5268 27.5649 15.5211L25.6138 15.0816C25.5904 15.1857 25.5022 15.25 25.4111 15.25V17.25Z" fill="white" mask="url(#path-1-inside-1_182_429)"/>
</g>
<defs>
<filter id="filter0_d_182_429" x="0" y="0" width="35" height="32" filterUnits="userSpaceOnUse" color-interpolation-filters="sRGB">
<feFlood flood-opacity="0" result="BackgroundImageFix"/>
<feColorMatrix in="SourceAlpha" type="matrix" values="0 0 0 0 0 0 0 0 0 0 0 0 0 0 0 0 0 0 127 0" result="hardAlpha"/>
<feOffset dx="3" dy="3"/>
<feGaussianBlur stdDeviation="1.5"/>
<feComposite in2="hardAlpha" operator="out"/>
<feColorMatrix type="matrix" values="0 0 0 0 0 0 0 0 0 0 0 0 0 0 0 0 0 0 0.44 0"/>
<feBlend mode="normal" in2="BackgroundImageFix" result="effect1_dropShadow_182_429"/>
<feBlend mode="normal" in="SourceGraphic" in2="effect1_dropShadow_182_429" result="shape"/>
</filter>
</defs>
</svg>
