<svg width="338" height="319" viewBox="0 0 338 319" fill="none" xmlns="http://www.w3.org/2000/svg">
<path d="M242.545 15.5775H113.103C104.166 15.5775 96.9214 22.7119 96.9214 31.5127V300.632C96.9214 309.433 104.166 316.567 113.103 316.567H242.545C251.482 316.567 258.727 309.433 258.727 300.632V31.5127C258.727 22.7119 251.482 15.5775 242.545 15.5775Z" fill="#263238"/>
<path d="M251.531 48.6289H104.109V283.516H251.531V48.6289Z" fill="white" stroke="#263238" stroke-width="1.33739" stroke-miterlimit="10"/>
<path d="M200.419 143.741C212.898 131.452 212.898 111.527 200.419 99.238C187.94 86.9488 167.708 86.9488 155.229 99.238C142.75 111.527 142.75 131.452 155.229 143.741C167.708 156.031 187.94 156.031 200.419 143.741Z" fill="#FFC727"/>
<path d="M219.777 268.745H135.88C135.691 268.746 135.504 268.71 135.329 268.64C135.154 268.57 134.996 268.466 134.862 268.335C134.728 268.204 134.622 268.048 134.549 267.876C134.477 267.704 134.439 267.52 134.439 267.334C134.438 267.148 134.475 266.963 134.547 266.79C134.619 266.617 134.725 266.461 134.859 266.329C134.993 266.197 135.152 266.092 135.327 266.021C135.503 265.95 135.69 265.914 135.88 265.915H219.777C219.965 265.915 220.152 265.952 220.327 266.024C220.501 266.095 220.659 266.2 220.792 266.332C220.925 266.463 221.031 266.62 221.102 266.792C221.174 266.964 221.21 267.148 221.209 267.334C221.209 267.708 221.058 268.067 220.789 268.332C220.521 268.596 220.156 268.745 219.777 268.745Z" fill="#FFC727"/>
<path d="M222.508 170.649H133.14C131.296 170.649 129.801 172.121 129.801 173.937V184.312C129.801 186.128 131.296 187.601 133.14 187.601H222.508C224.353 187.601 225.848 186.128 225.848 184.312V173.937C225.848 172.121 224.353 170.649 222.508 170.649Z" fill="#FFC727"/>
<path d="M222.508 202.355H133.14C131.296 202.355 129.801 203.827 129.801 205.644V216.019C129.801 217.835 131.296 219.307 133.14 219.307H222.508C224.353 219.307 225.848 217.835 225.848 216.019V205.644C225.848 203.827 224.353 202.355 222.508 202.355Z" fill="#FFC727"/>
<path d="M193.735 137.187L184.332 131.856V127.452C185.694 125.83 186.68 123.935 187.222 121.9C187.546 122.013 187.887 122.071 188.23 122.072C189.396 122.072 190.137 118.513 190.262 115.97C191.62 113.141 189.771 111.484 189.771 111.484C189.771 111.484 190.537 110.73 191.045 107.703C191.553 104.677 189.254 105.94 187.464 103.168C185.673 100.396 184.391 97.3778 178.511 97.3778C176.891 97.3253 175.292 97.7541 173.923 98.6082C172.554 99.4624 171.477 100.703 170.833 102.167C169.369 102.173 167.911 102.34 166.486 102.668C164.687 103.168 164.179 108.966 165.711 111.238C166.397 112.48 166.763 113.868 166.777 115.281C166.369 114.789 165.944 114.658 165.711 115.773C165.203 118.291 167.252 121.818 167.252 121.818L168.309 121.523C168.842 123.698 169.87 125.726 171.316 127.452V131.856L161.913 137.187C160.815 137.811 159.903 138.709 159.269 139.79C158.635 140.871 158.3 142.098 158.299 143.346V146.397C163.891 150.651 170.758 152.959 177.824 152.959C184.89 152.959 191.757 150.651 197.349 146.397V143.346C197.35 142.097 197.016 140.87 196.381 139.789C195.747 138.708 194.834 137.81 193.735 137.187Z" fill="#263238"/>
<path d="M141.968 215.092C141.752 215.089 141.546 215.003 141.393 214.854C141.311 214.782 141.246 214.693 141.201 214.594C141.157 214.495 141.134 214.388 141.135 214.28C141.138 214.132 141.181 213.987 141.26 213.861L142.759 211.499L139.836 211.59C139.726 211.596 139.615 211.58 139.512 211.542C139.409 211.504 139.315 211.445 139.236 211.368C139.1 211.218 139.025 211.024 139.025 210.823C139.025 210.622 139.1 210.428 139.236 210.277C139.313 210.198 139.406 210.137 139.51 210.097C139.614 210.057 139.725 210.04 139.836 210.048L142.717 210.154L141.235 207.801C141.154 207.673 141.111 207.525 141.11 207.374C141.109 207.266 141.132 207.159 141.176 207.06C141.221 206.961 141.286 206.872 141.368 206.8C141.521 206.651 141.727 206.565 141.943 206.562C142.085 206.563 142.223 206.604 142.343 206.679C142.462 206.755 142.558 206.862 142.617 206.989L144.042 209.523L145.449 207.005C145.516 206.871 145.619 206.757 145.746 206.676C145.874 206.595 146.022 206.55 146.174 206.546C146.279 206.546 146.383 206.569 146.479 206.611C146.575 206.653 146.661 206.715 146.731 206.792C146.884 206.948 146.968 207.157 146.965 207.374C146.964 207.515 146.927 207.653 146.856 207.776L145.349 210.154L148.272 210.048C148.383 210.04 148.494 210.057 148.598 210.097C148.702 210.137 148.795 210.198 148.872 210.277C149.014 210.423 149.092 210.617 149.088 210.819C149.088 211.022 149.011 211.218 148.872 211.368C148.793 211.445 148.699 211.504 148.596 211.542C148.493 211.58 148.382 211.596 148.272 211.59L145.332 211.499L146.798 213.837C146.88 213.967 146.924 214.118 146.923 214.272C146.923 214.489 146.835 214.698 146.679 214.851C146.523 215.005 146.311 215.092 146.09 215.092C145.947 215.09 145.808 215.047 145.69 214.968C145.572 214.89 145.479 214.779 145.424 214.649L144.033 212.188L142.651 214.649C142.589 214.777 142.493 214.887 142.373 214.965C142.252 215.043 142.112 215.087 141.968 215.092Z" fill="#263238"/>
<path d="M155.476 215.092C155.26 215.089 155.054 215.003 154.901 214.854C154.819 214.782 154.754 214.693 154.709 214.594C154.665 214.495 154.642 214.388 154.643 214.28C154.646 214.132 154.689 213.987 154.768 213.861L156.267 211.5L153.352 211.59C153.241 211.595 153.13 211.578 153.025 211.54C152.921 211.502 152.825 211.443 152.744 211.368C152.634 211.256 152.56 211.114 152.533 210.959C152.506 210.805 152.526 210.647 152.592 210.504C152.657 210.362 152.765 210.242 152.901 210.161C153.036 210.079 153.194 210.04 153.352 210.048L156.225 210.154L154.743 207.801C154.662 207.673 154.619 207.525 154.618 207.374C154.617 207.266 154.64 207.159 154.684 207.06C154.729 206.961 154.794 206.872 154.876 206.8C155.029 206.651 155.235 206.565 155.451 206.562C155.593 206.563 155.731 206.604 155.851 206.679C155.97 206.755 156.066 206.862 156.125 206.989L157.55 209.523L158.957 207.005C159.024 206.871 159.127 206.757 159.254 206.676C159.382 206.595 159.53 206.55 159.681 206.546C159.787 206.545 159.891 206.567 159.987 206.61C160.084 206.652 160.17 206.714 160.239 206.792C160.317 206.869 160.378 206.959 160.419 207.059C160.461 207.159 160.482 207.266 160.481 207.374C160.478 207.516 160.438 207.654 160.364 207.776L158.857 210.154L161.788 210.064C161.898 210.057 162.008 210.074 162.11 210.113C162.213 210.153 162.305 210.215 162.38 210.294C162.522 210.439 162.6 210.634 162.596 210.835C162.596 211.038 162.519 211.234 162.38 211.385C162.303 211.461 162.21 211.52 162.108 211.558C162.006 211.596 161.897 211.613 161.788 211.606L158.84 211.516L160.306 213.853C160.388 213.984 160.432 214.134 160.431 214.288C160.431 214.505 160.343 214.714 160.187 214.868C160.031 215.022 159.819 215.108 159.598 215.108C159.455 215.106 159.316 215.063 159.198 214.985C159.08 214.906 158.987 214.795 158.932 214.665L157.541 212.205L156.159 214.665C156.095 214.791 155.998 214.897 155.878 214.972C155.757 215.047 155.618 215.089 155.476 215.092Z" fill="#263238"/>
<path d="M168.992 215.092C168.774 215.091 168.564 215.005 168.409 214.854C168.327 214.782 168.262 214.693 168.217 214.594C168.173 214.495 168.15 214.388 168.151 214.28C168.154 214.132 168.197 213.987 168.276 213.861L169.775 211.499L166.86 211.59C166.703 211.596 166.548 211.556 166.414 211.475C166.28 211.394 166.174 211.275 166.109 211.135C166.044 210.994 166.023 210.837 166.048 210.685C166.074 210.532 166.145 210.39 166.252 210.278C166.331 210.199 166.426 210.137 166.531 210.097C166.636 210.058 166.748 210.041 166.86 210.048L169.733 210.154L168.251 207.801C168.17 207.673 168.127 207.525 168.126 207.374C168.129 207.267 168.153 207.16 168.197 207.062C168.242 206.963 168.305 206.874 168.384 206.8C168.539 206.649 168.749 206.563 168.967 206.562C169.108 206.565 169.245 206.606 169.363 206.681C169.48 206.757 169.574 206.863 169.634 206.989L171.058 209.523L172.465 207.005C172.532 206.871 172.635 206.757 172.762 206.676C172.89 206.595 173.038 206.55 173.19 206.546C173.295 206.545 173.399 206.567 173.496 206.61C173.592 206.652 173.678 206.714 173.748 206.792C173.825 206.869 173.886 206.959 173.927 207.059C173.969 207.159 173.99 207.266 173.989 207.374C173.986 207.516 173.946 207.654 173.873 207.776L172.365 210.154L175.297 210.048C175.404 210.037 175.513 210.049 175.616 210.084C175.718 210.118 175.812 210.174 175.891 210.247C175.97 210.32 176.032 210.409 176.073 210.507C176.114 210.606 176.134 210.712 176.129 210.819C176.131 211.021 176.057 211.217 175.921 211.368C175.843 211.445 175.749 211.504 175.645 211.542C175.542 211.58 175.432 211.596 175.322 211.59L172.382 211.499L173.839 213.837C173.921 213.967 173.965 214.118 173.964 214.272C173.961 214.379 173.937 214.485 173.893 214.584C173.849 214.682 173.785 214.771 173.706 214.846C173.634 214.922 173.546 214.984 173.449 215.026C173.351 215.068 173.246 215.091 173.14 215.092C172.998 215.089 172.86 215.046 172.743 214.967C172.626 214.889 172.535 214.778 172.482 214.649L171.083 212.188L169.7 214.649C169.638 214.782 169.538 214.894 169.412 214.973C169.287 215.051 169.141 215.093 168.992 215.092Z" fill="#263238"/>
<path d="M182.5 215.092C182.282 215.091 182.073 215.005 181.917 214.854C181.76 214.702 181.671 214.496 181.668 214.28C181.665 214.132 181.705 213.987 181.784 213.861L183.283 211.499L180.368 211.59C180.257 211.595 180.146 211.578 180.042 211.54C179.937 211.502 179.842 211.443 179.76 211.368C179.625 211.218 179.55 211.024 179.55 210.823C179.55 210.622 179.625 210.428 179.76 210.278C179.841 210.201 179.936 210.141 180.041 210.102C180.145 210.062 180.257 210.044 180.368 210.048L183.25 210.154L181.776 207.801C181.695 207.673 181.652 207.525 181.651 207.374C181.654 207.267 181.678 207.16 181.722 207.062C181.766 206.963 181.83 206.874 181.909 206.8C182.064 206.649 182.274 206.563 182.492 206.562C182.634 206.563 182.773 206.604 182.892 206.679C183.011 206.755 183.107 206.862 183.167 206.989L184.582 209.523L185.99 207.005C186.057 206.871 186.159 206.757 186.287 206.676C186.415 206.595 186.563 206.55 186.714 206.546C186.82 206.545 186.924 206.567 187.02 206.61C187.117 206.652 187.202 206.714 187.272 206.792C187.35 206.869 187.411 206.959 187.452 207.059C187.493 207.159 187.514 207.266 187.514 207.374C187.511 207.516 187.471 207.654 187.397 207.776L185.89 210.154L188.821 210.048C188.929 210.037 189.038 210.049 189.141 210.084C189.243 210.118 189.337 210.174 189.416 210.247C189.495 210.32 189.557 210.409 189.598 210.507C189.639 210.606 189.658 210.712 189.654 210.819C189.656 211.021 189.582 211.217 189.446 211.368C189.367 211.445 189.274 211.504 189.17 211.542C189.067 211.58 188.956 211.596 188.846 211.59L185.907 211.499L187.364 213.837C187.446 213.967 187.489 214.118 187.489 214.272C187.49 214.38 187.467 214.487 187.423 214.586C187.378 214.685 187.313 214.773 187.231 214.846C187.158 214.922 187.071 214.984 186.973 215.026C186.876 215.068 186.771 215.091 186.664 215.092C186.523 215.089 186.385 215.046 186.268 214.967C186.151 214.889 186.06 214.778 186.006 214.649L184.607 212.188L183.225 214.649C183.161 214.784 183.059 214.899 182.93 214.977C182.801 215.056 182.652 215.096 182.5 215.092Z" fill="#263238"/>
<path d="M196.008 215.092C195.79 215.091 195.581 215.005 195.425 214.854C195.296 214.725 195.214 214.558 195.192 214.379C195.169 214.199 195.207 214.017 195.301 213.861L196.791 211.499L193.876 211.59C193.765 211.595 193.654 211.578 193.55 211.54C193.445 211.502 193.35 211.443 193.268 211.368C193.133 211.218 193.058 211.024 193.058 210.823C193.058 210.622 193.133 210.428 193.268 210.278C193.349 210.201 193.444 210.141 193.549 210.102C193.653 210.062 193.765 210.044 193.876 210.048L196.758 210.154L195.276 207.801C195.195 207.673 195.152 207.525 195.151 207.374C195.154 207.158 195.244 206.952 195.4 206.8C195.556 206.649 195.765 206.563 195.983 206.562C196.125 206.563 196.264 206.604 196.383 206.679C196.503 206.755 196.598 206.862 196.658 206.989L198.074 209.523L199.481 207.005C199.548 206.871 199.651 206.757 199.778 206.676C199.906 206.595 200.054 206.55 200.206 206.546C200.312 206.545 200.418 206.567 200.516 206.609C200.613 206.652 200.701 206.714 200.772 206.792C200.925 206.948 201.009 207.157 201.005 207.374C201.002 207.516 200.962 207.654 200.889 207.776L199.381 210.154L202.313 210.048C202.421 210.037 202.529 210.049 202.632 210.084C202.734 210.118 202.828 210.174 202.907 210.247C202.986 210.32 203.048 210.409 203.089 210.507C203.131 210.606 203.15 210.712 203.146 210.819C203.147 211.021 203.073 211.217 202.937 211.368C202.859 211.445 202.765 211.504 202.662 211.542C202.558 211.58 202.448 211.597 202.338 211.59L199.398 211.499L200.855 213.837C200.937 213.967 200.981 214.118 200.98 214.272C200.981 214.38 200.958 214.487 200.914 214.586C200.869 214.685 200.804 214.773 200.722 214.846C200.65 214.922 200.562 214.984 200.465 215.026C200.367 215.068 200.262 215.091 200.156 215.092C200.014 215.089 199.876 215.046 199.759 214.967C199.643 214.889 199.552 214.778 199.498 214.649L198.099 212.188L196.716 214.649C196.654 214.782 196.554 214.894 196.429 214.973C196.303 215.051 196.157 215.093 196.008 215.092Z" fill="#263238"/>
<path d="M209.517 215.092C209.301 215.089 209.095 215.003 208.942 214.854C208.86 214.782 208.795 214.693 208.75 214.594C208.705 214.495 208.683 214.388 208.684 214.28C208.686 214.132 208.729 213.987 208.809 213.861L210.299 211.499L207.385 211.59C207.277 211.598 207.17 211.584 207.068 211.548C206.967 211.513 206.874 211.457 206.796 211.385C206.717 211.312 206.655 211.225 206.613 211.127C206.571 211.03 206.55 210.925 206.552 210.819C206.551 210.718 206.571 210.619 206.609 210.526C206.648 210.433 206.705 210.349 206.777 210.277C206.853 210.198 206.947 210.137 207.05 210.097C207.154 210.057 207.265 210.04 207.376 210.048L210.258 210.154L208.775 207.801C208.695 207.673 208.651 207.525 208.65 207.374C208.654 207.158 208.743 206.952 208.9 206.8C209.055 206.649 209.265 206.563 209.483 206.562C209.625 206.563 209.764 206.604 209.883 206.679C210.003 206.755 210.098 206.862 210.158 206.989L211.574 209.523L212.989 207.005C213.055 206.872 213.157 206.759 213.283 206.678C213.409 206.597 213.555 206.552 213.705 206.546C213.812 206.545 213.918 206.567 214.015 206.609C214.113 206.652 214.2 206.714 214.272 206.792C214.425 206.948 214.508 207.157 214.505 207.374C214.505 207.515 214.467 207.654 214.397 207.776L212.889 210.154L215.812 210.048C215.923 210.04 216.035 210.057 216.138 210.097C216.242 210.137 216.335 210.198 216.412 210.277C216.554 210.423 216.632 210.617 216.629 210.819C216.628 211.022 216.551 211.218 216.412 211.368C216.334 211.445 216.24 211.504 216.136 211.542C216.033 211.58 215.923 211.596 215.812 211.59L212.873 211.499L214.33 213.837C214.412 213.967 214.456 214.118 214.455 214.272C214.452 214.488 214.362 214.694 214.205 214.846C214.053 214.998 213.847 215.086 213.631 215.092C213.489 215.089 213.351 215.046 213.234 214.967C213.117 214.889 213.026 214.778 212.973 214.649L211.574 212.188L210.191 214.649C210.131 214.777 210.036 214.886 209.917 214.964C209.798 215.042 209.66 215.086 209.517 215.092Z" fill="#263238"/>
<g style="mix-blend-mode:multiply">
<path d="M251.531 48.9406H104.109V58.0359H251.531V48.9406Z" fill="#FFC727"/>
</g>
<path d="M193.851 32.1852H161.788C161.21 32.1852 160.655 31.9589 160.246 31.5559C159.836 31.1529 159.607 30.6064 159.607 30.0365C159.607 29.4666 159.836 28.9201 160.246 28.5171C160.655 28.1141 161.21 27.8877 161.788 27.8877H193.851C194.43 27.8877 194.985 28.1141 195.394 28.5171C195.803 28.9201 196.033 29.4666 196.033 30.0365C196.033 30.6064 195.803 31.1529 195.394 31.5559C194.985 31.9589 194.43 32.1852 193.851 32.1852Z" fill="#FFC727" stroke="#263238" stroke-width="1.33739" stroke-linecap="round" stroke-linejoin="round"/>
<path d="M186.564 296.785C186.566 295.081 186.054 293.415 185.094 291.998C184.134 290.581 182.768 289.476 181.17 288.823C179.572 288.17 177.813 287.999 176.116 288.331C174.419 288.663 172.86 289.483 171.637 290.688C170.413 291.893 169.58 293.428 169.243 295.099C168.906 296.77 169.08 298.503 169.743 300.076C170.406 301.65 171.528 302.995 172.967 303.941C174.406 304.886 176.098 305.39 177.828 305.389C180.145 305.386 182.365 304.479 184.003 302.866C185.641 301.253 186.562 299.066 186.564 296.785Z" fill="#FFC727"/>
<path d="M182.259 292.422H173.398V301.148H182.259V292.422Z" fill="#FFC727" stroke="#263238" stroke-width="1.33739" stroke-linecap="round" stroke-linejoin="round"/>
<path d="M283.378 197.762C283.378 197.762 271.768 168.713 282.104 165.26C292.863 161.66 292.389 180.843 291.972 190.192C291.098 210.171 288.858 213.886 287.184 209.006L283.378 197.762ZM279.888 220.422C283.078 224.523 283.977 220.275 278.223 201.092C275.524 192.07 269.662 173.822 260.667 180.67C252.031 187.232 272.585 211.015 272.585 211.015L279.888 220.422ZM273.726 237.071C276.765 239.728 276.824 236.374 269.603 222.522C266.214 216.035 259.043 202.904 253.172 209.4C247.534 215.666 266.747 230.896 266.747 230.896L273.726 237.071ZM267.063 256.869C270.103 259.535 270.161 256.172 262.941 242.328C259.551 235.841 252.381 222.702 246.51 229.206C240.905 235.488 260.059 250.718 260.059 250.718L267.063 256.869ZM286.301 216.568C281.437 218.438 285.302 220.472 305.614 220.414C315.141 220.414 334.595 219.988 330.448 209.564C326.475 199.55 297.544 212.303 297.544 212.303L286.301 216.568ZM280.763 229.887C275.616 230.764 278.997 233.52 298.918 237.44C308.254 239.286 327.4 242.689 325.443 231.699C323.569 221.103 292.639 227.943 292.639 227.943L280.763 229.887ZM274.567 246.15C270.186 246.773 272.984 249.176 289.732 252.949C297.585 254.72 313.7 258.042 312.301 248.668C310.969 239.646 284.652 244.748 284.652 244.748L274.567 246.15ZM269.861 261.216C265.572 262.29 268.612 264.39 285.685 266.391C293.68 267.326 310.061 268.95 307.671 259.772C305.364 250.964 279.747 258.764 279.747 258.764L269.861 261.216ZM294.962 200.222C292.464 205.734 297.652 204.897 315.291 189.741C323.552 182.631 340.125 167.753 327 160.348C314.4 153.229 300.85 187.576 300.85 187.576L294.962 200.222ZM270.511 280.842C267.871 282.359 270.461 282.95 282.57 280.571C288.25 279.464 299.801 277.004 295.895 272.148C292.114 267.474 276.624 277.315 276.624 277.315L270.511 280.842Z" fill="#FFC727"/>
<path opacity="0.3" d="M283.378 197.762C283.378 197.762 271.768 168.713 282.104 165.26C292.863 161.66 292.389 180.843 291.972 190.192C291.098 210.171 288.858 213.886 287.184 209.006L283.378 197.762ZM279.888 220.422C283.078 224.523 283.977 220.275 278.223 201.092C275.524 192.07 269.662 173.822 260.667 180.67C252.031 187.232 272.585 211.015 272.585 211.015L279.888 220.422ZM273.726 237.071C276.765 239.728 276.824 236.374 269.603 222.522C266.214 216.035 259.043 202.904 253.172 209.4C247.534 215.666 266.747 230.896 266.747 230.896L273.726 237.071ZM267.063 256.869C270.103 259.535 270.161 256.172 262.941 242.328C259.551 235.841 252.381 222.702 246.51 229.206C240.905 235.488 260.059 250.718 260.059 250.718L267.063 256.869ZM286.301 216.568C281.437 218.438 285.302 220.472 305.614 220.414C315.141 220.414 334.595 219.988 330.448 209.564C326.475 199.55 297.544 212.303 297.544 212.303L286.301 216.568ZM280.763 229.887C275.616 230.764 278.997 233.52 298.918 237.44C308.254 239.286 327.4 242.689 325.443 231.699C323.569 221.103 292.639 227.943 292.639 227.943L280.763 229.887ZM274.567 246.15C270.186 246.773 272.984 249.176 289.732 252.949C297.585 254.72 313.7 258.042 312.301 248.668C310.969 239.646 284.652 244.748 284.652 244.748L274.567 246.15ZM269.861 261.216C265.572 262.29 268.612 264.39 285.685 266.391C293.68 267.326 310.061 268.95 307.671 259.772C305.364 250.964 279.747 258.764 279.747 258.764L269.861 261.216ZM294.962 200.222C292.464 205.734 297.652 204.897 315.291 189.741C323.552 182.631 340.125 167.753 327 160.348C314.4 153.229 300.85 187.576 300.85 187.576L294.962 200.222ZM270.511 280.842C267.871 282.359 270.461 282.95 282.57 280.571C288.25 279.464 299.801 277.004 295.895 272.148C292.114 267.474 276.624 277.315 276.624 277.315L270.511 280.842Z" fill="white"/>
<path d="M288.499 211.286L286.476 178.128L288.499 211.286ZM282.095 222.227L269.303 193.711L282.095 222.227ZM315.108 213.935L284.452 218.265L315.108 213.935ZM275.466 237.596L258.868 216.625L275.466 237.596ZM278.381 231.166L301.25 232.298L278.381 231.166ZM272.968 247.249L290.457 248.955L272.968 247.249ZM268.745 257.468L260.059 244.6L268.745 257.468ZM267.746 262.011L288.308 262.2L267.746 262.011ZM263.582 300C263.72 299.99 263.848 299.926 263.938 299.823C264.029 299.72 264.074 299.586 264.065 299.451C262.758 280.112 270.353 248.438 282.537 222.44C290.323 205.824 320.846 173.166 321.17 172.838C321.268 172.741 321.324 172.61 321.324 172.473C321.324 172.336 321.268 172.205 321.17 172.108C321.122 172.061 321.065 172.023 321.002 171.997C320.939 171.971 320.872 171.958 320.804 171.958C320.736 171.958 320.668 171.971 320.605 171.997C320.543 172.023 320.485 172.061 320.437 172.108C320.129 172.436 289.482 205.217 281.629 221.981C269.22 248.61 261.725 279.71 263.057 299.516C263.068 299.647 263.127 299.769 263.224 299.858C263.321 299.948 263.449 299.998 263.582 300ZM288.491 211.795C288.629 211.786 288.758 211.725 288.85 211.623C288.942 211.522 288.989 211.389 288.983 211.253L286.992 178.079C286.989 178.011 286.972 177.945 286.943 177.884C286.913 177.823 286.872 177.768 286.82 177.723C286.769 177.678 286.709 177.644 286.645 177.622C286.58 177.6 286.511 177.59 286.442 177.595C286.305 177.603 286.176 177.665 286.084 177.766C285.992 177.868 285.944 178 285.951 178.136L287.975 211.294C287.981 211.425 288.038 211.548 288.135 211.638C288.231 211.728 288.358 211.778 288.491 211.778V211.795ZM282.278 222.694C282.403 222.639 282.501 222.537 282.551 222.411C282.601 222.286 282.598 222.146 282.545 222.022L269.745 193.506C269.69 193.382 269.587 193.284 269.459 193.235C269.33 193.186 269.188 193.189 269.062 193.243C268.936 193.297 268.837 193.399 268.787 193.525C268.737 193.651 268.74 193.792 268.795 193.916L281.587 222.432C281.627 222.523 281.694 222.601 281.778 222.657C281.862 222.712 281.961 222.742 282.062 222.743C282.148 222.748 282.234 222.731 282.312 222.694H282.278ZM284.494 218.758L315.133 214.444C315.207 214.442 315.279 214.425 315.346 214.394C315.413 214.363 315.473 214.318 315.521 214.263C315.569 214.207 315.604 214.142 315.625 214.072C315.646 214.003 315.652 213.929 315.641 213.857C315.631 213.785 315.606 213.715 315.567 213.654C315.528 213.592 315.476 213.539 315.414 213.498C315.353 213.457 315.283 213.43 315.21 213.418C315.137 213.405 315.063 213.408 314.991 213.427L284.352 217.741C284.215 217.749 284.087 217.811 283.997 217.913C283.906 218.014 283.86 218.147 283.869 218.282C283.878 218.417 283.941 218.543 284.044 218.632C284.147 218.721 284.282 218.766 284.419 218.758H284.494ZM275.758 238.006C275.866 237.922 275.937 237.799 275.954 237.664C275.971 237.529 275.934 237.392 275.849 237.284L259.243 216.273C259.158 216.164 259.033 216.093 258.894 216.075C258.756 216.057 258.617 216.094 258.506 216.178C258.396 216.262 258.323 216.385 258.306 216.522C258.288 216.658 258.325 216.795 258.41 216.904L275.05 237.949C275.098 238.01 275.16 238.06 275.231 238.094C275.301 238.128 275.379 238.146 275.458 238.146C275.582 238.139 275.7 238.09 275.791 238.006H275.758ZM301.708 232.323C301.712 232.187 301.662 232.055 301.569 231.955C301.475 231.855 301.346 231.796 301.208 231.789L278.381 230.649C278.253 230.658 278.132 230.713 278.042 230.803C277.952 230.894 277.899 231.014 277.893 231.14C277.887 231.267 277.928 231.391 278.009 231.489C278.089 231.588 278.204 231.654 278.331 231.675L301.2 232.815C301.337 232.819 301.472 232.77 301.573 232.678C301.674 232.586 301.735 232.458 301.741 232.323H301.708ZM290.94 249.004C290.948 248.937 290.942 248.868 290.923 248.803C290.903 248.738 290.871 248.677 290.828 248.624C290.784 248.571 290.73 248.528 290.67 248.496C290.609 248.464 290.542 248.444 290.473 248.438L272.984 246.741C272.916 246.734 272.848 246.74 272.783 246.76C272.717 246.779 272.657 246.811 272.604 246.854C272.551 246.897 272.508 246.949 272.476 247.009C272.444 247.068 272.424 247.133 272.418 247.2C272.406 247.334 272.449 247.468 272.536 247.572C272.623 247.676 272.748 247.743 272.884 247.757L290.373 249.463H290.423C290.558 249.473 290.69 249.43 290.793 249.344C290.896 249.258 290.96 249.136 290.973 249.004H290.94ZM268.995 257.894C269.111 257.819 269.192 257.702 269.22 257.568C269.248 257.434 269.221 257.295 269.145 257.181L260.501 244.313C260.421 244.202 260.302 244.126 260.167 244.1C260.032 244.074 259.892 244.1 259.776 244.174C259.66 244.249 259.58 244.366 259.552 244.5C259.524 244.634 259.55 244.773 259.626 244.887L268.271 257.755C268.32 257.825 268.386 257.883 268.463 257.923C268.54 257.963 268.625 257.984 268.712 257.985C268.825 257.991 268.936 257.959 269.029 257.894H268.995ZM288.833 262.2C288.831 262.065 288.776 261.936 288.68 261.84C288.583 261.744 288.453 261.688 288.316 261.683L267.754 261.495C267.617 261.495 267.486 261.548 267.389 261.644C267.292 261.739 267.238 261.868 267.238 262.003C267.236 262.071 267.247 262.139 267.273 262.202C267.298 262.265 267.335 262.322 267.384 262.371C267.432 262.419 267.49 262.457 267.553 262.483C267.617 262.508 267.686 262.521 267.754 262.52L288.316 262.709C288.387 262.712 288.457 262.701 288.523 262.677C288.589 262.653 288.649 262.617 288.701 262.569C288.752 262.522 288.793 262.465 288.821 262.401C288.85 262.338 288.865 262.269 288.866 262.2H288.833ZM261.242 292.479C261.283 292.389 264.79 282.876 275.333 280.604C275.469 280.574 275.587 280.493 275.662 280.378C275.737 280.263 275.762 280.123 275.733 279.989C275.699 279.858 275.615 279.744 275.499 279.673C275.382 279.601 275.242 279.576 275.108 279.603C263.99 281.998 260.301 292.045 260.259 292.143C260.216 292.273 260.226 292.414 260.287 292.536C260.347 292.658 260.454 292.753 260.584 292.799H260.75C260.861 292.809 260.972 292.783 261.067 292.725C261.161 292.667 261.234 292.581 261.275 292.479H261.242ZM263.582 300C263.72 299.99 263.848 299.926 263.938 299.823C264.029 299.72 264.074 299.586 264.065 299.451C262.758 280.112 270.353 248.438 282.537 222.44C290.323 205.824 320.846 173.166 321.17 172.838C321.268 172.741 321.324 172.61 321.324 172.473C321.324 172.336 321.268 172.205 321.17 172.108C321.122 172.061 321.065 172.023 321.002 171.997C320.939 171.971 320.872 171.958 320.804 171.958C320.736 171.958 320.668 171.971 320.605 171.997C320.543 172.023 320.485 172.061 320.437 172.108C320.129 172.436 289.482 205.217 281.629 221.981C269.22 248.61 261.725 279.71 263.057 299.516C263.068 299.647 263.127 299.769 263.224 299.858C263.321 299.948 263.449 299.998 263.582 300ZM288.491 211.795C288.629 211.786 288.758 211.725 288.85 211.623C288.942 211.522 288.989 211.389 288.983 211.253L286.992 178.079C286.989 178.011 286.972 177.945 286.943 177.884C286.913 177.823 286.872 177.768 286.82 177.723C286.769 177.678 286.709 177.644 286.645 177.622C286.58 177.6 286.511 177.59 286.442 177.595C286.305 177.603 286.176 177.665 286.084 177.766C285.992 177.868 285.944 178 285.951 178.136L287.975 211.294C287.981 211.425 288.038 211.548 288.135 211.638C288.231 211.728 288.358 211.778 288.491 211.778V211.795ZM282.278 222.694C282.403 222.639 282.501 222.537 282.551 222.411C282.601 222.286 282.598 222.146 282.545 222.022L269.745 193.506C269.69 193.382 269.587 193.284 269.459 193.235C269.33 193.186 269.188 193.189 269.062 193.243C268.936 193.297 268.837 193.399 268.787 193.525C268.737 193.651 268.74 193.792 268.795 193.916L281.587 222.432C281.627 222.523 281.694 222.601 281.778 222.657C281.862 222.712 281.961 222.742 282.062 222.743C282.148 222.748 282.234 222.731 282.312 222.694H282.278ZM284.494 218.758L315.133 214.444C315.207 214.442 315.279 214.425 315.346 214.394C315.413 214.363 315.473 214.318 315.521 214.263C315.569 214.207 315.604 214.142 315.625 214.072C315.646 214.003 315.652 213.929 315.641 213.857C315.631 213.785 315.606 213.715 315.567 213.654C315.528 213.592 315.476 213.539 315.414 213.498C315.353 213.457 315.283 213.43 315.21 213.418C315.137 213.405 315.063 213.408 314.991 213.427L284.352 217.741C284.215 217.749 284.087 217.811 283.997 217.913C283.906 218.014 283.86 218.147 283.869 218.282C283.878 218.417 283.941 218.543 284.044 218.632C284.147 218.721 284.282 218.766 284.419 218.758H284.494ZM275.758 238.006C275.866 237.922 275.937 237.799 275.954 237.664C275.971 237.529 275.934 237.392 275.849 237.284L259.243 216.273C259.201 216.219 259.149 216.173 259.089 216.14C259.029 216.106 258.963 216.084 258.894 216.075C258.826 216.066 258.756 216.071 258.69 216.089C258.623 216.106 258.561 216.137 258.506 216.178C258.451 216.22 258.406 216.271 258.371 216.33C258.337 216.389 258.314 216.454 258.306 216.522C258.297 216.589 258.301 216.657 258.319 216.723C258.337 216.789 258.368 216.85 258.41 216.904L275.05 237.949C275.098 238.01 275.16 238.06 275.231 238.094C275.301 238.128 275.379 238.146 275.458 238.146C275.582 238.139 275.7 238.09 275.791 238.006H275.758ZM301.708 232.323C301.712 232.187 301.662 232.055 301.569 231.955C301.475 231.855 301.346 231.796 301.208 231.789L278.381 230.649C278.253 230.658 278.132 230.713 278.042 230.803C277.952 230.894 277.899 231.014 277.893 231.14C277.887 231.267 277.928 231.391 278.009 231.489C278.089 231.588 278.204 231.654 278.331 231.675L301.2 232.815C301.337 232.819 301.472 232.77 301.573 232.678C301.674 232.586 301.735 232.458 301.741 232.323H301.708ZM290.94 249.004C290.948 248.937 290.942 248.868 290.923 248.803C290.903 248.738 290.871 248.677 290.828 248.624C290.784 248.571 290.73 248.528 290.67 248.496C290.609 248.464 290.542 248.444 290.473 248.438L272.984 246.741C272.916 246.734 272.848 246.74 272.783 246.76C272.717 246.779 272.657 246.811 272.604 246.854C272.551 246.897 272.508 246.949 272.476 247.009C272.444 247.068 272.424 247.133 272.418 247.2C272.406 247.334 272.449 247.468 272.536 247.572C272.623 247.676 272.748 247.743 272.884 247.757L290.373 249.463H290.423C290.558 249.473 290.69 249.43 290.793 249.344C290.896 249.258 290.96 249.136 290.973 249.004H290.94ZM268.995 257.894C269.111 257.819 269.192 257.702 269.22 257.568C269.248 257.434 269.221 257.295 269.145 257.181L260.501 244.313C260.421 244.202 260.302 244.126 260.167 244.1C260.032 244.074 259.892 244.1 259.776 244.174C259.66 244.249 259.58 244.366 259.552 244.5C259.524 244.634 259.55 244.773 259.626 244.887L268.271 257.755C268.32 257.825 268.386 257.883 268.463 257.923C268.54 257.963 268.625 257.984 268.712 257.985C268.825 257.991 268.936 257.959 269.029 257.894H268.995ZM288.833 262.2C288.831 262.065 288.776 261.936 288.68 261.84C288.583 261.744 288.453 261.688 288.316 261.683L267.754 261.495C267.617 261.495 267.486 261.548 267.389 261.644C267.292 261.739 267.238 261.868 267.238 262.003C267.236 262.071 267.247 262.139 267.273 262.202C267.298 262.265 267.335 262.322 267.384 262.371C267.432 262.419 267.49 262.457 267.553 262.483C267.617 262.508 267.686 262.521 267.754 262.52L288.316 262.709C288.387 262.712 288.457 262.701 288.523 262.677C288.589 262.653 288.649 262.617 288.701 262.569C288.752 262.522 288.793 262.465 288.821 262.401C288.85 262.338 288.865 262.269 288.866 262.2H288.833ZM261.242 292.479C261.283 292.389 264.79 282.876 275.333 280.604C275.469 280.574 275.587 280.493 275.662 280.378C275.737 280.263 275.762 280.123 275.733 279.989C275.699 279.858 275.615 279.744 275.499 279.673C275.382 279.601 275.242 279.576 275.108 279.603C263.99 281.998 260.301 292.045 260.259 292.143C260.216 292.273 260.226 292.414 260.287 292.536C260.347 292.658 260.454 292.753 260.584 292.799H260.75C260.861 292.809 260.972 292.783 261.067 292.725C261.161 292.667 261.234 292.581 261.275 292.479H261.242Z" fill="#FFC727"/>
<path opacity="0.2" d="M288.499 211.286L286.476 178.128L288.499 211.286ZM282.095 222.227L269.303 193.711L282.095 222.227ZM315.108 213.935L284.452 218.265L315.108 213.935ZM275.466 237.596L258.868 216.625L275.466 237.596ZM278.381 231.166L301.25 232.298L278.381 231.166ZM272.968 247.249L290.457 248.955L272.968 247.249ZM268.745 257.468L260.059 244.6L268.745 257.468ZM267.746 262.011L288.308 262.2L267.746 262.011ZM263.582 300C263.72 299.99 263.848 299.926 263.938 299.823C264.029 299.72 264.074 299.586 264.065 299.451C262.758 280.112 270.353 248.438 282.537 222.44C290.323 205.824 320.846 173.166 321.17 172.838C321.268 172.741 321.324 172.61 321.324 172.473C321.324 172.336 321.268 172.205 321.17 172.108C321.122 172.061 321.065 172.023 321.002 171.997C320.939 171.971 320.872 171.958 320.804 171.958C320.736 171.958 320.668 171.971 320.605 171.997C320.543 172.023 320.485 172.061 320.437 172.108C320.129 172.436 289.482 205.217 281.629 221.981C269.22 248.61 261.725 279.71 263.057 299.516C263.068 299.647 263.127 299.769 263.224 299.858C263.321 299.948 263.449 299.998 263.582 300ZM288.491 211.795C288.629 211.786 288.758 211.725 288.85 211.623C288.942 211.522 288.989 211.389 288.983 211.253L286.992 178.079C286.989 178.011 286.972 177.945 286.943 177.884C286.913 177.823 286.872 177.768 286.82 177.723C286.769 177.678 286.709 177.644 286.645 177.622C286.58 177.6 286.511 177.59 286.442 177.595C286.305 177.603 286.176 177.665 286.084 177.766C285.992 177.868 285.944 178 285.951 178.136L287.975 211.294C287.981 211.425 288.038 211.548 288.135 211.638C288.231 211.728 288.358 211.778 288.491 211.778V211.795ZM282.278 222.694C282.403 222.639 282.501 222.537 282.551 222.411C282.601 222.286 282.598 222.146 282.545 222.022L269.745 193.506C269.69 193.382 269.587 193.284 269.459 193.235C269.33 193.186 269.188 193.189 269.062 193.243C268.936 193.297 268.837 193.399 268.787 193.525C268.737 193.651 268.74 193.792 268.795 193.916L281.587 222.432C281.627 222.523 281.694 222.601 281.778 222.657C281.862 222.712 281.961 222.742 282.062 222.743C282.148 222.748 282.234 222.731 282.312 222.694H282.278ZM284.494 218.758L315.133 214.444C315.207 214.442 315.279 214.425 315.346 214.394C315.413 214.363 315.473 214.318 315.521 214.263C315.569 214.207 315.604 214.142 315.625 214.072C315.646 214.003 315.652 213.929 315.641 213.857C315.631 213.785 315.606 213.715 315.567 213.654C315.528 213.592 315.476 213.539 315.414 213.498C315.353 213.457 315.283 213.43 315.21 213.418C315.137 213.405 315.063 213.408 314.991 213.427L284.352 217.741C284.215 217.749 284.087 217.811 283.997 217.913C283.906 218.014 283.86 218.147 283.869 218.282C283.878 218.417 283.941 218.543 284.044 218.632C284.147 218.721 284.282 218.766 284.419 218.758H284.494ZM275.758 238.006C275.866 237.922 275.937 237.799 275.954 237.664C275.971 237.529 275.934 237.392 275.849 237.284L259.243 216.273C259.158 216.164 259.033 216.093 258.894 216.075C258.756 216.057 258.617 216.094 258.506 216.178C258.396 216.262 258.323 216.385 258.306 216.522C258.288 216.658 258.325 216.795 258.41 216.904L275.05 237.949C275.098 238.01 275.16 238.06 275.231 238.094C275.301 238.128 275.379 238.146 275.458 238.146C275.582 238.139 275.7 238.09 275.791 238.006H275.758ZM301.708 232.323C301.712 232.187 301.662 232.055 301.569 231.955C301.475 231.855 301.346 231.796 301.208 231.789L278.381 230.649C278.253 230.658 278.132 230.713 278.042 230.803C277.952 230.894 277.899 231.014 277.893 231.14C277.887 231.267 277.928 231.391 278.009 231.489C278.089 231.588 278.204 231.654 278.331 231.675L301.2 232.815C301.337 232.819 301.472 232.77 301.573 232.678C301.674 232.586 301.735 232.458 301.741 232.323H301.708ZM290.94 249.004C290.948 248.937 290.942 248.868 290.923 248.803C290.903 248.738 290.871 248.677 290.828 248.624C290.784 248.571 290.73 248.528 290.67 248.496C290.609 248.464 290.542 248.444 290.473 248.438L272.984 246.741C272.916 246.734 272.848 246.74 272.783 246.76C272.717 246.779 272.657 246.811 272.604 246.854C272.551 246.897 272.508 246.949 272.476 247.009C272.444 247.068 272.424 247.133 272.418 247.2C272.406 247.334 272.449 247.468 272.536 247.572C272.623 247.676 272.748 247.743 272.884 247.757L290.373 249.463H290.423C290.558 249.473 290.69 249.43 290.793 249.344C290.896 249.258 290.96 249.136 290.973 249.004H290.94ZM268.995 257.894C269.111 257.819 269.192 257.702 269.22 257.568C269.248 257.434 269.221 257.295 269.145 257.181L260.501 244.313C260.421 244.202 260.302 244.126 260.167 244.1C260.032 244.074 259.892 244.1 259.776 244.174C259.66 244.249 259.58 244.366 259.552 244.5C259.524 244.634 259.55 244.773 259.626 244.887L268.271 257.755C268.32 257.825 268.386 257.883 268.463 257.923C268.54 257.963 268.625 257.984 268.712 257.985C268.825 257.991 268.936 257.959 269.029 257.894H268.995ZM288.833 262.2C288.831 262.065 288.776 261.936 288.68 261.84C288.583 261.744 288.453 261.688 288.316 261.683L267.754 261.495C267.617 261.495 267.486 261.548 267.389 261.644C267.292 261.739 267.238 261.868 267.238 262.003C267.236 262.071 267.247 262.139 267.273 262.202C267.298 262.265 267.335 262.322 267.384 262.371C267.432 262.419 267.49 262.457 267.553 262.483C267.617 262.508 267.686 262.521 267.754 262.52L288.316 262.709C288.387 262.712 288.457 262.701 288.523 262.677C288.589 262.653 288.649 262.617 288.701 262.569C288.752 262.522 288.793 262.465 288.821 262.401C288.85 262.338 288.865 262.269 288.866 262.2H288.833ZM261.242 292.479C261.283 292.389 264.79 282.876 275.333 280.604C275.469 280.574 275.587 280.493 275.662 280.378C275.737 280.263 275.762 280.123 275.733 279.989C275.699 279.858 275.615 279.744 275.499 279.673C275.382 279.601 275.242 279.576 275.108 279.603C263.99 281.998 260.301 292.045 260.259 292.143C260.216 292.273 260.226 292.414 260.287 292.536C260.347 292.658 260.454 292.753 260.584 292.799H260.75C260.861 292.809 260.972 292.783 261.067 292.725C261.161 292.667 261.234 292.581 261.275 292.479H261.242ZM263.582 300C263.72 299.99 263.848 299.926 263.938 299.823C264.029 299.72 264.074 299.586 264.065 299.451C262.758 280.112 270.353 248.438 282.537 222.44C290.323 205.824 320.846 173.166 321.17 172.838C321.268 172.741 321.324 172.61 321.324 172.473C321.324 172.336 321.268 172.205 321.17 172.108C321.122 172.061 321.065 172.023 321.002 171.997C320.939 171.971 320.872 171.958 320.804 171.958C320.736 171.958 320.668 171.971 320.605 171.997C320.543 172.023 320.485 172.061 320.437 172.108C320.129 172.436 289.482 205.217 281.629 221.981C269.22 248.61 261.725 279.71 263.057 299.516C263.068 299.647 263.127 299.769 263.224 299.858C263.321 299.948 263.449 299.998 263.582 300ZM288.491 211.795C288.629 211.786 288.758 211.725 288.85 211.623C288.942 211.522 288.989 211.389 288.983 211.253L286.992 178.079C286.989 178.011 286.972 177.945 286.943 177.884C286.913 177.823 286.872 177.768 286.82 177.723C286.769 177.678 286.709 177.644 286.645 177.622C286.58 177.6 286.511 177.59 286.442 177.595C286.305 177.603 286.176 177.665 286.084 177.766C285.992 177.868 285.944 178 285.951 178.136L287.975 211.294C287.981 211.425 288.038 211.548 288.135 211.638C288.231 211.728 288.358 211.778 288.491 211.778V211.795ZM282.278 222.694C282.403 222.639 282.501 222.537 282.551 222.411C282.601 222.286 282.598 222.146 282.545 222.022L269.745 193.506C269.69 193.382 269.587 193.284 269.459 193.235C269.33 193.186 269.188 193.189 269.062 193.243C268.936 193.297 268.837 193.399 268.787 193.525C268.737 193.651 268.74 193.792 268.795 193.916L281.587 222.432C281.627 222.523 281.694 222.601 281.778 222.657C281.862 222.712 281.961 222.742 282.062 222.743C282.148 222.748 282.234 222.731 282.312 222.694H282.278ZM284.494 218.758L315.133 214.444C315.207 214.442 315.279 214.425 315.346 214.394C315.413 214.363 315.473 214.318 315.521 214.263C315.569 214.207 315.604 214.142 315.625 214.072C315.646 214.003 315.652 213.929 315.641 213.857C315.631 213.785 315.606 213.715 315.567 213.654C315.528 213.592 315.476 213.539 315.414 213.498C315.353 213.457 315.283 213.43 315.21 213.418C315.137 213.405 315.063 213.408 314.991 213.427L284.352 217.741C284.215 217.749 284.087 217.811 283.997 217.913C283.906 218.014 283.86 218.147 283.869 218.282C283.878 218.417 283.941 218.543 284.044 218.632C284.147 218.721 284.282 218.766 284.419 218.758H284.494ZM275.758 238.006C275.866 237.922 275.937 237.799 275.954 237.664C275.971 237.529 275.934 237.392 275.849 237.284L259.243 216.273C259.201 216.219 259.149 216.173 259.089 216.14C259.029 216.106 258.963 216.084 258.894 216.075C258.826 216.066 258.756 216.071 258.69 216.089C258.623 216.106 258.561 216.137 258.506 216.178C258.451 216.22 258.406 216.271 258.371 216.33C258.337 216.389 258.314 216.454 258.306 216.522C258.297 216.589 258.301 216.657 258.319 216.723C258.337 216.789 258.368 216.85 258.41 216.904L275.05 237.949C275.098 238.01 275.16 238.06 275.231 238.094C275.301 238.128 275.379 238.146 275.458 238.146C275.582 238.139 275.7 238.09 275.791 238.006H275.758ZM301.708 232.323C301.712 232.187 301.662 232.055 301.569 231.955C301.475 231.855 301.346 231.796 301.208 231.789L278.381 230.649C278.253 230.658 278.132 230.713 278.042 230.803C277.952 230.894 277.899 231.014 277.893 231.14C277.887 231.267 277.928 231.391 278.009 231.489C278.089 231.588 278.204 231.654 278.331 231.675L301.2 232.815C301.337 232.819 301.472 232.77 301.573 232.678C301.674 232.586 301.735 232.458 301.741 232.323H301.708ZM290.94 249.004C290.948 248.937 290.942 248.868 290.923 248.803C290.903 248.738 290.871 248.677 290.828 248.624C290.784 248.571 290.73 248.528 290.67 248.496C290.609 248.464 290.542 248.444 290.473 248.438L272.984 246.741C272.916 246.734 272.848 246.74 272.783 246.76C272.717 246.779 272.657 246.811 272.604 246.854C272.551 246.897 272.508 246.949 272.476 247.009C272.444 247.068 272.424 247.133 272.418 247.2C272.406 247.334 272.449 247.468 272.536 247.572C272.623 247.676 272.748 247.743 272.884 247.757L290.373 249.463H290.423C290.558 249.473 290.69 249.43 290.793 249.344C290.896 249.258 290.96 249.136 290.973 249.004H290.94ZM268.995 257.894C269.111 257.819 269.192 257.702 269.22 257.568C269.248 257.434 269.221 257.295 269.145 257.181L260.501 244.313C260.421 244.202 260.302 244.126 260.167 244.1C260.032 244.074 259.892 244.1 259.776 244.174C259.66 244.249 259.58 244.366 259.552 244.5C259.524 244.634 259.55 244.773 259.626 244.887L268.271 257.755C268.32 257.825 268.386 257.883 268.463 257.923C268.54 257.963 268.625 257.984 268.712 257.985C268.825 257.991 268.936 257.959 269.029 257.894H268.995ZM288.833 262.2C288.831 262.065 288.776 261.936 288.68 261.84C288.583 261.744 288.453 261.688 288.316 261.683L267.754 261.495C267.617 261.495 267.486 261.548 267.389 261.644C267.292 261.739 267.238 261.868 267.238 262.003C267.236 262.071 267.247 262.139 267.273 262.202C267.298 262.265 267.335 262.322 267.384 262.371C267.432 262.419 267.49 262.457 267.553 262.483C267.617 262.508 267.686 262.521 267.754 262.52L288.316 262.709C288.387 262.712 288.457 262.701 288.523 262.677C288.589 262.653 288.649 262.617 288.701 262.569C288.752 262.522 288.793 262.465 288.821 262.401C288.85 262.338 288.865 262.269 288.866 262.2H288.833ZM261.242 292.479C261.283 292.389 264.79 282.876 275.333 280.604C275.469 280.574 275.587 280.493 275.662 280.378C275.737 280.263 275.762 280.123 275.733 279.989C275.699 279.858 275.615 279.744 275.499 279.673C275.382 279.601 275.242 279.576 275.108 279.603C263.99 281.998 260.301 292.045 260.259 292.143C260.216 292.273 260.226 292.414 260.287 292.536C260.347 292.658 260.454 292.753 260.584 292.799H260.75C260.861 292.809 260.972 292.783 261.067 292.725C261.161 292.667 261.234 292.581 261.275 292.479H261.242Z" fill="black"/>
<path d="M277.182 285.541H253.605V290.347H255.662L259.918 316.567H270.869L275.125 290.347H277.182V285.541Z" fill="#FFC727"/>
<path opacity="0.3" d="M277.182 285.541H253.605V290.347H255.662L259.918 316.567H270.869L275.125 290.347H277.182V285.541Z" fill="white"/>
<path d="M64.9168 140.213L37.4926 131.397L35.0524 125.049L29.481 124.877L19.3708 122.99L20.5867 125.049L33.3119 134.144L36.4516 135.686L65.1333 150.44L64.9168 140.213Z" fill="white" stroke="#263238" stroke-width="1.00396" stroke-miterlimit="10"/>
<path d="M35.0525 125.049L32.4375 123.507L27.2158 125.393L28.0819 126.419L35.0525 125.049Z" fill="white" stroke="#263238" stroke-width="1.00396" stroke-linejoin="round"/>
<path d="M64.9168 140.213L37.4926 131.397L35.0524 125.049L29.481 124.877L19.3708 122.99L20.5867 125.049L33.3119 134.144L36.4516 135.686L65.1333 150.44L64.9168 140.213Z" fill="white"/>
<path opacity="0.5" d="M64.9168 140.213L37.4926 131.397L35.0524 125.049L29.481 124.877L19.3708 122.99L20.5867 125.049L33.3119 134.144L36.4516 135.686L65.1333 150.44L64.9168 140.213Z" fill="#FFC727" stroke="#263238" stroke-width="1.00396" stroke-miterlimit="10"/>
<path d="M64.9168 140.213L37.4926 131.397L35.0524 125.049L29.481 124.877L19.3708 122.99L20.5867 125.049L33.3119 134.144L36.4516 135.686L65.1333 150.44L64.9168 140.213Z" stroke="#263238" stroke-width="1.00396" stroke-miterlimit="10"/>
<path d="M35.0525 125.049L32.4375 123.507L27.2158 125.393L28.0819 126.419L35.0525 125.049Z" fill="white"/>
<path opacity="0.5" d="M35.0525 125.049L32.4375 123.507L27.2158 125.393L28.0819 126.419L35.0525 125.049Z" fill="#FFC727" stroke="#263238" stroke-width="1.00396" stroke-linejoin="round"/>
<path d="M35.0525 125.049L32.4375 123.507L27.2158 125.393L28.0819 126.419L35.0525 125.049Z" stroke="#263238" stroke-width="1.00396" stroke-linejoin="round"/>
<path d="M70.7381 82.9924C70.7381 82.9924 70.3134 86.683 71.3711 89.0532C72.4287 91.4233 78.3 99.4525 78.3 99.4525L67.3403 108.105C67.3403 108.105 62.7932 99.0834 61.9271 97.6236C61.061 96.1637 60.02 89.8815 62.8432 85.379C65.6664 80.8764 69.7305 79.6626 70.7381 82.9924Z" fill="white"/>
<g style="mix-blend-mode:multiply" opacity="0.5">
<path d="M65.1083 94.8515L69.8636 104.562L67.3319 108.113L62.5516 99.7067L65.1083 94.8515Z" fill="#FFC727"/>
</g>
<path d="M70.7381 82.9924C70.7381 82.9924 70.3134 86.683 71.3711 89.0532C72.4287 91.4233 78.3 99.4525 78.3 99.4525L67.3403 108.105C67.3403 108.105 62.7932 99.0834 61.9271 97.6236C61.061 96.1637 60.02 89.8815 62.8432 85.379C65.6664 80.8764 69.7305 79.6626 70.7381 82.9924Z" stroke="#263238" stroke-width="1.00396" stroke-miterlimit="10"/>
<path d="M74.1359 76.2346C73.4613 72.1339 68.6894 63.7931 61.1192 64.113C56.2056 64.3262 53.9071 65.3022 51.7751 66.4914C50.0373 67.4997 48.4174 68.6933 46.9449 70.0508C43.2472 74.4221 41.948 75.6195 42.6643 78.9656C42.6055 80.3003 42.8179 81.6331 43.2889 82.8859C44.4215 85.8629 45.196 87.8067 46.1787 89.2255C45.8789 90.6115 45.096 94.2693 45.0544 95.1059C45.0128 95.9424 47.5528 95.3601 48.8353 95.0403C51.2172 100.289 55.581 103.931 56.9385 104.349C59.3037 105.079 63.043 101.249 65.025 98.2798C67.0071 95.3109 65.5081 91.973 65.5164 90.6443C65.5247 89.3157 69.9719 86.396 71.6208 85.4693C73.2698 84.5425 74.8021 80.327 74.1359 76.2346Z" fill="white"/>
<g style="mix-blend-mode:multiply" opacity="0.5">
<path d="M42.6976 78.9656C42.6388 80.3003 42.8512 81.6331 43.3222 82.8859C44.4548 85.8629 45.2293 87.8067 46.212 89.2255C45.9122 90.6115 45.1294 94.2693 45.0878 95.1059C45.0461 95.9424 47.5862 95.3601 48.8687 95.0403C51.2505 100.289 55.6144 103.931 56.9719 104.349C59.337 105.079 63.0763 101.249 65.0584 98.2798C65.5536 97.5386 65.8751 96.6981 65.9995 95.8194C65.8912 95.4339 65.8163 95.1961 65.8163 95.1961C65.8163 95.1961 64.7003 99.4198 62.485 98.8703C60.2698 98.3208 56.8803 93.9495 54.9898 92.4404C53.0993 90.9314 53.8738 88.9467 53.4991 86.6995C53.1243 84.4523 47.5279 82.4758 47.1531 81.1882C46.7783 79.9006 48.0859 74.5697 48.0859 74.5697C48.0859 74.5697 50.2095 71.7812 49.7515 72.9294C49.4277 73.925 49.3103 74.9745 49.4061 76.0156C49.502 77.0567 49.8092 78.0682 50.3094 78.9902C50.6605 79.7177 51.2174 80.3299 51.9132 80.7533C52.609 81.1767 53.4142 81.3932 54.2319 81.3768L56.264 71.4614L51.975 67.9676L46.9782 70.0179C43.2473 74.4221 41.9731 75.6195 42.6976 78.9656Z" fill="#FFC727"/>
</g>
<path d="M74.1359 76.2346C73.4613 72.1339 68.6894 63.7931 61.1192 64.113C56.2056 64.3262 53.9071 65.3022 51.7751 66.4914C50.0373 67.4997 48.4174 68.6933 46.9449 70.0508C43.2472 74.4221 41.948 75.6195 42.6643 78.9656C42.6055 80.3003 42.8179 81.6331 43.2889 82.8859C44.4215 85.8629 45.196 87.8067 46.1787 89.2255C45.8789 90.6115 45.096 94.2693 45.0544 95.1059C45.0128 95.9424 47.5528 95.3601 48.8353 95.0403C51.2172 100.289 55.581 103.931 56.9385 104.349C59.3037 105.079 63.043 101.249 65.025 98.2798C67.0071 95.3109 65.5081 91.973 65.5164 90.6443C65.5247 89.3157 69.9719 86.396 71.6208 85.4693C73.2698 84.5425 74.8021 80.327 74.1359 76.2346Z" stroke="#263238" stroke-miterlimit="10"/>
<path d="M47.2114 86.7486L48.0442 89.0942C48.0442 89.0942 49.8348 89.6765 52.0167 87.3309" stroke="#263238" stroke-miterlimit="10" stroke-linecap="round"/>
<path d="M53.3658 97.7057C53.3658 97.7057 55.3479 97.5089 56.1474 94.7696" stroke="#263238" stroke-miterlimit="10" stroke-linecap="round"/>
<path d="M45.8206 84.7885C45.8206 84.7885 46.4119 83.0252 49.9846 83.0252" stroke="#263238" stroke-miterlimit="10" stroke-linecap="round"/>
<path d="M64.134 60.8488C61.5379 60.4812 58.9199 60.2839 56.2973 60.2583C56.2973 60.2583 48.4523 55.805 40.9154 60.5535C33.3785 65.3021 37.0012 73.6183 37.0012 75.6932C37.0012 77.7682 34.5861 77.7764 36.0935 80.45C37.6008 83.1237 42.6976 81.6474 42.6976 81.6474C42.7515 80.639 43.0221 79.6533 43.4915 78.7556C43.961 77.8578 44.6186 77.0684 45.4209 76.4396C48.1358 74.3646 50.3011 73.9135 51.2005 74.5122C51.2005 74.5122 50.6009 78.9656 51.5003 80.7453C51.5003 80.7453 54.5151 82.2297 55.4228 82.2297C56.3306 82.2297 54.8315 83.4845 57.838 84.5999C58.3857 84.7936 58.9716 84.8596 59.5496 84.7928C60.1276 84.7259 60.682 84.5279 61.1692 84.2144C61.6106 82.4101 62.5766 79.6955 64.3755 80.327C67.0155 81.2537 69.4223 87.6508 65.8495 89.8324C70.1468 90.6033 75.3518 83.1155 75.66 76.2919C75.9681 69.4684 68.5978 61.6197 64.134 60.8488Z" fill="#263238"/>
<path d="M51.3338 71.5843C51.3338 71.5843 53.549 70.4115 56.264 72.9212C58.9789 75.4308 64.2589 78.7851 71.2544 76.9398" stroke="white" stroke-width="0.5" stroke-linecap="round" stroke-linejoin="round"/>
<path d="M51.0256 69.575C51.0256 69.575 52.5496 67.2294 55.098 67.2294C57.6464 67.2294 63.6009 70.7478 68.3562 70.7478" stroke="white" stroke-width="0.5" stroke-linecap="round" stroke-linejoin="round"/>
<path d="M49.2934 74.094C49.2934 74.094 46.4036 70.5838 43.6886 73.4296C40.9737 76.2755 42.6976 78.9655 42.6976 78.9655" stroke="white" stroke-width="0.5" stroke-linecap="round" stroke-linejoin="round"/>
<path d="M37.7424 76.4395C39.3984 74.9688 40.4279 72.9353 40.6239 70.7478C40.9653 67.0653 46.0704 63.8832 49.2934 66.9013" stroke="white" stroke-width="0.5" stroke-linecap="round" stroke-linejoin="round"/>
<path d="M43.0056 63.0468C43.0056 63.0468 48.1107 58.1916 52.358 64.3836" stroke="white" stroke-width="0.5" stroke-linecap="round" stroke-linejoin="round"/>
<path d="M84.5543 301.763C84.5543 301.763 87.6939 306.569 87.3442 309.661L87.0027 312.753C87.0027 312.753 75.485 315.862 73.0449 315.862C70.6048 315.862 57.688 314.656 57.688 314.656L57.13 312.474C57.091 312.313 57.1094 312.144 57.1822 311.995C57.255 311.845 57.3777 311.725 57.5298 311.654L69.0475 306.364L72.6785 302.452L84.5543 301.763Z" fill="white" stroke="#263238" stroke-width="1.00396" stroke-miterlimit="10"/>
<path d="M74.7938 313.442C77.9168 313.68 83.8463 311.802 87.2858 310.605L87.0443 312.753C87.0443 312.753 75.485 315.862 73.0449 315.862C70.6048 315.862 57.688 314.656 57.688 314.656L57.2882 313.098C59.3536 313.106 70.6631 313.131 74.7938 313.442Z" fill="#FFC727" stroke="#263238" stroke-width="1.00396" stroke-miterlimit="10"/>
<path d="M69.0642 306.364L52.2998 313.549C52.2998 313.549 50.8674 317.084 52.2998 317.789C53.7322 318.494 84.9624 317.789 84.9624 317.789C84.9624 317.789 87.1193 312.204 83.7132 308.456C80.307 304.708 69.0642 306.364 69.0642 306.364Z" fill="white" stroke="#263238" stroke-width="1.00396" stroke-miterlimit="10"/>
<path d="M84.9624 317.789C84.9624 317.789 53.7322 318.494 52.2998 317.789C51.6086 317.444 51.5836 316.452 51.7418 315.509H85.512C85.4017 316.284 85.2177 317.048 84.9624 317.789Z" fill="#FFC727" stroke="#263238" stroke-width="1.00396" stroke-miterlimit="10"/>
<path d="M61.1358 181.532C61.1358 181.532 56.7553 200.649 55.098 212.607C53.4407 224.564 52.4664 248.52 52.8161 251.268C53.1659 254.015 70.6048 300.049 70.6048 300.049L72.3454 304.15L84.5543 301.747C84.5543 301.747 78.9745 284.229 76.8842 274.609C74.7938 264.989 70.2217 249.185 70.2217 246.437C70.2217 243.69 81.0482 191.217 81.8227 187.773C82.5972 184.328 86.1116 179.038 86.1116 179.038L62.7348 178.571L61.1358 181.532Z" fill="#FFC727" stroke="#263238" stroke-width="1.00396" stroke-miterlimit="10"/>
<path d="M61.1359 181.532C61.1359 181.532 58.5709 198.992 59.6285 211.13C60.6862 223.268 62.9597 249.111 62.9597 252.957C62.9597 256.804 69.264 279.776 69.6222 286.993C70.1801 297.417 69.3973 302.575 69.3973 302.575L69.0225 306.356C69.0225 306.356 76.3762 307.39 77.9835 307.841C79.8399 308.312 81.7557 308.516 83.6715 308.448C83.6715 308.448 86.3448 296.859 86.3448 286.985C86.3448 277.11 84.1212 256.787 83.0136 248.553C81.906 240.319 85.3954 208.555 87.3775 202.626C89.3596 196.696 93.6901 184.14 90.7753 177.726C87.8605 171.313 61.1359 181.532 61.1359 181.532Z" fill="#FFC727" stroke="#263238" stroke-width="1.00396" stroke-miterlimit="10"/>
<path d="M94.015 174.511L93.7485 182.319C93.7485 182.319 89.0015 183.246 82.6056 184.337C77.3256 185.239 64.0674 184.099 59.6036 183.672C59.1968 183.637 58.8207 183.444 58.5571 183.137C58.2936 182.83 58.1638 182.433 58.1962 182.032L58.6292 174.979L94.015 174.511Z" fill="#263238"/>
<path d="M75.4601 96.6805C75.4601 96.6805 67.9648 104.66 65.1416 109.622C62.3184 114.584 61.2025 122.187 60.1448 128.174C59.0872 134.161 61.952 148.218 61.1442 154.672L58.5875 175.003C58.5875 175.003 58.0378 176.381 59.8783 177.89C61.7188 179.399 70.7048 179.949 78.8246 180.351C81.7894 180.498 90.6421 178.62 92.0912 178.53C93.84 178.423 93.8983 176.234 93.9733 174.511C94.3231 166.417 95.8055 144.839 96.7798 135.44C98.7869 116.274 87.8022 97.7713 75.4601 96.6805Z" fill="white" stroke="#263238" stroke-width="1.00396" stroke-miterlimit="10"/>
<g style="mix-blend-mode:multiply">
<path d="M95.8637 146.34C96.1969 142.083 96.53 138.22 96.8215 135.44C96.9048 134.62 96.9547 133.8 96.9964 132.98L77.084 136.26L59.9782 130.519C59.9801 134.005 60.1803 137.488 60.5779 140.951L77.3588 145.577L95.8637 146.34Z" fill="#FFC727"/>
</g>
<g style="mix-blend-mode:multiply">
<path d="M74.7189 97.4842C73.5863 98.7226 71.3377 101.24 69.1974 103.914L81.8393 116.569L86.0034 114.928L74.7189 97.4842Z" fill="#FFC727"/>
</g>
<path d="M75.4601 96.6805C75.4601 96.6805 67.9648 104.66 65.1416 109.622C64.3045 111.13 63.6264 112.719 63.1179 114.363L78.1917 97.2136C77.3011 96.9479 76.3862 96.7693 75.4601 96.6805Z" fill="#263238"/>
<g style="mix-blend-mode:multiply">
<path d="M60.7278 124.942L77.084 130.24L96.9464 127.993C96.6351 123.121 95.5358 118.328 93.6901 113.797L77.6753 120.12L63.3594 113.731C62.1888 117.395 61.3089 121.144 60.7278 124.942Z" fill="#FFC727"/>
</g>
<g style="mix-blend-mode:multiply">
<path d="M88.885 166.417C80.5892 167.788 72.077 167.103 64.1174 164.424L60.1283 163.079L58.8874 172.92L63.4345 174.175C72.0787 176.555 81.1134 177.241 90.0259 176.193L93.6986 175.758C93.8897 175.359 93.9973 174.927 94.015 174.487C94.1149 172.297 94.2898 169.115 94.5147 165.465L88.885 166.417Z" fill="#FFC727"/>
</g>
<g style="mix-blend-mode:multiply">
<path d="M91.1084 153.016C82.8123 154.393 74.2981 153.705 66.3408 151.014L61.2607 149.3C61.3867 151.087 61.3617 152.881 61.1858 154.664L60.5945 159.396L65.6579 160.79C74.2988 163.173 83.3308 163.861 92.241 162.816L94.7395 162.521C94.9477 159.24 95.1892 155.747 95.4473 152.294L91.1084 153.016Z" fill="#FFC727"/>
</g>
<path d="M12.9759 118.334L29.0784 131.084L29.7725 130.233L13.6699 117.484L12.9759 118.334Z" fill="#263238"/>
<path d="M83.2135 105.53C83.2135 105.53 89.1181 109.491 89.2513 118.849C89.3096 122.949 88.8766 126.779 87.9188 133.496C86.9611 140.213 81.0149 162.086 76.3845 164.743C71.7541 167.401 64.567 162.381 64.567 162.381L29.8058 139.656L21.4028 132.971L17.2388 125.229L18.5463 122.769L28.7981 130.511L23.2767 125.484L24.3593 124.13L26.358 125.5L32.1876 127.649L33.4618 135.85L35.2607 137.064L68.5145 149.03C68.5145 149.03 68.0981 131.405 68.4063 128.034C68.7144 124.663 69.1391 116.191 72.8034 110.049" fill="white"/>
<g style="mix-blend-mode:multiply" opacity="0.5">
<path d="M68.2812 135.711C68.2812 141.796 68.4894 149.03 68.4894 149.03L35.2689 137.113L33.4701 135.899L32.1959 127.698L26.3663 125.549L24.3759 124.155L23.2932 125.508L28.798 130.511L18.5462 122.769L17.3054 125.188L21.4694 132.93L29.8724 139.656L31.9877 141.042L77.9168 155.615L68.2812 135.711Z" fill="#FFC727"/>
</g>
<path d="M83.2135 105.53C83.2135 105.53 89.1181 109.491 89.2513 118.849C89.3096 122.949 88.8766 126.779 87.9188 133.496C86.9611 140.213 81.0149 162.086 76.3845 164.743C71.7541 167.401 64.567 162.381 64.567 162.381L29.8058 139.656L21.4028 132.971L17.2388 125.229L18.5463 122.769L28.7981 130.511L23.2767 125.484L24.3593 124.13L26.358 125.5L32.1876 127.649L33.4618 135.85L35.2607 137.064L68.5145 149.03C68.5145 149.03 68.0981 131.405 68.4063 128.034C68.7144 124.663 69.1391 116.191 72.8034 110.049" stroke="#263238" stroke-width="1.00396" stroke-miterlimit="10"/>
<path d="M68.5145 149.03L81.2064 158.051L84.496 152.31C84.496 152.31 86.7695 150.547 87.1027 149.218C87.4358 147.89 87.011 145.733 87.3525 144.404C87.6939 143.076 89.3929 141.829 89.5511 138.614C89.7093 135.399 89.5511 132.717 89.5511 132.717C89.5511 132.717 92.2993 121.588 91.9995 116.749C91.6997 111.91 86.9611 103.356 83.1635 103.168C79.3659 102.979 74.4274 103.545 70.5965 109.253C66.7656 114.961 67.5484 131.626 66.9488 132.668C66.3492 133.71 67.182 138.852 67.182 138.852C66.8492 139.096 66.573 139.408 66.372 139.766C66.171 140.123 66.0496 140.519 66.0161 140.927C65.9495 142.264 67.4152 145.552 67.4152 145.552L68.5145 149.03Z" fill="white" stroke="#263238" stroke-width="1.00396" stroke-miterlimit="10"/>
<g style="mix-blend-mode:multiply">
<path d="M67.282 128.387C67.3081 129.818 67.1994 131.248 66.9572 132.66C66.4242 133.595 67.0321 137.818 67.1654 138.68C74.304 140.863 81.8525 141.424 89.243 140.32C89.4018 139.749 89.4967 139.164 89.5262 138.573C89.6927 135.366 89.5262 132.676 89.5262 132.676C89.5262 132.676 89.7677 131.684 90.1008 130.175C82.4469 130.654 74.7627 130.052 67.282 128.387Z" fill="#FFC727"/>
</g>
<g style="mix-blend-mode:multiply">
<path d="M70.0802 110.163C68.8893 112.517 68.2231 116.052 67.84 119.636C75.4003 122.477 83.5516 123.454 91.5832 122.482C91.9037 120.585 92.0459 118.663 92.008 116.741C91.8638 115.221 91.4992 113.73 90.9253 112.312C83.9124 112.473 76.9073 111.751 70.0802 110.163Z" fill="#FFC727"/>
</g>
<path d="M67.4152 145.643L68.4895 149.03L81.1815 158.051L84.471 152.31C84.471 152.31 86.7446 150.547 87.0777 149.218C87.1371 148.987 87.1734 148.751 87.186 148.513C80.4976 148.399 73.8523 147.434 67.4152 145.643Z" fill="#263238"/>
<path d="M76.601 307.734C76.601 307.734 76.8842 300.632 78.2666 290.249C79.6491 279.866 76.3262 265.12 75.7682 262.659C75.2102 260.199 76.0514 254.737 75.4934 252.818C74.9354 250.899 72.2371 242.714 73.8278 233.217C75.4184 223.719 76.7093 198.615 76.7093 198.615C76.7093 198.615 72.7035 195.408 71.5292 191.234C70.355 187.059 71.2544 185.747 71.2544 185.747" stroke="#263238" stroke-width="1.00396" stroke-miterlimit="10"/>
<path d="M78.4582 186.133L76.9175 194.531" stroke="#263238" stroke-width="1.00396" stroke-miterlimit="10"/>
</svg>
