<svg width="166" height="166" viewBox="0 0 166 166" fill="none" xmlns="http://www.w3.org/2000/svg">
<path d="M83 163.97C127.737 163.97 164 127.712 164 82.985C164 38.2582 127.737 2 83 2C38.2649 2 2 38.2582 2 82.985C2 127.712 38.2649 163.97 83 163.97Z" fill="#1D2225" stroke="black" stroke-width="3"/>
<mask id="mask0_261_98" style="mask-type:alpha" maskUnits="userSpaceOnUse" x="0" y="0" width="166" height="166">
<path d="M83 163.97C127.737 163.97 164 127.712 164 82.985C164 38.2582 127.737 2 83 2C38.2649 2 2 38.2582 2 82.985C2 127.712 38.2649 163.97 83 163.97Z" fill="white" stroke="black" stroke-width="3"/>
</mask>
<g mask="url(#mask0_261_98)">
<g filter="url(#filter0_d_261_98)">
<path fill-rule="evenodd" clip-rule="evenodd" d="M83.091 119.3C102.431 119.3 118.112 103.115 118.112 83.1498C118.112 63.1847 102.431 47 83.091 47C63.7493 47 48.0699 63.1847 48.0699 83.1498C48.0699 103.115 63.7493 119.3 83.091 119.3Z" fill="#010101" fill-opacity="0.88"/>
<path d="M111.545 83.1499C111.545 99.3716 98.8063 112.522 83.0907 112.522C67.3754 112.522 54.6361 99.3716 54.6361 83.1499C54.6361 66.9281 67.3754 53.7781 83.0907 53.7781C98.8063 53.7781 111.545 66.9281 111.545 83.1499Z" fill="#010101" fill-opacity="0.88" stroke="#FFC727" stroke-width="3"/>
</g>
<g filter="url(#filter1_d_261_98)">
<path fill-rule="evenodd" clip-rule="evenodd" d="M83.0909 223.23C114.522 223.23 140 196.93 140 164.487C140 132.044 114.522 105.743 83.0909 105.743C51.6608 105.743 26.1817 132.044 26.1817 164.487C26.1817 196.93 51.6608 223.23 83.0909 223.23Z" fill="#010101" fill-opacity="0.88"/>
<path d="M133.433 164.487C133.433 193.187 110.893 216.452 83.0906 216.452C55.287 216.452 32.7479 193.187 32.7479 164.487C32.7479 135.787 55.287 112.521 83.0906 112.521C110.893 112.521 133.433 135.787 133.433 164.487Z" fill="#010101" fill-opacity="0.88" stroke="#FFC727" stroke-width="3"/>
</g>
</g>
<defs>
<filter id="filter0_d_261_98" x="47.0699" y="47" width="78.0421" height="80.2997" filterUnits="userSpaceOnUse" color-interpolation-filters="sRGB">
<feFlood flood-opacity="0" result="BackgroundImageFix"/>
<feColorMatrix in="SourceAlpha" type="matrix" values="0 0 0 0 0 0 0 0 0 0 0 0 0 0 0 0 0 0 127 0" result="hardAlpha"/>
<feOffset dx="3" dy="4"/>
<feGaussianBlur stdDeviation="2"/>
<feColorMatrix type="matrix" values="0 0 0 0 0 0 0 0 0 0 0 0 0 0 0 0 0 0 0.2 0"/>
<feBlend mode="normal" in2="BackgroundImageFix" result="effect1_dropShadow_261_98"/>
<feBlend mode="normal" in="SourceGraphic" in2="effect1_dropShadow_261_98" result="shape"/>
</filter>
<filter id="filter1_d_261_98" x="25.1817" y="105.743" width="121.818" height="125.487" filterUnits="userSpaceOnUse" color-interpolation-filters="sRGB">
<feFlood flood-opacity="0" result="BackgroundImageFix"/>
<feColorMatrix in="SourceAlpha" type="matrix" values="0 0 0 0 0 0 0 0 0 0 0 0 0 0 0 0 0 0 127 0" result="hardAlpha"/>
<feOffset dx="3" dy="4"/>
<feGaussianBlur stdDeviation="2"/>
<feColorMatrix type="matrix" values="0 0 0 0 0 0 0 0 0 0 0 0 0 0 0 0 0 0 0.2 0"/>
<feBlend mode="normal" in2="BackgroundImageFix" result="effect1_dropShadow_261_98"/>
<feBlend mode="normal" in="SourceGraphic" in2="effect1_dropShadow_261_98" result="shape"/>
</filter>
</defs>
</svg>
