<svg width="505" height="631" viewBox="0 0 505 631" fill="none" xmlns="http://www.w3.org/2000/svg">
<path d="M474.036 604.473C468.311 601.948 462.052 600.872 455.813 601.338C449.573 601.804 443.544 603.798 438.257 607.144C436.852 597.324 433.272 587.942 427.779 579.682C422.285 571.421 415.017 564.492 406.503 559.4C397.99 554.307 388.448 551.179 378.572 550.245C368.696 549.311 358.736 550.593 349.419 553.999C347.766 542.763 343.437 532.088 336.796 522.875C330.155 513.661 321.396 506.18 311.258 501.06C301.12 495.94 289.899 493.333 278.543 493.457C267.186 493.581 256.025 496.433 246.002 501.774C239.324 496.504 231.528 492.835 223.211 491.048C214.894 489.261 206.278 489.405 198.026 491.467C189.773 493.53 182.103 497.456 175.604 502.946C169.106 508.435 163.952 515.34 160.539 523.132C151.633 515.332 140.772 510.102 129.121 508.002C117.469 505.903 105.466 507.012 94.3971 511.213C83.3281 515.413 73.6104 522.546 66.2851 531.846C58.9597 541.147 54.3028 552.266 52.8131 564.011C44.4665 561.274 35.6134 560.44 26.9024 561.568C18.1914 562.696 9.84316 565.759 2.46915 570.532C-12.1672 580.227 -27.9788 612.545 -29.4152 630.025H493.585C491.833 617.687 485.355 609.615 474.036 604.473Z" fill="#F5F5F5" fill-opacity="0.78"/>
<path d="M-71 617.106C23.5837 621.002 116.987 594.966 195.916 542.704C274.082 490.65 319.097 404.685 351.487 316.536L417.028 339.03C417.028 339.03 375.474 538.165 261.902 630.177H-71V617.106Z" fill="#FF725E"/>
<g opacity="0.6">
<path opacity="0.6" d="M-71 615.575C23.5837 619.471 116.987 593.435 195.916 541.172C274.082 489.119 319.097 403.154 351.487 315.005L417.028 337.498C417.028 337.498 375.474 545.769 261.902 628.646H-71V615.575Z" fill="white"/>
</g>
<path d="M344.076 339.877C344.564 340.05 344.363 341.96 343.53 345.45C343.113 347.188 342.539 349.328 341.82 351.842L340.614 355.878C340.154 357.314 339.608 358.751 339.034 360.417C337.885 363.606 336.592 367.153 335.127 371.017C333.662 374.881 331.78 378.96 329.87 383.384C327.96 387.808 325.561 392.433 323.234 397.374C320.907 402.315 318.006 407.357 315.09 412.7L312.864 416.75C312.045 418.086 311.241 419.436 310.408 420.801L305.337 429.146L304.03 431.286L302.594 433.398L299.721 437.707C297.782 440.579 295.886 443.538 293.789 446.454C289.48 452.2 285.3 458.333 280.417 464.222C278.018 467.195 275.662 470.298 273.091 473.271C270.52 476.244 267.906 479.246 265.249 482.291L263.252 484.589L261.155 486.815L256.975 491.268L252.666 495.807C251.23 497.33 249.693 498.68 248.185 500.245C245.14 503.19 242.124 506.221 238.964 509.165L229.225 517.898C215.481 529.788 200.976 540.771 185.804 550.776C156.432 569.946 124.902 585.585 91.8674 597.371L80.5777 601.264L69.446 604.639L63.9879 606.276L58.5585 607.713L47.9583 610.427C44.4679 611.232 41.0063 611.864 37.6309 612.654C34.2555 613.444 30.9375 614.09 27.5765 614.622L17.9386 616.216C16.3586 616.46 14.8074 616.762 13.2561 616.963L8.67416 617.509C2.61278 618.213 -3.13261 618.945 -8.562 619.29C-13.9914 619.634 -19.1766 620.137 -24.0171 620.123C-28.8576 620.108 -33.339 620.338 -37.4757 620.281C-41.6123 620.223 -45.3899 619.965 -48.7797 619.792C-50.4746 619.692 -52.069 619.634 -53.5628 619.505L-57.7713 619.017C-60.371 618.701 -62.5543 618.385 -64.321 618.083C-67.8544 617.494 -69.6929 616.92 -69.6642 616.403C-69.6355 615.886 -67.7395 615.455 -64.2061 615.081C-62.425 614.895 -60.2418 614.722 -57.6707 614.564L-53.5197 614.363L-48.7941 613.961C-45.4618 613.693 -41.7703 613.42 -37.7198 613.142C-33.6837 612.783 -29.3029 612.252 -24.606 611.792C-19.9091 611.332 -14.9107 610.528 -9.61053 609.824C-4.31041 609.12 1.3057 607.971 7.05109 607.023L11.4894 606.233C12.9257 605.96 14.477 605.601 15.9852 605.271L25.2927 603.26C28.467 602.643 31.6414 601.738 34.9019 600.919L44.8557 598.362L55.0395 595.36L60.2534 593.823L65.4961 592.071L76.1968 588.494L87.0556 584.43C118.766 572.284 149.099 556.809 177.545 538.265C192.185 528.613 206.238 518.1 219.63 506.781L229.153 498.479C232.242 495.678 235.2 492.733 238.202 490.004C239.639 488.568 241.204 487.246 242.612 485.796C244.02 484.345 245.485 482.923 246.835 481.487L251.029 477.178L253.112 475.081L255.094 472.912L262.908 464.365C265.479 461.493 267.834 458.62 270.247 455.747C275.16 450.189 279.44 444.4 283.806 438.971C285.947 436.227 287.9 433.398 289.897 430.697L292.855 426.676L294.292 424.679L295.728 422.668L301.057 414.783L303.642 410.976L306.027 407.156C309.158 402.114 312.289 397.389 314.889 392.706C317.489 388.024 320.232 383.758 322.387 379.549C324.541 375.341 326.696 371.506 328.664 367.943C330.631 364.381 332.154 360.992 333.691 358.018C334.466 356.582 335.127 355.146 335.874 353.81C336.621 352.474 337.138 351.239 337.698 350.075C338.847 347.763 339.867 345.766 340.729 344.33C342.438 341.256 343.587 339.705 344.076 339.877Z" fill="#FF725E"/>
<path d="M347.695 368.983C340.973 376.574 335.818 385.419 332.527 395.01C332.068 396.38 332.051 397.861 332.481 399.241C332.91 400.621 333.763 401.831 334.919 402.699C336.074 403.567 337.474 404.049 338.919 404.077C340.364 404.104 341.782 403.676 342.97 402.852L343.113 402.752C338.427 414.237 334.498 426.016 331.349 438.014C330.903 439.697 330.985 441.476 331.586 443.11C332.186 444.744 333.275 446.154 334.705 447.147C336.134 448.141 337.835 448.67 339.576 448.662C341.317 448.655 343.013 448.112 344.435 447.106C370.041 428.955 388.194 402.131 395.525 371.612L347.695 368.983Z" fill="#FF725E"/>
<g opacity="0.3">
<path opacity="0.3" d="M349.979 381.307C348.742 382.536 347.765 384.002 347.106 385.616C346.791 386.424 346.717 387.305 346.893 388.154C347.069 389.003 347.487 389.783 348.097 390.399C350.065 392.065 353.441 391.06 355.279 392.826C357.118 394.593 356.083 398.012 354.776 400.425L350.64 408.08C349.634 409.948 348.643 412.39 349.95 414.056C351.257 415.722 354.345 415.262 356.457 414.199C361.325 411.668 365.506 407.993 368.641 403.49C371.776 398.986 373.771 393.789 374.454 388.345L349.979 381.307Z" fill="black"/>
</g>
<path d="M446.425 258.092L446.925 258.554C461.257 272.223 472.337 288.934 479.349 307.456C486.361 325.977 489.126 345.837 487.44 365.569L485.309 390.637L438.458 351.836L446.425 258.092Z" fill="#FF725E"/>
<path d="M446.425 258.092L446.396 258.555L446.288 259.918C446.188 261.118 446.072 262.91 445.884 265.1C445.505 269.6 444.982 276.222 444.329 284.506C442.948 301.003 441.053 324.428 438.757 351.857L438.689 351.549L481.399 386.903L485.548 390.392L484.946 390.659C485.379 385.657 485.801 380.73 486.209 375.881C486.598 371.026 487.103 366.233 487.309 361.551C487.807 352.54 487.387 343.502 486.056 334.575C484.862 326.503 482.903 318.563 480.204 310.863C479.036 307.209 477.518 303.839 476.183 300.561C474.848 297.282 473.298 294.229 471.672 291.427C466.809 282.383 460.9 273.941 454.065 266.277C451.738 263.5 449.678 261.59 448.379 260.187L446.366 258.091C446.366 258.091 446.543 258.228 446.928 258.568L448.472 260.078C449.807 261.443 451.92 263.326 454.242 266.149C461.151 273.761 467.116 282.179 472.009 291.22C473.666 294.029 475.029 297.168 476.596 300.365C477.948 303.655 479.492 307.078 480.669 310.7C483.41 318.418 485.399 326.382 486.609 334.481C487.968 343.455 488.408 352.543 487.924 361.605C487.727 366.329 487.202 371.097 486.828 375.949C486.454 380.8 486.064 385.715 485.578 390.724L485.518 391.444L484.958 390.98C483.658 389.901 482.235 388.733 480.809 387.491L438.12 352.103L437.991 351.984L437.954 351.816L443.905 284.188C444.643 275.959 445.217 269.429 445.624 264.923C445.823 262.715 445.988 261.015 446.091 259.83L446.433 258.458C446.42 258.337 446.417 258.214 446.425 258.092V258.092Z" fill="#263238"/>
<path d="M304.263 246.039L303.685 246.418C287.48 257.322 273.929 271.725 264.032 288.565C254.136 305.404 248.145 324.251 246.504 343.714L244.412 368.434L296.406 338.492L304.263 246.039Z" fill="#FF725E"/>
<path d="M304.263 246.039C304.263 246.039 304.291 246.165 304.238 246.456C304.186 246.748 304.184 247.204 304.143 247.743C304.05 248.912 303.913 250.605 303.792 252.766L302.233 271.761L296.772 338.484L296.812 338.666L296.644 338.704L249.261 366.027L244.657 368.674L244.045 369.031L244.105 368.311L245.273 353.761C245.676 348.976 246.005 344.252 246.537 339.645C247.577 330.75 249.516 321.984 252.324 313.481C254.86 305.804 258.134 298.39 262.1 291.343C263.871 288.005 265.911 284.945 267.778 281.967C269.645 278.99 271.678 276.299 273.748 273.836C280.02 265.876 287.229 258.703 295.22 252.472C297.976 250.179 300.271 248.725 301.86 247.605L303.62 246.388L304.257 246.011L301.945 247.719C300.448 248.862 298.121 250.368 295.4 252.682C287.51 259.005 280.385 266.225 274.168 274.198C272.129 276.669 270.284 279.48 268.256 282.331C266.229 285.183 264.386 288.331 262.646 291.678C258.734 298.705 255.509 306.093 253.015 313.739C250.246 322.178 248.331 330.874 247.299 339.695C246.71 344.242 246.438 349.027 246.031 353.797C245.625 358.568 245.243 363.451 244.867 368.362L244.315 367.999L248.92 365.353L296.329 338.083L296.155 338.357C298.527 311.337 300.566 288.292 301.945 271.987C302.668 263.819 303.251 257.332 303.651 252.857C303.849 250.649 304.012 248.935 304.115 247.749C304.164 247.179 304.214 246.741 304.243 246.411C304.24 246.287 304.247 246.162 304.263 246.039V246.039Z" fill="#263238"/>
<path d="M396.113 6.62516C384.864 5.67741 361.707 33.0094 338.355 79.9732C315.373 126.221 310.888 167.914 310.888 167.914L293.126 377.076L348.241 381.758L380.176 384.462L435.291 389.144L451.415 199.347C453.015 180.8 452.838 162.143 450.886 143.63C448.98 125.06 445.59 106.672 440.747 88.6437C426.832 38.2977 407.435 7.57129 396.169 6.61264" fill="#F5F5F5"/>
<path d="M396.113 6.6251L396.613 6.69007L397.238 6.78609L398.075 7.04082C399.912 7.73192 401.61 8.74894 403.086 10.043C407.076 13.3468 411.91 19.3763 416.858 27.8967C422.776 38.3512 427.801 49.2862 431.88 60.5855C434.34 67.1889 436.73 74.3377 439.006 82.0271C441.281 89.7165 443.449 97.9155 445.294 106.643C447.139 115.37 448.713 124.6 449.994 134.292C451.363 144.382 452.224 154.534 452.574 164.71C452.922 175.654 452.665 186.608 451.803 197.524C450.853 208.783 449.876 220.387 448.873 232.336C444.811 280.071 440.356 332.972 435.597 389.193L435.577 389.566L435.201 389.532L364.126 383.496L293.033 377.45L292.66 377.43L292.694 377.055C297.481 320.827 301.993 267.914 306.069 220.175C307.084 208.234 308.07 196.633 309.03 185.371C309.512 179.75 309.987 174.208 310.456 168.747C311.048 163.287 312.029 157.991 313.08 152.811C317.065 133.672 322.85 114.952 330.359 96.9012C336.684 82.1992 343.942 67.9166 352.089 54.1407C358.106 43.7286 364.899 33.7852 372.411 24.395C378.641 16.7647 384.258 11.5373 388.769 8.86751C390.423 7.82197 392.255 7.08891 394.173 6.70478L395.03 6.58715L395.664 6.59279L396.155 6.61571L395.66 6.63798L395.043 6.64322L394.186 6.76085C392.271 7.17872 390.447 7.93485 388.798 8.99367C384.391 11.6696 378.793 16.9219 372.57 24.5802C365.143 33.966 358.42 43.888 352.455 54.265C344.386 68.0627 337.2 82.3583 330.941 97.0658C323.474 115.093 317.727 133.784 313.775 152.892C312.738 158.068 311.7 163.377 311.184 168.776L309.772 185.397C308.821 196.657 307.845 208.261 306.842 220.209C302.78 267.945 298.398 320.844 293.558 377.098L293.216 376.688L364.256 382.761L435.334 388.81L434.925 389.152L448.289 232.289L451.253 197.499C452.107 186.6 452.358 175.661 452.005 164.734C451.694 154.178 450.729 144.047 449.486 134.391C448.243 124.734 446.652 115.494 444.793 106.77C442.934 98.0453 440.842 89.8587 438.569 82.1833C436.297 74.5079 433.935 67.3529 431.492 60.7604C427.452 49.4668 422.471 38.5322 416.602 28.0715C411.753 19.5291 406.919 13.4997 402.971 10.1864C401.515 8.88704 399.84 7.85583 398.023 7.14057L397.198 6.86869L396.587 6.76955L396.113 6.6251Z" fill="#263238"/>
<path d="M424.874 198.275C450.706 175.914 453.519 136.845 431.157 111.013C408.795 85.1813 369.727 82.3683 343.895 104.73C318.063 127.092 315.25 166.16 337.612 191.992C359.974 217.824 399.042 220.637 424.874 198.275Z" fill="white"/>
<path d="M425.308 112.311C424.973 112.422 424.618 112.464 424.266 112.434C423.914 112.405 423.572 112.304 423.26 112.139C422.948 111.973 422.673 111.746 422.451 111.471C422.229 111.196 422.065 110.879 421.969 110.539C421.63 109.167 421.798 107.718 422.442 106.46C423.077 105.21 423.558 103.887 423.874 102.52C424.029 101.249 423.772 99.9616 423.142 98.8468C422.512 97.732 421.541 96.8485 420.372 96.326C420.978 95.8816 421.489 95.3194 421.873 94.673C422.257 94.0266 422.507 93.3093 422.607 92.5641C422.707 91.819 422.656 91.0612 422.456 90.3363C422.257 89.6114 421.913 88.9342 421.446 88.3453C420.405 87.3788 419.275 86.5124 418.072 85.7575C417.438 85.2528 416.853 84.6884 416.327 84.0719C417.362 84.4198 418.458 84.5461 419.544 84.4428C420.423 84.3273 421.258 83.9915 421.972 83.4668C422.686 82.9421 423.256 82.2455 423.628 81.4416C423.981 80.6289 424.098 79.7338 423.968 78.8577C423.837 77.9816 423.464 77.1596 422.89 76.4849C422.302 75.8214 421.524 75.3553 420.662 75.1501C419.8 74.9449 418.895 75.0105 418.072 75.3381C416.549 76.181 415.33 77.4829 414.59 79.0585L413.784 80.4598C411.868 77.4143 410.083 74.2954 406.837 73.0037C403.897 71.8349 400.575 72.5764 397.463 72.1524C395.19 71.7915 393.066 70.7792 390.802 70.328C388.537 69.8767 385.892 70.158 384.398 71.9043C383.508 72.9271 383.142 74.3187 382.22 75.3337C380.379 77.4371 376.804 77.4404 375.229 79.7491C373.958 81.637 374.59 84.2039 373.925 86.3685C373.26 88.5331 371.068 90.3174 369.3 92.0218C367.532 93.7263 365.895 96.1519 366.613 98.5084C367.236 100.577 369.496 101.868 370.095 103.956C370.298 105.526 370.204 107.119 369.819 108.654C369.641 110.165 370.13 112.161 371.641 112.662L388.749 118.763C394.563 121.733 400.564 124.75 407.074 125.299C413.583 125.847 420.802 123.309 423.872 117.547C422.924 117.422 422.059 116.942 421.453 116.203C422.347 115.887 423.159 115.372 423.826 114.698C424.494 114.024 425.001 113.208 425.308 112.311V112.311Z" fill="#263238"/>
<path d="M410.498 116.573C412.431 112.306 413.994 107.88 415.169 103.345C416.339 98.7855 416.359 94.0074 415.229 89.4384C415.076 88.7515 413.322 84.1244 412.576 84.1438C412.077 84.1521 413.024 88.4589 412.722 88.8206C410.063 92.9133 408.708 97.716 408.835 102.595C408.859 107.302 409.412 111.992 410.484 116.576" fill="#263238"/>
<path d="M391.606 155.433C404.699 156.925 408.545 139.408 408.545 139.408L412.461 98.7979C413.831 87.1308 408.185 76.6028 396.485 75.5495L395.402 75.5115C390.125 75.3449 384.979 77.172 380.989 80.629C376.999 84.0859 374.457 88.9191 373.87 94.1659C372.731 104.295 371.607 115.481 371.5 120.935C371.294 132.21 382.507 134.314 382.507 134.314C382.507 134.314 382.35 136.909 382.103 140.217C381.564 147.696 385.041 155.426 387.954 155.423L391.606 155.433Z" fill="#A97663"/>
<path d="M382.523 134.384C387.727 134.53 392.865 133.184 397.33 130.505C397.33 130.505 393.497 138.587 382.287 137.218L382.523 134.384Z" fill="#896357"/>
<path d="M377.896 103.039C377.877 103.459 378.024 103.87 378.306 104.182C378.588 104.494 378.981 104.682 379.401 104.705C379.605 104.728 379.812 104.71 380.009 104.652C380.206 104.594 380.389 104.497 380.548 104.367C380.707 104.237 380.838 104.076 380.934 103.894C381.03 103.713 381.088 103.514 381.106 103.309C381.125 102.889 380.978 102.478 380.696 102.166C380.414 101.854 380.02 101.666 379.601 101.643C379.397 101.62 379.19 101.638 378.993 101.696C378.796 101.754 378.613 101.851 378.454 101.981C378.295 102.111 378.163 102.272 378.068 102.454C377.972 102.635 377.914 102.835 377.896 103.039V103.039Z" fill="#263238"/>
<path d="M376.126 98.9312C376.322 99.1523 377.571 98.2849 379.305 98.3394C381.039 98.3939 382.274 99.3103 382.421 99.1155C382.569 98.9206 382.315 98.6388 381.779 98.214C381.045 97.6569 380.157 97.341 379.237 97.3096C378.338 97.2819 377.453 97.536 376.706 98.0364C376.228 98.4668 376.031 98.8347 376.126 98.9312Z" fill="#263238"/>
<path d="M393.531 104.186C393.515 104.605 393.664 105.013 393.945 105.324C394.226 105.636 394.618 105.825 395.036 105.851C395.24 105.874 395.447 105.857 395.644 105.798C395.841 105.74 396.024 105.643 396.183 105.513C396.342 105.383 396.473 105.223 396.569 105.041C396.665 104.859 396.723 104.66 396.741 104.455C396.761 104.037 396.616 103.628 396.337 103.316C396.058 103.003 395.668 102.813 395.25 102.787C395.045 102.764 394.837 102.782 394.639 102.84C394.441 102.898 394.257 102.995 394.096 103.125C393.936 103.255 393.804 103.416 393.707 103.598C393.61 103.781 393.55 103.98 393.531 104.186Z" fill="#263238"/>
<path d="M393.076 100.166C393.269 100.373 394.521 99.5202 396.241 99.5778C397.961 99.6354 399.22 100.532 399.357 100.354C399.494 100.176 399.254 99.8913 398.718 99.4664C397.993 98.9024 397.108 98.5844 396.19 98.5589C395.289 98.5158 394.4 98.7713 393.659 99.2857C393.162 99.632 392.98 100.07 393.076 100.166Z" fill="#263238"/>
<path d="M386.449 113.272C385.543 112.966 384.604 112.766 383.652 112.674C383.214 112.625 382.792 112.513 382.726 112.219C382.705 111.757 382.824 111.3 383.066 110.907L384.487 107.646C385.793 104.829 386.869 101.912 387.706 98.922C386.179 101.626 384.87 104.448 383.791 107.36L382.434 110.709C382.142 111.234 382.043 111.845 382.156 112.434C382.213 112.596 382.307 112.741 382.431 112.859C382.554 112.977 382.704 113.065 382.867 113.115C383.108 113.182 383.354 113.226 383.603 113.245C384.547 113.374 385.503 113.383 386.449 113.272Z" fill="#263238"/>
<path d="M391.506 114.63C391.221 114.606 391.17 116.486 389.513 117.768C387.857 119.05 385.87 118.787 385.839 119.044C385.808 119.302 386.279 119.432 387.128 119.478C388.227 119.525 389.307 119.185 390.181 118.517C391.025 117.872 391.584 116.924 391.739 115.873C391.832 115.102 391.651 114.686 391.506 114.63Z" fill="#263238"/>
<path d="M393.348 93.1448C393.458 93.6354 395.243 93.4577 397.264 93.7425C399.285 94.0273 400.913 94.6646 401.189 94.2499C401.464 93.8352 401.045 93.605 400.391 93.118C399.535 92.5213 398.546 92.141 397.51 92.0099C396.473 91.8482 395.413 91.9385 394.419 92.2729C393.701 92.5509 393.298 92.9205 393.348 93.1448Z" fill="#263238"/>
<path d="M377.024 93.197C377.32 93.6018 378.504 93.2346 379.981 93.2582C381.458 93.2818 382.617 93.597 382.91 93.1932C383.202 92.7894 382.852 92.6028 382.339 92.2169C381.643 91.7373 380.815 91.485 379.97 91.4946C379.128 91.4784 378.303 91.7295 377.614 92.2119C377.039 92.605 376.884 92.9635 377.024 93.197Z" fill="#263238"/>
<path d="M411.288 107.125C411.484 107.081 419.101 105.072 418.628 112.845C418.155 120.618 410.523 118.465 410.518 118.246C410.513 118.026 411.288 107.125 411.288 107.125Z" fill="#A97663"/>
<path d="M413.033 115.404C413.033 115.404 413.159 115.508 413.376 115.621C413.689 115.77 414.046 115.8 414.381 115.706C415.222 115.518 415.976 114.217 416.109 112.833C416.17 112.174 416.082 111.51 415.852 110.889C415.796 110.643 415.682 110.415 415.519 110.223C415.356 110.031 415.148 109.882 414.914 109.789C414.761 109.741 414.596 109.747 414.446 109.804C414.296 109.862 414.17 109.968 414.087 110.106C413.974 110.322 414.022 110.473 413.98 110.483C413.938 110.492 413.816 110.343 413.88 110.034C413.943 109.85 414.061 109.689 414.219 109.576C414.44 109.423 414.712 109.363 414.976 109.407C415.288 109.488 415.573 109.648 415.804 109.873C416.035 110.097 416.203 110.378 416.292 110.688C416.578 111.375 416.694 112.122 416.631 112.864C416.467 114.372 415.598 115.817 414.406 116.083C414.195 116.129 413.977 116.127 413.767 116.077C413.557 116.027 413.361 115.931 413.194 115.794C413.073 115.586 413.033 115.404 413.033 115.404Z" fill="#896357"/>
<path d="M379.763 81.7983C378.574 81.0189 382.59 77.2527 385.75 76.0471C390.523 74.29 397.676 73.5029 401.855 75.0133C406.868 76.8377 410.953 79.7084 413.199 84.5639C415.33 89.4977 416.116 94.9079 415.477 100.244C415.417 101.882 414.924 103.474 414.05 104.86C412.852 106.481 410.717 107.399 410.639 109.757C410.634 110.617 410.288 111.439 409.679 112.046C408.152 113.447 406.542 111.907 405.848 110.443C404.369 107.315 404.447 103.707 404.542 100.242C404.481 97.7735 404.821 95.3117 405.55 92.9527C406.02 91.6997 406.716 90.529 407.124 89.2605C407.361 88.6317 407.459 87.9591 407.411 87.289C407.363 86.6189 407.17 85.967 406.847 85.3784C406.678 85.1322 406.484 84.9042 406.268 84.6981C405.265 83.6878 404.013 82.9616 402.638 82.5937C401.263 82.2257 399.815 82.2292 398.442 82.6036C394.006 83.8292 386.449 85.5748 384.618 83.9671C383.308 82.9708 382.223 81.7081 381.437 80.2622L379.763 81.7983Z" fill="#263238"/>
<path d="M401.536 73.9808C399.484 73.0844 397.275 72.6032 395.036 72.5649C392.797 72.5266 390.573 72.9319 388.491 73.7575C387.376 74.1753 386.358 74.8145 385.497 75.6364C384.636 76.4584 383.95 77.4462 383.481 78.5404C383.05 79.6489 383.024 80.8736 383.407 81.9993C383.791 83.125 384.558 84.0796 385.575 84.6954L385.716 84.7965C388.957 86.1334 391.087 85.8494 394.434 84.9552C397.21 84.2033 399.813 82.6803 402.595 81.9564C405.62 81.1677 408.812 81.3009 411.761 82.339C409.143 78.7056 405.617 75.8233 401.536 73.9808V73.9808Z" fill="#263238"/>
<path d="M415.514 82.8699C415.43 82.8887 414.878 82.1289 413.662 81.1641C412.977 80.601 412.232 80.1158 411.44 79.7173C410.474 79.2238 409.408 78.9583 408.324 78.9412C406.365 79.0019 404.462 79.605 402.826 80.6833C401.543 81.5289 400.942 82.2664 400.87 82.2088C400.799 82.1512 400.981 81.9781 401.261 81.6507C401.66 81.1789 402.114 80.7564 402.614 80.3922C404.282 79.155 406.292 78.4646 408.368 78.4161C409.524 78.4401 410.657 78.7426 411.671 79.298C412.488 79.7201 413.241 80.2555 413.909 80.8881C414.579 81.4274 415.126 82.103 415.514 82.8699Z" fill="#455A64"/>
<path d="M416.037 85.6081C415.9 86.3608 415.639 87.0855 415.265 87.7525C414.435 89.4058 413.325 90.9032 411.985 92.1785C410.641 93.4501 409.089 94.4832 407.398 95.2332C406.717 95.5807 405.978 95.8005 405.217 95.8818C407.573 94.8762 409.75 93.4958 411.663 91.794C413.438 89.9751 414.914 87.8874 416.037 85.6081V85.6081Z" fill="#455A64"/>
<path d="M419.051 87.1137C419.085 87.4063 419.072 87.7024 419.012 87.9908C418.895 88.7844 418.715 89.5675 418.475 90.3329C417.654 92.8623 416.232 95.1546 414.329 97.0125C412.42 98.8624 410.08 100.209 407.521 100.931C406.758 101.174 405.975 101.349 405.18 101.453C404.89 101.503 404.594 101.51 404.302 101.473C404.28 101.375 405.521 101.201 407.428 100.643C409.884 99.8404 412.126 98.4885 413.981 96.6896C415.837 94.8907 417.257 92.6922 418.135 90.2615C418.769 88.354 418.961 87.1044 419.051 87.1137Z" fill="#455A64"/>
<path d="M392.795 72.5321C392.105 72.771 391.403 72.9719 390.692 73.1338C387.337 74.1449 384.384 76.1834 382.25 78.9621C381.439 80.0113 381.021 80.7081 380.965 80.7206C381.187 80.0076 381.537 79.3411 381.998 78.7535C384.036 75.7647 387.113 73.6406 390.631 72.7942C391.332 72.5858 392.064 72.4972 392.795 72.5321V72.5321Z" fill="#455A64"/>
<path d="M422.42 76.0304C422.038 77.5891 421.236 79.0134 420.101 80.1487C418.967 81.284 417.543 82.087 415.984 82.4706C417.346 81.7044 418.623 80.7978 419.796 79.7656C420.796 78.6136 421.676 77.3619 422.42 76.0304V76.0304Z" fill="#455A64"/>
<path d="M438.682 149.812C434.238 144.078 409.734 138.804 409.734 138.804C408.444 142.878 406.227 146.597 403.256 149.668C398.427 154.411 391.518 154.643 385.672 151.989C380.15 149.469 380.218 142.124 380.218 142.124C380.218 142.124 355.508 146.344 349.328 151.756C343.148 157.168 341.735 169.301 341.735 169.301L337.395 191.197L349.649 202.649L354.577 205.67C354.577 205.67 367.704 214.175 388.202 213.176C407.333 212.247 421.565 200.844 421.565 200.844C430.643 195.359 437.44 185.527 442.884 172.862C442.922 172.898 443.863 156.544 438.682 149.812Z" fill="#455A64"/>
<path d="M339.24 157.657C339.24 157.657 343.379 149.169 343.183 146.181L342.012 130.254C342.012 130.254 340.783 128.703 339.037 131.168C337.292 133.633 338.658 137.316 338.658 137.316L337.548 140.978L335.792 138.059L334.259 127.363C334.259 127.363 333.33 119.638 332.092 120.356C330.854 121.074 330.39 123.282 330.782 126.623C331.175 129.965 331.702 134.174 331.702 134.174C331.702 134.174 331.777 135.496 330.681 133.224C329.585 130.952 328.793 121.666 328.393 120.401C327.993 119.137 328.004 115.823 326.121 115.89C324.237 115.957 325.07 120.216 325.07 120.216L326.059 133.947C326.059 133.947 324.626 128.38 324.351 127.411C324.075 126.442 323.727 123.43 323.197 121.782C322.667 120.134 321.744 119.163 320.912 119.26C320.514 119.258 320.131 119.409 319.841 119.682C319.551 119.955 319.378 120.329 319.356 120.726L321.45 132.547C321.45 132.547 322.657 137.958 322.552 138.276C322.446 138.594 320.562 135.954 320.562 135.954L319.287 132.088C319.287 132.088 318.369 126.656 316.932 126.418C315.496 126.179 315.384 127.264 315.384 127.264L317.154 137.171L320.835 148.52L326.074 159.595L330.551 159.479L339.24 157.657Z" fill="#A97663"/>
<path d="M326.84 151.227C327.377 150.401 327.853 149.537 328.265 148.642C329.256 146.557 330.989 144.916 333.125 144.04C334.173 143.654 335.321 143.636 336.381 143.991L336.733 144.118L336.851 143.724C337.348 141.994 337.998 140.421 338.311 139.321C338.625 138.221 338.796 137.535 338.705 137.526C338.377 138.043 338.11 138.596 337.911 139.175C337.253 140.619 336.669 142.095 336.161 143.598L336.631 143.331C335.423 142.895 334.101 142.893 332.892 143.327C331.584 143.776 330.424 144.575 329.537 145.636C328.834 146.476 328.245 147.404 327.783 148.397C327.303 149.276 326.984 150.235 326.84 151.227V151.227Z" fill="#896357"/>
<path d="M379.786 142.235L382.083 135.909L393.956 145.916L394.157 151.566L395.18 145.863L409.62 132.486L410.464 139.568L405.122 150.974L396.116 157.31L388.189 156.21C388.189 156.21 382.02 155.409 382.015 154.924C382.01 154.44 379.786 142.235 379.786 142.235Z" fill="#455A64"/>
<path d="M390.561 152.664L392.432 157.088L396.021 157.214L398.331 153.122L396.662 149.271L392.388 149.047L390.561 152.664Z" fill="#FF725E"/>
<path d="M393.956 145.916C393.749 146.762 393.437 147.578 393.027 148.346C392.344 149.837 391.354 151.927 390.178 154.309L389.924 154.822L389.573 154.37C388.953 153.567 388.291 152.714 387.546 151.88C385.468 149.164 383.576 146.688 382.256 144.863C381.487 143.918 380.812 142.901 380.239 141.825C381.165 142.621 382.001 143.515 382.733 144.492C384.166 146.232 386.108 148.668 388.2 151.38L390.157 153.887L389.539 153.951C390.763 151.588 391.836 149.539 392.649 148.106C392.996 147.327 393.435 146.591 393.956 145.916V145.916Z" fill="#263238"/>
<path d="M410.567 138.25C409.903 139.472 409.127 140.631 408.249 141.711C406.749 143.826 404.63 146.727 402.26 149.891L398.996 154.254L398.632 154.733L398.405 154.18C397.393 151.757 396.55 149.693 395.971 148.218C395.622 147.46 395.355 146.666 395.177 145.85C395.666 146.531 396.064 147.274 396.362 148.058C397.047 149.479 397.971 151.51 399.036 153.907L398.445 153.833L401.668 149.478C404.038 146.315 406.215 143.474 407.835 141.435C408.652 140.296 409.566 139.231 410.567 138.25V138.25Z" fill="#263238"/>
<path d="M455.719 172.867L455.307 162.584C452.45 159.714 449.238 157.221 445.749 155.166C442.042 152.719 437.603 151.629 433.184 152.084C427.477 152.887 422.849 157.01 418.939 161.253C415.03 165.495 411.304 170.168 406.151 172.731C404.229 173.836 401.974 174.214 399.796 173.796C396.562 172.958 394.57 169.503 394.344 166.183C394.356 162.829 395.064 159.513 396.424 156.447L392.498 156.131C390.937 159.763 389.719 163.533 388.86 167.392C388.225 170.785 388.708 174.292 390.237 177.387C391.566 179.593 393.465 181.402 395.734 182.622C398.002 183.843 400.558 184.431 403.132 184.325C408.307 184.042 413.223 181.972 417.042 178.468C420.562 175.446 423.493 171.568 427.671 169.517C430.574 168.201 433.808 167.793 436.947 168.348C440.086 168.903 442.984 170.394 445.26 172.626L455.719 172.867Z" fill="#FF725E"/>
<path d="M353.519 205.612C353.322 205.655 353.018 196.775 352.765 185.882C352.512 174.99 352.566 166.133 352.772 166.131C352.977 166.129 353.272 174.967 353.511 185.863C353.75 196.759 353.709 205.672 353.519 205.612Z" fill="#263238"/>
<path d="M323.086 159.924L342.31 157.105L351.174 200.91L351.606 203.963C351.606 203.963 332.223 190.379 327.9 176.877C326.98 174.007 325.829 171.821 325.215 169.794C323.01 162.222 323.086 159.924 323.086 159.924Z" fill="#455A64"/>
<path d="M350.739 200.345C350.541 199.798 350.414 199.228 350.36 198.649C350.085 197.415 349.805 195.829 349.446 194.026C348.678 190.121 347.504 184.731 346.237 178.789C344.97 172.847 343.863 167.428 343.204 163.483C342.87 161.527 342.615 159.921 342.486 158.817C342.368 158.246 342.322 157.663 342.349 157.081C342.529 157.633 342.655 158.201 342.727 158.777C343.003 160.011 343.353 161.581 343.757 163.389C344.661 167.441 345.742 172.748 346.994 178.62C348.246 184.492 349.354 189.985 349.996 193.918C350.319 195.891 350.557 197.486 350.675 198.608C350.754 199.183 350.776 199.765 350.739 200.345V200.345Z" fill="#263238"/>
<path d="M322.555 153.655C322.61 153.794 322.642 153.94 322.652 154.089C322.724 154.412 322.734 154.851 322.793 155.382C322.928 156.515 323.055 158.267 323.329 160.355C324.945 170.608 329.066 180.303 335.325 188.583C341.523 196.737 349.651 203.222 358.978 207.454C364.229 209.797 369.778 211.406 375.468 212.236C381.151 213.105 386.93 213.144 392.624 212.351C397.936 211.677 403.13 210.28 408.063 208.199C412.547 206.354 416.789 203.969 420.694 201.097C422.475 199.822 424.189 198.457 425.83 197.007C427.382 195.587 428.806 194.121 430.145 192.733C431.483 191.345 432.646 189.894 433.612 188.486C434.578 187.078 435.639 185.767 436.436 184.456L438.659 180.766L440.264 177.538L440.943 176.165L441.459 174.917L442.244 172.961L442.756 171.758C442.805 171.615 442.868 171.478 442.944 171.348C442.944 171.348 442.975 171.488 442.821 171.787L442.386 173.003L441.656 175.006L441.188 176.273C440.975 176.703 440.757 177.178 440.529 177.671L438.967 180.962L436.852 184.672C436.062 186.011 435.029 187.316 434.044 188.772C433.059 190.228 431.728 191.585 430.592 193.089C429.456 194.594 427.839 195.985 426.279 197.437C424.641 198.932 422.92 200.333 421.123 201.634C407.993 211.318 391.564 215.414 375.424 213.026C369.642 212.178 364.005 210.534 358.675 208.14C349.245 203.849 341.044 197.259 334.824 188.974C328.547 180.587 324.48 170.755 322.997 160.385C322.752 158.232 322.698 156.537 322.605 155.395L322.52 154.09C322.516 153.944 322.528 153.798 322.555 153.655Z" fill="#263238"/>
<path d="M446.176 154.247C446.069 153.51 446.031 152.764 446.062 152.02C446.058 150.55 445.953 148.498 445.711 145.962C445.038 139.319 443.33 132.823 440.648 126.709C439.152 123.36 437.389 120.136 435.377 117.069C433.694 114.586 431.852 112.214 429.863 109.969C429.041 108.99 428.211 108.175 427.505 107.449C426.799 106.724 426.173 106.098 425.624 105.617C425.06 105.127 424.533 104.595 424.048 104.027C424.68 104.429 425.275 104.887 425.825 105.396C426.507 105.946 427.158 106.533 427.777 107.153C428.523 107.855 429.377 108.65 430.225 109.55C432.291 111.76 434.19 114.121 435.908 116.612C437.986 119.693 439.795 122.948 441.316 126.339C444.03 132.522 445.686 139.117 446.215 145.849C446.378 147.878 446.415 149.914 446.325 151.947C446.344 152.716 446.294 153.486 446.176 154.247V154.247Z" fill="#263238"/>
<path d="M369.739 91.3498C369.105 91.6488 368.442 91.8807 367.759 92.0418C367.101 92.1888 366.383 92.4668 365.429 92.812C364.476 93.1572 363.486 93.4665 362.386 93.9474C359.77 94.9887 357.223 96.1963 354.76 97.5626C351.761 99.2584 348.893 101.178 346.181 103.304C343.5 105.463 340.98 107.816 338.643 110.343C336.754 112.431 335 114.636 333.391 116.946C332.666 117.917 332.109 118.851 331.58 119.646C331.051 120.441 330.639 121.166 330.311 121.739C329.999 122.342 329.635 122.916 329.222 123.454C329.454 122.788 329.749 122.146 330.103 121.536C330.394 120.926 330.775 120.194 331.267 119.363C331.758 118.532 332.337 117.564 332.985 116.58C334.557 114.209 336.29 111.949 338.172 109.816C342.802 104.605 348.3 100.236 354.422 96.9024C356.924 95.5511 359.521 94.3814 362.191 93.4023C363.325 92.9432 364.381 92.6634 365.298 92.3556C366.215 92.0479 367.011 91.8555 367.684 91.7053C368.359 91.533 369.046 91.4141 369.739 91.3498V91.3498Z" fill="#263238"/>
<path d="M389.479 213.553C389.282 213.597 389.743 206.033 390.521 196.794C391.299 187.554 392.102 180.076 392.311 180.088C392.52 180.1 392.047 187.608 391.269 196.848C390.491 206.087 389.673 213.569 389.479 213.553Z" fill="#263238"/>
<path d="M420.475 65.9274C420.475 65.9274 420.506 66.0676 420.565 66.334C420.554 66.7487 420.466 67.1576 420.305 67.54C420.017 68.2616 419.547 68.8963 418.941 69.3824C418.335 69.8684 417.614 70.1891 416.847 70.3132C415.781 70.4069 414.711 70.191 413.765 69.6914C412.795 69.1482 411.679 68.9236 410.575 69.0493C409.386 69.3089 408.318 69.962 407.545 70.9029C406.701 71.9664 405.971 73.1159 405.367 74.3324C404.085 76.7287 402.43 78.9063 400.464 80.7837C398.83 82.3088 396.881 83.4572 394.754 84.1479C393.323 84.602 391.816 84.7733 390.319 84.652C389.785 84.6248 389.259 84.5029 388.767 84.292C390.744 84.4724 392.737 84.2479 394.625 83.6323C396.649 82.9068 398.494 81.7572 400.038 80.2606C401.92 78.4093 403.51 76.283 404.753 73.9544C405.4 72.7213 406.177 71.561 407.071 70.4936C407.962 69.4352 409.186 68.7106 410.542 68.4386C411.772 68.3128 413.01 68.5771 414.081 69.1941C414.927 69.6717 415.891 69.9003 416.862 69.8536C417.538 69.7289 418.175 69.4442 418.718 69.0233C419.262 68.6024 419.697 68.0576 419.987 67.4344C420.2 66.95 420.364 66.445 420.475 65.9274Z" fill="#263238"/>
<path d="M422.622 76.2062C422.622 76.2062 422.958 76.1311 423.553 76.1602C424.417 76.1985 425.27 76.3706 426.081 76.6704C426.717 76.8966 427.286 77.2794 427.736 77.7835C428.185 78.2876 428.5 78.8968 428.652 79.5549C428.715 80.37 428.599 81.1889 428.312 81.9544C428.025 82.72 427.575 83.4137 426.993 83.9872C425.905 85.1649 424.491 85.9927 422.932 86.3652C421.659 86.6513 420.334 86.6129 419.08 86.2535C418.252 86.0161 417.473 85.6316 416.781 85.1183C416.3 84.7402 416.094 84.4771 416.115 84.4428C417.095 84.9942 418.135 85.4288 419.215 85.7377C420.387 85.9996 421.603 85.9852 422.767 85.6955C424.174 85.298 425.438 84.5053 426.408 83.4113C426.915 82.9134 427.315 82.316 427.58 81.6564C427.846 80.9969 427.972 80.2896 427.951 79.5789C427.827 79.0278 427.571 78.5149 427.206 78.0839C426.841 77.653 426.377 77.3167 425.854 77.1037C425.098 76.7803 424.31 76.5417 423.502 76.3923C422.946 76.3399 422.617 76.2514 422.622 76.2062Z" fill="#263238"/>
<path d="M436.735 355.061C436.779 355.257 405.179 352.936 366.304 349.868C327.429 346.8 295.858 344.148 295.926 343.927C295.995 343.706 327.483 346.053 366.372 349.117C405.261 352.181 436.738 354.81 436.735 355.061Z" fill="#263238"/>
<path d="M435.548 361.345C435.591 361.541 403.994 359.234 365.119 356.166C326.244 353.099 294.772 350.425 294.728 350.228C294.684 350.032 326.267 352.343 365.159 355.421C404.051 358.5 435.591 361.144 435.548 361.345Z" fill="#263238"/>
<path d="M435.116 368.049C435.157 368.232 403.56 365.924 364.685 362.856C325.81 359.789 294.239 357.137 294.307 356.915C294.375 356.694 325.846 359.03 364.738 362.109C403.63 365.187 435.128 367.841 435.116 368.049Z" fill="#263238"/>
<path d="M434.653 374.746C434.697 374.942 403.097 372.62 364.222 369.553C325.347 366.485 293.776 363.833 293.844 363.612C293.913 363.39 325.401 365.737 364.29 368.802C403.179 371.866 434.665 374.537 434.653 374.746Z" fill="#263238"/>
<path d="M434.148 381.452C434.122 381.663 402.595 379.34 363.717 376.258C324.839 373.177 293.271 370.539 293.343 370.332C293.414 370.124 324.932 372.406 363.827 375.498C402.722 378.591 434.217 381.23 434.148 381.452Z" fill="#263238"/>
<path d="M375.586 252.195C375.652 252.519 375.676 252.85 375.659 253.18C375.719 253.843 375.635 254.789 375.59 256.036C375.478 258.503 375.229 262.003 374.906 266.49C374.226 275.31 373.146 287.486 371.88 300.867C370.613 314.248 369.376 326.444 368.449 335.216C367.946 339.553 367.598 343.074 367.311 345.611C367.173 346.774 367.045 347.716 366.957 348.442C366.937 348.773 366.882 349.101 366.792 349.42C366.761 349.086 366.765 348.75 366.804 348.417L367.026 345.586C367.237 343.037 367.55 339.494 367.924 335.172L371.129 300.799C372.398 287.432 373.52 275.247 374.367 266.448C374.77 262.12 375.083 258.577 375.311 256.039C375.391 254.814 375.513 253.845 375.519 253.211C375.522 252.871 375.545 252.532 375.586 252.195V252.195Z" fill="#E0E0E0"/>
<path d="M396.368 156.724C396.412 156.921 395.449 157.091 394.314 157.08C393.178 157.068 392.255 156.892 392.254 156.686C392.252 156.48 393.173 156.319 394.322 156.327C395.472 156.336 396.367 156.519 396.368 156.724Z" fill="#263238"/>
<path d="M446.425 258.092C446.395 258.29 414.831 255.798 375.909 252.521C336.987 249.243 305.382 246.436 305.441 246.173C305.5 245.91 337.018 248.456 375.953 251.731C414.889 255.005 446.437 257.883 446.425 258.092Z" fill="#EBEBEB"/>
<path d="M381.18 322.162C381.43 321.897 381.75 321.708 382.103 321.617C383.063 321.299 384.102 321.311 385.054 321.65C385.779 321.884 386.429 322.305 386.938 322.871C387.447 323.438 387.797 324.129 387.952 324.874C388.172 325.795 388.103 326.762 387.753 327.643C387.404 328.523 386.79 329.274 385.997 329.792C385.205 330.311 384.271 330.572 383.324 330.539C382.377 330.507 381.464 330.182 380.708 329.611C380.075 329.166 379.572 328.559 379.254 327.853C378.936 327.147 378.814 326.369 378.901 325.599C378.969 324.599 379.376 323.653 380.053 322.914C380.273 322.619 380.578 322.397 380.926 322.277C380.926 322.277 380.651 322.56 380.285 323.097C379.731 323.833 379.416 324.72 379.381 325.639C379.345 326.294 379.48 326.946 379.771 327.534C380.062 328.121 380.499 328.623 381.041 328.992C381.687 329.469 382.463 329.738 383.265 329.762C384.068 329.785 384.858 329.563 385.531 329.125C386.203 328.686 386.726 328.053 387.028 327.309C387.33 326.565 387.397 325.747 387.221 324.964C387.102 324.319 386.817 323.717 386.396 323.215C385.974 322.714 385.43 322.33 384.816 322.101C383.974 321.756 383.048 321.671 382.156 321.856C381.493 322.048 381.196 322.232 381.18 322.162Z" fill="#E0E0E0"/>
<path d="M385.316 281.812C385.564 281.544 385.885 281.355 386.24 281.267C387.2 280.953 388.237 280.964 389.19 281.301C389.913 281.536 390.56 281.959 391.067 282.526C391.573 283.093 391.921 283.783 392.074 284.528C392.295 285.449 392.226 286.416 391.876 287.296C391.526 288.176 390.913 288.927 390.12 289.446C389.327 289.964 388.393 290.225 387.447 290.192C386.5 290.16 385.586 289.836 384.831 289.264C384.197 288.82 383.695 288.212 383.376 287.506C383.058 286.801 382.936 286.022 383.023 285.253C383.111 284.293 383.501 283.387 384.138 282.664C384.363 282.375 384.668 282.159 385.014 282.041C385.014 282.041 384.753 282.32 384.37 282.847C383.821 283.59 383.507 284.48 383.469 285.403C383.427 286.058 383.557 286.711 383.846 287.3C384.135 287.889 384.572 288.392 385.116 288.759C385.774 289.185 386.536 289.423 387.319 289.448C388.103 289.473 388.878 289.283 389.562 288.9C390.211 288.437 390.715 287.798 391.014 287.059C391.313 286.32 391.395 285.51 391.25 284.726C391.135 284.084 390.854 283.483 390.435 282.983C390.016 282.483 389.474 282.101 388.862 281.874C388.013 281.534 387.084 281.445 386.185 281.618C385.685 281.686 385.346 281.879 385.316 281.812Z" fill="#E0E0E0"/>
<path d="M351.816 225.609C352.066 225.345 352.386 225.156 352.739 225.065C353.699 224.747 354.737 224.758 355.69 225.098C356.414 225.331 357.064 225.753 357.573 226.319C358.082 226.885 358.432 227.576 358.587 228.322C358.808 229.243 358.739 230.21 358.389 231.09C358.039 231.97 357.426 232.721 356.633 233.24C355.84 233.758 354.907 234.019 353.96 233.987C353.013 233.954 352.1 233.63 351.344 233.058C350.71 232.614 350.208 232.006 349.89 231.301C349.572 230.595 349.45 229.816 349.536 229.047C349.605 228.047 350.011 227.1 350.688 226.361C350.909 226.066 351.213 225.845 351.562 225.725C351.562 225.725 351.3 226.004 350.918 226.531C350.369 227.274 350.056 228.164 350.016 229.087C349.981 229.741 350.115 230.394 350.406 230.981C350.697 231.569 351.135 232.071 351.677 232.439C352.322 232.917 353.098 233.185 353.901 233.209C354.703 233.233 355.494 233.01 356.166 232.572C356.839 232.134 357.361 231.5 357.663 230.756C357.966 230.013 358.033 229.194 357.857 228.411C357.737 227.767 357.453 227.164 357.032 226.663C356.61 226.161 356.066 225.777 355.452 225.548C354.61 225.203 353.683 225.118 352.792 225.303C352.241 225.47 351.845 225.676 351.816 225.609Z" fill="#E0E0E0"/>
<path d="M343.349 197.962C343.532 197.921 342.685 209.428 341.432 223.526C340.178 237.625 338.984 249.091 338.766 249.037C338.548 248.983 339.416 237.575 340.681 223.459C341.945 209.343 343.155 197.947 343.349 197.962Z" fill="#EBEBEB"/>
<g opacity="0.3">
<path opacity="0.3" d="M296.611 336.048C296.611 336.048 303.149 275.471 304.263 246.039C297.182 259.746 289.25 275.438 286.682 290.64C284.221 306.484 287.762 322.676 296.611 336.048V336.048Z" fill="black"/>
</g>
<path d="M322.114 475.374C320.254 475.798 318.634 476.935 317.604 478.541C316.573 480.146 316.214 482.092 316.603 483.96C316.993 485.828 318.1 487.468 319.686 488.528C321.272 489.589 323.211 489.984 325.086 489.629C326.961 489.275 328.621 488.198 329.711 486.632C330.8 485.066 331.231 483.134 330.912 481.253C330.592 479.372 329.547 477.692 328.001 476.574C326.455 475.455 324.532 474.988 322.645 475.273" fill="#FF725E"/>
</svg>
