<svg width="27" height="25" viewBox="0 0 27 25" fill="none" xmlns="http://www.w3.org/2000/svg">
<path d="M24.2398 14.8189L24.2398 14.8189C24.1734 15.1218 23.921 15.3162 23.6524 15.3162H11.1046C10.3093 15.3162 9.71204 16.0428 9.86599 16.8231C9.98271 17.4147 10.5016 17.8412 11.1046 17.8412H22.8166C23.1828 17.8412 23.4975 18.2052 23.404 18.6314C23.2027 19.5497 23.7148 20.3883 24.1418 20.9505C24.4219 21.3193 24.5905 21.7863 24.5905 22.2974C24.5905 23.5123 23.645 24.4662 22.5162 24.4662C21.3875 24.4662 20.442 23.5123 20.442 22.2974C20.442 21.805 20.2738 21.2376 19.9918 20.7857C19.7182 20.3471 19.2516 19.8912 18.6054 19.8912H13.1881C12.5419 19.8912 12.0753 20.3471 11.8017 20.7857C11.5198 21.2376 11.3515 21.805 11.3515 22.2974C11.3515 23.5123 10.406 24.4662 9.27729 24.4662C8.14855 24.4662 7.20305 23.5123 7.20305 22.2974C7.20305 21.6466 7.38693 20.98 7.5926 20.2345C7.62296 20.1245 7.65379 20.0127 7.68458 19.899C7.91289 19.0559 8.13607 18.1089 7.95004 17.1661L5.87936 6.6712C5.47178 4.60543 3.66016 3.11632 1.55457 3.11632C1.23823 3.11632 0.951324 2.84526 0.951324 2.47258V1.71009C0.951324 1.33741 1.23823 1.06635 1.55457 1.06635H6.26768C6.54078 1.06635 6.79683 1.26755 6.85799 1.57762L6.858 1.57765C7.14908 3.0529 8.44283 4.11632 9.94652 4.11632H25.8255C26.1917 4.11632 26.5063 4.48029 26.4129 4.90647L24.2398 14.8189Z" fill="#1D2225" stroke="white"/>
</svg>
