<svg width="26" height="24" viewBox="0 0 26 24" fill="none" xmlns="http://www.w3.org/2000/svg">
<path d="M14.0822 2.98719L14.082 2.98743L13.1232 4.04604L12.7526 4.45519L12.382 4.04604L11.4232 2.98743L11.4226 2.98682C9.13971 0.458017 5.48454 0.0880814 3.04905 2.31154C0.200414 4.91653 0.0451308 9.6182 2.60091 12.4491L12.0186 22.868C12.0186 22.868 12.0186 22.8681 12.0187 22.8681C12.4285 23.3212 13.0718 23.3212 13.4816 22.8681C13.4817 22.8681 13.4817 22.868 13.4817 22.868L22.8996 12.4489L22.8997 12.4488C25.4599 9.61803 25.3047 4.91681 22.4564 2.3118L14.0822 2.98719ZM14.0822 2.98719C16.3703 0.457711 20.0208 0.0882603 22.4561 2.31154L14.0822 2.98719Z" fill="#BA68C8" stroke="#FADEFF"/>
</svg>
