<svg width="24" height="24" viewBox="0 0 24 24" fill="none" xmlns="http://www.w3.org/2000/svg">
<path d="M22.2857 0H1.70893C0.766071 0 0 0.776786 0 1.73036V22.2696C0 23.2232 0.766071 24 1.70893 24H22.2857C23.2286 24 24 23.2232 24 22.2696V1.73036C24 0.776786 23.2286 0 22.2857 0ZM7.25357 20.5714C5.28902 20.5714 3.69643 18.9788 3.69643 17.0143V10.8991C3.69643 9.91535 4.49392 9.11786 5.47768 9.11786C6.46144 9.11786 7.25893 9.91535 7.25893 10.8991V20.5661C7.25893 20.569 7.25653 20.5714 7.25357 20.5714ZM5.475 7.55357C4.33393 7.55357 3.4125 6.62679 3.4125 5.49107C3.4125 4.35536 4.33393 3.42857 5.475 3.42857C6.61071 3.42857 7.5375 4.35536 7.5375 5.49107C7.5375 6.63214 6.61607 7.55357 5.475 7.55357ZM20.5875 18.7929C20.5875 19.7751 19.7912 20.5714 18.8089 20.5714C17.8267 20.5714 17.0304 19.7751 17.0304 18.7929V15C17.0304 13.6714 17.0036 11.9625 15.1821 11.9625C13.3286 11.9625 13.0446 13.4089 13.0446 14.9036V18.7929C13.0446 19.7751 12.2483 20.5714 11.2661 20.5714C10.2838 20.5714 9.4875 19.7751 9.4875 18.7929V10.8241C9.4875 9.88177 10.2514 9.11786 11.1937 9.11786H12.1179C12.5498 9.11786 12.9 9.46803 12.9 9.9V10.652C12.9 10.6687 12.9135 10.6821 12.9301 10.6821C12.9412 10.6821 12.9514 10.6761 12.9567 10.6663C13.4387 9.77105 14.5976 8.83393 16.3179 8.83393C19.9179 8.83393 20.5875 11.2071 20.5875 14.2929V18.7929Z" fill="white"/>
</svg>
